/* XPM */
static char *_1be8488a5354fd78d7f56aec48bf4257f5awL4SjWqzfTmA[] = {
/* columns rows colors chars-per-pixel */
"64 64 2 1 ",
"  c black",
". c #8FB2EA",
/* pixels */
"................................................................",
"................................................................",
"................................................................",
"................................................................",
"................................................................",
"................................................................",
"................................................................",
"................................................................",
"................................................................",
"................................................................",
"................................................................",
".................                                ...............",
".................                                ...............",
".................                                ...............",
".................                                ...............",
".................                                ...............",
".................                                ...............",
".................                                ...............",
".................                                ...............",
".................        .......................................",
".................        .......................................",
".................        .......................................",
".................        .......................................",
".................        .......................................",
".................        .......................................",
".................        .......................................",
".................        .......................................",
".................                        .......................",
".................                        .......................",
".................                        .......................",
".................                        .......................",
".................                        .......................",
".................                        .......................",
".................                        .......................",
".................                        .......................",
".................        .......................................",
".................        .......................................",
".................        .......................................",
".................        .......................................",
".................        .......................................",
".................        .......................................",
".................        .......................................",
".................        .......................................",
".................                                ...............",
".................                                ...............",
".................                                ...............",
".................                                ...............",
".................                                ...............",
".................                                ...............",
".................                                ...............",
".................                                ...............",
"................................................................",
"................................................................",
"................................................................",
"................................................................",
"................................................................",
"................................................................",
"................................................................",
"................................................................",
"................................................................",
"................................................................",
"................................................................",
"................................................................",
"................................................................"
};