/* XPM */
static char *b32a21dc71524a90c26459748a08f2c8lagSgsVKYKzMrF5m[] = {
/* columns rows colors chars-per-pixel */
"64 64 2 1 ",
"  c black",
". c #F5E49C",
/* pixels */
"................................................................",
"................................................................",
"................................................................",
"................................................................",
"................................................................",
"................................................................",
"................................................................",
"................................................................",
"................................................................",
"................................................................",
"................................................................",
"................................................................",
"...............        ........................        .........",
"...............        ........................        .........",
"...............        ........................        .........",
"...............        ........................        .........",
"...............        ........................        .........",
"...............        ........................        .........",
"...............        ........................        .........",
"...............        ........................        .........",
"...............                ................        .........",
"...............                ................        .........",
"...............                ................        .........",
"...............                ................        .........",
"...............                ................        .........",
"...............                ................        .........",
"...............                ................        .........",
"...............                ................        .........",
"...............        ........        ........        .........",
"...............        ........        ........        .........",
"...............        ........        ........        .........",
"...............        ........        ........        .........",
"...............        ........        ........        .........",
"...............        ........        ........        .........",
"...............        ........        ........        .........",
"...............        ........        ........        .........",
"...............        ................                .........",
"...............        ................                .........",
"...............        ................                .........",
"...............        ................                .........",
"...............        ................                .........",
"...............        ................                .........",
"...............        ................                .........",
"...............        ................                .........",
"...............        ........................        .........",
"...............        ........................        .........",
"...............        ........................        .........",
"...............        ........................        .........",
"...............        ........................        .........",
"...............        ........................        .........",
"...............        ........................        .........",
"...............        ........................        .........",
"................................................................",
"................................................................",
"................................................................",
"................................................................",
"................................................................",
"................................................................",
"................................................................",
"................................................................",
"................................................................",
"................................................................",
"................................................................",
"................................................................"
};