/* XPM */
static char *_93fcbfa80374c32cca01c6ba5f7beefdIfQi0WTebj32ssk[] = {
/* columns rows colors chars-per-pixel */
"64 64 2 1 ",
"  c black",
". c #5DB51F",
/* pixels */
"................................................................",
"................................................................",
"................................................................",
"................................................................",
"................................................................",
"................................................................",
"................................................................",
"..............                                       ...........",
"..............                                       ...........",
"..............                                       ...........",
"..............                                       ...........",
"..............                                       ...........",
"..............                                       ...........",
"..............                                       ...........",
"..............                                       ...........",
"..............                                       ...........",
"..............                                       ...........",
"..............          ........................................",
"..............          ........................................",
"..............          ........................................",
"..............          ........................................",
"..............          ........................................",
"..............          ........................................",
"..............          ........................................",
"..............          ........................................",
"..............          ........................................",
"..............                                       ...........",
"..............                                       ...........",
"..............                                       ...........",
"..............                                       ...........",
"..............                                       ...........",
"..............                                       ...........",
"..............                                       ...........",
"..............                                       ...........",
"..............                                       ...........",
"..............                                       ...........",
"...........................................          ...........",
"...........................................          ...........",
"...........................................          ...........",
"...........................................          ...........",
"...........................................          ...........",
"...........................................          ...........",
"...........................................          ...........",
"...........................................          ...........",
"...........................................          ...........",
"..............                                       ...........",
"..............                                       ...........",
"..............                                       ...........",
"..............                                       ...........",
"..............                                       ...........",
"..............                                       ...........",
"..............                                       ...........",
"..............                                       ...........",
"..............                                       ...........",
"..............                                       ...........",
"................................................................",
"................................................................",
"................................................................",
"................................................................",
"................................................................",
"................................................................",
"................................................................",
"................................................................",
"................................................................"
};
