/* XPM */
static char *f04cce9f220a4892973469f3e1799cbf1txehsXYanauquTM[] = {
/* columns rows colors chars-per-pixel */
"64 64 2 1 ",
"  c black",
". c #BA65BA",
/* pixels */
"................................................................",
"................................................................",
"................................................................",
"................................................................",
"................................................................",
"................................................................",
"................................................................",
"................................................................",
"................................................................",
"................................................................",
".............        ........................        ...........",
".............        ........................        ...........",
".............        ........................        ...........",
".............        ........................        ...........",
".............        ........................        ...........",
".............        ........................        ...........",
".............        ........................        ...........",
".............        ........................        ...........",
".............        ........................        ...........",
".............        ........................        ...........",
".............        ........................        ...........",
".............        ........................        ...........",
".............        ........................        ...........",
".............        ........................        ...........",
".............        ........................        ...........",
".............        ........................        ...........",
".............        ........        ........        ...........",
".............        ........        ........        ...........",
".............        ........        ........        ...........",
".............        ........        ........        ...........",
".............        ........        ........        ...........",
".............        ........        ........        ...........",
".............        ........        ........        ...........",
".............        ........        ........        ...........",
".............                ........                ...........",
".............                ........                ...........",
".............                ........                ...........",
".............                ........                ...........",
".............                ........                ...........",
".............                ........                ...........",
".............                ........                ...........",
".............                ........                ...........",
".............        ........................        ...........",
".............        ........................        ...........",
".............        ........................        ...........",
".............        ........................        ...........",
".............        ........................        ...........",
".............        ........................        ...........",
".............        ........................        ...........",
".............        ........................        ...........",
"................................................................",
"................................................................",
"................................................................",
"................................................................",
"................................................................",
"................................................................",
"................................................................",
"................................................................",
"................................................................",
"................................................................",
"................................................................",
"................................................................",
"................................................................",
"................................................................"
};