/* XPM */
static char *result[] = {
/* columns rows colors chars-per-pixel */
"64 64 119 2 ",
"   c black",
".  c #0C0201",
"X  c #0F0201",
"o  c #110301",
"O  c #130302",
"+  c #1B0402",
"@  c #1B0502",
"#  c #1E0502",
"$  c #200503",
"%  c #290703",
"&  c #2B0703",
"*  c #2E0803",
"=  c #360904",
"-  c #390A04",
";  c #3C0A04",
":  c #3E0A04",
">  c #3F0B05",
",  c #400B05",
"<  c #470B04",
"1  c #470B05",
"2  c #470B06",
"3  c #440C05",
"4  c #450C05",
"5  c #460D04",
"6  c #470C05",
"7  c #470C06",
"8  c #480B04",
"9  c #480B06",
"0  c #480C04",
"q  c #480D05",
"w  c #4A0C05",
"e  c #480D06",
"r  c #4D0D05",
"t  c #510E06",
"y  c #530E06",
"u  c #540E06",
"i  c #560E06",
"p  c #560F06",
"a  c #570F06",
"s  c #590F06",
"d  c #5B0F06",
"f  c #5C0F06",
"g  c #551004",
"h  c #5B1005",
"j  c #5E1007",
"k  c #5F1007",
"l  c #601007",
"z  c #621007",
"x  c #631007",
"c  c #651107",
"v  c #661107",
"b  c #681107",
"n  c #691108",
"m  c #6C1208",
"M  c #6E1208",
"N  c #701308",
"B  c #711308",
"V  c #731308",
"C  c #751409",
"Z  c #771408",
"A  c #781409",
"S  c #791409",
"D  c #7A1408",
"F  c #7A1409",
"G  c #7D1509",
"H  c #7E1509",
"J  c #821509",
"K  c #84160A",
"L  c #86160A",
"P  c #89170A",
"I  c #8B170A",
"U  c #8C170A",
"Y  c #8E180A",
"T  c #93190B",
"R  c #95190B",
"E  c #97190B",
"W  c #99190B",
"Q  c #9A1A0B",
"!  c #9B1A0C",
"~  c #9D1A0C",
"^  c #9E1A0C",
"/  c #9E1B0C",
"(  c #9F1B0C",
")  c #A01B0C",
"_  c #A11B0C",
"`  c #A41B0C",
"'  c #A51C0C",
"]  c #A71C0C",
"[  c #A81C0C",
"{  c #AC1C0C",
"}  c #AD1D0D",
"|  c #AE1D0D",
" . c #B21E0D",
".. c #B21E0E",
"X. c #B41E0D",
"o. c #B51E0D",
"O. c #B41F0D",
"+. c #B61E0D",
"@. c #BD1F0E",
"#. c #C3200E",
"$. c #C5210E",
"%. c #C9210F",
"&. c #CA210F",
"*. c #D3230F",
"=. c #D4230F",
"-. c #C92010",
";. c #D42310",
":. c #D52310",
">. c #DB2410",
",. c #DF2510",
"<. c #E12510",
"1. c #E32510",
"2. c #E62611",
"3. c #E82611",
"4. c #EB2711",
"5. c #ED2711",
"6. c #F02711",
"7. c #FA2912",
"8. c None",
/* pixels */
"8.8.8.8.8.8.8.8.8.8.8.8.8.8.8.8.8.8.8.8.8.8.8.8.8.8.8.8.8.8.8.8.8.8.8.8.8.8.8.8.8.8.8.8.8.8.8.8.8.8.8.8.8.8.8.8.8.8.8.8.8.8.8.8.",
"8.8.8.8.8.8.8.8.8.8.8.8.8.8.8.  $ - - - - - - - - - - - - - - - - - - - - - - - - - - - - - = X 8.8.8.8.8.8.8.8.8.8.8.8.8.8.8.8.",
"8.8.8.8.8.8.8.8.8.8.8.8.8.8.8.  K 3.3.3.3.3.3.3.3.3.3.3.3.3.3.3.3.3.3.3.3.3.3.3.3.3.3.3.3.3.,.; 8.8.8.8.8.8.8.8.8.8.8.8.8.8.8.8.",
"8.8.8.8.8.8.8.8.8.8.8.8.8.8.8.  K 3.3.3.3.3.3.3.3.3.3.3.3.3.3.3.3.3.3.3.3.3.3.3.3.3.3.3.3.3.,.; 8.8.8.8.8.8.8.8.8.8.8.8.8.8.8.8.",
"8.8.8.8.8.8.8.8.8.8.8.8.8.8.8.  % 6 6 6 6 6 6 6 6 6 6 6 6 6 6 6 6 6 6 6 M 4.7.7.7.1.v 6 6 6 3 O 8.8.8.8.8.8.8.8.8.8.8.8.8.8.8.8.",
"8.8.8.8.8.8.8.8.8.8.8.8.8.8.8.  % 6 [ [ [ D 6 ) f 6 6 6 6 6 6 6 6 [ [ 6 M 4.7.7.7.1.v 6 B [ _ & 8.8.8.8.8.8.8.8.8.8.8.8.8.8.8.8.",
"8.8.8.8.8.8.8.8.8.8.8.8.8.8.8.  % 6 7.7.7.' 6 4.M 6 6 6 6 6 6 6 6 7.7.6 M 4.7.7.7.1.v 6 R 7.6., 8.8.8.8.8.8.8.8.8.8.8.8.8.8.8.8.",
"8.8.8.8.8.8.8.8.8.8.8.8.8.8.8.  % 6 7.7.z / ,.k r 6 6 6 6 6 6 6 6 7.7.6 M 4.7.7.7.1.v 6 R 7.6., 8.8.8.8.8.8.8.8.8.8.8.8.8.8.8.8.",
"8.8.8.8.8.8.8.8.8.8.8.8.8.8.8.  % 6 7.7.,.` z *.b 6 6 6 6 6 6 6 6 7.7.6 M 4.7.7.7.1.v 6 R 7.6., 8.8.8.8.8.8.8.8.8.8.8.8.8.8.8.8.",
"8.8.8.8.8.8.8.8.8.8.8.8.8.8.8.  % 6 7.7.,.` z *.b 6 6 6 6 6 6 6 6 7.7.6 M 4.7.7.7.1.v 6 R 7.6., 8.8.8.8.8.8.8.8.8.8.8.8.8.8.8.8.",
"8.8.8.8.8.8.8.8.8.8.8.8.8.8.8.  % 6 7.7.6 ~ 7.6 6 6 6 6 6 6 6 6 6 7.7.6 M 4.7.7.7.1.v 6 R 7.6., 8.8.8.8.8.8.8.8.8.8.8.8.8.8.8.8.",
"8.8.8.8.8.8.8.8.8.8.8.8.8.8.8.  % 6 7.7.Q _ [ T s 6 6 6 6 6 6 6 6 7.7.6 M 4.7.7.7.1.v 6 R 7.6., 8.8.8.8.8.8.8.8.8.8.8.8.8.8.8.8.",
"8.8.8.8.8.8.8.8.8.8.8.8.8.8.8.  % 6 7.7.Q _ [ T s 6 6 6 6 6 6 6 6 7.7.6 M 4.7.7.7.1.v 6 R 7.6., 8.8.8.8.8.8.8.8.8.8.8.8.8.8.8.8.",
"8.8.8.8.8.8.8.8.8.8.8.8.8.8.8.  % 6 7.7.Z ( &.V t 6 6 6 6 6 6 6 6 7.7.6 M 4.7.7.7.1.v 6 R 7.6., 8.8.8.8.8.8.8.8.8.8.8.8.8.8.8.8.",
"8.8.8.8.8.8.8.8.8.8.8.8.8.8.8.  % 6 7.7.Z ( &.V t 6 6 6 6 6 6 6 6 7.7.6 M 4.7.7.7.1.v 6 R 7.6., 8.8.8.8.8.8.8.8.8.8.8.8.8.8.8.8.",
"8.8.8.8.8.8.8.8.8.8.8.8.8.8.8.  % 6 7.7.u ^ 5.y w 6 6 6 6 6 6 6 6 7.7.6 M 4.7.7.7.1.v 6 R 7.6., 8.8.8.8.8.8.8.8.8.8.8.8.8.8.8.8.",
"8.8.8.8.8.8.8.8.8.8.8.8.8.8.8.  % 6 7.7.7.' 6 4.M 6 6 6 6 6 6 6 6 7.7.6 M 4.7.7.7.1.v 6 R 7.6., 8.8.8.8.8.8.8.8.8.8.8.8.8.8.8.8.",
"8.8.8.8.8.8.8.8.8.8.8.8.8.8.8.  % 6 7.7.6 ~ 7.6 6 6 6 6 6 6 6 6 6 7.7.6 M 4.7.7.7.1.v 6 R 7.6., 8.8.8.8.8.8.8.8.8.8.8.8.8.8.8.8.",
"8.8.8.8.8.8.8.8.8.8.8.8.8.8.8.8.% 6 7.7.U ) +.L i 6 6 6 6 6 6 6 6 7.7.6 M 4.7.7.7.1.v 6 R 7.6.8.8.                            8.",
"8.8.8.8.8.8.8.8.8.8.8.8.8.8.8.8.o # n n n 4 # x * # # # # # # # # n n # * x n n n l & # > n c @ % % % % % % % % % % % % K K $ 8.",
"8.8.8.8.8.8.8.8.8.8.8.8.8.8.8.8.o # n n n 4 # x * # # # # # # # # n n # * x n n n l & # > n c @ 6 6 6 6 6 6 6 6 6 6 6 6 3.3.- 8.",
". . . . . . . . . . . . . . .                                                           n n 7.7.7.7.7.7.7.7.7.7.7.7.[ 6 3.3.- 8.",
": : : : : : : : : : : : : : : : +                                                       n n 7.7.7.7.7.7.7.7.7.7.7.7.[ 6 3.3.- 8.",
"7.7.7.7.7.7.7.7.7.7.7.7.7.7.7.7.7.7.7.7.7.7.7.p =.6 6 6 6 6 6 6 6 6 7.7.7.7.7.7.7.7.    n n U 6 7.u u Z Q 6 ,.z z 7.[ 6 3.3.- 8.",
"7.7.7.7.7.7.7.7.7.7.7.7.7.7.7.7.7.7.7.7.7.7.7. .R +.I 6 6 6 6 6 6 6 7.7.7.7.7.7.7.7.    4 4 ) ~ ' ^ ^ ( _ ~ ` / / ' D 6 3.3.- 8.",
"7.7.7.7.7.7.7.7.7.7.7.7.7.7.7.7.7.7.7.7.7.7.7.4.M 7.X.6 6 6 6 6 6 6 7.7.7.7.7.7.7.7.    # # +.7.6 5.5.&.[ 7.z ,.,.6 6 6 3.3.- 8.",
":.m v 4.] p #.<.A p 4. .p { 4.K p 4.! p >.:.m p =.6 6 6 6 6 6 6 6 6 p 4. .p { 4.K p     x x L 6 4.y y V T 6 *.k k 4.) 6 3.3.- 8.",
"G $.%.M ~ =.P C @.=.M R =.W M o.=.M ' =.S G $.%.M ~ =.6 6 6 6 6 6 6 =.M R =.W M o.=.    * * i 6 M w w t s 6 b r r M f 6 3.3.- 8.",
",.z d 7.[ 6 &.5.N 6 7.+.6 | 7.H 6 7.Q 6 2.,.z d 7.[ 6 6 6 6 6 6 6 6 6 7.+.6 | 7.H 6     # # 6 6 6 6 6 6 6 6 6 6 6 6 6 6 3.3.- 8.",
"` a y X.J 6 E } l 6 X.I 6 L X.b 6 X.F 6 [ ` a y X.J 6 6 6 6 6 6 6 6 6 X.I 6 L X.b 6     # # 6 6 6 6 6 6 6 6 6 6 6 6 6 6 3.3.- 8.",
"6 6 6 6 6 6 6 6 6 6 6 6 6 6 6 6 6 6 6 6 6 6 6 6 6 6 6 6 6 6 6 6 6 6 6 6 6 6 6 6 6 6     # # 6 6 6 6 6 6 6 6 6 6 6 6 6 6 3.3.- 8.",
"6 6 6 6 6 6 6 6 6 6 6 6 6 6 6 6 6 6 6 6 6 6 6 6 6 6 6 6 6 6 6 6 6 6 6 6 6 6 6 6 6 6     # # 6 6 6 6 6 6 6 6 6 6 6 6 6 6 3.3.- 8.",
"6 6 6 6 6 6 6 6 6 6 6 6 6 6 6 6 6 6 6 6 6 6 6 6 6 6 6 6 6 6 6 6 6 6 6 6 6 6 6 6 6 6     # # 6 6 6 6 6 6 6 6 6 6 6 6 6 6 3.3.- 8.",
"6 6 6 6 6 6 6 6 6 6 6 6 6 6 6 6 6 6 6 6 6 6 6 6 6 6 6 6 6 6 6 9 6 6 6 6 6 6 6 6 6 6     # # 6 6 6 6 6 6 6 6 6 6 6 6 6 6 3.3.- 8.",
"6 6 6 6 6 6 6 6 6 6 6 6 6 6 6 6 6 6 6 6 6 6 6 6 6 6 6 6 6 6 6 6 6 q 2 8 6 6 6 6 6 6     # # 6 6 6 6 6 6 6 6 6 6 6 6 6 6 3.3.- 8.",
"6 6 6 6 6 6 6 6 6 6 6 6 6 6 6 6 6 6 6 6 6 6 6 6 6 6 6 6 6 6 < 6 6 6 6 6 6 6 5 6 6 6     # # 6 6 6 6 6 6 6 6 6 6 6 6 6 6 3.3.- 8.",
"6 6 6 6 6 6 6 6 6 6 6 6 6 6 6 6 6 6 6 6 6 6 6 6 6 6 6 6 6 6 e 6 6 6 6 6 6 6 6 J O.y     n n 7.7.7.7.7.7.7.7.7.7.7.7.[ 6 3.3.- 8.",
"X.X.X.X.X.X.X.X.X.X.X.X.X.X.X.X.X.X.X.X.X.X.X.X.X.X.X.X.X.6 6 6 6 6 6 6 6 =.[ [ 7.h     n n 7.7.7.7.7.7.7.7.7.7.7.7.[ 6 3.3.- 8.",
"7.7.7.7.7.7.7.7.7.7.7.7.7.7.7.7.7.7.7.7.7.7.7.7.7.7.7.7.7.6 6 6 6 6 6 6 6 6 ~ M %.-.    # # 6 6 6 6 6 6 6 6 6 6 6 6 6 6 3.3.- 8.",
"7.7.7.7.7.7.7.7.7.7.7.7.7.7.7.7.7.7.7.7.7.7.7.7.7.7.7.7.7.2 6 6 6 6 6 6 6 X.6 =.p 7.    * * M M M M M M M M M M M M M M 3.3.- 8.",
"7.7.7.7.7.7.7.7.7.7.7.7.7.7.7.7.7.7.7.7.7.7.7.7.7.7.7.7.7.1 q 6 6 6 6 6 6 I 7.M 4.7.    x x 4.4.4.4.4.4.4.4.4.4.4.4.4.4.3.3.- 8.",
"7.7.7.7.7.7.7.7.7.7.7.7.7.7.7.7.7.7.7.7.7.7.7.7.7.7.7.7.7.6 6 6 9 1 8 1 6 6 R  ...7.    n n 7.7.7.7.7.7.7.7.7.7.7.7.7.7.3.3.- 8.",
"~ ~ ~ ~ ~ ~ ~ ~ ~ ~ ~ ~ ~ ~ ~ ~ ~ ~ ~ ~ ~ ~ ~ ~ ~ ~ ~ ~ ~ 6 6 6 6 6 6 6 0 7 ;.p g ~     n n 7.7.7.7.7.7.7.7.7.7.7.7.7.7.3.3.- 8.",
"6 6 6 6 6 6 6 6 6 6 6 6 6 6 6 @ c n > # & l n n n x * # n n # # # # # # # # * x # 4 n n n # o 7.7.7.7.7.7.7.7.7.7.7.7.7.3.3.- 8.",
"j j j j j j j j j j j j j j % @ c n > # & l n n n x * # n n # # # # # # # # * x # 4 n n n # o 1.1.1.1.1.1.1.1.1.1.1.1.1.3.3.- 8.",
">.>.>.>.>.>.>.>.>.>.>.>.>.>.>.>.6.7.R 6 v 1.7.7.7.4.M 6 7.7.6 6 6 6 6 6 6 6 i L +.) U 7.7.6 % v v v v v v v v v v v v v 3.3.- 8.",
"7.7.7.7.7.7.7.7.7.7.7.7.7.7.7., 6.7.R 6 v 1.7.7.7.4.M 6 7.7.6 6 6 6 6 6 6 6 6 6 7.~ 6 7.7.6 %   6 6 6 6 6 6 6 6 6 6 6 6 3.3.- 8.",
"Y Y Y Y Y Y Y Y Y Y Y Y Y Y Y , 6.7.R 6 v 1.7.7.7.4.M 6 7.7.6 6 6 6 6 6 6 6 M 4.6 ' 7.7.7.6 %   R R R R R R R R R R B 6 3.3.- 8.",
"8.8.8.8.8.8.8.8.8.8.8.8.8.8.8., 6.7.R 6 v 1.7.7.7.4.M 6 7.7.6 6 6 6 6 6 6 6 w y 5.^ u 7.7.6 %   7.7.7.7.7.7.7.7.7.7.[ 6 3.3.- 8.",
"8.8.8.8.8.8.8.8.8.8.8.8.8.8.8., 6.7.R 6 v 1.7.7.7.4.M 6 7.7.6 6 6 6 6 6 6 6 t V &.( Z 7.7.6 %   6.6.6.6.6.6.6.6.6.6._ 3 ,.,.= 8.",
"8.8.8.8.8.8.8.8.8.8.8.8.8.8.8., 6.7.R 6 v 1.7.7.7.4.M 6 7.7.6 6 6 6 6 6 6 6 t V &.( Z 7.7.6 % 8.8., , , , , , , , , & O ; ; X 8.",
"8.8.8.8.8.8.8.8.8.8.8.8.8.8.8., 6.7.R 6 v 1.7.7.7.4.M 6 7.7.6 6 6 6 6 6 6 6 s T [ _ Q 7.7.6 %   8.8.8.8.8.8.8.8.8.8.8.8.8.8.8.8.",
"8.8.8.8.8.8.8.8.8.8.8.8.8.8.8., 6.7.R 6 v 1.7.7.7.4.M 6 7.7.6 6 6 6 6 6 6 6 s T [ _ Q 7.7.6 %   8.8.8.8.8.8.8.8.8.8.8.8.8.8.8.8.",
"8.8.8.8.8.8.8.8.8.8.8.8.8.8.8., 6.7.R 6 v 1.7.7.7.4.M 6 7.7.6 6 6 6 6 6 6 6 6 6 7.~ 6 7.7.6 %   8.8.8.8.8.8.8.8.8.8.8.8.8.8.8.8.",
"8.8.8.8.8.8.8.8.8.8.8.8.8.8.8., 6.7.R 6 v 1.7.7.7.4.M 6 7.7.6 6 6 6 6 6 6 6 b *.z ` ,.7.7.6 %   8.8.8.8.8.8.8.8.8.8.8.8.8.8.8.8.",
"8.8.8.8.8.8.8.8.8.8.8.8.8.8.8., 6.7.R 6 v 1.7.7.7.4.M 6 7.7.6 6 6 6 6 6 6 6 b *.z ` ,.7.7.6 %   8.8.8.8.8.8.8.8.8.8.8.8.8.8.8.8.",
"8.8.8.8.8.8.8.8.8.8.8.8.8.8.8., 6.7.R 6 v 1.7.7.7.4.M 6 7.7.6 6 6 6 6 6 6 6 r k ,./ z 7.7.6 %   8.8.8.8.8.8.8.8.8.8.8.8.8.8.8.8.",
"8.8.8.8.8.8.8.8.8.8.8.8.8.8.8., 6.7.R 6 v 1.7.7.7.4.M 6 7.7.6 6 6 6 6 6 6 6 M 4.6 ' 7.7.7.6 %   8.8.8.8.8.8.8.8.8.8.8.8.8.8.8.8.",
"8.8.8.8.8.8.8.8.8.8.8.8.8.8.8.& _ [ B 6 v 1.7.7.7.4.M 6 [ [ 6 6 6 6 6 6 6 6 f ) 6 D [ [ [ 6 %   8.8.8.8.8.8.8.8.8.8.8.8.8.8.8.8.",
"8.8.8.8.8.8.8.8.8.8.8.8.8.8.8.O 3 6 6 6 v 1.7.7.7.4.M 6 6 6 6 6 6 6 6 6 6 6 6 6 6 6 6 6 6 6 %   8.8.8.8.8.8.8.8.8.8.8.8.8.8.8.8.",
"8.8.8.8.8.8.8.8.8.8.8.8.8.8.8.; ,.3.3.3.3.3.3.3.3.3.3.3.3.3.3.3.3.3.3.3.3.3.3.3.3.3.3.3.3.3.K   8.8.8.8.8.8.8.8.8.8.8.8.8.8.8.8.",
"8.8.8.8.8.8.8.8.8.8.8.8.8.8.8.; ,.3.3.3.3.3.3.3.3.3.3.3.3.3.3.3.3.3.3.3.3.3.3.3.3.3.3.3.3.3.K   8.8.8.8.8.8.8.8.8.8.8.8.8.8.8.8.",
"8.8.8.8.8.8.8.8.8.8.8.8.8.8.8.X = - - - - - - - - - - - - - - - - - - - - - - - - - - - - - $   8.8.8.8.8.8.8.8.8.8.8.8.8.8.8.8.",
"8.8.8.8.8.8.8.8.8.8.8.8.8.8.8.8.8.8.8.8.8.8.8.8.8.8.8.8.8.8.8.8.8.8.8.8.8.8.8.8.8.8.8.8.8.8.8.8.8.8.8.8.8.8.8.8.8.8.8.8.8.8.8.8."
};
