/* XPM */
static char *result[] = {
/* columns rows colors chars-per-pixel */
"64 64 119 2 ",
"   c black",
".  c #0C0201",
"X  c #0F0201",
"o  c #110301",
"O  c #130302",
"+  c #1B0402",
"@  c #1B0502",
"#  c #1E0502",
"$  c #200503",
"%  c #290703",
"&  c #2B0703",
"*  c #2E0803",
"=  c #360904",
"-  c #390A04",
";  c #3C0A04",
":  c #3E0A04",
">  c #3F0B05",
",  c #400B05",
"<  c #470B04",
"1  c #470B05",
"2  c #470B06",
"3  c #440C05",
"4  c #450C05",
"5  c #460D04",
"6  c #470C05",
"7  c #470C06",
"8  c #480B04",
"9  c #480B06",
"0  c #480C04",
"q  c #480D05",
"w  c #4A0C05",
"e  c #480D06",
"r  c #4D0D05",
"t  c #510E06",
"y  c #530E06",
"u  c #540E06",
"i  c #560E06",
"p  c #560F06",
"a  c #570F06",
"s  c #590F06",
"d  c #5B0F06",
"f  c #5C0F06",
"g  c #551004",
"h  c #5B1005",
"j  c #5E1007",
"k  c #5F1007",
"l  c #601007",
"z  c #621007",
"x  c #631007",
"c  c #651107",
"v  c #661107",
"b  c #681107",
"n  c #691108",
"m  c #6C1208",
"M  c #6E1208",
"N  c #701308",
"B  c #711308",
"V  c #731308",
"C  c #751409",
"Z  c #771408",
"A  c #781409",
"S  c #791409",
"D  c #7A1408",
"F  c #7A1409",
"G  c #7D1509",
"H  c #7E1509",
"J  c #821509",
"K  c #84160A",
"L  c #86160A",
"P  c #89170A",
"I  c #8B170A",
"U  c #8C170A",
"Y  c #8E180A",
"T  c #93190B",
"R  c #95190B",
"E  c #97190B",
"W  c #99190B",
"Q  c #9A1A0B",
"!  c #9B1A0C",
"~  c #9D1A0C",
"^  c #9E1A0C",
"/  c #9E1B0C",
"(  c #9F1B0C",
")  c #A01B0C",
"_  c #A11B0C",
"`  c #A41B0C",
"'  c #A51C0C",
"]  c #A71C0C",
"[  c #A81C0C",
"{  c #AC1C0C",
"}  c #AD1D0D",
"|  c #AE1D0D",
" . c #B21E0D",
".. c #B21E0E",
"X. c #B41E0D",
"o. c #B51E0D",
"O. c #B41F0D",
"+. c #B61E0D",
"@. c #BD1F0E",
"#. c #C3200E",
"$. c #C5210E",
"%. c #C9210F",
"&. c #CA210F",
"*. c #D3230F",
"=. c #D4230F",
"-. c #C92010",
";. c #D42310",
":. c #D52310",
">. c #DB2410",
",. c #DF2510",
"<. c #E12510",
"1. c #E32510",
"2. c #E62611",
"3. c #E82611",
"4. c #EB2711",
"5. c #ED2711",
"6. c #F02711",
"7. c #FA2912",
"8. c None",
/* pixels */
"8.8.8.8.8.8.8.8.8.8.8.8.8.8.8.8.8.8.8.8.8.8.8.8.8.8.8.8.8.8.8.8.8.8.8.8.8.8.8.8.8.8.8.8.8.8.8.8.8.8.8.8.8.8.8.8.8.8.8.8.8.8.8.8.",
"8.8.8.8.8.8.8.8.8.8.8.8.8.8.8.8.8.8.  $ - - - - - - - - - - - - - - - - - - - - - - - - - - - - - = X 8.8.8.8.8.8.8.8.8.8.8.8.8.",
"8.8.8.8.8.8.8.8.8.8.8.8.8.8.8.8.8.8.  K 3.3.3.3.3.3.3.3.3.3.3.3.3.3.3.3.3.3.3.3.3.3.3.3.3.3.3.3.3.,.; 8.8.8.8.8.8.8.8.8.8.8.8.8.",
"8.8.8.8.8.8.8.8.8.8.8.8.8.8.8.8.8.8.  K 3.3.3.3.3.3.3.3.3.3.3.3.3.3.3.3.3.3.3.3.3.3.3.3.3.3.3.3.3.,.; 8.8.8.8.8.8.8.8.8.8.8.8.8.",
"8.8.8.8.8.8.8.8.8.8.8.8.8.8.8.8.8.8.  % 6 6 6 6 6 6 6 6 6 6 6 6 6 6 6 6 6 6 6 M 4.7.7.7.1.v 6 6 6 3 O 8.8.8.8.8.8.8.8.8.8.8.8.8.",
"8.8.8.8.8.8.8.8.8.8.8.8.8.8.8.8.8.8.  % 6 [ [ [ D 6 ) f 6 6 6 6 6 6 6 6 [ [ 6 M 4.7.7.7.1.v 6 B [ _ & 8.8.8.8.8.8.8.8.8.8.8.8.8.",
"8.8.8.8.8.8.8.8.8.8.8.8.8.8.8.8.8.8.  % 6 7.7.7.' 6 4.M 6 6 6 6 6 6 6 6 7.7.6 M 4.7.7.7.1.v 6 R 7.6., 8.8.8.8.8.8.8.8.8.8.8.8.8.",
"8.8.8.8.8.8.8.8.8.8.8.8.8.8.8.8.8.8.  % 6 7.7.z / ,.k r 6 6 6 6 6 6 6 6 7.7.6 M 4.7.7.7.1.v 6 R 7.6., 8.8.8.8.8.8.8.8.8.8.8.8.8.",
"8.8.8.8.8.8.8.8.8.8.8.8.8.8.8.8.8.8.  % 6 7.7.z / ,.k r 6 6 6 6 6 6 6 6 7.7.6 M 4.7.7.7.1.v 6 R 7.6., 8.8.8.8.8.8.8.8.8.8.8.8.8.",
"8.8.8.8.8.8.8.8.8.8.8.8.8.8.8.8.8.8.  % 6 7.7.,.` z *.b 6 6 6 6 6 6 6 6 7.7.6 M 4.7.7.7.1.v 6 R 7.6., 8.8.8.8.8.8.8.8.8.8.8.8.8.",
"8.8.8.8.8.8.8.8.8.8.8.8.8.8.8.8.8.8.  % 6 7.7.6 ~ 7.6 6 6 6 6 6 6 6 6 6 7.7.6 M 4.7.7.7.1.v 6 R 7.6., 8.8.8.8.8.8.8.8.8.8.8.8.8.",
"8.8.8.8.8.8.8.8.8.8.8.8.8.8.8.8.8.8.  % 6 7.7.Q _ [ T s 6 6 6 6 6 6 6 6 7.7.6 M 4.7.7.7.1.v 6 R 7.6., 8.8.8.8.8.8.8.8.8.8.8.8.8.",
"8.8.8.8.8.8.8.8.8.8.8.8.8.8.8.8.8.8.  % 6 7.7.Z ( &.V t 6 6 6 6 6 6 6 6 7.7.6 M 4.7.7.7.1.v 6 R 7.6., 8.8.8.8.8.8.8.8.8.8.8.8.8.",
"8.8.8.8.8.8.8.8.8.8.8.8.8.8.8.8.8.8.  % 6 7.7.u ^ 5.y w 6 6 6 6 6 6 6 6 7.7.6 M 4.7.7.7.1.v 6 R 7.6., 8.8.8.8.8.8.8.8.8.8.8.8.8.",
"8.8.8.8.8.8.8.8.8.8.8.8.8.8.8.8.8.8.  % 6 7.7.u ^ 5.y w 6 6 6 6 6 6 6 6 7.7.6 M 4.7.7.7.1.v 6 R 7.6., 8.8.8.8.8.8.8.8.8.8.8.8.8.",
"8.8.8.8.8.8.8.8.8.8.8.8.8.8.8.8.8.8.8.% 6 7.7.7.' 6 4.M 6 6 6 6 6 6 6 6 7.7.6 M 4.7.7.7.1.v 6 R 7.6.8.8.8.8.8.8.8.8.8.8.8.8.8.8.",
"8.X ; ; O & , , , , , , , , , , , , 8.@ @ 7.7.6 ~ 7.6 6 6 6 6 6 6 6 6 6 7.7.6 M 4.7.7.7.1.v         8.                        8.",
"8.= ,.,.3 _ 6.6.6.6.6.6.6.6.6.6.6.6.6.c c 7.7.U ) +.L i 6 6 6 6 6 6 6 6 7.7.6 M 4.7.7.o o % % % % % % % % % % % % % % % K K $ 8.",
"8.- 3.3.6 [ 7.7.7.7.7.7.7.7.7.7.7.7.7.n n n n n 4 # x * # # # # # # # # n n # * x n n # # 6 6 6 6 6 6 6 6 6 6 6 6 6 6 6 3.3.- 8.",
"8.- 3.3.6 B R R R R R R R R R R R R R > > n n n 4 # x * # # # # # # # # n n # * x n n n n 7.7.7.7.7.7.7.7.7.7.7.7.7.[ 6 3.3.- 8.",
"8.- 3.3.6 6 6 6 6 6 6 6 6 6 6 6 6 6 6 # #                                             n n 7.7.7.7.7.7.7.7.7.7.7.7.7.[ 6 3.3.- 8.",
"8.- 3.3.v v v v v v v v v v v v v v v & &                                             n n U 6 7.u Z Z Q Q 6 ,.,.z 7.[ 6 3.3.- 8.",
"8.- 3.3.1.1.1.1.1.1.1.1.1.1.1.1.1.1.1.l l     7.7.7.p =.6 6 6 6 6 6 6 6 y h -.7.7.7.~ 4 4 ) ~ ' ^ ( ( _ _ ~ ` ` / ' D 6 3.3.- 8.",
"8.- 3.3.7.7.7.7.7.7.7.7.7.7.7.7.7.7.7.n n     7.7.7.K o.H b 6 6 6 6 6 6 O.7.%.p 4...g # # +.7.6 5.&.&.[ [ 7.z z ,.6 6 6 3.3.- 8.",
"8.- 3.3.7.7.7.7.7.7.7.7.7.7.7.7.7.7.7.n n     7.7.7.4.M 7.X.6 6 6 6 6 6 J [ M =.M  .p x x L 6 4.y V V T T 6 *.*.k 4.) 6 3.3.- 8.",
"8.- 3.3.7.7.7.7.7.7.7.7.7.7.7.7.7.7.7.n n     7.7.7.{ W | L 6 6 6 6 6 5 6 [ ~ 6 7.R ;.* * i 6 M w t t s s 6 b b r M f 6 3.3.- 8.",
"8.- 3.3.4.4.4.4.4.4.4.4.4.4.4.4.4.4.4.x x     7.7.7.p =.6 6 6 6 6 6 6 6 6 =.6 X.I 6 7 # # 6 6 6 6 6 6 6 6 6 6 6 6 6 6 6 3.3.- 8.",
"8.- 3.3.M M M M M M M M M M M M M M M * *     7.7.7. .R +.I 6 6 6 6 6 6 6 6 6 6 6 6 0 # # 6 6 6 6 6 6 6 6 6 6 6 6 6 6 6 3.3.- 8.",
"8.- 3.3.6 6 6 6 6 6 6 6 6 6 6 6 6 6 6 # #     7.7.7.4.M 7.X.6 6 6 6 8 6 6 6 6 6 6 1 6 # # 6 6 6 6 6 6 6 6 6 6 6 6 6 6 6 3.3.- 8.",
"8.- 3.3.6 [ 7.7.7.7.7.7.7.7.7.7.7.7.7.n n     7.7.7.p =.6 6 6 6 6 6 2 6 6 6 6 6 6 8 6 # # 6 6 6 6 6 6 6 6 6 6 6 6 6 6 6 3.3.- 8.",
"8.- 3.3.6 [ 7.7.7.7.7.7.7.7.7.7.7.7.7.n n     6 6 6 6 6 6 6 6 6 6 6 q 6 6 6 6 6 6 1 6 # # 6 6 6 6 6 6 6 6 6 6 6 6 6 6 6 3.3.- 8.",
"8.- 3.3.6 6 6 6 6 6 6 6 6 6 6 6 6 6 6 # #     6 6 6 6 6 6 6 6 6 6 6 6 6 6 6 6 6 6 9 6 # # 6 6 6 6 6 6 6 6 6 6 6 6 6 6 6 3.3.- 8.",
"8.- 3.3.6 6 6 6 6 6 6 6 6 6 6 6 6 6 6 # #     6 6 6 6 6 6 6 6 6 6 9 6 6 6 6 6 6 6 6 6 # # 6 6 6 6 6 6 6 6 6 6 6 6 6 6 6 3.3.- 8.",
"8.- 3.3.6 6 6 6 6 6 6 6 6 6 6 6 6 6 6 # #     6 6 6 6 6 6 6 6 6 6 6 6 < e 6 6 6 q 6 6 # # 6 6 6 6 6 6 6 6 6 6 6 6 6 6 6 3.3.- 8.",
"8.- 3.3.6 6 6 6 6 6 6 6 6 6 6 6 6 6 6 # #     6 6 6 6 6 6 6 6 6 6 6 6 6 6 6 6 2 1 6 6 n n 7.7.7.7.7.7.7.7.7.7.7.7.7.[ 6 3.3.- 8.",
"8.- 3.3.6 6 6 6 6 6 6 6 6 6 6 6 6 6 6 # #     6 6 6 6 6 6 6 6 6 6 6 6 6 6 X.7.7.7.7.~ n n 7.7.7.7.7.7.7.7.7.7.7.7.7.[ 6 3.3.- 8.",
"8.- 3.3.6 6 6 6 6 6 6 6 6 6 6 6 6 6 6 # #     6 6 6 6 6 6 6 6 6 6 6 6 6 6 X.7.7.7.7.~ # # 6 6 6 6 6 6 6 6 6 6 6 6 6 6 6 3.3.- 8.",
"8.- 3.3.6 6 6 6 6 6 6 6 6 6 6 6 6 6 6 # #     6 I X.6 =.6 6 6 6 6 6 6 6 6 X.7.7.7.7.~ * * M M M M M M M M M M M M M M M 3.3.- 8.",
"8.- 3.3.6 6 6 6 6 6 6 6 6 6 6 6 6 6 6 # #     6 +.7.6 ~ [ J 6 6 6 6 6 6 6 X.7.7.7.7.~ x x 4.4.4.4.4.4.4.4.4.4.4.4.4.4.4.3.3.- 8.",
"8.- 3.3.6 f M r b b 6 s s t t w M 6 i * *     =.R M =.M 7.X.6 6 6 6 6 6 6 X.7.7.7.7.~ n n 7.7.7.7.7.7.7.7.7.7.7.7.7.7.7.3.3.- 8.",
"8.- 3.3.6 ) 4.k *.*.6 T T V V y 4.6 L x x     p  .4.p %.d y 6 6 6 6 6 6 6 X.7.7.7.7.~ n n 7.7.7.7.7.7.7.7.7.7.7.7.7.7.7.3.3.- 8.",
"8.- 3.3.6 6 6 ,.z z 7.[ [ &.&.5.6 7.+.# #     7.7.7.m $.z a 6 6 6 6 6 6 6 X.7.7.7.7.~ n n 7.7.7.7.7.7.7.7.7.7.7.7.7.7.7.3.3.- 8.",
"8.- 3.3.6 D ' / ` ` ~ _ _ ( ( ^ ' ~ ) 4 4     7.7.7.:.G ,.` 6 6 6 6 6 6 6 X.7.7.7.7.~ l l 1.1.1.1.1.1.1.1.1.1.1.1.1.1.1.3.3.- 8.",
"8.- 3.3.6 [ 7.z ,.,.6 Q Q Z Z u 7.6 U n n     7.7.7.>.S 2.[ 6 6 6 6 6 6 6 X.7.7.7.7.~ & & v v v v v v v v v v v v v v v 3.3.- 8.",
"8.- 3.3.6 [ 7.7.7.7.7.7.7.7.7.7.7.7.7.n n     7.7.7.p =.6 6 6 6 6 6 6 6 6 X.7.7.7.7.~ # # 6 6 6 6 6 6 6 6 6 6 6 6 6 6 6 3.3.- 8.",
"8.- 3.3.6 [ 7.7.7.7.7.7.7.7.7.7.7.7.7.n n     7.7.7.! ' Q F 6 6 6 6 6 6 6 X.7.7.7.7.~ > > R R R R R R R R R R R R R B 6 3.3.- 8.",
"8.- 3.3.6 6 6 6 6 6 6 6 6 6 6 6 6 6 6 # #     7.7.7.4.M 7.X.6 6 6 6 6 6 6 X.7.7.7.7.~ n n 7.7.7.7.7.7.7.7.7.7.7.7.7.[ 6 3.3.- 8.",
"8.$ K K % % % % % % % % % % % % % % % o o   + 7.7.7.p =.6 6 6 6 6 6 6 6 6 X.7.7.7.7.~ c c 6.6.6.6.6.6.6.6.6.6.6.6.6._ 3 ,.,.= 8.",
"8.                                  8.8.8.  : 7.7.7.K o.H b 6 6 6 6 6 6 6 X.7.7.7.7.~ @ @ >., , , , , , , , , , , , & O ; ; X 8.",
"8.8.8.8.8.8.8.8.8.8.8.8.8.8.8.8.8.8.8.8.8.. : 7.7.7.4.M 7.X.6 6 6 6 6 6 6 X.7.7.7.7.~ 6 % >.7.Y 8.8.8.8.8.8.8.8.8.8.8.8.8.8.8.8.",
"8.8.8.8.8.8.8.8.8.8.8.8.8.8.8.8.8.8.8.8.8.. : 7.7.7.{ W | L 6 6 6 6 6 6 6 X.7.7.7.7.~ 6 j >.7.Y 8.8.8.8.8.8.8.8.8.8.8.8.8.8.8.8.",
"8.8.8.8.8.8.8.8.8.8.8.8.8.8.8.8.8.8.8.8.8.. : 7.7.7.p =.6 6 6 6 6 6 6 6 6 X.7.7.7.7.~ 6 j >.7.Y 8.8.8.8.8.8.8.8.8.8.8.8.8.8.8.8.",
"8.8.8.8.8.8.8.8.8.8.8.8.8.8.8.8.8.8.8.8.8.. : 7.7.7. .R +.I 6 6 6 6 6 6 6 X.7.7.7.7.~ 6 j >.7.Y 8.8.8.8.8.8.8.8.8.8.8.8.8.8.8.8.",
"8.8.8.8.8.8.8.8.8.8.8.8.8.8.8.8.8.8.8.8.8.. : 7.7.7.4.M 7.X.6 6 6 6 6 6 6 X.7.7.7.7.~ 6 j >.7.Y 8.8.8.8.8.8.8.8.8.8.8.8.8.8.8.8.",
"8.8.8.8.8.8.8.8.8.8.8.8.8.8.8.8.8.8.8.8.8.. : 7.7.7.p =.6 6 6 6 6 6 6 6 6 X.7.7.7.7.~ 6 j >.7.Y 8.8.8.8.8.8.8.8.8.8.8.8.8.8.8.8.",
"8.8.8.8.8.8.8.8.8.8.8.8.8.8.8.8.8.8.8.8.8.. : 7.7.7.A @.N l 6 6 6 6 6 6 6 X.7.7.7.7.~ 6 j >.7.Y 8.8.8.8.8.8.8.8.8.8.8.8.8.8.8.8.",
"8.8.8.8.8.8.8.8.8.8.8.8.8.8.8.8.8.8.8.8.8.. : 7.7.7.<.C 5.} 6 6 6 6 6 6 6 X.7.7.7.7.~ 6 j >.7.Y 8.8.8.8.8.8.8.8.8.8.8.8.8.8.8.8.",
"8.8.8.8.8.8.8.8.8.8.8.8.8.8.8.8.8.8.8.8.8.. : 7.7.7.#.P &.E 6 6 6 6 6 6 6 X.7.7.7.7.~ 6 j >.7.Y 8.8.8.8.8.8.8.8.8.8.8.8.8.8.8.8.",
"8.8.8.8.8.8.8.8.8.8.8.8.8.8.8.8.8.8.8.8.8.. : 7.7.7.p =.6 6 6 6 6 6 6 6 6 X.7.7.7.7.~ 6 j >.7.Y 8.8.8.8.8.8.8.8.8.8.8.8.8.8.8.8.",
"8.8.8.8.8.8.8.8.8.8.8.8.8.8.8.8.8.8.8.8.8.. : 7.7.7.] ~ [ J 6 6 6 6 6 6 6 X.7.7.7.7.~ 6 j >.7.Y 8.8.8.8.8.8.8.8.8.8.8.8.8.8.8.8.",
"8.8.8.8.8.8.8.8.8.8.8.8.8.8.8.8.8.8.8.8.8.. : 7.7.7.4.M 7.X.6 6 6 6 6 6 6 X.7.7.7.7.~ 6 j >.7.Y 8.8.8.8.8.8.8.8.8.8.8.8.8.8.8.8.",
"8.8.8.8.8.8.8.8.8.8.8.8.8.8.8.8.8.8.8.8.8.. : 7.7.7.v %.d y 6 6 6 6 6 6 6 X.7.7.7.7.~ 6 j >.7.Y 8.8.8.8.8.8.8.8.8.8.8.8.8.8.8.8.",
"8.8.8.8.8.8.8.8.8.8.8.8.8.8.8.8.8.8.8.8.8.. : 7.7.7.m $.z a 6 6 6 6 6 6 6 X.7.7.7.7.~ 6 j >.7.Y 8.8.8.8.8.8.8.8.8.8.8.8.8.8.8.8.",
"8.8.8.8.8.8.8.8.8.8.8.8.8.8.8.8.8.8.8.8.8.. : 7.7.7.:.G ,.` 6 6 6 6 6 6 6 X.7.7.7.7.~ 6 j >.7.Y 8.8.8.8.8.8.8.8.8.8.8.8.8.8.8.8."
};
