/* XPM */
static char *result[] = {
/* columns rows colors chars-per-pixel */
"64 64 100 2 ",
"   c black",
".  c #0F0201",
"X  c #110301",
"o  c #130302",
"O  c #1B0502",
"+  c #1E0502",
"@  c #200503",
"#  c #290703",
"$  c #2B0703",
"%  c #2E0803",
"&  c #360904",
"*  c #390A04",
"=  c #3C0A04",
"-  c #3F0B05",
";  c #400B05",
":  c #470B04",
">  c #470B05",
",  c #470B06",
"<  c #440C05",
"1  c #450C05",
"2  c #460D04",
"3  c #470C05",
"4  c #470C06",
"5  c #480B04",
"6  c #480B06",
"7  c #480C04",
"8  c #480D05",
"9  c #4A0C05",
"0  c #480D06",
"q  c #4D0D05",
"w  c #510E06",
"e  c #530E06",
"r  c #540E06",
"t  c #560E06",
"y  c #560F06",
"u  c #570F06",
"i  c #590F06",
"p  c #5B0F06",
"a  c #5C0F06",
"s  c #551004",
"d  c #5B1005",
"f  c #5F1007",
"g  c #601007",
"h  c #621007",
"j  c #631007",
"k  c #651107",
"l  c #661107",
"z  c #681107",
"x  c #691108",
"c  c #6C1208",
"v  c #6E1208",
"b  c #711308",
"n  c #731308",
"m  c #771408",
"M  c #7A1408",
"N  c #7D1509",
"B  c #7E1509",
"V  c #821509",
"C  c #84160A",
"Z  c #86160A",
"A  c #8B170A",
"S  c #8C170A",
"D  c #93190B",
"F  c #95190B",
"G  c #99190B",
"H  c #9A1A0B",
"J  c #9D1A0C",
"K  c #9E1A0C",
"L  c #9E1B0C",
"P  c #9F1B0C",
"I  c #A01B0C",
"U  c #A11B0C",
"Y  c #A41B0C",
"T  c #A51C0C",
"R  c #A81C0C",
"E  c #AC1C0C",
"W  c #AE1D0D",
"Q  c #B21E0D",
"!  c #B21E0E",
"~  c #B41E0D",
"^  c #B51E0D",
"/  c #B41F0D",
"(  c #B61E0D",
")  c #C5210E",
"_  c #C9210F",
"`  c #CA210F",
"'  c #D3230F",
"]  c #D4230F",
"[  c #C92010",
"{  c #D42310",
"}  c #D52310",
"|  c #DB2410",
" . c #DF2510",
".. c #E32510",
"X. c #E82611",
"o. c #EB2711",
"O. c #ED2711",
"+. c #F02711",
"@. c #FA2912",
"#. c None",
/* pixels */
"#.#.#.#.#.#.#.#.#.#.#.#.#.#.#.#.#.#.#.#.#.#.#.#.#.#.#.#.#.#.#.#.#.#.#.#.#.#.#.#.#.#.#.#.#.#.#.#.#.#.#.#.#.#.#.#.#.#.#.#.#.#.#.#.",
"#.#.#.#.#.#.#.#.#.#.#.#.#.#.#.. & * * * * * * * * * * * * * * * * * * * * * * * * * * * * * @   #.#.#.#.#.#.#.#.#.#.#.#.#.#.#.#.",
"#.#.#.#.#.#.#.#.#.#.#.#.#.#.#.=  .X.X.X.X.X.X.X.X.X.X.X.X.X.X.X.X.X.X.X.X.X.X.X.X.X.X.X.X.X.C   #.#.#.#.#.#.#.#.#.#.#.#.#.#.#.#.",
"#.#.#.#.#.#.#.#.#.#.#.#.#.#.#.=  .X.X.X.X.X.X.X.X.X.X.X.X.X.X.X.X.X.X.X.X.X.X.X.X.X.X.X.X.X.C   #.#.#.#.#.#.#.#.#.#.#.#.#.#.#.#.",
"#.#.#.#.#.#.#.#.#.#.#.#.#.#.#.o < 3 3 3 l ..@.@.@.o.v 3 3 3 3 3 3 3 3 3 3 3 3 3 3 3 3 3 3 3 #   #.#.#.#.#.#.#.#.#.#.#.#.#.#.#.#.",
"#.#.#.#.#.#.#.#.#.#.#.#.#.#.#.$ U R b 3 l ..@.@.@.o.v 3 R R 3 3 3 3 3 3 3 3 a I 3 M R R R 3 #   #.#.#.#.#.#.#.#.#.#.#.#.#.#.#.#.",
"#.#.#.#.#.#.#.#.#.#.#.#.#.#.#.; +.@.F 3 l ..@.@.@.o.v 3 @.@.3 3 3 3 3 3 3 3 v o.3 T @.@.@.3 #   #.#.#.#.#.#.#.#.#.#.#.#.#.#.#.#.",
"#.#.#.#.#.#.#.#.#.#.#.#.#.#.#.; +.@.F 3 l ..@.@.@.o.v 3 @.@.3 3 3 3 3 3 3 3 q f  .L h @.@.3 #   #.#.#.#.#.#.#.#.#.#.#.#.#.#.#.#.",
"#.#.#.#.#.#.#.#.#.#.#.#.#.#.#.; +.@.F 3 l ..@.@.@.o.v 3 @.@.3 3 3 3 3 3 3 3 z ' h Y  .@.@.3 #   #.#.#.#.#.#.#.#.#.#.#.#.#.#.#.#.",
"#.#.#.#.#.#.#.#.#.#.#.#.#.#.#.; +.@.F 3 l ..@.@.@.o.v 3 @.@.3 3 3 3 3 3 3 3 z ' h Y  .@.@.3 #   #.#.#.#.#.#.#.#.#.#.#.#.#.#.#.#.",
"#.#.#.#.#.#.#.#.#.#.#.#.#.#.#.; +.@.F 3 l ..@.@.@.o.v 3 @.@.3 3 3 3 3 3 3 3 3 3 @.J 3 @.@.3 #   #.#.#.#.#.#.#.#.#.#.#.#.#.#.#.#.",
"#.#.#.#.#.#.#.#.#.#.#.#.#.#.#.; +.@.F 3 l ..@.@.@.o.v 3 @.@.3 3 3 3 3 3 3 3 i D R U H @.@.3 #   #.#.#.#.#.#.#.#.#.#.#.#.#.#.#.#.",
"#.#.#.#.#.#.#.#.#.#.#.#.#.#.#.; +.@.F 3 l ..@.@.@.o.v 3 @.@.3 3 3 3 3 3 3 3 i D R U H @.@.3 #   #.#.#.#.#.#.#.#.#.#.#.#.#.#.#.#.",
"#.#.#.#.#.#.#.#.#.#.#.#.#.#.#.; +.@.F 3 l ..@.@.@.o.v 3 @.@.3 3 3 3 3 3 3 3 w n ` P m @.@.3 # ; #.#.#.#.#.#.#.#.#.#.#.#.#.#.#.#.",
"#.#.#.#.#.#.#.#.#.#.#.#.#.#.#.#.+.@.F 3 l ..@.@.@.o.v 3 @.@.3 3 3 3 3 3 3 3 w n ` P m @.@.3 # #.#.#.#.#.#.#.#.#.#.#.#.#.#.#.#.#.",
"#.                            #.+.@.F 3 l ..@.@.@.o.v 3 @.@.3 3 3 3 3 3 3 3 9 e O.K r @.@.3 # #.; ; ; ; ; ; ; ; ; ; $ o = = . #.",
"#.@ C C # # # # # # # # # # # # +.@.F 3 l ..@.@.@.o.v 3 @.@.3 3 3 3 3 3 3 3 v o.3 T @.@.@.3 #   F +.+.+.+.+.+.+.+.+.U <  . .& #.",
"#.* X.X.3 3 3 3 3 3 3 3 3 3 3 3 +.@.F 3 l ..@.@.@.o.v 3 @.@.3 3 3 3 3 3 3 3 3 3 @.J 3 @.@.3 #   ; @.@.@.@.@.@.@.@.@.R 3 X.X.* #.",
"#.* X.X.3 R @.@.@.@.@.@.@.@.| | +.@.F 3 l ..@.@.@.o.v 3 @.@.3 3 3 3 3 3 3 3 t Z ( I S @.@.3 # l ; F F F F F F F F F b 3 X.X.* #.",
"#.* X.X.3 R @.@.@.@.@.@.@.@.# O k x - + $ g x x x j % + x x + + + + + + + + % j + 1 x x x 3 3 3 3 3 3 3 3 3 3 3 3 3 3 3 X.X.* #.",
"#.* X.X.3 R @.h  . .3 H H m 3 O k x - + $ g x x x j % + x x + + + + + + + + % j + 1 x x x l l l l l l l l l l l l l l l X.X.* #.",
"#.* X.X.3 M T L Y Y J U U P P K T J I 1 1     @.@.@.} N  .Y 3 3 3 3 3 3 3 ~ @.@.@.@.J g g ..............................X.X.* #.",
"#.* X.X.3 3 3  .h h @.R R ` ` O.3 @.( + +     @.@.@.c ) h u 3 3 3 3 3 3 3 ~ @.@.@.@.J x x @.@.@.@.@.@.@.@.@.@.@.@.@.@.@.X.X.* #.",
"#.* X.X.3 I o.f ' ' 3 D D n n e o.3 Z j j     y Q o.y _ p e 3 3 3 3 3 3 3 ~ @.@.@.@.J x x @.@.@.@.@.@.@.@.@.@.@.@.@.@.@.X.X.* #.",
"#.* X.X.3 a v q z z 3 i i w w 9 v 3 t % %     ] F v ] v @.~ 3 3 3 3 3 3 3 ~ @.@.@.@.J x x @.@.@.@.@.@.@.@.@.@.@.@.@.@.@.X.X.* #.",
"#.* X.X.3 3 3 3 3 3 3 3 3 3 3 3 3 3 3 + +     3 ( @.3 J R V 3 3 3 3 3 3 3 ~ @.@.@.@.J j j o.o.o.o.o.o.o.o.o.o.o.o.o.o.o.X.X.* #.",
"#.* X.X.3 3 3 3 3 3 3 3 3 3 3 3 3 3 3 + +     3 A ~ 3 ] 3 3 3 3 3 3 3 3 3 ~ @.@.@.@.J % % v v v v v v v v v v v v v v v X.X.* #.",
"#.* X.X.3 3 3 3 3 3 3 3 3 3 3 3 3 3 3 + +     3 3 3 3 3 3 3 3 3 3 3 3 3 3 ~ @.@.@.@.J + + 3 3 3 3 3 3 3 3 3 3 3 3 3 3 3 X.X.* #.",
"#.* X.X.3 3 3 3 3 3 3 3 3 3 3 3 3 3 3 + +     3 3 3 3 3 3 3 3 3 3 3 3 3 3 ~ @.@.@.@.J x x @.@.@.@.@.@.@.@.@.@.@.@.@.R 3 X.X.* #.",
"#.* X.X.3 3 3 3 3 3 3 3 3 3 3 3 3 3 3 + +     3 3 3 3 3 3 3 3 3 3 3 3 3 3 3 3 , > 3 3 x x @.@.@.@.@.@.@.@.@.@.@.@.@.R 3 X.X.* #.",
"#.* X.X.3 3 3 3 3 3 3 3 3 3 3 3 3 3 3 + +     3 3 3 3 3 3 3 3 3 3 3 3 : 0 3 3 3 8 3 3 + + 3 3 3 3 3 3 3 3 3 3 3 3 3 3 3 X.X.* #.",
"#.* X.X.3 3 3 3 3 3 3 3 3 3 3 3 3 3 3 + +     3 3 3 3 3 3 3 3 3 3 6 3 3 3 3 3 3 3 3 3 + + 3 3 3 3 3 3 3 3 3 3 3 3 3 3 3 X.X.* #.",
"#.* X.X.3 3 3 3 3 3 3 3 3 3 3 3 3 3 3 + +     3 3 3 3 3 3 3 3 3 3 3 3 3 3 3 3 3 3 6 3 + + 3 3 3 3 3 3 3 3 3 3 3 3 3 3 3 X.X.* #.",
"#.* X.X.3 R @.@.@.@.@.@.@.@.@.@.@.@.@.x x     3 3 3 3 3 3 3 3 3 3 3 8 3 3 3 3 3 3 > 3 + + 3 3 3 3 3 3 3 3 3 3 3 3 3 3 3 X.X.* #.",
"#.* X.X.3 R @.@.@.@.@.@.@.@.@.@.@.@.@.x x     @.@.@.y ] 3 3 3 3 3 3 , 3 3 3 3 3 3 5 3 + + 3 3 3 3 3 3 3 3 3 3 3 3 3 3 3 X.X.* #.",
"#.* X.X.3 3 3 3 3 3 3 3 3 3 3 3 3 3 3 + +     @.@.@.o.v @.~ 3 3 3 3 5 3 3 3 3 3 3 > 3 + + 3 3 3 3 3 3 3 3 3 3 3 3 3 3 3 X.X.* #.",
"#.* X.X.v v v v v v v v v v v v v v v % %     @.@.@.Q F ( A 3 3 3 3 3 3 3 3 3 3 3 3 7 + + 3 3 3 3 3 3 3 3 3 3 3 3 3 3 3 X.X.* #.",
"#.* X.X.o.o.o.o.o.o.o.o.o.o.o.o.o.o.o.j j     @.@.@.y ] 3 3 3 3 3 3 3 3 3 ] 3 ~ A 3 4 + + 3 3 3 3 3 3 3 3 3 3 3 3 3 3 3 X.X.* #.",
"#.* X.X.@.@.@.@.@.@.@.@.@.@.@.@.@.@.@.x x     @.@.@.E G W Z 3 3 3 3 3 2 3 R J 3 @.F { % % t 3 v 9 w w i i 3 z z q v a 3 X.X.* #.",
"#.* X.X.@.@.@.@.@.@.@.@.@.@.@.@.@.@.@.x x     @.@.@.o.v @.~ 3 3 3 3 3 3 V R v ] v Q y j j Z 3 o.e n n D D 3 ' ' f o.I 3 X.X.* #.",
"#.* X.X.@.@.@.@.@.@.@.@.@.@.@.@.@.@.@.x x     @.@.@.C ^ B z 3 3 3 3 3 3 / @._ y o.! s + + ( @.3 O.` ` R R @.h h  .3 3 3 X.X.* #.",
"#.* X.X...............................g g     @.@.@.y ] 3 3 3 3 3 3 3 3 e d [ @.@.@.J 1 1 I J T K P P U U J Y Y L T M 3 X.X.* #.",
"#.* X.X.l l l l l l l l l l l l l l l $ $                                             x x S 3 @.r m m H H 3  . .h @.R 3 X.X.* #.",
"#.* X.X.3 3 3 3 3 3 3 3 3 3 3 3 3 3 3 + +                                             x x @.@.@.@.@.@.@.@.@.@.@.@.@.R 3 X.X.* #.",
"#.* X.X.3 b F F F F F F F F F F F F F - - x x x 1 + j % + + + + + + + + x x + % j x x x x @.@.@.@.@.@.@.@.@.@.@.@.@.R 3 X.X.* #.",
"#.* X.X.3 R @.@.@.@.@.@.@.@.@.@.@.@.@.x x x x x 1 + j % + + + + + + + + x x + % j x x + + 3 3 3 3 3 3 3 3 3 3 3 3 3 3 3 X.X.* #.",
"#.&  . .< U +.+.+.+.+.+.+.+.+.+.+.+.+.k k @.@.S I ( Z t 3 3 3 3 3 3 3 3 @.@.3 v o.@.@.X X # # # # # # # # # # # # # # # C C @ #.",
"#.. = = o $ ; ; ; ; ; ; ; ; ; ; ; ; #.O O @.@.3 J @.3 3 3 3 3 3 3 3 3 3 @.@.3 v o.@.@.@...l         #.                        #.",
"#.#.#.#.#.#.#.#.#.#.#.#.#.#.#.#.#.#.#.# 3 @.@.@.T 3 o.v 3 3 3 3 3 3 3 3 @.@.3 v o.@.@.@...l 3 F @.+.#.#.#.#.#.#.#.#.#.#.#.#.#.#.",
"#.#.#.#.#.#.#.#.#.#.#.#.#.#.#.#.#.#.  # 3 @.@.r K O.e 9 3 3 3 3 3 3 3 3 @.@.3 v o.@.@.@...l 3 F @.+.; #.#.#.#.#.#.#.#.#.#.#.#.#.",
"#.#.#.#.#.#.#.#.#.#.#.#.#.#.#.#.#.#.  # 3 @.@.r K O.e 9 3 3 3 3 3 3 3 3 @.@.3 v o.@.@.@...l 3 F @.+.; #.#.#.#.#.#.#.#.#.#.#.#.#.",
"#.#.#.#.#.#.#.#.#.#.#.#.#.#.#.#.#.#.  # 3 @.@.m P ` n w 3 3 3 3 3 3 3 3 @.@.3 v o.@.@.@...l 3 F @.+.; #.#.#.#.#.#.#.#.#.#.#.#.#.",
"#.#.#.#.#.#.#.#.#.#.#.#.#.#.#.#.#.#.  # 3 @.@.H U R D i 3 3 3 3 3 3 3 3 @.@.3 v o.@.@.@...l 3 F @.+.; #.#.#.#.#.#.#.#.#.#.#.#.#.",
"#.#.#.#.#.#.#.#.#.#.#.#.#.#.#.#.#.#.  # 3 @.@.3 J @.3 3 3 3 3 3 3 3 3 3 @.@.3 v o.@.@.@...l 3 F @.+.; #.#.#.#.#.#.#.#.#.#.#.#.#.",
"#.#.#.#.#.#.#.#.#.#.#.#.#.#.#.#.#.#.  # 3 @.@. .Y h ' z 3 3 3 3 3 3 3 3 @.@.3 v o.@.@.@...l 3 F @.+.; #.#.#.#.#.#.#.#.#.#.#.#.#.",
"#.#.#.#.#.#.#.#.#.#.#.#.#.#.#.#.#.#.  # 3 @.@.h L  .f q 3 3 3 3 3 3 3 3 @.@.3 v o.@.@.@...l 3 F @.+.; #.#.#.#.#.#.#.#.#.#.#.#.#.",
"#.#.#.#.#.#.#.#.#.#.#.#.#.#.#.#.#.#.  # 3 @.@.h L  .f q 3 3 3 3 3 3 3 3 @.@.3 v o.@.@.@...l 3 F @.+.; #.#.#.#.#.#.#.#.#.#.#.#.#.",
"#.#.#.#.#.#.#.#.#.#.#.#.#.#.#.#.#.#.  # 3 @.@.@.T 3 o.v 3 3 3 3 3 3 3 3 @.@.3 v o.@.@.@...l 3 F @.+.; #.#.#.#.#.#.#.#.#.#.#.#.#.",
"#.#.#.#.#.#.#.#.#.#.#.#.#.#.#.#.#.#.  # 3 R R R M 3 I a 3 3 3 3 3 3 3 3 R R 3 v o.@.@.@...l 3 b R U $ #.#.#.#.#.#.#.#.#.#.#.#.#.",
"#.#.#.#.#.#.#.#.#.#.#.#.#.#.#.#.#.#.  # 3 3 3 3 3 3 3 3 3 3 3 3 3 3 3 3 3 3 3 v o.@.@.@...l 3 3 3 < o #.#.#.#.#.#.#.#.#.#.#.#.#.",
"#.#.#.#.#.#.#.#.#.#.#.#.#.#.#.#.#.#.  C X.X.X.X.X.X.X.X.X.X.X.X.X.X.X.X.X.X.X.X.X.X.X.X.X.X.X.X.X. .= #.#.#.#.#.#.#.#.#.#.#.#.#.",
"#.#.#.#.#.#.#.#.#.#.#.#.#.#.#.#.#.#.  C X.X.X.X.X.X.X.X.X.X.X.X.X.X.X.X.X.X.X.X.X.X.X.X.X.X.X.X.X. .= #.#.#.#.#.#.#.#.#.#.#.#.#.",
"#.#.#.#.#.#.#.#.#.#.#.#.#.#.#.#.#.#.  @ * * * * * * * * * * * * * * * * * * * * * * * * * * * * * & . #.#.#.#.#.#.#.#.#.#.#.#.#.",
"#.#.#.#.#.#.#.#.#.#.#.#.#.#.#.#.#.#.#.#.#.#.#.#.#.#.#.#.#.#.#.#.#.#.#.#.#.#.#.#.#.#.#.#.#.#.#.#.#.#.#.#.#.#.#.#.#.#.#.#.#.#.#.#."
};
