/* XPM */
static char *fc145b277ec14f16cb9a57c3da9f8ec2PGCIp7kHTuCfhMk5[] = {
/* columns rows colors chars-per-pixel */
"64 64 4 1 ",
"  c None",
". c black",
"X c #470C05",
"o c #FA2912",
/* pixels */
"                                                                ",
"                                                                ",
"                                                                ",
"                                                                ",
"                                                                ",
"                                                                ",
"                                                                ",
"                                                   .............",
"                                                   .............",
"                                                 ....XXXXXXXoo..",
"                                                 ....XXXXXXXoo..",
".....................................................oooooXXoo..",
".....................................................oooooXXoo..",
"XXXXXXXXXXXXXXXXXXXXXXXXXXXXXXXXXXXXXXXXXXXXXXXXX....oooooXXoo..",
"ooooooooooooooooooooooooooooooooooooooooooooooooo....ooXXoXXoo..",
"ooooooooooooooooooooooooooooooooooooooooooooooooo....ooXXoXXoo..",
"ooooooooooooooooooooooooooooooooooooooooooooooooo....XXooXXXoo..",
"ooooooooooooooooooooooooooooooooooooooooooooooooo....XXooXXXoo..",
"ooXXoXXooXXoXXooXXooXooXXoXXooXXooXooXXooXooXXooX....ooXXoXXoo..",
"XXooXooXXooXooXXooXXoXXooXooXXooXXoXXooXXoXXooXXo....XXXXXXXoo..",
"XXooXooXXooXooXXooXXoXXooXooXXooXXoXXooXXoXXooXXo....XXXXXXXoo..",
"ooXXoXXooXXoXXooXXooXooXXoXXooXXooXooXXooXooXXooX....XXXXXXXoo..",
"ooXXoXXooXXoXXooXXooXooXXoXXooXXooXooXXooXooXXooX....XXXXXXXoo..",
"XXXXXXXXXXXXXXXXXXXXXXXXXXXXXXXXXXXXXXXXXXXXXXXXX....XXXXXXXoo..",
"XXXXXXXXXXXXXXXXXXXXXXXXXXXXXXXXXXXXXXXXXXXXXXXXX....XXXXXXXoo..",
"XXXXXXXXXXXXXXXXXXXXXXXXXXXXXXXXXXXXXXXXXXXXXXXXX....XXXXXXXoo..",
"XXXXXXXXXXXXXXXXXXXXXXXXXXXXXXXXXXXXXXXXXXXXXXXXX....XXXXXXXoo..",
"XXXXXXXXXXXXXXXXXXXXXXXXXXXXXXXXXXXXXXXXXXXXXXXXX....XXXXXXXoo..",
"XXXXXXXXXXXXXXXXXXXXXXXXXXXXXXXXXXXXXXXXXXXXXXXXX....XXXXXXXoo..",
"XXXXXXXXXXXXXXXXXXXXXXXXXXXXXXXXXXXXXXXXXXXXXXXXX....XXXXXXXoo..",
"XXXXXXXXXXXXXXXXXXXXXXXXXXXXXXXXXXXXXXXXXXXXXXXXX....XXXXXXXoo..",
"XXXXXXXXXXXXXXXXXXXXXXXXXXXXXXXXXXXXXXXXXXXXXXXXX....oooooXXoo..",
"XXXXXXXXXXXXXXXXXXXXXXXXXXXXXXXXXXXXXXXXXXXXXXXXX....oooooXXoo..",
"ooooooooooooooooooooooooooXXXXXXXXXXXoXXooooooooo....oooooXXoo..",
"ooooooooooooooooooooooooooXXXXXXXXXXXXooXXooooooo....oooooXXoo..",
"ooooooooooooooooooooooooooXXXXXXXXXXXoXXooooooooo....XXXXXXXoo..",
"ooooooooooooooooooooooooooXXXXXXXXXXXoXXooooooooo....XXXXXXXoo..",
"ooooooooooooooooooooooooooXXXXXXXXXXXXooXXooooooo....ooooooooo..",
"ooooooooooooooooooooooooooXXXXXXXXXXXXooXXooooooo....ooooooooo..",
"ooooooooooooooooooooooooooXXXXXXXXXXXoXXooooooooo....ooooooooo..",
"XXXXXXXXXXXXXXXXXXXoooooooXXXXXXXXXXXoXXooooooooo....ooooooooo..",
"XXXXXXXXXXXXXXXXXXXoooooooXXXXXXXXXXXXooXXooooooo....ooooooooo..",
"XXXXXXXXXXXXXXXXXXXoooooooXXXXXXXXXXXoXXooooooooo....ooooooooo..",
"ooooooooooooooooXXXoooooooXXXXXXXXXXXoXXooooooooo....XXXXXXXoo..",
"ooooooooooooooooXXXoooooooXXXXXXXXXXXXooXXooooooo....XXXXXXXoo..",
"ooooooooooooooooXXXoooooooXXXXXXXXXXXXooXXooooooo....XXXXXXXoo..",
"ooooooooooooooooXXXoooooooXXXXXXXXXXXoXXooooooooo....XXXXXXXoo..",
".............oooXXXoooooooXXXXXXXXXXXoXXooooooo......oooooXXoo..",
"           ..oooXXXoooooooXXXXXXXXXXXXooXXooooo. ....oooooXXoo..",
"         ............................................oooooXXoo..",
"         ......................................... .............",
"       .........................................................",
"       .............................................            ",
"       ..ooooXXXoooooooXXoooXXXXXXXXXXXXooXoooooXX..            ",
"       ..ooooXXXoooooooXXoooXXXXXXXXXXXXooXoooooXX..            ",
"       ..ooooXXXoooooooXXoooXXXXXXXXXXXXXXoXXoooXX..            ",
"       ..ooooXXXoooooooXXoooXXXXXXXXXXXXXXoXXoooXX..            ",
"       ..ooooXXXoooooooXXoooXXXXXXXXXXXXooXoooooXX..            ",
"       ..XXXXXXXoooooooXXXXXXXXXXXXXXXXXXXXXXXXXXX..            ",
"       ..XXXXXXXoooooooXXXXXXXXXXXXXXXXXXXXXXXXXXX..            ",
"       ..ooooooooooooooooooooooooooooooooooooooooo..            ",
"       ..ooooooooooooooooooooooooooooooooooooooooo..            ",
"       .............................................            ",
"       .............................................            "
};
