/* XPM */
static char *result[] = {
/* columns rows colors chars-per-pixel */
"64 64 4 1 ",
"  c black",
". c #470C05",
"X c #FA2912",
"o c None",
/* pixels */
"oooooooooooooooooooooooooooooooooooooooooooooooooooooooooooooooo",
"oooooooooooooooooooooooooooooooooooooooooooooooooooooooooooooooo",
"oooooooooooooooooooooooooooooooooooooooooooooooooooooooooooooooo",
"oooooooooooooooooooooooooooooooooooooooooooooooooooooooooooooooo",
"oooooooooooooooooooooooooooooooooooooooooooooooooooooooooooooooo",
"oooooooooooooooooooooooooooooooooooooooooooooooooooooooooooooooo",
"oooooooooooooooooooooooooooooooooooooooo                       o",
"oooooooooooooooooooooooooooooooooooooooo                       o",
"oooooooooooooooooooooooooooooooooooooo    .................XX  o",
"oooooooooooooooooooooooooooooooooooooo    .................XX  o",
"                                          XXXXXXXXXXXXXXXX.XX  o",
"                                          XXXXXXXXXXXXXXXX.XX  o",
"......................................    XXXXXXXXXXXXXXXX.XX  o",
"......................................    XXXXXXXXXXXXXXXX.XX  o",
"XXXXXXXXXXXXXXXXXXXXXXXXXXXXXXXXXXXXXX    X..XX..X..XX..XX.XX  o",
"XXXXXXXXXXXXXXXXXXXXXXXXXXXXXXXXXXXXXX    X..XX..X..XX..XX.XX  o",
"XXXXXXXXXXXXXXXXXXXXXXXXXXXXXXXXXXXXXX    .XX..XX.XX..XX...XX  o",
"XXXXXXXXXXXXXXXXXXXXXXXXXXXXXXXXXXXXXX    .XX..XX.XX..XX...XX  o",
"X..XX.XX..XX.XX..X..XX..XX.XX..XX.XX..    X..XX..X..XX..XX.XX  o",
"X..XX.XX..XX.XX..X..XX..XX.XX..XX.XX..    X..XX..X..XX..XX.XX  o",
".XX..X..XX..X..XX.XX..XX..X..XX..X..XX    .................XX  o",
".XX..X..XX..X..XX.XX..XX..X..XX..X..XX    .................XX  o",
"X..XX.XX..XX.XX..X..XX..XX.XX..XX.XX..    .................XX  o",
"X..XX.XX..XX.XX..X..XX..XX.XX..XX.XX..    .................XX  o",
"......................................    .................XX  o",
"......................................    .................XX  o",
"......................................    .................XX  o",
"......................................    .................XX  o",
"......................................    .................XX  o",
"......................................    .................XX  o",
"......................................    .................XX  o",
"......................................    .................XX  o",
"......................................    .................XX  o",
"......................................    .................XX  o",
"......................................    XXXXXXXXXXXXXXXX.XX  o",
"......................................    XXXXXXXXXXXXXXXX.XX  o",
"XXXXXXXXXXXXXXXXXXXXXXXXXXXXXXXXXXXXXX    XXXXXXXXXXXXXXXX.XX  o",
"XXXXXXXXXXXXXXXXXXXXXXXXXXXXXXXXXXXXXX    XXXXXXXXXXXXXXXX.XX  o",
"XXXXXXXXXXXXXXXXXXXXXXXXXXXXXXXXXXXXXX    .................XX  o",
"XXXXXXXXXXXXXXXXXXXXXXXXXXXXXXXXXXXXXX    .................XX  o",
"XXXXXXXXXXXXXXXXXXXXXXXXXXXXXXXXXXXXXX    XXXXXXXXXXXXXXXXXXX  o",
"XXXXXXXXXXXXXXXXXXXXXXXXXXXXXXXXXXXXXX    XXXXXXXXXXXXXXXXXXX  o",
"XXXXXXXXXXXXXXXXXXXXXXXXXXXXXXXXXXXXXX    XXXXXXXXXXXXXXXXXXX  o",
"XXXXXXXXXXXXXXXXXXXXXXXXXXXXXXXXXXXXXX    XXXXXXXXXXXXXXXXXXX  o",
"......................................    XXXXXXXXXXXXXXXXXXX  o",
"......................................    XXXXXXXXXXXXXXXXXXX  o",
"......................................    XXXXXXXXXXXXXXXXXXX  o",
"......................................    XXXXXXXXXXXXXXXXXXX  o",
"XXXXXXXXXXXXXXXXXXXXXXXXXXXXXXXXXXXXXX    .................XX  o",
"XXXXXXXXXXXXXXXXXXXXXXXXXXXXXXXXXXXXXX    .................XX  o",
"XXXXXXXXXXXXXXXXXXXXXXXXXXXXXXXXXXXXXX    .................XX  o",
"XXXXXXXXXXXXXXXXXXXXXXXXXXXXXXXXXXXXXX    .................XX  o",
"                                          XXXXXXXXXXXXXXXX.XX  o",
"                                          XXXXXXXXXXXXXXXX.XX  o",
"oooooooooooooooooooooooooooooooooooooo    XXXXXXXXXXXXXXXX.XX  o",
"oooooooooooooooooooooooooooooooooooooo    XXXXXXXXXXXXXXXX.XX  o",
"oooooooooooooooooooooooooooooooooooooooo                       o",
"oooooooooooooooooooooooooooooooooooooooo                       o",
"oooooooooooooooooooooooooooooooooooooooooooooooooooooooooooooooo",
"oooooooooooooooooooooooooooooooooooooooooooooooooooooooooooooooo",
"oooooooooooooooooooooooooooooooooooooooooooooooooooooooooooooooo",
"oooooooooooooooooooooooooooooooooooooooooooooooooooooooooooooooo",
"oooooooooooooooooooooooooooooooooooooooooooooooooooooooooooooooo",
"oooooooooooooooooooooooooooooooooooooooooooooooooooooooooooooooo"
};
