/* XPM */
static char *result[] = {
/* columns rows colors chars-per-pixel */
"64 64 147 2 ",
"   c gray1",
".  c #070707",
"X  c gray3",
"o  c #090909",
"O  c gray4",
"+  c #0B0B0B",
"@  c #0D0D0B",
"#  c #0C0C0C",
"$  c gray5",
"%  c #0E0E0E",
"&  c gray6",
"*  c #0F0E13",
"=  c #101010",
"-  c gray7",
";  c #131313",
":  c gray8",
">  c #151515",
",  c gray9",
"<  c #131418",
"1  c #151618",
"2  c #181818",
"3  c #191919",
"4  c gray10",
"5  c #1B1B1B",
"6  c #1B1A1F",
"7  c #1B1C1E",
"8  c #1D1D1D",
"9  c #1C1D1F",
"0  c #1E1E1E",
"q  c gray12",
"w  c #202020",
"e  c #202123",
"r  c #232323",
"t  c #252525",
"y  c #262729",
"u  c #26272B",
"i  c #27282A",
"p  c #282828",
"a  c gray16",
"s  c #28292B",
"d  c #29292B",
"f  c gray17",
"g  c #2C2C2C",
"h  c #2D2D2D",
"j  c gray18",
"k  c gray19",
"l  c #313131",
"z  c #323232",
"x  c gray20",
"c  c #343434",
"v  c #353535",
"b  c gray21",
"n  c #373737",
"m  c #373739",
"M  c #37383A",
"N  c #393939",
"B  c #38393B",
"V  c #3A3A3A",
"C  c gray23",
"Z  c #3D3D3B",
"A  c #3C3C3C",
"S  c #3E3E3C",
"D  c #3F3F3D",
"F  c #3E3E3E",
"G  c #3F3F3F",
"H  c #40403E",
"J  c gray25",
"K  c #414141",
"L  c gray26",
"P  c #434343",
"I  c #444444",
"U  c gray27",
"Y  c #464646",
"T  c gray28",
"R  c #484848",
"E  c #494949",
"W  c gray29",
"Q  c #4B4B4B",
"!  c #4A4B4D",
"~  c #4C4C4C",
"^  c gray30",
"/  c #4E4E4E",
"(  c #4E4F51",
")  c #515151",
"_  c gray33",
"`  c #565656",
"'  c gray34",
"]  c #585858",
"[  c gray35",
"{  c #5A5A5A",
"}  c #5B5B5B",
"|  c gray36",
" . c #5D5D5D",
".. c gray37",
"X. c #5E5F61",
"o. c gray38",
"O. c #626260",
"+. c #646464",
"@. c #656565",
"#. c #666664",
"$. c #676765",
"%. c gray40",
"&. c #676767",
"*. c #686866",
"=. c #696967",
"-. c #686868",
";. c DimGray",
":. c #6A6A68",
">. c #6B6B69",
",. c #6A6A6A",
"<. c gray42",
"1. c #6C6C6A",
"2. c #6C6C6C",
"3. c #6D6D6D",
"4. c gray43",
"5. c #6F6F6F",
"6. c gray44",
"7. c gray45",
"8. c #747474",
"9. c gray46",
"0. c #767676",
"q. c #777777",
"w. c #787876",
"e. c gray47",
"r. c #797979",
"t. c #7B7B79",
"y. c gray48",
"u. c #7B7B7B",
"i. c #7C7C7A",
"p. c #7D7D7B",
"a. c #7C7C7C",
"s. c gray49",
"d. c #7E7E7E",
"f. c gray50",
"g. c #818181",
"h. c #838383",
"j. c #848484",
"k. c gray52",
"l. c #868686",
"z. c gray53",
"x. c #888888",
"c. c #898989",
"v. c gray54",
"b. c #8B8B8B",
"n. c gray55",
"m. c #8D8D8D",
"M. c None",
/* pixels */
"M.M.M.M.M.M.p.b U M.M.M.M.M.M.M.M.M.P } x M.M.M.M.M.M.M.M.M.x.h.% r.M.M.M.M.M.M.M.M.M.:.n T M.M.M.M.M.M.M.M.M.H  .q M.M.M.M.M.M.",
"M.M.M.M.M.M.p.b Y M.M.M.M.M.M.M.M.M.P } x M.M.M.M.M.M.M.M.M.0.h.% +.M.M.M.M.M.M.M.M.M.=.n R M.M.M.M.M.M.M.M.M.H  .q M.M.M.M.M.M.",
"M.M.M.M.M.M.p.b R M.M.M.M.M.M.M.M.M.P } x M.M.M.M.M.M.M.M.M.9.h.% ,.M.M.M.M.M.M.M.M.M.;.n R M.M.M.M.M.M.M.M.M.H  .q M.M.M.M.M.M.",
"M.M.M.M.M.M.p.b U M.M.M.M.M.M.M.M.M.P } x M.M.M.M.M.M.M.M.M.x.h.% r.M.M.M.M.M.M.M.M.M.:.n T M.M.M.M.M.M.M.M.M.H  .q M.M.M.M.M.M.",
"M.M.M.M.M.M.p.b R M.M.M.M.M.M.M.M.M.P } x M.M.M.M.M.M.M.M.M.y.h.% <.M.M.M.M.M.M.M.M.M.1.n T M.M.M.M.M.M.M.M.M.H  .q M.M.M.M.M.M.",
"M.M.M.M.M.M.p.b E M.M.M.M.M.M.M.M.M.P } x M.M.M.M.M.M.M.M.M.y.h.% ;.M.M.M.M.M.M.M.M.M.:.n T M.M.M.M.M.M.M.M.M.H  .q M.M.M.M.M.M.",
"M.M.M.M.M.M.p.b U M.M.M.M.M.M.M.M.M.P } x M.M.M.M.M.M.M.M.M.x.h.% r.M.M.M.M.M.M.M.M.M.:.n T M.M.M.M.M.M.M.M.M.H  .q M.M.M.M.M.M.",
"M.M.M.M.M.M.p.b R M.M.M.M.M.M.M.M.M.P } x M.M.M.M.M.M.M.M.M.u.h.% ;.M.M.M.M.M.M.M.M.M.$.n Q M.M.M.M.M.M.M.M.M.H  .q M.M.M.M.M.M.",
"&.&.&.&.&.&.&.&.&.&.&.&.&.&.&.&.&.&.&.&.&.&.&.&.&.&.&.&.&.&.&.&.&.&.&.&.&.&.&.&.&.&.&.&.&.&.&.&.&.&.&.&.&.&.&.&.&.&.&.&.&.&.&.&.",
"} } } } } } } } } } } } } } } } } } } } } } } } } } } } } } } } } } } } } } } } } } } } } } } } } } } } } } } } } } } } } } } } ",
"[ [ [ [ [ [ [ [ [ [ [ [ [ [ [ [ [ [ [ [ [ [ [ [ [ [ [ [ [ [ [ [ [ [ [ [ [ [ [ [ [ [ [ [ [ [ [ [ [ [ [ [ [ [ [ [ [ [ [ [ [ [ [ [ ",
"M.M.M.M.M.M.t * 3 M.M.M.M.M.M.M.M.M.< 5 & M.M.M.M.M.M.M.M.M.e.u   o.M.M.M.M.M.M.M.M.M.a & > M.M.M.M.M.M.M.M.M.- 6 . M.M.M.M.M.M.",
"M.M.M.M.M.M.! e f M.M.M.M.M.M.M.M.M.s m 8 M.M.M.M.M.M.M.M.M.h.( X 6.M.M.M.M.M.M.M.M.M.F w p M.M.M.M.M.M.M.M.M.y M ; M.M.M.M.M.M.",
"M.M.M.M.M.M.-.f A M.M.M.M.M.M.M.M.M.b Q a M.M.M.M.M.M.M.M.M.9.5.# @.M.M.M.M.M.M.M.M.M.' g C M.M.M.M.M.M.M.M.M.c / 4 M.M.M.M.M.M.",
"M.M.M.M.M.M.8.z J M.M.M.M.M.M.M.M.M.A ` j M.M.M.M.M.M.M.M.M.z.u.$ q.M.M.M.M.M.M.M.M.M.O.x K M.M.M.M.M.M.M.M.M.A ] 8 M.M.M.M.M.M.",
"M.M.M.M.M.M.t.c L M.M.M.M.M.M.M.M.M.J { k M.M.M.M.M.M.M.M.M.v.g.% f.M.M.M.M.M.M.M.M.M.$.c U M.M.M.M.M.M.M.M.M.S } 0 M.M.M.M.M.M.",
"M.M.M.M.M.M.i.v R M.M.M.M.M.M.M.M.M.K } z M.M.M.M.M.M.M.M.M.e.h.% ,.M.M.M.M.M.M.M.M.M.;.v T M.M.M.M.M.M.M.M.M.D  .q M.M.M.M.M.M.",
"M.M.M.M.M.M.p.b Y M.M.M.M.M.M.M.M.M.K } x M.M.M.M.M.M.M.M.M.c.h.% a.M.M.M.M.M.M.M.M.M.=.n U M.M.M.M.M.M.M.M.M.H  .q M.M.M.M.M.M.",
"M.M.M.M.M.M.p.b E M.M.M.M.M.M.M.M.M.P } x M.M.M.M.M.M.M.M.M.x.h.% q.M.M.M.M.M.M.M.M.M.$.n R M.M.M.M.M.M.M.M.M.H  .q M.M.M.M.M.M.",
"M.M.M.M.M.M.p.b E M.M.M.M.M.M.M.M.M.P } x M.M.M.M.M.M.M.M.M.y.h.% %.M.M.M.M.M.M.M.M.M.#.n W M.M.M.M.M.M.M.M.M.H  .q M.M.M.M.M.M.",
"M.M.M.M.M.M.p.b U M.M.M.M.M.M.M.M.M.P } x M.M.M.M.M.M.M.M.M.x.h.% r.M.M.M.M.M.M.M.M.M.:.n T M.M.M.M.M.M.M.M.M.H  .q M.M.M.M.M.M.",
"M.M.M.M.M.M.p.b P M.M.M.M.M.M.M.M.M.P } x M.M.M.M.M.M.M.M.M.q.h.% -.M.M.M.M.M.M.M.M.M.:.n Y M.M.M.M.M.M.M.M.M.H  .q M.M.M.M.M.M.",
"M.M.M.M.M.M.p.b R M.M.M.M.M.M.M.M.M.P } x M.M.M.M.M.M.M.M.M.9.h.% ,.M.M.M.M.M.M.M.M.M.;.n R M.M.M.M.M.M.M.M.M.H  .q M.M.M.M.M.M.",
"M.M.M.M.M.M.p.b I M.M.M.M.M.M.M.M.M.P } x M.M.M.M.M.M.M.M.M.m.h.% g.M.M.M.M.M.M.M.M.M.=.n T M.M.M.M.M.M.M.M.M.H  .q M.M.M.M.M.M.",
"M.M.M.M.M.M.p.b R M.M.M.M.M.M.M.M.M.P } x M.M.M.M.M.M.M.M.M.9.h.% ,.M.M.M.M.M.M.M.M.M.;.n R M.M.M.M.M.M.M.M.M.H  .q M.M.M.M.M.M.",
"M.M.M.M.M.M.p.b I M.M.M.M.M.M.M.M.M.P } x M.M.M.M.M.M.M.M.M.q.h.% <.M.M.M.M.M.M.M.M.M.=.n T M.M.M.M.M.M.M.M.M.H  .q M.M.M.M.M.M.",
"M.M.M.M.M.M.p.b U M.M.M.M.M.M.M.M.M.P } x M.M.M.M.M.M.M.M.M.x.h.% r.M.M.M.M.M.M.M.M.M.:.n T M.M.M.M.M.M.M.M.M.H  .q M.M.M.M.M.M.",
"M.M.M.M.M.M.p.b W M.M.M.M.M.M.M.M.M.P } x M.M.M.M.M.M.M.M.M.8.h.% -.M.M.M.M.M.M.M.M.M.=.n E M.M.M.M.M.M.M.M.M.H  .q M.M.M.M.M.M.",
"M.M.M.M.M.M.p.b U M.M.M.M.M.M.M.M.M.P } x M.M.M.M.M.M.M.M.M.x.h.% r.M.M.M.M.M.M.M.M.M.:.n T M.M.M.M.M.M.M.M.M.H  .q M.M.M.M.M.M.",
"M.M.M.M.M.M.p.b Y M.M.M.M.M.M.M.M.M.P } x M.M.M.M.M.M.M.M.M.z.h.% q.M.M.M.M.M.M.M.M.M.=.n Y M.M.M.M.M.M.M.M.M.H  .q M.M.M.M.M.M.",
"M.M.M.M.M.M.p.b R M.M.M.M.M.M.M.M.M.P } x M.M.M.M.M.M.M.M.M.9.h.% ,.M.M.M.M.M.M.M.M.M.;.n R M.M.M.M.M.M.M.M.M.H  .q M.M.M.M.M.M.",
"M.M.M.M.M.M.p.b Y M.M.M.M.M.M.M.M.M.P } x M.M.M.M.M.M.M.M.M.c.h.% s.M.M.M.M.M.M.M.M.M.=.n Y M.M.M.M.M.M.M.M.M.H  .q M.M.M.M.M.M.",
"M.M.M.M.M.M.p.b U M.M.M.M.M.M.M.M.M.P } x M.M.M.M.M.M.M.M.M.x.h.% r.M.M.M.M.M.M.M.M.M.:.n T M.M.M.M.M.M.M.M.M.H  .q M.M.M.M.M.M.",
"M.M.M.M.M.M.p.b R M.M.M.M.M.M.M.M.M.P } x M.M.M.M.M.M.M.M.M.0.h.% 3.M.M.M.M.M.M.M.M.M.>.n U M.M.M.M.M.M.M.M.M.H  .q M.M.M.M.M.M.",
"M.M.M.M.M.M.p.b U M.M.M.M.M.M.M.M.M.P } x M.M.M.M.M.M.M.M.M.x.h.% r.M.M.M.M.M.M.M.M.M.:.n T M.M.M.M.M.M.M.M.M.H  .q M.M.M.M.M.M.",
"M.M.M.M.M.M.p.b Y M.M.M.M.M.M.M.M.M.P } x M.M.M.M.M.M.M.M.M.z.h.% a.M.M.M.M.M.M.M.M.M.$.n T M.M.M.M.M.M.M.M.M.H  .q M.M.M.M.M.M.",
"M.M.M.M.M.M.p.b R M.M.M.M.M.M.M.M.M.P } x M.M.M.M.M.M.M.M.M.9.h.% ,.M.M.M.M.M.M.M.M.M.;.n R M.M.M.M.M.M.M.M.M.H  .q M.M.M.M.M.M.",
"M.M.M.M.M.M.p.b L M.M.M.M.M.M.M.M.M.P } x M.M.M.M.M.M.M.M.M.n.h.% y.M.M.M.M.M.M.M.M.M.=.n T M.M.M.M.M.M.M.M.M.H  .q M.M.M.M.M.M.",
"M.M.M.M.M.M.p.b R M.M.M.M.M.M.M.M.M.P } x M.M.M.M.M.M.M.M.M.9.h.% ,.M.M.M.M.M.M.M.M.M.;.n R M.M.M.M.M.M.M.M.M.H  .q M.M.M.M.M.M.",
"M.M.M.M.M.M.p.b U M.M.M.M.M.M.M.M.M.P } x M.M.M.M.M.M.M.M.M.y.h.% &.M.M.M.M.M.M.M.M.M.:.n Q M.M.M.M.M.M.M.M.M.H  .q M.M.M.M.M.M.",
"M.M.M.M.M.M.p.b U M.M.M.M.M.M.M.M.M.P } x M.M.M.M.M.M.M.M.M.x.h.% r.M.M.M.M.M.M.M.M.M.:.n T M.M.M.M.M.M.M.M.M.H  .q M.M.M.M.M.M.",
"M.M.M.M.M.M.p.b T M.M.M.M.M.M.M.M.M.P } x M.M.M.M.M.M.M.M.M.r.h.% &.M.M.M.M.M.M.M.M.M.=.n R M.M.M.M.M.M.M.M.M.H  .q M.M.M.M.M.M.",
"M.M.M.M.M.M.p.b E M.M.M.M.M.M.M.M.M.P } x M.M.M.M.M.M.M.M.M.e.h.% <.M.M.M.M.M.M.M.M.M.=.n R M.M.M.M.M.M.M.M.M.H  .q M.M.M.M.M.M.",
"M.M.M.M.M.M.p.b U M.M.M.M.M.M.M.M.M.P } x M.M.M.M.M.M.M.M.M.x.h.% y.M.M.M.M.M.M.M.M.M.:.n T M.M.M.M.M.M.M.M.M.H  .q M.M.M.M.M.M.",
"M.M.M.M.M.M.p.b R M.M.M.M.M.M.M.M.M.P } x M.M.M.M.M.M.M.M.M.9.h.% ,.M.M.M.M.M.M.M.M.M.;.n R M.M.M.M.M.M.M.M.M.H  .q M.M.M.M.M.M.",
"M.M.M.M.M.M.p.b U M.M.M.M.M.M.M.M.M.P } x M.M.M.M.M.M.M.M.M.k.h.% 9.M.M.M.M.M.M.M.M.M.$.n E M.M.M.M.M.M.M.M.M.H  .q M.M.M.M.M.M.",
"M.M.M.M.M.M.p.b U M.M.M.M.M.M.M.M.M.P } x M.M.M.M.M.M.M.M.M.x.h.% r.M.M.M.M.M.M.M.M.M.:.n T M.M.M.M.M.M.M.M.M.H  .q M.M.M.M.M.M.",
"M.M.M.M.M.M.p.b Y M.M.M.M.M.M.M.M.M.P } x M.M.M.M.M.M.M.M.M.y.h.% 2.M.M.M.M.M.M.M.M.M.:.n T M.M.M.M.M.M.M.M.M.H  .q M.M.M.M.M.M.",
"M.M.M.M.M.M.p.b ~ M.M.M.M.M.M.M.M.M.P } x M.M.M.M.M.M.M.M.M.b.h.% d.M.M.M.M.M.M.M.M.M.$.n W M.M.M.M.M.M.M.M.M.H  .q M.M.M.M.M.M.",
"M.M.M.M.M.M.p.b J M.M.M.M.M.M.M.M.M.P } x M.M.M.M.M.M.M.M.M.k.h.% r.M.M.M.M.M.M.M.M.M.*.n U M.M.M.M.M.M.M.M.M.H  .q M.M.M.M.M.M.",
"M.M.M.M.M.M.p.b R M.M.M.M.M.M.M.M.M.P } x M.M.M.M.M.M.M.M.M.9.h.% ,.M.M.M.M.M.M.M.M.M.;.n R M.M.M.M.M.M.M.M.M.H  .q M.M.M.M.M.M.",
"M.M.M.M.M.M.p.b I M.M.M.M.M.M.M.M.M.P } x M.M.M.M.M.M.M.M.M.l.h.% y.M.M.M.M.M.M.M.M.M.=.n U M.M.M.M.M.M.M.M.M.H  .q M.M.M.M.M.M.",
"M.M.M.M.M.M.p.b P M.M.M.M.M.M.M.M.M.K } x M.M.M.M.M.M.M.M.M.v.h.% q.M.M.M.M.M.M.M.M.M.>.n U M.M.M.M.M.M.M.M.M.H  .q M.M.M.M.M.M.",
"} } | } | { }  .{ } | } } | } } | } | [ } [ | } | } } | } } | { } | } | | } | } } | | } } | } | | | | } } | } } { }  .} } | | } ",
" . . . . . . . . . . . . . . . . . . . . . . . . . . . . . . . . . . . . . . . . . . . . . . . . . . . . . . . . . . . . . . . .",
"% + % % % : $ & # % % & % % % # % % @ # % = % & % & % $ % # $ $ % + % # % = % $ % $ % O $ + % $ & $ % $ & % $ & $ % $ $ % & % % ",
"M.M.M.M.M.M.M 1 w M.M.M.M.M.M.M.M.M.9 d , M.M.M.M.M.M.M.M.M.4.B . | M.M.M.M.M.M.M.M.M.k 2 w M.M.M.M.M.M.M.M.M.7 i & M.M.M.M.M.M.",
"M.M.M.M.M.M.{ t l M.M.M.M.M.M.M.M.M.k L r M.M.M.M.M.M.M.M.M.j.X.o 7.M.M.M.M.M.M.M.M.M.^ p x M.M.M.M.M.M.M.M.M.j P , M.M.M.M.M.M.",
"M.M.M.M.M.M.5.k C M.M.M.M.M.M.M.M.M.V ) h M.M.M.M.M.M.M.M.M.9.9.$ @.M.M.M.M.M.M.M.M.M...k K M.M.M.M.M.M.M.M.M.N _ 5 M.M.M.M.M.M.",
"M.M.M.M.M.M.w.z K M.M.M.M.M.M.M.M.M.G ' k M.M.M.M.M.M.M.M.M.u.f.% %.M.M.M.M.M.M.M.M.M.=.c U M.M.M.M.M.M.M.M.M.Z { 0 M.M.M.M.M.M.",
"M.M.M.M.M.M.i.v U M.M.M.M.M.M.M.M.M.K } l M.M.M.M.M.M.M.M.M.x.h.% r.M.M.M.M.M.M.M.M.M.*.c Y M.M.M.M.M.M.M.M.M.D | 0 M.M.M.M.M.M.",
"M.M.M.M.M.M.p.b Q M.M.M.M.M.M.M.M.M.K } x M.M.M.M.M.M.M.M.M.e.h.% -.M.M.M.M.M.M.M.M.M.1.n Y M.M.M.M.M.M.M.M.M.H  .q M.M.M.M.M.M.",
"M.M.M.M.M.M.p.b T M.M.M.M.M.M.M.M.M.P } x M.M.M.M.M.M.M.M.M.y.h.% &.M.M.M.M.M.M.M.M.M.>.n Y M.M.M.M.M.M.M.M.M.H  .q M.M.M.M.M.M.",
"M.M.M.M.M.M.p.b U M.M.M.M.M.M.M.M.M.P } x M.M.M.M.M.M.M.M.M.x.h.% r.M.M.M.M.M.M.M.M.M.:.n T M.M.M.M.M.M.M.M.M.H  .q M.M.M.M.M.M."
};
