/* XPM */
static char *result[] = {
/* columns rows colors chars-per-pixel */
"64 64 49 1 ",
"  c #18171A",
". c #18171C",
"X c #18181C",
"o c #1A181D",
"O c #19181E",
"+ c #1B1B1F",
"@ c #1C1B1E",
"# c #1E1C1D",
"$ c #2E2C23",
"% c #333235",
"& c #45402D",
"* c #56544E",
"= c #815F31",
"- c #81602E",
"; c #9F7435",
": c #AA7933",
"> c #AA7A33",
", c #FDAF40",
"< c #FBB041",
"1 c #FCB040",
"2 c #FDB040",
"3 c #FDB140",
"4 c #FDB041",
"5 c #FEB041",
"6 c #F7E060",
"7 c #F8E664",
"8 c #F7EB67",
"9 c #F8EB67",
"0 c #F8EB68",
"q c #F8EB69",
"w c #F9EB69",
"e c #F8EC68",
"r c #F8EC69",
"t c #828281",
"y c #828184",
"u c #828284",
"i c #848185",
"p c #F9EF84",
"a c #FAEF88",
"s c #FBF3A7",
"d c #D2D2D2",
"f c #D2D2D3",
"g c #FBF8C7",
"h c #FCF7C8",
"j c #FCF7C9",
"k c #FEFDF8",
"l c #FFFDFE",
"z c white",
"x c None",
/* pixels */
"xxxxxxxxxxxxxxxxxxxxxxxxxxxxxxxxxxxxxxxxxxxxxxxxxxxxxxxxxxxxxxxx",
"xxxxxxxxxxxxxxxxxxxxxxxxxxxxxxxxxxxxxxxxxxxxxxxxxxxxxxxxxxxxxxxx",
"xxxxxxxxxxxxxxxxxxxxxxxxxxxxxxxxxxxxxxxxxxxxxxxxxxxxxxxxxxxxxxxx",
"xxxxxxxxxxxxxxxxxxxxxxxxxxxxxxxxxxxxxxxxxxxxxxxxxxxxxxxxxxxxxxxx",
"xxxxxxxxxxxxxxxxxxxxxxxxxxxxxxxxxxxxxxxxxxxxxxxxxxxxxxxxxxxxxxxx",
"xxxxxxxxxxxxxxxxxxxxxxxxxxxxxxxxxxxxxxxxxxxxxxxxxxxxxxxxxxxxxxxx",
"xxxxxxxxxxxxxxxxxxxxxxxxxxxxxd....xxxxxxxxxxxxxxxxxxxxxxxxxxxxxx",
"xxxxxxxxxxxxxxxxxxxxxxxxxxxxxf....xxxxxxxxxxxxxxxxxxxxxxxxxxxxxx",
"xxxxxxxxxxxxxxxxxxxxxxxxxxxxxf.99.xxxxxxxxxxxxxxxxxxxxxxxxxxxxxx",
"xxxxxxxxxxxxxxxxxxxxxxxxxxxxxf.99.xxxxxxxxxxxxxxxxxxxxxxxxxxxxxx",
"xxxxxxxxxxxxxxxxxxxxxxxxxxx....99....xxxxxxxxxxxxxxxxxxxxxxxxxxx",
"xxxxxxxxxxxxxxxxxxxxxxxxxxx....99....xxxxxxxxxxxxxxxxxxxxxxxxxxx",
"xxxxxxxxxxxxxxxxxxxxxxxxxxx....99....xxxxxxxxxxxxxxxxxxxxxxxxxxx",
"xxxxxxxxxxxxxxxxxxxxxxxxxxx....99....xxxxxxxxxxxxxxxxxxxxxxxxxxx",
"xxxxxxxxxxxxxxxxxxxxxxxxxxx..&9ll9#..xxxxxxxxxxxxxxxxxxxxxxxxxxx",
"xxxxxxxxxxxxxxxxxxxxxxxx.....*lll9#...xxxxxxxxxxxxxxxxxxxxxxxxxx",
"xxxxxxxxxxxxxxxxxxxxxxxx.....*lll9#...xxxxxxxxxxxxxxxxxxxxxxxxxx",
"xxxxxxxxxxxxxxxxxxxxxxxx...99pl999999.xxxxxxxxxxxxxxxxxxxxxxxxxx",
"xxxxxxxxxxxxxxxxxxxxxxxx...wwal999999.xxxxxxxxxxxxxxxxxxxxxxxxxx",
"xxxxxxxxxxxxxxxxxxxxxxxx...llll999999.....xxxxxxxxxxxxxxxxxxxxxx",
"xxxxxxxxxxxxxxxxxxxxxxxx...llll999999.....xxxxxxxxxxxxxxxxxxxxxx",
"xxxxxxxxxxxxxxxxxxxx....999lll99999999........xxxxxxxxxxxxxxxxxx",
"xxxxxxx..............$99999lll999999999999@.............Xxxxxxxx",
"xxxxxxx..............$99999lll999999999999@.............Xxxxxxxx",
"xxxxx... 1111eeeeezzzzzzlllqqq999999999999eezzeeeee111112..xxxxx",
"xxxxx... 1111eeeeezzzzzzlllqqq999999999999eezzeeeee111112..xxxxx",
"xxxxx... 1111eeeeezzzzzzlllqqq999999999999eezzeeeee111112..xxxxx",
"xxxxx..:>11119ghj9sssssssss99999999999999999sshhhh91111=-..xxxxx",
"xxxxx..4111119zzl99999999999999999999999999999zzzz91111....xxxxx",
"xxxxx..4111119zzl99999999999999999999999999999zzzz91111....xxxxx",
"xxxxxxx. 1111109999999999999999999999999999999999911111.Xxxxxxxx",
"xxxxxxxxx....111,9999999999999999999999999999995111....xxxxxxxxx",
"xxxxxxxxx....111,9999999999999999999999999999995111....xxxxxxxxx",
"xxxxxxxxxxxxx.11,999999999999999999999999999111113.xxxxxxxxxxxxx",
"xxxxxxxxxxxxxx..O199999999999999999999999999111o..xxxxxxxxxxxxxx",
"xxxxxxxxxxxxxx..O199999999999999999999999999111o..xxxxxxxxxxxxxx",
"xxxxxxxxxxxxxxuut;99999999999999999999999999;;;iuyxxxxxxxxxxxxxx",
"xxxxxxxxxxxxxxxxx.rr999999999999999999999999...xxxxxxxxxxxxxxxxx",
"xxxxxxxxxxxxxxxxx.rr999999999999999999999999...xxxxxxxxxxxxxxxxx",
"xxxxxxxxxxxxxxxxx.rr999999999999999999999999...xxxxxxxxxxxxxxxxx",
"xxxxxxxxxxxxxxxxx...99999999999999999999999911.xxxxxxxxxxxxxxxxx",
"xxxxxxxxxxxxxxxxx...99999999999999999999999911.xxxxxxxxxxxxxxxxx",
"xxxxxxxxxxxxxxxxx.99zk999999999999999999999911.xxxxxxxxxxxxxxxxx",
"xxxxxxxxxxxxxxxxx.99zk999999999999999999999911.xxxxxxxxxxxxxxxxx",
"xxxxxxxxxxxxxxxxx.99zk999999999999999999999911.xxxxxxxxxxxxxxxxx",
"xxxxxxxxxxxxxxxxx.99zk999999999991111999999911.xxxxxxxxxxxxxxxxx",
"xxxxxxxxxxxxxxxxx.99zk999999999881111999999911.xxxxxxxxxxxxxxxxx",
"xxxxxxxxxxxxxxxxx.9999999999961..1111111111111....xxxxxxxxxxxxxx",
"xxxxxxxxxxxxxxxxx.9999999999961..1111111111111....xxxxxxxxxxxxxx",
"xxxxxxxxxxxxxxxxx.999711111..........1111111111o..xxxxxxxxxxxxxx",
"xxxxxxxxxxxxxxxxx.111111.....%xxxx+.......<1111o..xxxxxxxxxxxxxx",
"xxxxxxxxxxxxxxxxx.111111.....%xxxx+.......<1111o..xxxxxxxxxxxxxx",
"xxxxxxxxxxxxxxxxx.111111.....%xxxx+.......<1111o..xxxxxxxxxxxxxx",
"xxxxxxxxxxxxxxxxx.111111.....%xxxx+.......<1111o..xxxxxxxxxxxxxx",
"xxxxxxxxxxxxxx..O111....xxxxxxxxxxxxxx........1o..xxxxxxxxxxxxxx",
"xxxxxxxxxxxxxx..O111....xxxxxxxxxxxxxx........1o..xxxxxxxxxxxxxx",
"xxxxxxxxxxxxxxxxx...xxxxxxxxxxxxxxxxxxxxxxxx......xxxxxxxxxxxxxx",
"xxxxxxxxxxxxxxxxx...xxxxxxxxxxxxxxxxxxxxxxxx......xxxxxxxxxxxxxx",
"xxxxxxxxxxxxxxxxxxxxxxxxxxxxxxxxxxxxxxxxxxxxxxxxxxxxxxxxxxxxxxxx",
"xxxxxxxxxxxxxxxxxxxxxxxxxxxxxxxxxxxxxxxxxxxxxxxxxxxxxxxxxxxxxxxx",
"xxxxxxxxxxxxxxxxxxxxxxxxxxxxxxxxxxxxxxxxxxxxxxxxxxxxxxxxxxxxxxxx",
"xxxxxxxxxxxxxxxxxxxxxxxxxxxxxxxxxxxxxxxxxxxxxxxxxxxxxxxxxxxxxxxx",
"xxxxxxxxxxxxxxxxxxxxxxxxxxxxxxxxxxxxxxxxxxxxxxxxxxxxxxxxxxxxxxxx",
"xxxxxxxxxxxxxxxxxxxxxxxxxxxxxxxxxxxxxxxxxxxxxxxxxxxxxxxxxxxxxxxx"
};
