/* XPM */
static char *result[] = {
/* columns rows colors chars-per-pixel */
"64 64 42 1 ",
"  c #18171A",
". c #18171C",
"X c #18181C",
"o c #1A181D",
"O c #19181E",
"+ c #1C1B1E",
"@ c #1E1C1D",
"# c #2E2C23",
"$ c #45402D",
"% c #56544E",
"& c #815F31",
"* c #81602E",
"= c #9F7435",
"- c #AA7933",
"; c #AA7A33",
": c #FDAF40",
"> c #FCB040",
", c #FDB140",
"< c #FDB041",
"1 c #FEB041",
"2 c #F7E060",
"3 c #F8E664",
"4 c #F7EB67",
"5 c #F8EB67",
"6 c #F8EB68",
"7 c #F9EB69",
"8 c #828281",
"9 c #828184",
"0 c #828284",
"q c #848185",
"w c #F9EF84",
"e c #FAEF88",
"r c #FBF3A7",
"t c #D2D2D2",
"y c #D2D2D3",
"u c #FBF8C7",
"i c #FCF7C8",
"p c #FCF7C9",
"a c #FEFDF8",
"s c #FFFDFE",
"d c white",
"f c None",
/* pixels */
"ffffffffffffffffffffffffffffffffffffffffffffffffffffffffffffffff",
"ffffffffffffffffffffffffffffffffffffffffffffffffffffffffffffffff",
"ffffffffffffffffffffffffffffffffffffffffffffffffffffffffffffffff",
"ffffffffffffffffffffffffffffffffffffffffffffffffffffffffffffffff",
"ffffffffffffffffffffffffffffffffffffffffffffffffffffffffffffffff",
"ffffffffffffffffffffffffffffffffffffffffffffffffffffffffffffffff",
"ffffffffffffffffffffffffffffffffffffffffffffffffffffffffffffffff",
"ffffffffffffffffffffffffffffffffffffffffffffffffffffffffffffffff",
"ffffffffffffffffffffffffffffffffffffffffffffffffffffffffffffffff",
"ffffffffffffffffffffffffffffffffffffffffffffffffffffffffffffffff",
"ffffffffffffffffffffffffffffffffffffffffffffffffffffffffffffffff",
"ffffffffffffffffffffffffffffffffffffffffffffffffffffffffffffffff",
"ffffffffffffffffffffffffffffffffffffffffffffffffffffffffffffffff",
"ffffffffffffffffffffffffffffffffffffffffffffffffffffffffffffffff",
"ffffffffffffffffffffffffffffft....ffffffffffffffffffffffffffffff",
"fffffffffffffffffffffffffffffy....ffffffffffffffffffffffffffffff",
"fffffffffffffffffffffffffffffy.55.ffffffffffffffffffffffffffffff",
"fffffffffffffffffffffffffffffy.55.ffffffffffffffffffffffffffffff",
"fffffffffffffffffffffffffff..$5ss5@..fffffffffffffffffffffffffff",
"fffffffffffffffffffffffffff..%sss5@..fffffffffffffffffffffffffff",
"fffffffffffffffffffffffffff..%sss5@..fffffffffffffffffffffffffff",
"fffffffffffffffffffffffffff.5ws555555fffffffffffffffffffffffffff",
"fffffffffffffffffffffffffff.7es555555fffffffffffffffffffffffffff",
"fffffffffffffffffffffffffff0sss555555.ffffffffffffffffffffffffff",
"fffffffffffffffffffffffffff0sss555555.ffffffffffffffffffffffffff",
"ffffffffffffffffffffffff...0ss5555555.....ffffffffffffffffffffff",
"fffffffffffffff..........#5sss55555555+.........Xfffffffffffffff",
"fffffffffffff..-;5uip5rrrrr5555555555555rriiii5&*..fffffffffffff",
"fffffffffffff..<>5dds555555555555555555555dddd5....fffffffffffff",
"fffffffffffff..<>5dds555555555555555555555dddd5....fffffffffffff",
"fffffffffffffff. >6555555555555555555555555555>.Xfffffffffffffff",
"fffffffffffffffff>>>:55555555555555555555551>>>fffffffffffffffff",
"fffffffffffffffff>>>:55555555555555555555551>>>fffffffffffffffff",
"fffffffffffffffff.>>:5555555555555555555>>>>>,.fffffffffffffffff",
"ffffffffffffffffff..O>555555555555555555>>>o..ffffffffffffffffff",
"ffffffffffffffffff..O>555555555555555555>>>o..ffffffffffffffffff",
"ffffffffffffffffff008=555555555555555555===q09ffffffffffffffffff",
"fffffffffffffffffffff...5555555555555555>>.fffffffffffffffffffff",
"fffffffffffffffffffff.55da55555555555555>>.fffffffffffffffffffff",
"fffffffffffffffffffff.55da55555555555555>>.fffffffffffffffffffff",
"fffffffffffffffffffff.55da55555555555555>>.fffffffffffffffffffff",
"fffffffffffffffffffff.55da5555555>>>>555>>.fffffffffffffffffffff",
"fffffffffffffffffffff.55da5555544>>>>555>>.fffffffffffffffffffff",
"fffffffffffffffffffff.55555552>..>>>>>>>>>....ffffffffffffffffff",
"fffffffffffffffffffff.55555552>..>>>>>>>>>....ffffffffffffffffff",
"fffffffffffffffffffff.5553>..........>>>>>>o..ffffffffffffffffff",
"ffffffffffffffffff..O>>>...ffffffffff.....>o..ffffffffffffffffff",
"ffffffffffffffffff..O>>>...ffffffffff.....>o..ffffffffffffffffff",
"fffffffffffffffffffff...ffffffffffffffff......ffffffffffffffffff",
"fffffffffffffffffffff...ffffffffffffffff......ffffffffffffffffff",
"ffffffffffffffffffffffffffffffffffffffffffffffffffffffffffffffff",
"ffffffffffffffffffffffffffffffffffffffffffffffffffffffffffffffff",
"ffffffffffffffffffffffffffffffffffffffffffffffffffffffffffffffff",
"ffffffffffffffffffffffffffffffffffffffffffffffffffffffffffffffff",
"ffffffffffffffffffffffffffffffffffffffffffffffffffffffffffffffff",
"ffffffffffffffffffffffffffffffffffffffffffffffffffffffffffffffff",
"ffffffffffffffffffffffffffffffffffffffffffffffffffffffffffffffff",
"ffffffffffffffffffffffffffffffffffffffffffffffffffffffffffffffff",
"ffffffffffffffffffffffffffffffffffffffffffffffffffffffffffffffff",
"ffffffffffffffffffffffffffffffffffffffffffffffffffffffffffffffff",
"ffffffffffffffffffffffffffffffffffffffffffffffffffffffffffffffff",
"ffffffffffffffffffffffffffffffffffffffffffffffffffffffffffffffff",
"ffffffffffffffffffffffffffffffffffffffffffffffffffffffffffffffff",
"ffffffffffffffffffffffffffffffffffffffffffffffffffffffffffffffff"
};
