/* XPM */
static char *star[] = {
/* columns rows colors chars-per-pixel */
"64 64 49 1 ",
"  c None",
". c #18171A",
"X c #18171C",
"o c #18181C",
"O c #1A181D",
"+ c #19181E",
"@ c #1B1B1F",
"# c #1C1B1E",
"$ c #1E1C1D",
"% c #2E2C23",
"& c #333235",
"* c #45402D",
"= c #56544E",
"- c #815F31",
"; c #81602E",
": c #9F7435",
"> c #AA7933",
", c #AA7A33",
"< c #FDAF40",
"1 c #FBB041",
"2 c #FCB040",
"3 c #FDB040",
"4 c #FDB140",
"5 c #FDB041",
"6 c #FEB041",
"7 c #F7E060",
"8 c #F8E664",
"9 c #F7EB67",
"0 c #F8EB67",
"q c #F8EB68",
"w c #F8EB69",
"e c #F9EB69",
"r c #F8EC68",
"t c #F8EC69",
"y c #828281",
"u c #828184",
"i c #828284",
"p c #848185",
"a c #F9EF84",
"s c #FAEF88",
"d c #FBF3A7",
"f c #D2D2D2",
"g c #D2D2D3",
"h c #FBF8C7",
"j c #FCF7C8",
"k c #FCF7C9",
"l c #FEFDF8",
"z c #FFFDFE",
"x c white",
/* pixels */
"                                                                ",
"                                                                ",
"                                                                ",
"                                                                ",
"                                                                ",
"                                                                ",
"                                                                ",
"                                                                ",
"                                                                ",
"                                                                ",
"                             gXXXX                              ",
"                             gXXXX                              ",
"                             gX00X                              ",
"                             gX00X                              ",
"                           XXX.00XXXX                           ",
"                           XXXX00XXXX                           ",
"                           XX*0zx0$XX                           ",
"                          XXX=zzx0$XXX                          ",
"                          XXX=xzz0$XXX                          ",
"                          X00ax000000X                          ",
"                          Xqqsz000000X                          ",
"                          Xxzzz000000XXX                        ",
"                          Xzzzz000000XXX                        ",
"                      XXXXqzzz0000000qXXXXXX                    ",
"           XXXXXXXXXXXX%000zzzq000000000#XXXXXXXXXXXo           ",
"           Xo.XXXXXX..X%000zzz0000000000#.XXXXX.XXX.o           ",
"         XXX.22rrrrrxxxxxxzqqq0000000000rrxxrrrrr5125.X         ",
"         XX>>220hkk0dddddddq00000000000000ddkkjj015-;XX         ",
"         XX55220xxx0000000000000000000000000xxxx022.XXX         ",
"         XX52229xxx0000000000000000000000000xxxx025XXXX         ",
"           X.525q9000000000000000000000000000000151.o           ",
"             X.152<000000000000000000000000005222XX             ",
"             X.522<q00000000000000000000000005222XX             ",
"               X25<q0000000000000000000000222255.               ",
"                .Xo50000000000000000000000212oXX                ",
"                XXo50000000000000000000000252oXX                ",
"                uuy:qqq0000000000000000000::>puu                ",
"                   orr00000000000000000000.XX                   ",
"                   oXX0000000000000000000051X                   ",
"                   XX.0000000000000000000011X                   ",
"                   Xq0xl00000000000000000022X                   ",
"                   X00xl00000000000000000022X                   ",
"                   X00xl00000000990000000022X                   ",
"                   X00xl000000009<<<20000022X                   ",
"                   X00xl000009999<2220000022.                   ",
"                   X00000000075X.22122222222XXXX                ",
"                   X0000900q075XX12521222222XXXX                ",
"                   X0008225XX.XXXX.X.52222225oXX                ",
"                   X552222.XX&    @XXXXX5222<XXX                ",
"                   X515122XXX&    @XXXXX12255#XX                ",
"                XXo522.XXX            XX.XXX5oXX                ",
"                XXo522XXXX            XXXXXX5oXX                ",
"                   XXX                    XXXXXX                ",
"                   XXX                    XXXXXX                ",
"                                                                ",
"                                                                ",
"                                                                ",
"                                                                ",
"                                                                ",
"                                                                ",
"                                                                ",
"                                                                ",
"                                                                ",
"                                                                "
};
