/* XPM */
static char *result[] = {
/* columns rows colors chars-per-pixel */
"64 64 45 1 ",
"  c #18171A",
". c #18171C",
"X c #18181C",
"o c #1A181D",
"O c #19181E",
"+ c #1B1B1F",
"@ c #1C1B1E",
"# c #1E1C1D",
"$ c #2E2C23",
"% c #333235",
"& c #45402D",
"* c #56544E",
"= c #815F31",
"- c #81602E",
"; c #9F7435",
": c #AA7933",
"> c #AA7A33",
", c #FDAF40",
"< c #FBB041",
"1 c #FCB040",
"2 c #FDB140",
"3 c #FDB041",
"4 c #FEB041",
"5 c #F7E060",
"6 c #F8E664",
"7 c #F7EB67",
"8 c #F8EB67",
"9 c #F8EB68",
"0 c #F9EB69",
"q c #828281",
"w c #828184",
"e c #828284",
"r c #848185",
"t c #F9EF84",
"y c #FAEF88",
"u c #FBF3A7",
"i c #D2D2D2",
"p c #D2D2D3",
"a c #FBF8C7",
"s c #FCF7C8",
"d c #FCF7C9",
"f c #FEFDF8",
"g c #FFFDFE",
"h c white",
"j c None",
/* pixels */
"jjjjjjjjjjjjjjjjjjjjjjjjjjjjjjjjjjjjjjjjjjjjjjjjjjjjjjjjjjjjjjjj",
"jjjjjjjjjjjjjjjjjjjjjjjjjjjjjjjjjjjjjjjjjjjjjjjjjjjjjjjjjjjjjjjj",
"jjjjjjjjjjjjjjjjjjjjjjjjjjjjjjjjjjjjjjjjjjjjjjjjjjjjjjjjjjjjjjjj",
"jjjjjjjjjjjjjjjjjjjjjjjjjjjjjjjjjjjjjjjjjjjjjjjjjjjjjjjjjjjjjjjj",
"jjjjjjjjjjjjjjjjjjjjjjjjjjjjjjjjjjjjjjjjjjjjjjjjjjjjjjjjjjjjjjjj",
"jjjjjjjjjjjjjjjjjjjjjjjjjjjjjjjjjjjjjjjjjjjjjjjjjjjjjjjjjjjjjjjj",
"jjjjjjjjjjjjjjjjjjjjjjjjjjjjjjjjjjjjjjjjjjjjjjjjjjjjjjjjjjjjjjjj",
"jjjjjjjjjjjjjjjjjjjjjjjjjjjjjjjjjjjjjjjjjjjjjjjjjjjjjjjjjjjjjjjj",
"jjjjjjjjjjjjjjjjjjjjjjjjjjjjjjjjjjjjjjjjjjjjjjjjjjjjjjjjjjjjjjjj",
"jjjjjjjjjjjjjjjjjjjjjjjjjjjjjjjjjjjjjjjjjjjjjjjjjjjjjjjjjjjjjjjj",
"jjjjjjjjjjjjjjjjjjjjjjjjjjjjjjjjjjjjjjjjjjjjjjjjjjjjjjjjjjjjjjjj",
"jjjjjjjjjjjjjjjjjjjjjjjjjjjjjjjjjjjjjjjjjjjjjjjjjjjjjjjjjjjjjjjj",
"jjjjjjjjjjjjjjjjjjjjjjjjjjjjji....jjjjjjjjjjjjjjjjjjjjjjjjjjjjjj",
"jjjjjjjjjjjjjjjjjjjjjjjjjjjjjp....jjjjjjjjjjjjjjjjjjjjjjjjjjjjjj",
"jjjjjjjjjjjjjjjjjjjjjjjjjjjjjp.88.jjjjjjjjjjjjjjjjjjjjjjjjjjjjjj",
"jjjjjjjjjjjjjjjjjjjjjjjjjjjjjp.88.jjjjjjjjjjjjjjjjjjjjjjjjjjjjjj",
"jjjjjjjjjjjjjjjjjjjjjjjjjjj....88....jjjjjjjjjjjjjjjjjjjjjjjjjjj",
"jjjjjjjjjjjjjjjjjjjjjjjjjjj..&8gg8#..jjjjjjjjjjjjjjjjjjjjjjjjjjj",
"jjjjjjjjjjjjjjjjjjjjjjjjjj...*ggg8#..jjjjjjjjjjjjjjjjjjjjjjjjjjj",
"jjjjjjjjjjjjjjjjjjjjjjjjjj...*ggg8#..jjjjjjjjjjjjjjjjjjjjjjjjjjj",
"jjjjjjjjjjjjjjjjjjjjjjjjjj.88tg888888jjjjjjjjjjjjjjjjjjjjjjjjjjj",
"jjjjjjjjjjjjjjjjjjjjjjjjjj.00yg888888jjjjjjjjjjjjjjjjjjjjjjjjjjj",
"jjjjjjjjjjjjjjjjjjjjjjjjjj.gggg888888..jjjjjjjjjjjjjjjjjjjjjjjjj",
"jjjjjjjjjjjjjjjjjjjjjjjjjj.gggg888888..jjjjjjjjjjjjjjjjjjjjjjjjj",
"jjjjjjjjjjjjjjjjjjjjjjj...8ggg8888888......jjjjjjjjjjjjjjjjjjjjj",
"jjjjjjjjjjjjj...........$88ggg888888888@..........Xjjjjjjjjjjjjj",
"jjjjjjjjjjjjj...........$88ggg888888888@..........Xjjjjjjjjjjjjj",
"jjjjjjjjjjj..:>18asd8uuuuuu88888888888888uussss81=-..jjjjjjjjjjj",
"jjjjjjjjjjj..3118hhg88888888888888888888888hhhh81....jjjjjjjjjjj",
"jjjjjjjjjjj..3118hhg88888888888888888888888hhhh81....jjjjjjjjjjj",
"jjjjjjjjjjjjj. 1198888888888888888888888888888811.Xjjjjjjjjjjjjj",
"jjjjjjjjjjjjjjj.111,8888888888888888888888884111.jjjjjjjjjjjjjjj",
"jjjjjjjjjjjjjjj.111,8888888888888888888888884111.jjjjjjjjjjjjjjj",
"jjjjjjjjjjjjjjjj.11,888888888888888888888111112.jjjjjjjjjjjjjjjj",
"jjjjjjjjjjjjjjjjj..O188888888888888888888111o..jjjjjjjjjjjjjjjjj",
"jjjjjjjjjjjjjjjjj..O188888888888888888888111o..jjjjjjjjjjjjjjjjj",
"jjjjjjjjjjjjjjjjjeeq;88888888888888888888;;;rewjjjjjjjjjjjjjjjjj",
"jjjjjjjjjjjjjjjjjjjj...88888888888888888811.jjjjjjjjjjjjjjjjjjjj",
"jjjjjjjjjjjjjjjjjjjj...88888888888888888811.jjjjjjjjjjjjjjjjjjjj",
"jjjjjjjjjjjjjjjjjjjj.88hf888888888888888811.jjjjjjjjjjjjjjjjjjjj",
"jjjjjjjjjjjjjjjjjjjj.88hf888888888888888811.jjjjjjjjjjjjjjjjjjjj",
"jjjjjjjjjjjjjjjjjjjj.88hf888888888888888811.jjjjjjjjjjjjjjjjjjjj",
"jjjjjjjjjjjjjjjjjjjj.88hf888888881111888811.jjjjjjjjjjjjjjjjjjjj",
"jjjjjjjjjjjjjjjjjjjj.88hf888888771111888811.jjjjjjjjjjjjjjjjjjjj",
"jjjjjjjjjjjjjjjjjjjj.8888888851..1111111111....jjjjjjjjjjjjjjjjj",
"jjjjjjjjjjjjjjjjjjjj.8888888851..1111111111....jjjjjjjjjjjjjjjjj",
"jjjjjjjjjjjjjjjjjjjj.888611..........1111111o..jjjjjjjjjjjjjjjjj",
"jjjjjjjjjjjjjjjjjjjj.11111...%jjjj+....<1111o..jjjjjjjjjjjjjjjjj",
"jjjjjjjjjjjjjjjjj..O111...jjjjjjjjjjj......1o..jjjjjjjjjjjjjjjjj",
"jjjjjjjjjjjjjjjjj..O111...jjjjjjjjjjj......1o..jjjjjjjjjjjjjjjjj",
"jjjjjjjjjjjjjjjjjjjj...jjjjjjjjjjjjjjjjjj......jjjjjjjjjjjjjjjjj",
"jjjjjjjjjjjjjjjjjjjj...jjjjjjjjjjjjjjjjjj......jjjjjjjjjjjjjjjjj",
"jjjjjjjjjjjjjjjjjjjjjjjjjjjjjjjjjjjjjjjjjjjjjjjjjjjjjjjjjjjjjjjj",
"jjjjjjjjjjjjjjjjjjjjjjjjjjjjjjjjjjjjjjjjjjjjjjjjjjjjjjjjjjjjjjjj",
"jjjjjjjjjjjjjjjjjjjjjjjjjjjjjjjjjjjjjjjjjjjjjjjjjjjjjjjjjjjjjjjj",
"jjjjjjjjjjjjjjjjjjjjjjjjjjjjjjjjjjjjjjjjjjjjjjjjjjjjjjjjjjjjjjjj",
"jjjjjjjjjjjjjjjjjjjjjjjjjjjjjjjjjjjjjjjjjjjjjjjjjjjjjjjjjjjjjjjj",
"jjjjjjjjjjjjjjjjjjjjjjjjjjjjjjjjjjjjjjjjjjjjjjjjjjjjjjjjjjjjjjjj",
"jjjjjjjjjjjjjjjjjjjjjjjjjjjjjjjjjjjjjjjjjjjjjjjjjjjjjjjjjjjjjjjj",
"jjjjjjjjjjjjjjjjjjjjjjjjjjjjjjjjjjjjjjjjjjjjjjjjjjjjjjjjjjjjjjjj",
"jjjjjjjjjjjjjjjjjjjjjjjjjjjjjjjjjjjjjjjjjjjjjjjjjjjjjjjjjjjjjjjj",
"jjjjjjjjjjjjjjjjjjjjjjjjjjjjjjjjjjjjjjjjjjjjjjjjjjjjjjjjjjjjjjjj",
"jjjjjjjjjjjjjjjjjjjjjjjjjjjjjjjjjjjjjjjjjjjjjjjjjjjjjjjjjjjjjjjj",
"jjjjjjjjjjjjjjjjjjjjjjjjjjjjjjjjjjjjjjjjjjjjjjjjjjjjjjjjjjjjjjjj"
};
