/* XPM */
static char *beb336ea75c94479e1daee7bd680894dsfpFUXR8IA8AUHZI[] = {
/* columns rows colors chars-per-pixel */
"64 64 74 1 ",
"  c #3F372F",
". c #373737",
"X c #3F3731",
"o c #3F3832",
"O c #373738",
"+ c #3C3C3C",
"@ c #423A34",
"# c #433E39",
"$ c #46413C",
"% c #49423D",
"& c #3F3F40",
"* c #3F4040",
"= c #444444",
"- c #4A4643",
"; c #4D4945",
": c #474748",
"> c #484748",
", c #474848",
"< c #4B4B4B",
"1 c #534C46",
"2 c #594F47",
"3 c #524E4B",
"4 c #55514E",
"5 c #5B544D",
"6 c #4F5050",
"7 c #545453",
"8 c #595653",
"9 c #5C5956",
"0 c #575758",
"q c #575858",
"w c #5D5B5A",
"e c #625B56",
"r c #615E5C",
"t c #63615F",
"y c #69625D",
"u c #5F5F60",
"i c #656463",
"p c #696765",
"a c #6A6867",
"s c #676768",
"d c #676868",
"f c #6C6C6B",
"g c #716C67",
"h c #706F6E",
"j c #72706F",
"k c #6F6F70",
"l c #6F7071",
"z c #737373",
"x c #787776",
"c c #7A7877",
"v c #767778",
"b c #777879",
"n c #7B7B7B",
"m c #817F7E",
"M c #82807F",
"N c #7E7F80",
"B c #807F80",
"V c #7F8081",
"C c #838384",
"Z c #888685",
"A c #8B8887",
"S c #868789",
"D c #888788",
"F c #878889",
"G c #8A8A8B",
"H c #908F8E",
"J c #8E8F90",
"K c #908F91",
"L c #8F9092",
"P c #939394",
"I c #989797",
"U c #959698",
"Y c #9A9B9C",
"T c #A2A2A2",
/* pixels */
",jrvzz3%@@#@@@@   @3<6=-$3wflfi9wdf,@$@ o:7:-##7fzw;# X#$o#$4i77",
"fnxihfjamafe8nbxNvah==e599ti4%wziftzffwzff,Zitwiwaifzfiiifwi7ii=",
"xebnzefg8nbfp8hpefkb:*f7li9ir47wfiifzfifhi>ntlffw8afwiwiffttili&",
"f9ibrwnzzphhjahfawwN=+jffid9drtika75afjvfi>xx8d7r4ppfiiwtzzwwdi+",
"fpr9tthifzhjvsvibdix:+hizzfffiqwifip4zwzfi:hffwfwwiwffufitfffix+",
"fjatiifbvgbvjtfvlfin==fifzzwitwi7rfifkpjxw:hwx7lwwifiifbzhwq7kx&",
"txfzjfx9zNzhzrxvxxzn:+fjlidfkfk4ifffqt9jpr,jwilkfifdpzuiifzzi7n&",
"aajjfh8zrzvfavvnzzzc,*zxuffzfdfrxewffwbzfw,x7fzufkflfwiziklfiwl+",
"jhhzjzf4ffhjfzvfxftF<=nzfzifjffqafdii9zrxs<bskilsizikzafffzffzx=",
"=UKGJGAGZGDGDDGJLPGU<<bZZBnmNnnNNnnnCCZCV<77NZVSbCCmnCZCSNnZCVw<",
">======%=<66>===:::,<6,,::>>:><73,,,::::,<<<,,,,,:>,76,:=:==::,<",
"UZAmjgrpe=68iiBnDjDCGFncnir195#<=95585hZMhinCGMa4598,,e55hxxDJPI",
"vvijftaghi>mrkfrwr78hzzktfejffa=wzizidwizzbfiafeihzv3+Bfjfnxpi7a",
"fzajjhjzhf=Baisiii-rr<izfzrsffi+8nzzff7w8f49ipfjaczf3Onffniaeihh",
"pvfjjnfrhr=jrithrfp<isizffsizzw&8cixfx8fw4ffaiafjfzf<OCvbpapii4z",
"jeafnxznsi=Bskszppiiwwijjzzjkfk+8niz7tzdihacixzi7ttk>+czhfcbxffw",
"ttxr8hhjfi:nsf98aiidi3w48pwfzfs&wfirwfkdvi5wzzitfzff>+Cxijbczai9",
"jiiiagvBza:niiffirizsqi;wfpaiir+rvasfszf9fxiiwlfxafn<+N8wpznzxjf",
"vuhzzzgNbz:nieiifds8itz097fahjz+rzvfzzfx3faff9ajzbbf,+xgxcthfcnV",
"njhnzZppDn,GwvzfzraziwxirwizxnN:ibbxbbfrznxrbxzbvbVG,=DCfnzmZCnb",
"00uw07700>7>wqwq077700q07q0=wq,7<wwwqw6qqqqq90qq00q6<7,q9qq7qq7q",
"<&+++++++&&&+++++++=77:==&=========*====:<7,+OOO+O.+O+O..OOO.+=7",
">zfzhfzaatfhjiarf8z5=,ti8rqw0zfhziffffphtp<AaxxtvnafjzyiieixChe:",
"rpzahvvz8riizpfffzfc:=wrikaifiiftiwtizifzb:Af4xxeaxatjnnxatfxfb+",
"rhjaibvxriifxfzxezbf==p7zwwiwfffszirsfvi8C:HbatafflxzzmfiNvjafn+",
"a8vfwazzfzkwpibffzfh==fiii6ikqfwkiufiiiwzg=UxzxzxnCexxznnxcjnexO",
"8rs7vjfxnfqw3kfzxzbx:=iffk7i77ifiwtt70iz8f=HfaajigfCjf8f9izaaaiO",
"8bi#wjhzzvz9w7zxzfzn,=biiqfuiwt3sfiiikiita=Zfzcgbzzzir8hwnfcxVfO",
"wtffptwfzffxkft88afn<=iffiiqii7rfkfktw8<rp:AgzfbxbepvaljfxvfcVf.",
"8zzpw8f3xxfzzkarfzt97=kiiiliwuiuwfiftsfzwa:IBjibvtffbtxzzlnVnnx+",
"<GBzBziminxbiNhZVnCF,<CixnnNkzizbwzfvfbbbi<YGGFSDDDDGFFSZSCGGJG,",
"<&+O+++++==++++++++:66,=******==::=&&&===,7:+++.+OO++&O......O=6",
"@@@@@@#ii=7<zzfafwq7###:i7ffzt<7,ifxzki;473ii3<1#O@#<<$$-8$$$1@@",
"xxtmzzxxin,Dkza7eawiflz9izffkik=hxzzefxfr8rffffizxzb,+UMhnMncnmj",
"ccxih8tfcc=V,twpfflxfillflzpzzC&zblfizi8iifsftzfhbaa<+ChnjMnnxna",
"nhnpzBfVnb:Dzerftldfuziffsaww9p&df73tffifzflzxrkxwba7Ohizj989xnx",
"xxzczxjfnh:zzffffqfzddfulriztff&7fpfiffffiikfxfzfzfw7.mia9njrtgn",
"zjnchcfixi=jfw8qafdzizszifidirz+krxwffizzdfkbbzfi83x<.maemzrriai",
"enmNnhjaca=jiffislkffdifiiwiiwi+izrzwlezffxrwi3fhhfh>Onaxpxz9fif",
"4hnxbnnxbh:cfkffzlxffwi4ai3fizf$fprwxxvzz4fwf98qprpB,Ocavnxzhnhy",
"xtwnMCzcMf,cffzftvzfiazzzftilib=tepzrzhfwffvfpet8zzk<+Cfncczrhmn",
"GLYAUYYUU,7qZCCZCCfptzcnZASZCSf<:CCZFFGGZCSGGDDFNCZZ<,mPPUKHPPKH",
"<,::=::=,,<<:,,,:::,34,:====:=:,>:==$====<6<,>::::>,<3>:=====>>6",
",ewznnxCZatkhicfCNVS,,TxHgyremy555e522e8t=7fnz989hefphfrgticpew<",
"riqf3tt7ifzuixkfdf9j7+nCixgznirbcCfbzvCnzz:cjazfx0irzzabfit4zvn=",
"wfiiff9ie7flflzariiiq+etztxfzcmfzxjnnnNBCx=mafzzfzzikjzkffiw8pv&",
"9pfdiwi7t7itwww4qffbqOxhzctChhfxxznhinfNjb:mxxlfwkpzz7fzazvkkkm#",
"iiilfd9fwiw-7iwiui4a8OZzjnhrzxCVnvazzzi8Nn=xiwffwzfisktvztfvftN&",
"fbldpfiiswwrwqziwrtl7+Ggzzzpnnnnxazvbfx9xC=mf>twfiphxdi8ir7;3ab*",
"dzksizfffurlzfi7i7fdqOncctjpiap51znnxbpiiZ=giaifzfzszifqeti741i&",
"wazi7kkxfkwrfiwfwasd7OZczbfgifabjvbnxbvzzJ:zizif7djf7fifirzzw8w#",
"itqxifxxfbzzxzviazif<=MzcbZGbnCnCZZhfjNCxG,ZfxlzfxzztjzbfzxzNdv:",
"<ww6wwqq078770qq97w67<>8q7777q7q0qq0qqwwu:7,wqww00qq<>qq70707q,7",
"*&&*&&&+=67,+OO+OO+O++++OO...O=7<*+++++++&**+++++++:47:#&&*+&+&=",
"f-8elvzhb;<yfe9ipfZbba8jey8y9ew=3zffrfz9ilfxibe8erwf:,zzn8f99zwi",
"fptiqixzkt:cebhfvkizfyvnzzfcbnp+iffbzfzqtfxzzxffiz9i<+nzeiexiffr",
"zzzifuizji=Airzffi7ffznhbimznfz+pfizzrjklftvxflbiffl<*xhliflfbfw",
"ffww7858fs=hhgrfzwrtigafzbnBbNbOphsjiiwwfffzifafzxii<+8hfxzfdfli",
"iiia7ipijz=mihfitffuhhnnnnxbbnl+pjv8jkzkzi97fiifbnvb7*9i9zzlzzff",
"vffpf8p0kf=hnzpxffzi3hnbf8ib8rn+rf80fvji-w334zcxlkff<+f3iiixflwl",
"j3ififtfrh=mxjnzxfffe3ibfffhzjfOrptwafr3ii83wazcfzvx<=h9af3<liwj",
"z7friskzff=h5rnnzbbdxfihxzxxNzv+pfzfwfifiawzffwpzkle,=zzwaw477vj",
"VNnbNbZvGt<mGCZSSNVSZVxnnNZGSGJ>7GSbCBNnCCVnCnbwnCCG:,DnnZCfabtC",
"=*#+&+++&:6=++OOO+O+&*++O+O+++:7<=&+&&#+&*===+++*+*=66:**+*+*+=="
};
