/* XPM */
static char *_8aa81e448124113b13613d13844894c5k7oFbxb5kbvmvaC[] = {
/* columns rows colors chars-per-pixel */
"64 64 247 2 ",
"   c #3A311D",
".  c #463C1F",
"X  c #433A23",
"o  c #4C442C",
"O  c #564C31",
"+  c #605132",
"@  c #6D623E",
"#  c #76663B",
"$  c #756647",
"%  c #7B6C4C",
"&  c #786F4D",
"*  c #766952",
"=  c #7B6C52",
"-  c #8C753B",
";  c #8A7644",
":  c #857448",
">  c #957E46",
",  c #897650",
"<  c #897956",
"1  c #99803E",
"2  c #9E8547",
"3  c #8F8259",
"4  c #988655",
"5  c #94835A",
"6  c #9C8C5D",
"7  c #A48947",
"8  c #AD914B",
"9  c #B7974B",
"0  c #A48B52",
"q  c #A28E5C",
"w  c #A5915C",
"e  c #AA9558",
"r  c #B49856",
"t  c #BB9E55",
"y  c #B59D5A",
"u  c #BDA156",
"i  c #BCA25D",
"p  c #958761",
"a  c #9B8C63",
"s  c #9E9367",
"d  c #A49364",
"f  c #AB9664",
"g  c #AC9A63",
"h  c #A29268",
"j  c #A7986A",
"k  c #AD9C6C",
"l  c #B39D67",
"z  c #BCA462",
"x  c #B5A46B",
"c  c #B9A669",
"v  c #BBA56B",
"b  c #ABA274",
"n  c #B4A372",
"m  c #BCAB73",
"M  c #B8A979",
"N  c #BDB177",
"B  c #BFB27C",
"V  c #C09D50",
"C  c #C9A54D",
"Z  c #C3A355",
"A  c #CAA755",
"S  c #C3A55B",
"D  c #CAA65A",
"F  c #C5A95D",
"G  c #CCAB5B",
"H  c #D4AC55",
"J  c #D2AE5B",
"K  c #CEB15E",
"L  c #D4B35D",
"P  c #DAB65C",
"I  c #E2B85E",
"U  c #C1A667",
"Y  c #C5AB64",
"T  c #CBAD63",
"R  c #C4AC6C",
"E  c #CAAD69",
"W  c #D4AF61",
"Q  c #CDB264",
"!  c #C6B16D",
"~  c #CCB36C",
"^  c #CEB86F",
"/  c #D4B464",
"(  c #DBB664",
")  c #D6B965",
"_  c #DCBA64",
"`  c #D3B56B",
"'  c #D9B66C",
"]  c #D4B96C",
"[  c #DBBC6C",
"{  c #C3AD74",
"}  c #CBAE71",
"|  c #C2AE7A",
" . c #C4B275",
".. c #CBB473",
"X. c #CEBA74",
"o. c #C5B47B",
"O. c #CBB57A",
"+. c #CCBA7C",
"@. c #D3B673",
"#. c #D4BC74",
"$. c #DBBD74",
"%. c #D2B67A",
"&. c #D3BC7C",
"*. c #DABE7B",
"=. c #E2BC64",
"-. c #E8BC63",
";. c #E3BE6A",
":. c #E1BE74",
">. c #DFC064",
",. c #DEC16C",
"<. c #CFC17F",
"1. c #DCC274",
"2. c #DCC574",
"3. c #D6C17D",
"4. c #DCC37C",
"5. c #DEC97D",
"6. c #E2C166",
"7. c #E3C46C",
"8. c #EBC46B",
"9. c #EDC76A",
"0. c #F2CC6A",
"q. c #F8D36E",
"w. c #E3C474",
"e. c #EAC673",
"r. c #E5C974",
"t. c #EBCB74",
"y. c #E2C47B",
"u. c #E9C67A",
"i. c #E4CA7D",
"p. c #EACC7C",
"a. c #F2CC74",
"s. c #F3CE7C",
"d. c #EFD175",
"f. c #ECD27D",
"g. c #F3D274",
"h. c #FCD777",
"j. c #F3D37D",
"k. c #FDDA7D",
"l. c #FFE06D",
"z. c #FFE37B",
"x. c #FFE778",
"c. c #B9AC82",
"v. c #BEB388",
"b. c #C4AD80",
"n. c #CCBB82",
"m. c #C8B885",
"M. c #D3BE83",
"N. c #D8BE86",
"B. c #C6BB92",
"V. c #CDC38F",
"C. c #D5C283",
"Z. c #DBC484",
"A. c #DDCA85",
"S. c #D4C48A",
"D. c #DCC68B",
"F. c #D6C98B",
"G. c #DCCB8B",
"H. c #DDCB92",
"J. c #D6CA98",
"K. c #DED299",
"L. c #E2C583",
"P. c #E3C787",
"I. c #E4CB83",
"U. c #EBCC83",
"Y. c #E3CC8B",
"T. c #EACE8B",
"R. c #F1CF85",
"E. c #E5D184",
"W. c #ECD384",
"Q. c #EED885",
"!. c #E4D28C",
"~. c #ECD38B",
"^. c #EDD98D",
"/. c #F3D484",
"(. c #FAD584",
"). c #F4DA84",
"_. c #FBDC84",
"`. c #F3D58C",
"'. c #F8D78B",
"]. c #F4DA8C",
"[. c #FBDD8C",
"{. c #E4CE92",
"}. c #E1CA95",
"|. c #E4D392",
" X c #EBD493",
".X c #ECDA94",
"XX c #E2D49D",
"oX c #EBD69A",
"OX c #E5D999",
"+X c #ECDB9B",
"@X c #F2D692",
"#X c #F3DB93",
"$X c #FBDD93",
"%X c #F1D69B",
"&X c #F3DD9B",
"*X c #FADE9B",
"=X c #FFE384",
"-X c #FDE887",
";X c #FDE38C",
":X c #FFEA8B",
">X c #FFF78A",
",X c #EEE09F",
"<X c #F5E194",
"1X c #FDE393",
"2X c #FFEA94",
"3X c #F5E29B",
"4X c #FDE49B",
"5X c #FFEB9C",
"6X c #FFF396",
"7X c #FFFD95",
"8X c #FFF39C",
"9X c #FFFD9C",
"0X c #DCD4A2",
"qX c #E4DBA5",
"wX c #E6DAA6",
"eX c #ECDCA5",
"rX c #F3DCA2",
"tX c #ECE2A7",
"yX c #EDE3AB",
"uX c #F4E3A4",
"iX c #FCE5A2",
"pX c #F8E6A7",
"aX c #FEECA3",
"sX c #F4E5AD",
"dX c #F5EAAD",
"fX c #FDECAB",
"gX c #FFF3A4",
"hX c #FFFCA4",
"jX c #FFF4AB",
"kX c #FFFDAB",
"lX c #ECE4B2",
"zX c #F4ECB3",
"xX c #F5E9B5",
"cX c #FBEDB3",
"vX c #FEF3B4",
"bX c #FFFEB3",
"nX c #FEF5BB",
"mX c #FFFEBB",
"MX c #FEF5C2",
"NX c #FFFFC3",
"BX c #FFFFCB",
"VX c #FFFFD3",
"CX c #FFFFDB",
"ZX c #FFFFE2",
"AX c #FFFFED",
"SX c #FFFFF3",
"DX c #FFFFFA",
/* pixels */
"p.:XkX;X8X9X6X<X8X).gXkXi tXnXjX;.y.I.@XiX`.L.Z.hXS.u.1X_ e._.bXR u.$X5X$.mX5XU.$X4Xu.k.0 D.G.3X.X+X<XgXbXjX+XF.kX+Xk.W ( I $XnX",
"T t.r.] 7X5.5.Q.).W.f.z.S.pXP /.e.[.@X X4X/.Y.$X4Xl #.j.[.Y e.9XM.} R.$XjX*XE :.T.:.5X(.e o.|.C.m 5X3XjX.XjXuX.XmXB J I I H ( hX",
"u G 6.>.2.f.f.F.).~ Q.>X~ e.=.s.[ Y.T.#X*.4X`.`.gXw / '.;X@.$XbXM.L.rXN.L.U.'.*X[.T U.[.} aXjX#X<XbX+.M gXtXOXbXbXN t A 8.D s.=X",
"z <X2.i.~ <Xf.<XaXgXf.d.` 7 T Y W w.4.jX#X&.@XU W.w 2XU.[.I.!.2X0 $X:.R.:.u.U.R.@.aXU.jXv OXZ.kX.X5XF.G.F.!.4XjXjXOX8.W W A -.>X",
"K z.) 2.) ,.Q.6XQ.3X] r.i.uXfXnXs.kX4X&.Y.&.NXY.U.6 j.A.5X]..XmXl U.' } L.:.:.:.'.[.$XMX#XF..X5XH.3XgXA..XI.W.aX4Xo.Z ' e.R.:.8X",
"9 2.<X;XQ G K d.1.8XK.1.0.v.9 @.eXi 0 g 0 k q 4 Z.5 4 R ~ L.&.+X%.4X@X} `.R.P.T.*X[ T.'.4.m.G.+X+.!.A.F.c X.F. .O.| *.` $.E ' 1X",
"Q ) x.r.f.r.-X2.r.^.aXW.Z ~.aX..aX#XhXu.hXh.l.CXbXh..X8X:XjXkXkX} R.:.:.L.:.E :.y. XT.@X%XkXjXkXmX;XhXN m ^ 3.kXVX&X5X_.bX2XNX{ ",
"z Z 2.=Xd.i 2.g.K =XgX8Xn.Z.].^.Y.1.jX4.).Q.3.].L 3.X.1XI.^ ;XkX{ @XR.R.$X%.:.R.` aXL.iXT./ =.l.L C :Xo.3XNX+X].~.jXm G.4XD.jX].",
"z ) :XQ P 2.,.,.Q.2.2X^.C.i.E.A.M.#X#X .3XW.4.2X2.1X#X1.r.p.t.7X} T.:.P.U.$XU.@.`.:.%.MXf 5X9.g.6.h.0.4.O. X3X|.~.4XC.jXfXD.Y.7X",
"i 2.Q Q ,.>.) 7.6.j.Q.|.N A.].Z.` /.k...D.hX3.A.1X4.7.` ) G ,.l.f P.:.rXL.} $X} L.P.fX*Xn /.r.g.6.P l.&.~.|.2XU.|.C.#X#X4XaX3XBX",
"! r.r.2.K u L ! K 2.Q.7Xd #.G [ 3._ k.o.+XiX#X5.G.kXA.W.j.4.7.q.%.rX@X'.[.L.R.T.P.*X@.aXm 4X2Xw.L C 9.G.Z.$XaX!.T 4.o./ #X.XaXNX",
"8 c ! K ^ ) ! u u i N =Xg NXF Z [ Z i.C.!.].1X).5X!.E.y.j.)._.x.f } ' N.@.} fXT.{.$X} $X| ^ t.7.r.0.0.Z..XT '.!.1.gX .3XxXY.#XNX",
"f.x.z.-X<XbXx #X5.8X<XNX:XCXeXmXP 9.a.C.].R 4.I.1X3.~.;Xi./.I.9X4XgXbXhX(.$.q {.N.L.N.rXk M.e y <.2 S V.|.U.t.y...U .X.X$XZ.#XNX",
"mXB.lXQ eXNX~ aXy.(.[.@.'.( ~.mXe.8XkXm aX#X<X.X5X X!.A.r.Q.[.r.W.' '.<X@.kXN.P.$.(.( a.[.fXBX6XqXuX( D.C.M.4.w.1.3X/ gX#X7.A.kX",
"MXzXzXVXMXw.4 (._.3.5X3XU.2X X1X..W.bX6 C.OXgXY.2XY.#X3.~..XW.].w.;XY.'.Z.5XU *.T.$X} P.U $.t B.$XcXNXo.iX^.gXU.w.G r ( )..XVXvX",
"J.lXqXBXCXxX4 ' w.$.4X`.#.U.O.^.U. XmXm +.gX|.Q.Z.&.hXi.F.;X4X .`.p.Z.4X#XfXz T :.[.`.p.L.Z.@.oX4X4XhXc. Xn..X&.+X#.] T / ( hXDX",
"zXqXT yXqXNX4 t.e.W.[.Y.5X5X$X~.R u.hXk Y.!..X4X!.|.5X2X].Z.p.1.5Xv 4.I.$XgX0 U.} L.L.l iX@XN.T.{.y.`.m Y.#XU.C.|.I.V.^.Y ] A -X",
"2 Z lX0XlXqXv.H J $...4X!.'.4X*X4X( >Xq !.2X ..X3XZ.Y.8XA.#X5X .~ 1X&.#X~.@Xy  X&.L.4XT.n.@XM.N.T.*X(.m !.&.A.5XfX2Xi.4X .m.5X1.",
"k g 2 V.t NX= P VXp. XaXmX`.[./.W =.-Xn.3XmXbX5X5X+.N m x 3...O.e 0 x &.f N.w @X@XR D.%X XnX@XrXiX%XCX5 &.N.O.o.d x w  .e z i.hX",
"7.6Xd.d.x.nX< G $X&.2XD.*XC.7.$XU.=Xx.w ` ~ y.4.#Xw.ZXmXP H z.0._ j.;XVXmXZX< ` T.*Xn.T.P.fXM.%.%.aXbX%.1.bX#XW.8Xu.j.k.>XVXg.;X",
"BXbXyX+X0XNX= w.fX`. X5XP.4X[ 4.#.y.k.r $.x U +...o.fXvXNXqX/ 6._ Q vX/ yX>X6 U.aXvXiXD. X%X*XT.~.4XO.:.L.;.Z.' 9.i ! 5.).Q.t.t.",
",.) >.G NXh.* #XkXU.!.*X..+.@._.NXCXZX2 R u Y 4.n.n fXyXh.BXbXK _ :XjXdXNXAX< @XrX{.iXjXrX*X{.oX&. XN.Z ' _.W 4Xa.y X.t.[.5.i.r.",
"6.A.! ;XI.8X, %.`.~.L.Y.4.s.U.*.%.@.vX8 xXY M.{ OXa V.vXBXzX,XG F 6.P VXnXmX6 4XN.P.@X Xn %XrXrX{.@XN.`.G / D.:.jX{ <Xr.E.! Q i.",
"hX5Xz 4.hX1X< T T I.aX!.*X#X4XU.[.`.w.J.F lXt H.jXm.zXjXzXc.Z L ,.K _ fXnXDXf N.fX%XL.D.}.N. XrXL.*Xn.*X@.e.L.:.1Xg t.).^.<XQ 2.",
";Xp.^.].;X].k v., $ & d 6 q , $ o : g - q a B 5 6 3 1.6.mXNXu uX6.F ,.7.0.BX5 M k b.| | O.h b.oXN.oXn.T.rX@.E { aXk t.7.k.Q.Q.1.",
"8X.X^.[ L _.c iXjXmX.XNXBXhXkXhXjXgXNXbX5XbXVXmXBX6 A jXbXzXtX6.K ) ~ [ 7.7X4.9X$XT.H.iX}.N.N.N.p b.M d < = + , $X0 t.! ) E.4.E.",
"f.|.3X].] CX* aXF.M.#XY.kXaX&.3.2XkXfXjX3XC.].hXNXa 7.P >.tX8 1.P L ,.5./.t.! #.G @./.&Xm ' D 0.2XaXCXeX1Xk.8.cX9X- 7.L ] ).A.3.",
"3.T E.>.t.=X$ S.eXY.fX+XbX4.G.S. XgXA.bX^.{ !.5X4X6 ] ~._ >.nX4X[ n.!.r..XbX5XNX/ Y.+.jX| :.' T ( P 8XCXBXE BXsXBX- mX) Q.<.5Xm ",
"] 5.2X) K BX% M.D.%X Xm.~.U.Y..X.X X8X3XaXjXY.3XBXw ).Q.W.+.].K 3.X.<X5.X.kXA.) MXD rXmX{ L.M.@XT ' A ' a.nXfXcXBXB >.mXG 3XkX5X",
",.5XL <X1.mX# | C.fXD. X!.W.gX.X!.4X3Xo. .C.aXfX8Xk F.3X!.4.5X4.;X.X4.w.I.-Xr.p.F.bXD.I.M.1XU.5XO.N.4XY *.a.( J x.0 f.!.bXI.3.^.",
"X.i 0XOXyXBX5 +XD.M. XT.D.|.+..X|.+X.X3X&X#XA.1X].3 @.C.5X .O.I. .Q i i Z k.A G.{.oX'.L.w '.:.$X( $.R.U.`.`.C.u.:XN G.!.|.I...^.",
"5.3XT.T.@.BXV.tXG.m.n.o.a G.Y. .A.8XY.].<X!.+X<XhXp k |.kXOX1Xa jXT.T.Z.3.;X8 e ; j x {.> $X@.p.'.U e.w.$.i...5.6X$ ; . o o gX. ",
"<XgXhXi.8XE.Q.d.! 8 CXP v.C.&XgXgX4X#X4.<XuX!.G.NXG.i.I.E.i.2.8XaX+XgX4X#Xn.3XaX4X#XBXVXd U.E '.$X..'.@X XR.Y.iX1Xb./.5X`./.bXf ",
"5X4XX.5.kXF.8.bXvXzXNXAXJ.4X&XbX!.gX2X3X3XaXC.#X1XC. .^.p.#.I.g |.5XC.4X&XG.| ^.fXD.bXCXn $.[.P.(.Z.P.*.@X*.aXoXbX*.`.3./.1X4X* ",
"! A.<X.XQ S mXdXNXzXdXbXb .XhXD.aXC. XbX3.!..X#XhX+.!.E.W.A./.< +XU.C.m.NXN.uX X+.D.4X3Xa /.U.Z.*X`. X@XT.fX4.%XhX@X/.$X].[.$X* ",
"E.i.2.) S 7.2Xi u zXK.SXu <.!.gX.X.X5XgX3.bX.XC.~. .<X1.1.I.!.*  X/.|.H.Y.|.*X&.o.|.R mXd 4Xc y.$.$X X}.@XiXP.Y.kXN.*.4X1X%.*., ",
"<Xh.kXi.! u K 0X+XNXZ k.~ 3.3.E.3.5X|.3XgX;X4X3X<Xi.!.I.Y ..).x !.3.&.fX4XaX'.|.{.Z.C.bXk E $X&.%X~.N.Z.vX%.$X*XiXn $X4./.U.U.< ",
"bX] K ).BXmXmXnXjXE.:X3.1.d g c ..3.+.c m m  .W.mX> 2.3.5.A.4Xa .XG.5XA. .....^.4X!.S.W.: E l &.'.| Z.i.4XM.P.}.T.k I././.1X*.a ",
">.nXtXmXdXS ] ^ 2.3.W.F Q.-X5X;XhX2XkX;X|.bXhXr.>X/.4.^ I.).kX< jX#.4.#X3.5X4.C.3.3.4.2XT.hX;X2XgXaX%., 6 M m.S. Xk > o.w U T.< ",
"F ;Xd.u d.BXVXvXNXzXK.NXV.i ).Q.hX+.kXX. .#Xp.[.Y _ ).C.pXB.W., T 4.#.L.x &X.XU.5XI.$.gXC.$.R.8.Z.jXDX8.cX-.L.z.[ /.'.=.a.;.h.< ",
".XG.^ NXK tXK.mXbXkXtXmXeXA.Y L 5XgXbX..C.Y.3X5X#.Q ( Z W.BXBX% E |.Z.Z.Z.&.#X^ jX{.Y g.eXp.4X[.aXU.7Xy wXdX8 ( (.y.i.( Q _.e.$ ",
"vXnXNXdXF i.jXzXmX+XuX/ N ]..XA.r.hXA.+.fX+.+.3XC.C.w.T y =.t.* W.W.;XY.W.I.I.Z.4.i.r.5XF _.T...2XnXz.S.oXVX..#.` t.j.Q S ~ _.* ",
"VXdXtXK.BXvX0XK.V.K ).j.c +.A.d.E.4.6Xm  .C.@.] } I.-X5.|.A.A., y./ #.@.&.I.A.I.i.~.@X5Xe /.$X`.J cXhXXXBXNXsX~ S L e.r.[ E j.= ",
"V.dX0XqXzXdXdXOXy u u Q N d.A.i.j..XkXk ..4X3.Y #...~ i.5.i.W.| r ` X.~.E +.*...Y i qXaXn y.U.$X' BXH J.wXdXNXi G ;.D ( _ 8.8.l ",
"j.BXCXvXNXCXK.mXCXmXCX:X9.,.1.3.i 5X!.c ~.Y.c U.i.2.3.$.Z.4.1XOXF Q._.j.8.O. .R L.#XVXnXNXfX#.Z...9 S.wXoXfXvX9 Z Z S 9 S t g.R ",
"!.W._.I.I.;XH.BXJ.BXw.G K lXlXqXnXBXSXg X.3.4.[ O.#XG.!.~.F.aXx &.[.%.T e._.W j.NXnXnXfXt fXa._ e.j.D eXpXmXcXXX7 pXJ.wXBX/ C > ",
"Y.4.I.~.*X8X2 _ v.J.7.` i jXmXVXfXnXSXm 5.4.].X.$.5.H.Y.5X~.mX, $X$.~ #.$.-X0 *.e.L J =.VXy *.Y.y.bX(.XX/ BXJ.NXfXh.NXJ.qXnXk.@ ",
"O.4X5XgX|.kXv.mX;.Z Z r.J T 8.NXtXyXnXl 4.4.I.X.kX..#XC.&XS.OX< $.i.E F [ j.c /.^.M.y.` ( $.`.e.wX` kXO.i.I H.rXVXcXBXlXrXrXD : ",
"^.~.E.kXkXkX1 BX=.Z ` 4.] u Y / G _ BXz i.~.*.W.Y.Y.A.F.bX&X+X5 ( / ] u.$.j.z #.y...L.w.y.U.fXoXJ.`.2XH.~._ cXrXcXJ.cXBXXXsXS = ",
"].#X3X<X1./ m._.V.B.F @.$.Z.4.3.I.O.1.q 4.I.i.3.4XZ.A.aXmX|.NXd w.F Z 7.p.1X} ~.T.P.iX#.Z.'.%.$. X;.k.d pXI.t.dXb.mXsX0X[.mXnX, ",
"< c c x l p.# B.[.tXsXw. .[  X3X3XOXvX4 g e w x  .m 6 j 6 6 V.k - 7 J.e 2 7 a !.&.aX XoXZ.U.&Xy [.U.=Xf D.@Xg E 0Xc.c.a ; ; 7 , ",
"vXBXVXA =.h.# |.1X X#Xz  .aXN.^.W.A.jX) W.<X+X;XgXkX1X-X7X7X:X9XhXA.2X7.;Xg.d U.iX*.oX/.4X X4.L.I.S j.eXP #.k.` 6X=Xy.x.9XBXSXVX",
"fXNXcXeX7 CX< D.D.+.&.3X&.R Y !.T ].[ 1.Q w.t.( _.@.<X^ f.f.K 2.:X-Xf.5.!.>X<  XiXZ.P. X X4XT.Z. X` 4.wXsX8 ` _./.` L.*.T e.BXNX",
"` CX0XBXcX9X* +.Y.].#...[ R i w.F r [ #.[ F 2XT d.~ 1.X.Q.~ f.<.I.A.z gX<XkX$ cX+.%X*XP.&.%X4X@XP.R.T.eXCX` #.' k.' `.%X$XoXI.MX",
"s.-.}.xXZXZX= &X4XY.bXoX*. .Y.U i Z BX! W.4.*.] 8XY i.X.6X2.Q.2.A.9X^.3.<X8X% aXS.T.|.N.{.3X%XeXrX#X~.BXNXsX` S =.T  X'.U.rXY.%X",
"@X;.nXxXcXMX< {  .uX3X#.Y.^ #.~ Y T ` i.!.U.2...Y 3.2.~.Q <.<X<X! !.3X.XbXmXa Z.uXbXvXT.T.T..X%X X3.@XoXfXNXS T 9.8 t.U.4Xp.U.cX",
"fX Xs.xXb.AXh a 6 5 % x M d w < # e { k ..~.%...3.3 E.^ <.X.) !.5X<.Q.!.hX2X& n m |.n m { { M.n o.N.w m.fXvX8 S J > D 9 ;.'.4XN.",
"iXbXO.'.CXZXJ.2X8XhX(.$X8XI.*XeXL.*.2Xt.mXU.4Xc.*X3 -X=X<XE.Q.hXkXgXF..X3XbXT.9X(.O.k %X%XfX X%XD.h  XuXoXoX{.wXcX< MX=.Z (.W L.",
"'.P.P.$XeXDXB.L.`.*.'.!.aXmXuXnXbXoX[ ;.E jXaX;X4X3 5.-X6XA.<X5X^.gXhXuX3XhXB i Q T A _ 4Xy.5X4.Y.bX~.gXiX&XaXkXDXs / S D ;.u.:.",
"R.kXuX*XZ.hXm.R.U.p.y.4X4XeXJ A s.!.` #Xy.&.'./.6Xw 5.f.!.<X8X3.!.<X^.m 3XNXC.0X[ vXG ) aX|.C..X3.G.A..XuX3XhXC.NXc.D J w.A [.4X",
"$.(.nXj.{.*X: L.*.@.T.$XhXZ BXU u.p.%.(./.4XkX[.a.; ].W.Q.6XF.hXtXA.G.!.G.kXN Z mX=.A 2X<X!.3X+X+.<X!.4X.XuX.X&XbXj :.;.( ( W *.",
"*.U.R 4XT._.a L.(.P.U.P.iXU [ T.j.`.T jX1X~.U.Y.gXg 5.1X<Xf.hX.XkX6XOX<XN hXC.6.NXG F j.r.X.X.OXG.|.bX3X3X5XOXG.VXm.W e.:.y.(.R.",
"} :.' R.$XbXa *XT.T. XL.$XqX`.nXfX/ e.$.T. XP.].8XT N A.<.<.^.hX|.F.!.F.o.<Xj mX0XyX[ 4.Z 1X|.jX.XmX|.F.jX^..XS.3Xx :.E y.u.5XP.",
"+   X X X B.g h m n k { f eXvXkX%XeXjX!.&.#X#XI.$X<XhX3X^.E.N B N x $ O O gXb s b n 2 y y E.C.!.3.jXkX4XjXS.jXuXjX .% + O   ; : "
};
