/* XPM */
static char *aec62f7505a64063f6fbae7ec75a0a310Zlmg7xQjSMRMbip[] = {
/* columns rows colors chars-per-pixel */
"64 64 165 2 ",
"   c None",
".  c #040204",
"X  c #180204",
"o  c #280204",
"O  c #380304",
"+  c #30100D",
"@  c #3C100E",
"#  c #480204",
"$  c #480B0B",
"%  c #580204",
"&  c #570B08",
"*  c #680304",
"=  c #690C07",
"-  c #770404",
";  c #790B05",
":  c #68160E",
">  c #7A150A",
",  c #4E201C",
"<  c #61201B",
"1  c #702017",
"2  c #7C2013",
"3  c #7C2619",
"4  c #7C321F",
"5  c #702E28",
"6  c #840604",
"7  c #870C04",
"8  c #950D04",
"9  c #891406",
"0  c #891B0B",
"q  c #941505",
"w  c #9C1604",
"e  c #941C07",
"r  c #9E1D05",
"t  c #88230E",
"y  c #94230B",
"u  c #8B3314",
"i  c #943516",
"p  c #A12407",
"a  c #AC2506",
"s  c #AE2C07",
"d  c #A22B0A",
"f  c #A2330D",
"g  c #A13C0A",
"h  c #BC3507",
"j  c #BD3C07",
"k  c #B13408",
"l  c #B33B0A",
"z  c #A13C1E",
"x  c #B03C1E",
"c  c #873424",
"v  c #8C3D2F",
"b  c #B34309",
"n  c #BA5B0E",
"m  c #BF4B1E",
"M  c #BA630C",
"N  c #BF6B27",
"B  c #C14409",
"V  c #CC4608",
"C  c #C24B0A",
"Z  c #CD4C09",
"A  c #DC4E04",
"S  c #C4530D",
"D  c #C45B0B",
"F  c #D05409",
"G  c #DC550A",
"H  c #D25C0A",
"J  c #DD5D0B",
"K  c #CF541C",
"L  c #D05C1F",
"P  c #C46C0F",
"I  c #D26309",
"U  c #D26C09",
"Y  c #D2740E",
"T  c #D2641E",
"R  c #DE641E",
"E  c #D17C10",
"W  c #E0640A",
"Q  c #E26C09",
"!  c #EC6A0D",
"~  c #E2740C",
"^  c #EC710B",
"/  c #E27C0D",
"(  c #EE780B",
")  c #EF7E0E",
"_  c #E26C1F",
"`  c #FC7E14",
"'  c #DF6B2F",
"]  c #D2742C",
"[  c #E27429",
"{  c #EC722A",
"}  c #E07C29",
"|  c #EF7A28",
" . c #CC8417",
".. c #DA8410",
"X. c #D98C18",
"o. c #DA941D",
"O. c #E98410",
"+. c #EA8C15",
"@. c #F48512",
"#. c #F58C16",
"$. c #E9941B",
"%. c #F59418",
"&. c #F59B1C",
"*. c #CA9422",
"=. c #DA9C25",
"-. c #E7842A",
";. c #E98D29",
":. c #F48227",
">. c #F68C27",
",. c #E99C23",
"<. c #F79426",
"1. c #F79C26",
"2. c #EA9D3C",
"3. c #DAAD36",
"4. c #DCB33A",
"5. c #E9A429",
"6. c #F6A429",
"7. c #E9A535",
"8. c #EAAC32",
"9. c #F6A536",
"0. c #F7AC32",
"q. c #EAB439",
"w. c #F6B439",
"e. c #EC9450",
"r. c #E9AB46",
"t. c #F8A346",
"y. c #FAAC47",
"u. c #EABC40",
"i. c #E9B54C",
"p. c #EABD4F",
"a. c #F7BC40",
"s. c #F8BD4E",
"d. c #FAB451",
"f. c #E3C34A",
"g. c #ECC449",
"h. c #ECCB4E",
"j. c #F8C448",
"k. c #F8CC4F",
"l. c #EACD5E",
"z. c #F7CC5E",
"x. c #ECD459",
"c. c #ECDC5C",
"v. c #F8D458",
"b. c #EAD565",
"n. c #EBDC6A",
"m. c #F8DC60",
"M. c #F7DD6E",
"N. c #F7D570",
"B. c #F3E46B",
"V. c #FCE46B",
"C. c #F4EB71",
"Z. c #FCEC71",
"A. c #F2E67D",
"S. c #FCE57E",
"D. c #FCED7E",
"F. c #F4F37A",
"G. c #FCF37A",
"H. c #F4ED80",
"J. c #F4F488",
"K. c #FCF589",
"L. c #FAFA8E",
"P. c #FBF6A3",
"I. c #FBFAA8",
"U. c #FCF6C6",
"Y. c #FBFAC2",
/* pixels */
"                                                                                                                                ",
"                                                                                                                                ",
"                                                                                                                                ",
"                                                                                                                                ",
"                                                      . . . . . . . . . . .                                                     ",
"                                              . . . . . . . . . . . . . . O . . . .                                             ",
"                                          . . . . . . . . . . . . . . . . . . o . . . .                                         ",
"                                      . . . . . . . . . . . . . . . . . . . . . X X . . . .                                     ",
"                                  . . . . . . . . . . . . . . . . . . . . . . . . . X . . . . .                                 ",
"                                . . . . . . . . . . . . . . . . . . . . . . . . . . . . . . . . .                               ",
"                              . . . . . . . . . . . X o @ # @ # o X . . . . . . . . . . . . . . . .                             ",
"                          . . . . X O X . . . . X , 5 c v 1 # # # * & o X X . . . . . . . . . . . . . .                         ",
"                        . . o % # X . . O 1 ; * % % * - y D $.y.a.2.t - 9 % % # . . . . . . . . . . . . .                       ",
"                      . . # # X . X 4 ; # O # i L ' { [ [ | ! H H $.j.y.' p t * ; + . . . . . . . . . . . .                     ",
"                      . O X . . i 0 o o > C J W +.a.j.j.a.a.j.a.6.~ Q +.a.1.J k p q ; X . . . . . . . . . .                     ",
"                    . X . . X d % o 3 y t e.s.6.X.6.0.w.w.0.8.a.j.v.d.@.~ 5.9.W C l s d o . . . . . . . . . .                   ",
"                  . . . . . - # 2 6 ] M.g.$.+.5.6.+.+.$.&.&.>._ Z S X.v.v.@.+.w.J F Z j B X . . . . . . . . . .                 ",
"                . . . . . % % % u z.p...U 5.6.~ F H H F B l C [ +.+.<.I X.v.j.$.6.F j F k C . . . . . o . . . . .               ",
"                . . . . % * % N p.$.j d.0.O.0 6 s j _ ) ` | R Z V F F I 9.( q.v.#.#.C j Q F < . o . . O X . . . .               ",
"              . . . . o * % -.$.~ B d.&.e * x Z ^ $.m.Z.V.V.Z.B.M.u.W G j } ^ X.m./ ^ B F ^ ( o . # . . ; . . . . .             ",
"              . . . . % * g ) W B d.6.d p d J y.G.4.8.,.O.+.$.X.Y o.B.S.) B @.R  .V.( Q j ) ( C . % . . 9 o . . . .             ",
"            . . . . X % % R H Z | 5.I - l ! j.A. .%.+.j.j.v.h.h.x.v.$.3.G.<.B #.p M.0.( V ( ) | X O o . : > . . . . .           ",
"            . . . . O # > Z B Q 5.5.% f | J.*.@.) #.v.$.5.g.h.a.5.&.$.j.8.K.w.~ R f G.8.W B %.$.: X - . $ r . . . . .           ",
"          . . . . . O O 9 J Z t.w.* d ) D.M I #.j.Z.G.G.Z.Z.m.n.V.S.V.a.8.g.L.a.1.F 7.G.( Q #.$.K X ; X O d . . . . . .         ",
"          . . . . o o o B a @.a.;.9 #.D.W G O.v.G.L.G.=.,.+./ Q ~ E f.C.m.5.g.J.j.Q ( V.0.( O.%.#.O * O o a X . . . . .         ",
"          . . . X o X % H W +.u.l [ v.X.W @.7.K.L.l.5.+.j 6 * % * q B O.V.m.u.B.Z.<.#.,.Z.W ~ O.$.& * # O p o . . . . .         ",
"          . . . X X o 9 H #.j.j.k <.u...1.%.G.I.n.0.+.q * # X . X X % s o.Z.v.v.L.k.) I F.Q ~ O.%.; * # % a O . . . . .         ",
"        . . . . X X O d ) #.j.5.O.k.q.$.+.3.L.K.5.5.p * o . . . . . . o k k.V.q.L.m.I ( J.,.#.@.+.d y # - p O . . . . . .       ",
"        . . . X . o % d 6.O.k...0.k.a.a.` L.L.g.j.H 7 O . . . . . . . . * } C.k.F.S./ #.H.x.O.@.#.B B # 7 d O . . X . . .       ",
"        . . . . X o 0 { 6.( v.~ 0.o.$.*.o.I.K.w.0.C * . . . . . . . . . X C V.Z.G.D.%.#.V.B.+.#.#.l R # w p o . . . . . .       ",
"        . . . . X o k >.&.I m.Q 5.O.5.n N.I.m.a.6.k % . . . . . . . . . . k V.Z.J.K.+.%.S.Z.$.@.@.k :.# p a o . . X . . .       ",
"        . . . . o o U $.$.W V...1.O.v.W I.I.h.k.0.j % . . . . . . . . . . j B.Z.I.m.) 6.H.F.0.^ @.p @.O k a X . . X . . .       ",
"        . . . . o O O.,.+./ V.o.6.O.V.Q I.Y.8.h.a.F = . . . . . . . . . X m C.Z.I.j.@.0.K.H.j.~ ~ r >.O j w . . . . . . .       ",
"        . . . . O # %.5.( @.v.u.6.) G./ Y.I.8.m.k.O.r . . . . . . . . . # -.C.F.J.7.6.&.I.x.a.W F d I = j - . . o . . . .       ",
"        . . . . O # 0.0.Q &.u.V.&.^ G.O.I.U.0.v.B.6.B X . . . . . . . . p k.G.K.L.E v.&.Y.5.,.J l m k l d * X . # . . . .       ",
"        . . . . # % a.w.W #.+.C.&.~ C.q.K.Y.m.k.Z.v.&.b . . . . . . . 9 8.V.J.I.F.r.X.H.I.v.O.( > ;.r | q # o X o . . . .       ",
"        . . . . # ; k.w.Q J ^ K.j.( i.Z.g.I.J.k.Z.G.v.9.k # X . . O d 1.V.G.I.L.8.Z.a.Y.n.j.( ) % :.r ~ - O O % X . . . .       ",
"        . . . X # e v.w.Q j ` p.K.$.b K.6.A.P.m.Z.G.G.m.v./ J F J #.k.V.L.L.P.c.B.,.Y.I.x./ ) B z J ( p % # # * . . . . .       ",
"          . . X % l v.w.O.k Q O.J.B.K m.M.w.L.C.C.G.K.L.F.Z.m.m.m.B.Z.L.I.I.J.v.*.L.Y.B.a.( #.l 1.F +.p # % * # . . . .         ",
"          . . . # d a.0.#.h Z #.k.J.u._ J.h.g.G.G.F.K.L.L.L.L.L.L.L.I.I.I.A.B.3.P.Y.A.D.1.%.@.T ) %.s # * - - . . . . .         ",
"          . . . # ; 6.0.) j j ( 5.F.I.2.M.K.j.k.v.G.L.L.P.I.I.I.Y.Y.I.I.b.K.Z.K.Y.P.F.v.%.%.f w./ / 0 * - * # . . . . .         ",
"          . . . # % / #.Q B j ^ / m.J.I.v.F.D.v.v.j.v.G.Z.Z.L.L.I.I.F.G.C.K.I.Y.Y.L.f.) &.C j.Q w.B # e - 7 . . . . . .         ",
"            . . O O d ( B J B ^ 7 O.S.K.I.I.K.B.m.h.V.v.B.L.K.L.L.K.L.L.P.I.Y.I.G./ ( $.P j.~ k.W * k - 7 O . . . . .           ",
"            . . O O * H k W k J j q V.V.K.I.I.K.C.Z.N.m.C.l.K.L.K.K.I.I.I.Y.I.F...~ %.~ k./ m.O.- B s q * X . . . . .           ",
"              . o % o e d j p J ^ 7 n f.M.A.I.I.Y.I.J.K.G.n.J.J.L.I.Y.Y.Y.J.4.O.6.O.k.j.5.Z.O.p J j w - o . . . . .             ",
"              . . * # # r 6 k h ^ s * w.Y z.C.n.J.I.I.Y.U.Y.Y.Y.Y.Y.I.I.J.v.w.0.j.m.C.F.m./ B ^ h a - # . . . . . .             ",
"                . # # X - * 7 7 H @.- > #.s U m.A.K.I.L.F.B.n.M.Z.F.f.5.6.q.m.G.K.L.M.7.Q ! J h s 7 * . . . . . .               ",
"                . . % o X * % - 9 ( W * k ( e J Q W a.k.M.Z.c.c.m.v.v.v.V.G.G.B.j.) ^ ( W k V k 7 # . . . . . . .               ",
"                  . # # . o O % * ; ( C % - K a V ( W ^ ) +.+.X.$.,.,.5.6.,.U S A W h r s V s * o . . . . . . .                 ",
"                    . # . . X o % % 9 ~ j * - q k s W Q #.6.6.&.&.$./ I R W ^ H a 7 k B h * o X . . . . . . .                   ",
"                      . o . . . O # O & J Z q * 7 - > B W H ~ %.%.%.~ ( ( Q W ! J j 9 * # # O . . . . . . .                     ",
"                      . X . . . X O O o % B j s * - 9 * * r Z Z Z k s k l j k a 8 - * % % O . . . . . . . .                     ",
"                        . . . . . . O o X X 0 p s r * ; - * * * 9 p s k s a e q 6 * O . . o o X . . . . .                       ",
"                          . . . . . o O o o X * 9 r q * % * # O X . o # # # O o X X O # O o . . . . . .                         ",
"                              . . . . X . o O X O * 7 9 - % o X X X . X X o o O O o X . . . . . . .                             ",
"                                . . . . . . . X O O # % - - * % % # # # O O X . . . . . . . . . .                               ",
"                                  . . . . . . . . . . X O % * % # O X X . . . X . . . . . . . .                                 ",
"                                      . . . . . . . . . . . . o O # % * * % O o X . X . . .                                     ",
"                                          . . . . . . . . . . . . . . . . . . . . . . .                                         ",
"                                              . . . . . . . . . . . . . . . . . . .                                             ",
"                                                      . . . . . . . . . . .                                                     ",
"                                                                                                                                ",
"                                                                                                                                ",
"                                                                                                                                "
};
