/* XPM */
static char *result[] = {
/* columns rows colors chars-per-pixel */
"64 64 167 2 ",
"   c #040204",
".  c #180204",
"X  c #280204",
"o  c #280A09",
"O  c #380305",
"+  c #390B0A",
"@  c #480305",
"#  c #480B09",
"$  c #580305",
"%  c #580B08",
"&  c #48130E",
"*  c #59140D",
"=  c #581B12",
"-  c #680305",
";  c #680C07",
":  c #770404",
">  c #780C06",
",  c #68140C",
"<  c #78140A",
"1  c #791B0D",
"2  c #681C11",
"3  c #792413",
"4  c #782B1A",
"5  c #7C3317",
"6  c #840504",
"7  c #880C05",
"8  c #8D1406",
"9  c #8F1C09",
"0  c #9C1605",
"q  c #9E1C06",
"w  c #88230D",
"e  c #892C0E",
"r  c #94240B",
"t  c #942C0E",
"y  c #9E2D1E",
"u  c #AC2507",
"i  c #A12408",
"p  c #A22B0B",
"a  c #AE2C08",
"s  c #A2340B",
"d  c #A13C0C",
"f  c #B13409",
"g  c #BC350A",
"h  c #B23B0E",
"j  c #BC3C09",
"k  c #A1341F",
"l  c #9F3B22",
"z  c #C43506",
"x  c #C43E09",
"c  c #AA450E",
"v  c #BA430A",
"b  c #BA4C0C",
"n  c #B9441F",
"m  c #B95314",
"M  c #974B27",
"N  c #A84420",
"B  c #A84C25",
"V  c #B75429",
"C  c #BA5B2E",
"Z  c #BA6C2E",
"A  c #A86C30",
"S  c #BC6230",
"D  c #C6440A",
"F  c #C94C0C",
"G  c #D44404",
"H  c #D44D0A",
"J  c #D0540B",
"K  c #DC550B",
"L  c #D15C0C",
"P  c #DD5C0B",
"I  c #DC5C1F",
"U  c #C8640F",
"Y  c #DA640D",
"T  c #CA6C17",
"R  c #DA6B10",
"E  c #C97318",
"W  c #CB7D19",
"Q  c #D97412",
"!  c #DA7D13",
"~  c #E5650D",
"^  c #E76C0D",
"/  c #E9740E",
"(  c #E97C10",
")  c #F47512",
"_  c #F47D13",
"`  c #CA5527",
"'  c #CE5C27",
"]  c #D9682F",
"[  c #CA6434",
"{  c #C97436",
"}  c #DA7433",
"|  c #E46525",
" . c #E56C28",
".. c #E77430",
"X. c #E87C32",
"o. c #BC7E40",
"O. c #DA8419",
"+. c #D98B1C",
"@. c #EA8412",
"#. c #EA8C15",
"$. c #F58413",
"%. c #F68C16",
"&. c #EA9419",
"*. c #EA9C1C",
"=. c #F5941E",
"-. c #D99523",
";. c #DA9C23",
":. c #DA8C3F",
">. c #E98429",
",. c #E98C2A",
"<. c #F58C28",
"1. c #EA9427",
"2. c #E99C26",
"3. c #F69C24",
"4. c #F4A429",
"5. c #E1A430",
"6. c #F4AC30",
"7. c #E3B438",
"8. c #E4BB3B",
"9. c #F1B439",
"0. c #FCB43B",
"q. c #E78444",
"w. c #E88C48",
"e. c #EB9C40",
"r. c #F49447",
"t. c #F69D42",
"y. c #DFB446",
"u. c #E4AE4C",
"i. c #F5A542",
"p. c #F7AC41",
"a. c #E2BC48",
"s. c #F4BC40",
"d. c #F7BC57",
"f. c #FAB472",
"g. c #EAC446",
"h. c #EACC4A",
"j. c #F8C448",
"k. c #F8CC4E",
"l. c #EAC459",
"z. c #EACC58",
"x. c #EAD45A",
"c. c #F8D456",
"v. c #F9DB5B",
"b. c #ECDB61",
"n. c #F8D566",
"m. c #F7DD67",
"M. c #EBDC70",
"N. c #F8E46A",
"B. c #ECE370",
"V. c #ECEB72",
"C. c #EBE47E",
"Z. c #FAEC71",
"A. c #F7E57F",
"S. c #FAF479",
"D. c #ECEC83",
"F. c #F8EC82",
"G. c #FAF58B",
"H. c #FAFA8F",
"J. c #F4F5A3",
"K. c #FCF6A1",
"L. c #FAFBA4",
"P. c #FBF6BC",
"I. c #FAFBBC",
"U. c #FBFAD6",
"Y. c #FCF6E6",
"T. c #FCFAE5",
"R. c None",
/* pixels */
"R.R.R.R.R.R.R.R.R.R.R.R.R.R.R.R.R.R.R.R.R.R.R.R.R.R.R.R.R.R.R.R.R.R.R.R.R.R.R.R.R.R.R.R.R.R.R.R.R.R.R.R.R.R.R.R.R.R.R.R.R.R.R.R.",
"R.R.R.R.R.R.R.R.R.R.R.R.R.R.R.R.R.R.R.R.R.R.R.R.R.R.R.R.R.R.R.R.R.R.R.R.R.R.R.R.R.R.R.R.R.R.R.R.R.R.R.R.R.R.R.R.R.R.R.R.R.R.R.R.",
"R.R.R.R.R.R.R.R.R.R.R.R.R.R.R.R.R.R.R.R.R.R.R.R.R.R.R.R.R.R.R.R.R.R.R.R.R.R.R.R.R.R.R.R.R.R.R.R.R.R.R.R.R.R.R.R.R.R.R.R.R.R.R.R.",
"R.R.R.R.R.R.R.R.R.R.R.R.R.R.R.R.R.R.R.R.R.R.R.R.R.R.R.R.R.R.R.R.R.R.R.R.R.R.R.R.R.R.R.R.R.R.R.R.R.R.R.R.R.R.R.R.R.R.R.R.R.R.R.R.",
"R.R.R.R.R.R.R.R.R.R.R.R.R.R.R.R.R.R.R.R.R.R.R.R.R.R.R.                      R.R.R.R.R.R.R.R.R.R.R.R.R.R.R.R.R.R.R.R.R.R.R.R.R.R.",
"R.R.R.R.R.R.R.R.R.R.R.R.R.R.R.R.R.R.R.R.R.R.R.        $ l ] ] D j y < # .           R.R.R.R.R.R.R.R.R.R.R.R.R.R.R.R.R.R.R.R.R.R.",
"R.R.R.R.R.R.R.R.R.R.R.R.R.R.R.R.R.R.R.R.R.    7 @ @ b $._ g i a g h f a y < @           R.R.R.R.R.R.R.R.R.R.R.R.R.R.R.R.R.R.R.R.",
"R.R.R.R.R.R.R.R.R.R.R.R.R.R.R.R.R.R.R.    9 O . ; ..=.p 8 9 $ O O O O O $ $ - - @           R.R.R.R.R.R.R.R.R.R.R.R.R.R.R.R.R.R.",
"R.R.R.R.R.R.R.R.R.R.R.R.R.R.R.R.R.    % $ . . > >.R q L : . X X               . X O .           R.R.R.R.R.R.R.R.R.R.R.R.R.R.R.R.",
"R.R.R.R.R.R.R.R.R.R.R.R.R.R.R.R.    @ : $ X O / F  .f .   .     .                                 R.R.R.R.R.R.R.R.R.R.R.R.R.R.R.",
"R.R.R.R.R.R.R.R.R.R.R.R.R.R.R.    X 0 $     n F P z O   .   X @ .                                   R.R.R.R.R.R.R.R.R.R.R.R.R.R.",
"R.R.R.R.R.R.R.R.R.R.R.R.R.        w 6   & e I P K 6 X & M A } { [ S C B k * X .                         R.R.R.R.R.R.R.R.R.R.R.R.",
"R.R.R.R.R.R.R.R.R.R.R.R.        $ : - ] 9 u Y %.j ..3.9.k.2.! Q @.%.0.j.k.0.<.^ s O                       R.R.R.R.R.R.R.R.R.R.R.",
"R.R.R.R.R.R.R.R.R.R.R.          $ h / u 7 L $.~ ^ P &.m.j.c.Z.Z.Z.S.H.G.v.j.0.3./ ] < #                     R.R.R.R.R.R.R.R.R.R.",
"R.R.R.R.R.R.R.R.R.R.R.    O   X m $.u $ I %.#.3.L ( S.N.k.v.c.H.I.I.U.U.U.L.G.Z.d.( _ | 8 - O X             R.R.R.R.R.R.R.R.R.R.",
"R.R.R.R.R.R.R.R.R.R.    X O   ` %.b $ h $.4.0.( / N.S.v.N.Z.L.U.U.T.I.L.Z.B.V.S.S.Z.k.=.P 7 : $ O             R.R.R.R.R.R.R.R.R.",
"R.R.R.R.R.R.R.R.R.    . $   V _ ( : p ~ 6.c.R _ 8.H.G.x.L.U.T.T.U.I.J.L.F.z.x.c.N.Z.v.N.k.L $ - - O             R.R.R.R.R.R.R.R.",
"R.R.R.R.R.R.R.R.    . $ O 4 P $.J : P 3.k.4.R v.L.L.K.Y.U.U.T.I.J.H.J.L.L.K.L.F.9.+.Z.N.k.c.,.O @ @ X             R.R.R.R.R.R.R.",
"R.R.R.R.R.R.R.R.    @ : @ v D / p a L 0.s./ S.P.L.I.T.P.I.I.U.L.L.L.L.H.Z.N.N.D.H.k.t.7.v.k.c.p.o X O .           R.R.R.R.R.R.R.",
"R.R.R.R.R.R.R.    X $ - ` $ v F f q =.h.v.G.L.U.U.Y.P.U.Y.U.T.U.U.Y.U.Y.Y.U.I.G.Z.S.S.9.6.h.8.v.s.$ X X .           R.R.R.R.R.R.",
"R.R.R.R.R.R.R.    O $ > a X q D u : k.S.S.L.I.U.Y.U.Y.T.T.U.T.T.T.Y.U.T.T.U.I.I.I.S.Z.S.j.&.k.9.v.i.@ X .           R.R.R.R.R.R.",
"R.R.R.R.R.R.      @ @ p 9 . : F 6 y N.H.L.L.U.U.T.Y.T.T.U.U.T.Y.T.T.T.Y.T.U.U.I.I.L.N.b.S.4.7.j.g.N.N .               R.R.R.R.R.",
"R.R.R.R.R.R.      $ @ v < O 7 j 8 X.J.G.L.U.U.T.T.Y.Y.T.T.U.T.Y.U.T.T.T.U.T.U.I.I.H.U.G.9.v.1.p.j.k.N.1 .             R.R.R.R.R.",
"R.R.R.R.R.        - @ v r > g J L j.L.L.I.U.T.U.T.Y.T.U.U.U.I.I.L.L.L.J.I.I.U.U.U.I.M.F.F.9.8.T 4.6.k.d.@ .             R.R.R.R.",
"R.R.R.R.R.        > $ v F j J / 4.N.I.I.U.T.U.U.U.U.U.U.U.I.L.L.D.G.G.J.G.S.D.I.I.I.J.G.F.n.6.&.F @.3.k.Y @             R.R.R.R.",
"R.R.R.R.R.        8 : j / x ^ 4.3.L.I.I.Y.U.U.I.U.U.U.U.I.G.g.E F f d Q y.S.S.Z.G.I.L.L.N.F.*.0.$._ #.&.s.s             R.R.R.R.",
"R.R.R.R.R.        8 > i %.h R 6.F.I.U.Y.Y.P.U.I.I.U.P.U.C.7.f q @ $ X   $ m z.A.c.F.U.S.J.;.K.#.^ h F _ 3.=..           R.R.R.R.",
"R.R.R.R.          $ 7 q @.J %.g.G.I.T.U.J.V.I.J.J.I.I.H.6.Y 0 @ O @ .       9 9.N.g.Z.I.z.L.y.5.6.F Y J f %.%             R.R.R.",
"R.R.R.R.            0 7 J ( =.K.J.U.U.J.V.c.L.L.L.J.I.b.%.q - . O X           3 s.s.s.N.K.u.j.G.R F q 0 j j D             R.R.R.",
"R.R.R.R.            8 0 H 3.5.D.L.U.J.a.v.j.H.J.G.L.L.x.$.: @ . O             . U s.*.g.J.;.G.i.F <.6 a i - F .           R.R.R.",
"R.R.R.R.            : 0 J *.N.F.I.U.J.9.j.9.G.H.H.H.H.g.%.: O X O               ; 4.4.4.z.m.-.7.u./ - x $ - 8 O           R.R.R.",
"R.R.R.R.            X 8 H @.H.G.I.L.H.N.0.4.c.Z.G.S.S.9.%.q X . X               O @.6.O.9.L.D v.Z.G ; 9 X O - $           R.R.R.",
"R.R.R.R.              - F $.G.G.I.F.Z.S.2.*.9.v.H.S.v.9.=.D O   X               O / 4.@.3.G.j c.b.q 8 $ O   O $           R.R.R.",
"R.R.R.R.              O f =.F.H.L.c.W S.6.3.=.j.G.N.s.9.%.J >   X .             X Y #.( &.v.F 0.8.7 9 X @   . O           R.R.R.",
"R.R.R.R.              O g 4.Z.H.J.7.a N.v.=.@.6.c.b.6.6.%.J a X . @             @ ~ #.( @.k.F ,.9.7 9 X $                 R.R.R.",
"R.R.R.R.              X q *.N.H.H.&.x r.b.4.%.) *.V.k.6.=./ K - . O @ .       X - R %.( ^ j.D X.s.: > . $                 R.R.R.",
"R.R.R.R.              . 7 #.B.H.S.*.j g k.c.%.J $.c.s.s.6.( D j - X @ $ @ O O @ F / =.Y ~ j.a L 8.- $ X @                 R.R.R.",
"R.R.R.R.              . - ( N.A.Z.-.D / ( s.4.4.H Q N.s.k.6.R F F 6 $ $ $ $ - f H Y %.~ / ;.8 J j.@ X X O                 R.R.R.",
"R.R.R.R.R.              - J v.z.x.6.j F K @.6.$./ K v 7.s.s.=.Y D P f q 8 i F D P %.L g Q F : Y e.X   O X               R.R.R.R.",
"R.R.R.R.R.              : F 8.4.h.8.6 x ~ ~ =.#.@.j D T s.9.4.~ @.( / R P x x K ( %.F I 4.i a <.p .   O                 R.R.R.R.",
"R.R.R.R.R.              @ w ! *.v.j.f : 7 L Y 3./ ) q j Q 9.9.^ x 0 g x D F Y %.3.H g ^ Y - y =.@ .   O                 R.R.R.R.",
"R.R.R.R.R.              . $ D 9.8.9.$.@ 8 $ R ~ 3.Y R 7 s 6.( 9.k.=._ @.@.3.4.4.L q ~ $.9 > i ,.      .                 R.R.R.R.",
"R.R.R.R.R.R.              - [ Y 4.8.6.f X $ O D ^ 3...j s : :.v.v.j.g.s.s.6.R a j F / u $ 8 ( @                       R.R.R.R.R.",
"R.R.R.R.R.R.              O $ D &.*.&.( @ O X $ D / 3.( u F - < C p.0.3.^ f : I f F h $ $ > ( .                       R.R.R.R.R.",
"R.R.R.R.R.R.R.              $ q.v 1.s.%.H @ .   $ q f / =.n 0 F j i 9 h | I p J J a $ O @ R @                       R.R.R.R.R.R.",
"R.R.R.R.R.R.R.              . @ ` v J -.%.~ @     . f 0 q ~ ( @.U p 9 q F Y D ^ 7 X X O w.h                         R.R.R.R.R.R.",
"R.R.R.R.R.R.R.R.              O O h h d ! ^ P ; X     @ h a a J ^ ) ^ J P ~ q $ . . O q.b                         R.R.R.R.R.R.R.",
"R.R.R.R.R.R.R.R.                O O i w i l.F ~ p @         + 1 r i q 7 : @ .   X w ] f                           R.R.R.R.R.R.R.",
"R.R.R.R.R.R.R.R.R.                O O i - ' c U K H 9 $ X               . . O - ' r #                           R.R.R.R.R.R.R.R.",
"R.R.R.R.R.R.R.R.R.R.                X . N : < 9 o.V a L g 8 > - $ $ $ $ > 9 ' C i .                           R.R.R.R.R.R.R.R.R.",
"R.R.R.R.R.R.R.R.R.R.R.                  o . 5 $ < < 2 f.Z t 9 s f f h } w., 1 X                             R.R.R.R.R.R.R.R.R.R.",
"R.R.R.R.R.R.R.R.R.R.R.                      . . = @ - < ; % # @ @ # @ , 4 .                                 R.R.R.R.R.R.R.R.R.R.",
"R.R.R.R.R.R.R.R.R.R.R.R.                              . X X X X X .                                       R.R.R.R.R.R.R.R.R.R.R.",
"R.R.R.R.R.R.R.R.R.R.R.R.R.                                                                              R.R.R.R.R.R.R.R.R.R.R.R.",
"R.R.R.R.R.R.R.R.R.R.R.R.R.R.R.                                                                      R.R.R.R.R.R.R.R.R.R.R.R.R.R.",
"R.R.R.R.R.R.R.R.R.R.R.R.R.R.R.R.                                                                  R.R.R.R.R.R.R.R.R.R.R.R.R.R.R.",
"R.R.R.R.R.R.R.R.R.R.R.R.R.R.R.R.R.                                                              R.R.R.R.R.R.R.R.R.R.R.R.R.R.R.R.",
"R.R.R.R.R.R.R.R.R.R.R.R.R.R.R.R.R.R.R.                                                      R.R.R.R.R.R.R.R.R.R.R.R.R.R.R.R.R.R.",
"R.R.R.R.R.R.R.R.R.R.R.R.R.R.R.R.R.R.R.R.R.                                              R.R.R.R.R.R.R.R.R.R.R.R.R.R.R.R.R.R.R.R.",
"R.R.R.R.R.R.R.R.R.R.R.R.R.R.R.R.R.R.R.R.R.R.R.                                      R.R.R.R.R.R.R.R.R.R.R.R.R.R.R.R.R.R.R.R.R.R.",
"R.R.R.R.R.R.R.R.R.R.R.R.R.R.R.R.R.R.R.R.R.R.R.R.R.R.R.                      R.R.R.R.R.R.R.R.R.R.R.R.R.R.R.R.R.R.R.R.R.R.R.R.R.R.",
"R.R.R.R.R.R.R.R.R.R.R.R.R.R.R.R.R.R.R.R.R.R.R.R.R.R.R.R.R.R.R.R.R.R.R.R.R.R.R.R.R.R.R.R.R.R.R.R.R.R.R.R.R.R.R.R.R.R.R.R.R.R.R.R.",
"R.R.R.R.R.R.R.R.R.R.R.R.R.R.R.R.R.R.R.R.R.R.R.R.R.R.R.R.R.R.R.R.R.R.R.R.R.R.R.R.R.R.R.R.R.R.R.R.R.R.R.R.R.R.R.R.R.R.R.R.R.R.R.R.",
"  R.R.R.R.R.R.R.R.R.R.R.R.R.R.R.R.R.R.R.R.R.R.R.R.R.R.R.R.R.R.R.R.R.R.R.R.R.R.R.R.R.R.R.R.R.R.R.R.R.R.R.R.R.R.R.R.R.R.R.R.R.R.R."
};
