/* XPM */
static char *result[] = {
/* columns rows colors chars-per-pixel */
"64 64 156 2 ",
"   c #040204",
".  c #0B0C0C",
"X  c #180204",
"o  c #280204",
"O  c #290B0B",
"+  c #380305",
"@  c #390B09",
"#  c #480305",
"$  c #490B0A",
"%  c #580305",
"&  c #590C08",
"*  c #58130E",
"=  c #471411",
"-  c #481C13",
";  c #561C13",
":  c #680305",
">  c #680B07",
",  c #770404",
"<  c #790C06",
"1  c #68140D",
"2  c #791409",
"3  c #791C0F",
"4  c #691B14",
"5  c #782416",
"6  c #783C24",
"7  c #850604",
"8  c #870C05",
"9  c #8D1406",
"0  c #9D1505",
"q  c #9E1D06",
"w  c #901C09",
"e  c #90240D",
"r  c #882C17",
"t  c #942C13",
"y  c #AC2506",
"u  c #A12408",
"i  c #A12C0C",
"p  c #AE2C08",
"a  c #A1330C",
"s  c #A23C0F",
"d  c #B33409",
"f  c #B83C0A",
"g  c #A0361E",
"h  c #B0351D",
"j  c #B23D1E",
"k  c #8A3C27",
"l  c #923424",
"z  c #C43E0A",
"x  c #BB430B",
"c  c #BA4C0D",
"v  c #A94310",
"b  c #B8441F",
"n  c #B94C1F",
"m  c #BA5411",
"M  c #984C25",
"N  c #9C5820",
"B  c #A65426",
"V  c #C54409",
"C  c #CA4C0A",
"Z  c #D44D09",
"A  c #CF540C",
"S  c #DC550B",
"D  c #D15B0D",
"F  c #DD5C0B",
"G  c #C9630F",
"H  c #DA640A",
"J  c #D96C0A",
"K  c #D9740E",
"L  c #D97C0C",
"P  c #E5650B",
"I  c #E76C0C",
"U  c #E9740D",
"Y  c #EA7C0F",
"T  c #F47511",
"R  c #F47C11",
"E  c #C74C21",
"W  c #CA5527",
"Q  c #CE5C2A",
"!  c #D96420",
"~  c #D97424",
"^  c #DA7B26",
"/  c #D96837",
"(  c #D6743C",
")  c #E56C28",
"_  c #E57630",
"`  c #E97C31",
"'  c #CC841D",
"]  c #DA841B",
"[  c #DA8C1A",
"{  c #E9840D",
"}  c #E98C11",
"|  c #F58410",
" . c #F58C12",
".. c #EA941B",
"X. c #F5941D",
"o. c #D99423",
"O. c #DA9D29",
"+. c #CC8C34",
"@. c #D9833E",
"#. c #EA8422",
"$. c #EA8C20",
"%. c #F58420",
"&. c #F68C20",
"*. c #EA9C22",
"=. c #F69C23",
"-. c #E9853A",
";. c #E88D3D",
":. c #E8943B",
">. c #EA9C3B",
",. c #F79438",
"<. c #F79D3D",
"1. c #E2A42C",
"2. c #F1A42B",
"3. c #FCA42D",
"4. c #E3AC31",
"5. c #F4AC31",
"6. c #E4BC3A",
"7. c #F2B437",
"8. c #FCB439",
"9. c #F4BC3F",
"0. c #D79D43",
"q. c #D69549",
"w. c #E1AD4B",
"e. c #F4A449",
"r. c #F4AC4A",
"t. c #E0B44A",
"y. c #E2BC49",
"u. c #F5B54F",
"i. c #F3BC50",
"p. c #F7C448",
"a. c #EBCB50",
"s. c #EACD5E",
"d. c #F8CC50",
"f. c #EBD45A",
"g. c #F8D458",
"h. c #F8DC5F",
"j. c #EBDB61",
"k. c #F7D46C",
"l. c #EBDB70",
"z. c #F7DD70",
"x. c #ECE46F",
"c. c #F8E46A",
"v. c #ECEC71",
"b. c #F9EC71",
"n. c #F7E57F",
"m. c #F4F479",
"M. c #FCF47B",
"N. c #F8ED81",
"B. c #F9F58B",
"V. c #FAFA8E",
"C. c #F6F1A1",
"Z. c #FAFAA4",
"A. c #FAFABC",
"S. c #FBFAD5",
"D. c #FCFBE9",
"F. c None",
/* pixels */
"F.F.F.F.F.F.F.F.F.F.F.F.F.F.F.F.F.F.F.F.F.F.F.F.F.F.F.F.F.F.F.F.F.F.F.F.F.F.F.F.F.F.F.F.F.F.F.F.F.F.F.F.F.F.F.F.F.F.F.F.F.F.F.F.",
"F.F.F.F.F.F.F.F.F.F.F.F.F.F.F.F.F.F.F.F.F.F.F.F.F.F.F.F.F.F.F.F.F.F.F.F.F.F.F.F.F.F.F.F.F.F.F.F.F.F.F.F.F.F.F.F.F.F.F.F.F.F.F.F.",
"F.F.F.F.F.F.F.F.F.F.F.F.F.F.F.F.F.F.F.F.F.F.F.F.F.F.F.F.F.F.F.F.F.F.F.F.F.F.F.F.F.F.F.F.F.F.F.F.F.F.F.F.F.F.F.F.F.F.F.F.F.F.F.F.",
"F.F.F.F.F.F.F.F.F.F.F.F.F.F.F.F.F.F.F.F.F.F.F.F.F.F.F.F.F.F.F.F.F.F.F.F.F.F.F.F.F.F.F.F.F.F.F.F.F.F.F.F.F.F.F.F.F.F.F.F.F.F.F.F.",
"F.F.F.F.F.F.F.F.F.F.F.F.F.F.F.F.F.F.F.F.F.F.F.F.F.F.F.                      F.F.F.F.F.F.F.F.F.F.F.F.F.F.F.F.F.F.F.F.F.F.F.F.F.F.",
"F.F.F.F.F.F.F.F.F.F.F.F.F.F.F.F.F.F.F.F.F.F.F.                                      F.F.F.F.F.F.F.F.F.F.F.F.F.F.F.F.F.F.F.F.F.F.",
"F.F.F.F.F.F.F.F.F.F.F.F.F.F.F.F.F.F.F.F.F.      X o + # o                               F.F.F.F.F.F.F.F.F.F.F.F.F.F.F.F.F.F.F.F.",
"F.F.F.F.F.F.F.F.F.F.F.F.F.F.F.F.F.F.F.      o 9 %   o + o X                                 F.F.F.F.F.F.F.F.F.F.F.F.F.F.F.F.F.F.",
"F.F.F.F.F.F.F.F.F.F.F.F.F.F.F.F.F.          2 u X X           X X                               F.F.F.F.F.F.F.F.F.F.F.F.F.F.F.F.",
"F.F.F.F.F.F.F.F.F.F.F.F.F.F.F.F.  X         i #   +         + # o                                 F.F.F.F.F.F.F.F.F.F.F.F.F.F.F.",
"F.F.F.F.F.F.F.F.F.F.F.F.F.F.F.    X         p % o :       o < % o % # # + X                         F.F.F.F.F.F.F.F.F.F.F.F.F.F.",
"F.F.F.F.F.F.F.F.F.F.F.F.F.                + u h 9 9     + 3 h 9 1 t 2 ; 6 O X                           F.F.F.F.F.F.F.F.F.F.F.F.",
"F.F.F.F.F.F.F.F.F.F.F.F.                  # q F I z 4 ! I P U F 2.9.d.k. .| ~ 3 * +                       F.F.F.F.F.F.F.F.F.F.F.",
"F.F.F.F.F.F.F.F.F.F.F.          $ o o o   + 9 U | I 8.5.5.d.g.N.B.B.Z.c.K U Y P d p e 1 + o X               F.F.F.F.F.F.F.F.F.F.",
"F.F.F.F.F.F.F.F.F.F.F.        + 9 V , % > h ) |  .X.M.M.M.c.B.D.D.A.A.A.Z.B.i.d z 0 7 8 w % # # +           F.F.F.F.F.F.F.F.F.F.",
"F.F.F.F.F.F.F.F.F.F.          5 F F , 9 D T R Y .. .B.c.9.] S.D.D.Z.V.f.x.Z.V.B.n.v h < : , < + X X           F.F.F.F.F.F.F.F.F.",
"F.F.F.F.F.F.F.F.F.            ) U U : z | =.X. .=.d.V.j.c.B.D.D.S.S.A.m.h.g.m.V.Z.B.N.m h : % # X               F.F.F.F.F.F.F.F.",
"F.F.F.F.F.F.F.F.      X     = T H R , ) 9.5.X.g.v.V.Z.C.A.A.D.S.A.C.Z.v.Z.M.9.a.m.V.V.V.k.f w , % # X X           F.F.F.F.F.F.F.",
"F.F.F.F.F.F.F.F.  o X X     d C F I u ! d.a.h.Z.S.C.A.S.V.A.S.D.S.A.A.N.M.B.V.V.M.n.m.m.V.N.d q % # o + o X       F.F.F.F.F.F.F.",
"F.F.F.F.F.F.F.  % % + :   X V < z A x D p.g.Z.S.D.S.D.S.D.D.D.D.D.D.D.D.D.S.B.j.c.V.V.M.g.M.m.G 9 + X X             F.F.F.F.F.F.",
"F.F.F.F.F.F.F.  o # # 7 + o P g S d _ 8.b.Z.S.D.D.D.D.D.D.D.D.D.D.D.D.D.S.S.S.S.N.d.c.d.M.6.v.M.Q 9 o               F.F.F.F.F.F.",
"F.F.F.F.F.F.    X + # , % k I H A W d.N.V.Z.S.D.D.D.D.D.D.D.D.D.D.D.D.D.S.S.S.A.S.C.9.h.w.b.1.M.b.e %                 F.F.F.F.F.",
"F.F.F.F.F.F.      o o < d o A 3.2.b.N.A.A.S.S.D.D.D.D.D.D.D.D.D.D.D.D.D.D.D.S.Z.A.Z.S.a.d.[ g.[ v.d.8 +               F.F.F.F.F.",
"F.F.F.F.F.        + + < q > %.X.M.M.Z.S.S.S.D.D.D.D.D.D.D.D.D.D.S.A.S.S.S.A.S.S.A.Z.Z.C.p.d.K 9.[ h.$., X               F.F.F.F.",
"F.F.F.F.F.        # % o w I C b.c.V.S.S.D.D.S.S.D.D.D.D.D.S.C.A.Z.x.x.C.Z.Z.Z.A.S.S.v.Z.C.4.d.J  .2.g.e #               F.F.F.F.",
"F.F.F.F.F.      X % X X i &.i.h.B.A.A.S.D.D.S.S.S.D.S.S.S.A.N.c.j.] u : w q.V.V.B.Z.S.V.B.B.L *.L c 2.e.# +             F.F.F.F.",
"F.F.F.F.F.      o % > u R Y h.m.Z.A.S.D.D.D.S.S.S.S.S.S.S.Z.a.7.5.U 8 + % # 8 y.m.f.V.A.m.V.B.{ f R G 2.1 o             F.F.F.F.",
"F.F.F.F.        # < u d R 8.g.M.A.A.S.S.S.S.Z.C.Z.S.S.A.A.x.9.} } Y 9 o # X X + @.c.p.N.A.m.6.q.<.f u U ` X               F.F.F.",
"F.F.F.F.      + 8 u p I A 5.c.Z.A.A.S.S.A.A.s.d.Z.Z.A.Z.A.l.8.U I | p + + X     + O.p.7.b.s.b.n.G q V C T &               F.F.F.",
"F.F.F.F.    X % , : 9 I Y 9.M.A.Z.S.S.C.g.V.h.d.N.m.A.Z.C.N.5.U C I Z % X         : p.2.p.Z.t.0.c H b 7 p Z               F.F.F.",
"F.F.F.F.    o % # # i P P d.B.A.Z.S.A.v.p s.m.9.6.M.A.Z.c.B.2.P p P d , X         X D 5.[ s.( g.s.T : , q E               F.F.F.",
"F.F.F.F.    X # o o d f U p.Z.N.A.S.C.o.0 v V.d.} g.c.B.5.b.} P p Y 8 u o           &  .J =.z.e.a.f # < < 0               F.F.F.",
"F.F.F.F.  X   o   o f d #.d.Z.j.A.A.M.A d 9 z.b.} 5.4.m.*.p.=.P u U , y +           o U  .{ B.v [ 9 > 3 # : X             F.F.F.",
"F.F.F.F.          X p d &.h.Z.j.Z.Z.7.d A u ^ M... .3.M.9.X.p.R w b 8 , % X         o D | T f., ..< 2 2 + # +             F.F.F.",
"F.F.F.F.          X y i  .h.m.c.m.B.| 0 q A i d.p. ...9.g.Y 2.2.d : d % : o         o V Y F *.< =.2 9 % X o +             F.F.F.",
"F.F.F.F.            u q { g.b.N.v.M.P : w 8 Z $.g...I U b.L P p.] % S : % + X       + x I Z [ <  .w < #     o             F.F.F.",
"F.F.F.F.            9 8 U g.j.N.x.c.A : # w Z C 7.=.| U 6.7.Z ..p.w d 9 # o # o X X > f P V ] , K > : +                   F.F.F.",
"F.F.F.F.            8 , A 9.f.c.f.h.C : # + q T Y 3.} Z A 6.K u 2..., Z : % + # o + d Z I V 2., J % + o                   F.F.F.",
"F.F.F.F.F.          , < d :.h.g.g.g.! + # + % p F X.U K z 5.7.q p 5.f V f : # + # e q d A p r.: L + X X                 F.F.F.F.",
"F.F.F.F.F.          : < Q x d.p.d.d.{ + o + X # P A  .I y C *.@.0 U Z V D f 8 8 i 0 d V q u n > :.X                     F.F.F.F.",
"F.F.F.F.F.          + % B ! ' 5.h.*.=.< X o X   % R #.x P 9 <.8.Y p z , : q w 9 7 d p D 9 E < : l                       F.F.F.F.",
"F.F.F.F.F.            % % d ;.=.' X.5.H X X X   o 8 P 3.f 0 u 9.5.%.p y 9 8 , 9 f y P 8 8 U # 1 o                       F.F.F.F.",
"F.F.F.F.F.F.          + # Q w ;.] 6.} { 3         % d I ! C 8 d d.6...H f p d p d I 8 9 ! 0 + (                       F.F.F.F.F.",
"F.F.F.F.F.F.            + N E C =.^ Y =.F &       X 8 d  .w q , v p.8.2.I C z C U p 8 : V % + &                       F.F.F.F.F.",
"F.F.F.F.F.F.F.          o + s < U e u.D T F %       , q H I 0 u : 8 Y } =...Y Z 0 , < u 9 + /                       F.F.F.F.F.F.",
"F.F.F.F.F.F.F.            X - e j #.i ] F | C a o   + d y P d 8 V 8 % w z d y , # s , d # r o                       F.F.F.F.F.F.",
"F.F.F.F.F.F.F.F.          o X @.t t ) r G d I Z z i 8 q V p A , u Z s + o o X $ d : i , > ,                       F.F.F.F.F.F.F.",
"F.F.F.F.F.F.F.F.            X   ;.< : f 2 2.p C P x d d C z 0 d % % i i < , 7 , : q 8 2 2                         F.F.F.F.F.F.F.",
"F.F.F.F.F.F.F.F.F.                ` % # i : +.v w d Z C A C y : # % 8 , : : , , 0 , v 3                         F.F.F.F.F.F.F.F.",
"F.F.F.F.F.F.F.F.F.F.                -.# o e # & ,.q , w 8 9 < , : % + o X o # % # G #                         F.F.F.F.F.F.F.F.F.",
"F.F.F.F.F.F.F.F.F.F.F.                M %   o 1 o = e.G 8 , , , , : : , , 9 G ,.3                           F.F.F.F.F.F.F.F.F.F.",
"F.F.F.F.F.F.F.F.F.F.F.                  o e +   + =   o @ B >.5.e.<.<.3.X.D < X                             F.F.F.F.F.F.F.F.F.F.",
"F.F.F.F.F.F.F.F.F.F.F.F.                      = #     @ 1 4 $ o X o @ - X                                 F.F.F.F.F.F.F.F.F.F.F.",
"F.F.F.F.F.F.F.F.F.F.F.F.F.                      X o @ o X X = ; o   .                                   F.F.F.F.F.F.F.F.F.F.F.F.",
"F.F.F.F.F.F.F.F.F.F.F.F.F.F.F.                                                                      F.F.F.F.F.F.F.F.F.F.F.F.F.F.",
"F.F.F.F.F.F.F.F.F.F.F.F.F.F.F.F.                                                                  F.F.F.F.F.F.F.F.F.F.F.F.F.F.F.",
"F.F.F.F.F.F.F.F.F.F.F.F.F.F.F.F.F.                                                              F.F.F.F.F.F.F.F.F.F.F.F.F.F.F.F.",
"F.F.F.F.F.F.F.F.F.F.F.F.F.F.F.F.F.F.F.                                                      F.F.F.F.F.F.F.F.F.F.F.F.F.F.F.F.F.F.",
"F.F.F.F.F.F.F.F.F.F.F.F.F.F.F.F.F.F.F.F.F.                                              F.F.F.F.F.F.F.F.F.F.F.F.F.F.F.F.F.F.F.F.",
"F.F.F.F.F.F.F.F.F.F.F.F.F.F.F.F.F.F.F.F.F.F.F.                                      F.F.F.F.F.F.F.F.F.F.F.F.F.F.F.F.F.F.F.F.F.F.",
"F.F.F.F.F.F.F.F.F.F.F.F.F.F.F.F.F.F.F.F.F.F.F.F.F.F.F.                      F.F.F.F.F.F.F.F.F.F.F.F.F.F.F.F.F.F.F.F.F.F.F.F.F.F.",
"F.F.F.F.F.F.F.F.F.F.F.F.F.F.F.F.F.F.F.F.F.F.F.F.F.F.F.F.F.F.F.F.F.F.F.F.F.F.F.F.F.F.F.F.F.F.F.F.F.F.F.F.F.F.F.F.F.F.F.F.F.F.F.F.",
"F.F.F.F.F.F.F.F.F.F.F.F.F.F.F.F.F.F.F.F.F.F.F.F.F.F.F.F.F.F.F.F.F.F.F.F.F.F.F.F.F.F.F.F.F.F.F.F.F.F.F.F.F.F.F.F.F.F.F.F.F.F.F.F.",
"F.F.F.F.F.F.F.F.F.F.F.F.F.F.F.F.F.F.F.F.F.F.F.F.F.F.F.F.F.F.F.F.F.F.F.F.F.F.F.F.F.F.F.F.F.F.F.F.F.F.F.F.F.F.F.F.F.F.F.F.F.F.F.F."
};
