/* XPM */
static char *result[] = {
/* columns rows colors chars-per-pixel */
"64 64 183 2 ",
"   c #040204",
".  c #0B0C0B",
"X  c #180204",
"o  c #1A0B07",
"O  c #280305",
"+  c #2C0F0C",
"@  c #380305",
"#  c #3A100C",
"$  c #1C0A2C",
"%  c #480305",
"&  c #490C09",
"*  c #580305",
"=  c #580C09",
"-  c #58130C",
";  c #4B1D11",
":  c #581C11",
">  c #680305",
",  c #690C08",
"<  c #770404",
"1  c #790C06",
"2  c #69140C",
"3  c #79140A",
"4  c #791C0E",
"5  c #681B12",
"6  c #44261C",
"7  c #792314",
"8  c #792B13",
"9  c #692929",
"0  c #762926",
"q  c #850604",
"w  c #880C05",
"e  c #8C1406",
"r  c #881C0B",
"t  c #9C1505",
"y  c #9D1C06",
"u  c #941C09",
"i  c #8E240D",
"p  c #8E2B0E",
"a  c #90330D",
"s  c #88251E",
"d  c #8D2D1F",
"f  c #AC2506",
"g  c #A12408",
"h  c #A12C0C",
"j  c #AE2C08",
"k  c #A1340F",
"l  c #B13409",
"z  c #BC3509",
"x  c #B23C0B",
"c  c #BE3C0A",
"v  c #A03B12",
"b  c #AE3A1F",
"n  c #8B3B23",
"m  c #A03B26",
"M  c #B14410",
"N  c #B14C14",
"B  c #B46316",
"V  c #B06B1F",
"C  c #AF4427",
"Z  c #B34C29",
"A  c #B0542E",
"S  c #AF6433",
"D  c #C1440A",
"F  c #CC4508",
"G  c #C24C0B",
"H  c #CE4C0A",
"J  c #D1540D",
"K  c #DC550C",
"L  c #D15C0F",
"P  c #DD5C0C",
"I  c #C1451E",
"U  c #CD4C1E",
"Y  c #C15310",
"T  c #C15B11",
"R  c #D2640E",
"E  c #D16C0F",
"W  c #C26414",
"Q  c #C26E11",
"!  c #C4741C",
"~  c #D07416",
"^  c #D27B17",
"/  c #E0640C",
"(  c #EC660A",
")  c #E16C0D",
"_  c #EC6D0C",
"`  c #EE740F",
"'  c #EF7C0F",
"]  c #E17412",
"[  c #E17C13",
"{  c #FC7B1C",
"}  c #C04C21",
"|  c #C05428",
" . c #CF542E",
".. c #C15C2B",
"X. c #D15D2F",
"o. c #D16428",
"O. c #DF6428",
"+. c #D36B29",
"@. c #DE6C2A",
"#. c #C36634",
"$. c #D07333",
"%. c #EC742C",
"&. c #E07431",
"*. c #E27B35",
"=. c #EE7C33",
"-. c #E88411",
";. c #E88C13",
":. c #F58412",
">. c #F58C15",
",. c #E99319",
"<. c #EA9B1A",
"1. c #F59419",
"2. c #F59B1B",
"3. c #D2882B",
"4. c #D49524",
"5. c #E5842A",
"6. c #E98C2C",
"7. c #F58527",
"8. c #F68D29",
"9. c #E6942B",
"0. c #E79C28",
"q. c #F79929",
"w. c #F58D3E",
"e. c #F79C3E",
"r. c #E2A42E",
"t. c #F3A428",
"y. c #F3AB2A",
"u. c #E2AC33",
"i. c #F5A438",
"p. c #F5AC38",
"a. c #E2B43B",
"s. c #E3BC3F",
"d. c #F1B439",
"f. c #FCB33B",
"g. c #BF8344",
"h. c #D18541",
"j. c #E58542",
"k. c #E58C44",
"l. c #E69541",
"z. c #E79C42",
"x. c #D4BC50",
"c. c #E2AC4A",
"v. c #FCAB4E",
"b. c #E0BB4F",
"n. c #F4BC41",
"m. c #F2A553",
"M. c #F1AB53",
"N. c #F5B457",
"B. c #F7BB5A",
"V. c #E9C449",
"C. c #F8C449",
"Z. c #EACC50",
"A. c #E9CD5F",
"S. c #F7CC51",
"D. c #EAD45C",
"F. c #F8D459",
"G. c #E4C360",
"H. c #F6C36C",
"J. c #F7CC69",
"K. c #EBDB61",
"L. c #EBD46C",
"P. c #ECDD6F",
"I. c #F8DC60",
"U. c #F6D46E",
"Y. c #F7DD6F",
"T. c #F7E46C",
"R. c #EBE47D",
"E. c #F8EC72",
"W. c #F8E47E",
"Q. c #F4F37A",
"!. c #FCF47B",
"~. c #ECEB82",
"^. c #F8ED81",
"/. c #FAF58A",
"(. c #F9FB8E",
"). c #F4F5A2",
"_. c #FCF6A2",
"`. c #FAFBA4",
"'. c #FAF6BB",
"]. c #FBFBBC",
"[. c #FCFBD5",
"{. c #FCFBE9",
"}. c None",
/* pixels */
"}.}.}.}.}.}.}.}.}.}.}.}.}.}.}.}.}.}.}.}.}.}.}.}.}.}.}.}.}.}.}.}.}.}.}.}.}.}.}.}.}.}.}.}.}.}.}.}.}.}.}.}.}.}.}.}.}.}.}.}.}.}.}.}.",
"}.}.}.}.}.}.}.}.}.}.}.}.}.}.}.}.}.}.}.}.}.}.}.}.}.}.}.}.}.}.}.}.}.}.}.}.}.}.}.}.}.}.}.}.}.}.}.}.}.}.}.}.}.}.}.}.}.}.}.}.}.}.}.}.",
"}.}.}.}.}.}.}.}.}.}.}.}.}.}.}.}.}.}.}.}.}.}.}.}.}.}.}.}.}.}.}.}.}.}.}.}.}.}.}.}.}.}.}.}.}.}.}.}.}.}.}.}.}.}.}.}.}.}.}.}.}.}.}.}.",
"}.}.}.}.}.}.}.}.}.}.}.}.}.}.}.}.}.}.}.}.}.}.}.}.}.}.}.}.}.}.}.}.}.}.}.}.}.}.}.}.}.}.}.}.}.}.}.}.}.}.}.}.}.}.}.}.}.}.}.}.}.}.}.}.",
"}.}.}.}.}.}.}.}.}.}.}.}.}.}.}.}.}.}.}.}.}.}.}.}.}.}.}.                      }.}.}.}.}.}.}.}.}.}.}.}.}.}.}.}.}.}.}.}.}.}.}.}.}.}.",
"}.}.}.}.}.}.}.}.}.}.}.}.}.}.}.}.}.}.}.}.}.}.}.                                      }.}.}.}.}.}.}.}.}.}.}.}.}.}.}.}.}.}.}.}.}.}.",
"}.}.}.}.}.}.}.}.}.}.}.}.}.}.}.}.}.}.}.}.}.                                              }.}.}.}.}.}.}.}.}.}.}.}.}.}.}.}.}.}.}.}.",
"}.}.}.}.}.}.}.}.}.}.}.}.}.}.}.}.}.}.}.                                  O O                 }.}.}.}.}.}.}.}.}.}.}.}.}.}.}.}.}.}.",
"}.}.}.}.}.}.}.}.}.}.}.}.}.}.}.}.}.                                    . r *                     }.}.}.}.}.}.}.}.}.}.}.}.}.}.}.}.",
"}.}.}.}.}.}.}.}.}.}.}.}.}.}.}.}.  * w l h r e r , @ X                 X x h O                     }.}.}.}.}.}.}.}.}.}.}.}.}.}.}.",
"}.}.}.}.}.}.}.}.}.}.}.}.}.}.}.  > @ @ e J J D l j z c k #     X @ @ O   z / > X                     }.}.}.}.}.}.}.}.}.}.}.}.}.}.",
"}.}.}.}.}.}.}.}.}.}.}.}.}.    < * % @ % > e g D H x H K x :   @ A  .< + w ` z % X                       }.}.}.}.}.}.}.}.}.}.}.}.",
"}.}.}.}.}.}.}.}.}.}.}.}.    @ X * w g j g y < * c P F _ ' t.1 % > n.C.M < H P i * X                       }.}.}.}.}.}.}.}.}.}.}.",
"}.}.}.}.}.}.}.}.}.}.}.  % *   O O X O * < l ` { p.1.' y.C.I.N.c } ' s.T.e u H F 1 O             O           }.}.}.}.}.}.}.}.}.}.",
"}.}.}.}.}.}.}.}.}.}.}.  % e h Z v ;   1 5.1.-.>.q.C.E./.{.[.].F.p.S.d.n.W.j z c g * @       X O X           }.}.}.}.}.}.}.}.}.}.",
"}.}.}.}.}.}.}.}.}.}.  W L j j z F / 6.n.C.d.f.y.F.!.Q.!.[.{.{.].`././.S./.,.J P J j e < 3 * % @               }.}.}.}.}.}.}.}.}.",
"}.}.}.}.}.}.}.}.}.  l e % @ % q J f.S.4.1.1.d.E./.!./.(./.'.{.{.[.(.(./.`.).C.' ( O.D j t 1 > % O @ @ X         }.}.}.}.}.}.}.}.",
"}.}.}.}.}.}.}.}.  @       X 4 N.S.^ ;.n.I.F.!.R.(.(._.].`.`.].[.'.).`.`.).'.(.E.S.' K H f > % @ O X X O X         }.}.}.}.}.}.}.",
"}.}.}.}.}.}.}.}.    O % @ 8 f.4.,.F.!.Q.!.(.!.!.E.^.'.'.].`.`.`.[.].].).(.].T.P.~.I.N.@.l h % O X                 }.}.}.}.}.}.}.",
"}.}.}.}.}.}.}.      X * j y.T M F.E.T.`.`.].'.(.T.Q.].{.{.[.[.[.[.[.[.].].'.^.V.y.F.T.F.6.y g @ O                   }.}.}.}.}.}.",
"}.}.}.}.}.}.}.        O 8.e ' F.E.u._.`.{.{.{.{.{.{.{.{.{.{.{.{.{.{.{.[.[.[.`.^.A.0.n.n.S.i.t e O X                 }.}.}.}.}.}.",
"}.}.}.}.}.}.        X e 6.$.~ /.4./.`._.).[.{.{.{.{.{.{.{.{.{.{.{.{.{.[.[.].[.].(.x.p.4.u.n.&.q ,                     }.}.}.}.}.",
"}.}.}.}.}.}.        > e.> J /.r.Q.`.).[.{.{.{.{.{.{.{.{.{.{.{.{.{.'.{.{.{.{.{.[.`.].D.D.R <.d.E < @                   }.}.}.}.}.",
"}.}.}.}.}.          O.&.w.Y.L.T.`.].[.{.{.{.{.{.{.{.{.{.{.{.{.'.'.'.'.'.[.{.'.[.[.).)._.c.L ' t.p > X                   }.}.}.}.",
"}.}.}.}.}.        % p.y [ Q.d.(.].].{.{.[.{.{.{.{.{.{.{.{.[.[.[.).T.C.d.V.A.].].).'./.~._.a.L E q.* %                   }.}.}.}.",
"}.}.}.}.}.        C R ` T.4.!.`.].[.[.{.{.{.{.[.[.[.[.[.'.'.[.].(.T.n.;.t.>.,.s.(.).'.'.K.^.n.` ] [ @ X                 }.}.}.}.",
"}.}.}.}.}.      O q.w R ^.F./.`.'.[.[.{.[.{.[.[.'.'.].'.'.].].'.~.I.y.;.-.-.>.] Q E.R././.P.j.E H -.= @                 }.}.}.}.",
"}.}.}.}.        < 6.G G.4.!.`.`.[.].{.{.[.'.].).b.).].`.].[.(.].].F.y.' J ` ' l K r Y.V./.Y.R.W c c [ X                   }.}.}.",
"}.}.}.}.      O M e R ^.t.Q.(.[.'.'.[.[.[.].T.R l t.`.(.(.).).E.`.F.C.' J K ` q x 1 i F.a._.a.H.@.l ' o                   }.}.}.",
"}.}.}.}.    X > ] e u.i.T.!.P.`.].[.{.[.).K.h c w G u./.^./.`.D.T.T.S.' D D K < w h X p d.n.Z.V.T c x 8                   }.}.}.",
"}.}.}.}.    @ > 8.y E.E I.Q._.`.).{.'.].K.M > w h u l ^.F.Z.).V.d.T.y.1.l l F r > g X O i.,.^.Z.} w < @.                  }.}.}.",
"}.}.}.}.    * * @.x I.] n.E.`./.].).`.(.) > @ * w z q z.!.S.E.T.t.d.;.>.P j j k % w X   h ' a.B J.G q ]                   }.}.}.",
"}.}.}.}.    % * } G d.4.d.Z.`.I.[.).`.T.r > > O > e y o.!.y.n.(.,.<.;.:.1.f y k % < O   % 1.,.V a.O.w / X                 }.}.}.",
"}.}.}.}.  O @ % r Y 6.t.t.s.~.I.].(.(.n.@ X q % O w y c S.d.>.W.u.:.2.` y.1 y k % * @   X ] _ N.;.C 3 G X                 }.}.}.",
"}.}.}.}.  O X + , J / i.y.u.R.T.].(.Q.,.X   @ < X X w H t.C.1.n.I._ 1._ t.i g h @ @ @   X / H U.,.i > k O                 }.}.}.",
"}.}.}.}.      O * J L q.<.r.P.E._.^.E.'       * %   s l ' C.>.1.T.` ) P <.) l u @ O       J l C.7.r % h O                 }.}.}.",
"}.}.}.}.      X = J Y 1.1.,.L.Q._.I.I.[ X     X *   @ t ` y.>.] C.:.c F <.>.c 1 @ @       I j B.] e % h O                 }.}.}.",
"}.}.}.}.        - l L [ ) -.A.Q./.V.F.1.@       O     * P 2.' / p.t.g f 8.>.x > * @     O z j B.R s O M                   }.}.}.",
"}.}.}.}.}.      3 i [ G x :.F.D.^.d.F.t.1             O r -.) K q.y.t g [ L c > * @     > j j g...7 X U                 }.}.}.}.",
"}.}.}.}.}.      r = i.t j q.U.S.u.d.C.y.L @           X * >.] F ' n.f w j F D % * X   X 3 g g 2 h.= X v                 }.}.}.}.",
"}.}.}.}.}.      , X *.u O.q.3.n.[ C.<.f.1.x X         X * :.' j _ F.D e > y D % * X   @ w x v 3 9 X o &                 }.}.}.}.",
"}.}.}.}.}.      @ X w Y I k M d.J F.1.t.,.' r X       O g :._ g ( F.G q * < c > * X @ < u e H., *   n                   }.}.}.}.",
"}.}.}.}.}.}.      @ * 6.< , ' l.v.R 1.' t.-.` D * @ * w J >.c c H F.E w * > y y * > > < e > < S O X h                 }.}.}.}.}.",
"}.}.}.}.}.}.      @ O 2 < I #.i t.r i.>.` 2.:.) H h g x ` ' j H x S.) q % > t j > > * e s h.2 =   - @                 }.}.}.}.}.",
"}.}.}.}.}.}.}.        @ +.w O / ~ $.D 9./ P ` ' _ P J ) { g / e 8.y.x < @ < q e > * 1 e % i A @   Z                 }.}.}.}.}.}.",
"}.}.}.}.}.}.}.      .   - > m 5 1 8.= h ` ' c L ] _ _ J H _ e { >.{ u > @ w e < % < q * k.& +   h O                 }.}.}.}.}.}.",
"}.}.}.}.}.}.}.}.          X.% = Y % =.% s N / z j H J P P o.' ` L j < O q > > * < < % M.> ,   & =                 }.}.}.}.}.}.}.",
"}.}.}.}.}.}.}.}.            r * O Y @ %.@ 5 , y H g e t t t t g e < * * * % > < > * M.< 3   # 4                   }.}.}.}.}.}.}.",
"}.}.}.}.}.}.}.}.}.          O & * X | % o.* O & , < w w q > > > * * % @ % > > % % l.< >   O 3                   }.}.}.}.}.}.}.}.",
"}.}.}.}.}.}.}.}.}.}.          & O %   k @ y r X O @ % * % * % % @ @ % > > > @ p ! 2 O   & *                   }.}.}.}.}.}.}.}.}.",
"}.}.}.}.}.}.}.}.}.}.}.          @ O X O & i @ b O   X + @ % % * % @ @ % O @ m., ,   X O                     }.}.}.}.}.}.}.}.}.}.",
"}.}.}.}.}.}.}.}.}.}.}.            O +   X   % % * i 9 X     O % * % X 6 z.a *                               }.}.}.}.}.}.}.}.}.}.",
"}.}.}.}.}.}.}.}.}.}.}.}.              @     X   $ * O 0 1 d Z X...h 3 % X                                 }.}.}.}.}.}.}.}.}.}.}.",
"}.}.}.}.}.}.}.}.}.}.}.}.}.              O X         X O O @ O                                           }.}.}.}.}.}.}.}.}.}.}.}.",
"}.}.}.}.}.}.}.}.}.}.}.}.}.}.}.                                                                      }.}.}.}.}.}.}.}.}.}.}.}.}.}.",
"}.}.}.}.}.}.}.}.}.}.}.}.}.}.}.}.                                                                  }.}.}.}.}.}.}.}.}.}.}.}.}.}.}.",
"}.}.}.}.}.}.}.}.}.}.}.}.}.}.}.}.}.                                                              }.}.}.}.}.}.}.}.}.}.}.}.}.}.}.}.",
"}.}.}.}.}.}.}.}.}.}.}.}.}.}.}.}.}.}.}.                                                      }.}.}.}.}.}.}.}.}.}.}.}.}.}.}.}.}.}.",
"}.}.}.}.}.}.}.}.}.}.}.}.}.}.}.}.}.}.}.}.}.                                              }.}.}.}.}.}.}.}.}.}.}.}.}.}.}.}.}.}.}.}.",
"}.}.}.}.}.}.}.}.}.}.}.}.}.}.}.}.}.}.}.}.}.}.}.                                      }.}.}.}.}.}.}.}.}.}.}.}.}.}.}.}.}.}.}.}.}.}.",
"}.}.}.}.}.}.}.}.}.}.}.}.}.}.}.}.}.}.}.}.}.}.}.}.}.}.}.                      }.}.}.}.}.}.}.}.}.}.}.}.}.}.}.}.}.}.}.}.}.}.}.}.}.}.",
"}.}.}.}.}.}.}.}.}.}.}.}.}.}.}.}.}.}.}.}.}.}.}.}.}.}.}.}.}.}.}.}.}.}.}.}.}.}.}.}.}.}.}.}.}.}.}.}.}.}.}.}.}.}.}.}.}.}.}.}.}.}.}.}.",
"}.}.}.}.}.}.}.}.}.}.}.}.}.}.}.}.}.}.}.}.}.}.}.}.}.}.}.}.}.}.}.}.}.}.}.}.}.}.}.}.}.}.}.}.}.}.}.}.}.}.}.}.}.}.}.}.}.}.}.}.}.}.}.}.",
"}.}.}.}.}.}.}.}.}.}.}.}.}.}.}.}.}.}.}.}.}.}.}.}.}.}.}.}.}.}.}.}.}.}.}.}.}.}.}.}.}.}.}.}.}.}.}.}.}.}.}.}.}.}.}.}.}.}.}.}.}.}.}.}."
};
