/* XPM */
static char *result[] = {
/* columns rows colors chars-per-pixel */
"64 64 183 2 ",
"   c #040204",
".  c #180204",
"X  c #280305",
"o  c #380305",
"O  c #380B09",
"+  c #480305",
"@  c #490C09",
"#  c #580305",
"$  c #590C07",
"%  c #47140E",
"&  c #58140D",
"*  c #591C13",
"=  c #680305",
"-  c #690C07",
";  c #770405",
":  c #790C06",
">  c #69130B",
",  c #78140A",
"<  c #791C0D",
"1  c #5C220F",
"2  c #78230E",
"3  c #682418",
"4  c #673619",
"5  c #7A3210",
"6  c #840604",
"7  c #870D05",
"8  c #940D05",
"9  c #8D1406",
"0  c #8F1C09",
"q  c #9D1505",
"w  c #9E1C06",
"e  c #8E240E",
"r  c #90330E",
"t  c #892B12",
"y  c #942C17",
"u  c #8E3B12",
"i  c #A1240A",
"p  c #AC2509",
"a  c #A12C0D",
"s  c #AE2D09",
"d  c #A2340E",
"f  c #B0340B",
"g  c #BC360A",
"h  c #BD3C0A",
"j  c #A1341F",
"k  c #B13C10",
"l  c #A23C20",
"z  c #A3460F",
"x  c #B14413",
"c  c #B14C12",
"v  c #B15613",
"b  c #B46A18",
"n  c #A14522",
"m  c #AF4C28",
"M  c #B14426",
"N  c #A4552C",
"B  c #B1542D",
"V  c #BE542B",
"C  c #B15C32",
"Z  c #C0440B",
"A  c #CC450A",
"S  c #C24C0E",
"D  c #CD4D09",
"F  c #C1540F",
"G  c #D1540C",
"H  c #DC550B",
"J  c #D25C0D",
"K  c #DD5D0D",
"L  c #CD4D1E",
"P  c #C05C13",
"I  c #C26417",
"U  c #C36B16",
"Y  c #D26413",
"T  c #DF6410",
"R  c #D16B13",
"E  c #C3761E",
"W  c #D17314",
"Q  c #D17C16",
"!  c #EC650D",
"~  c #EC6D0C",
"^  c #E16C10",
"/  c #EC6B1F",
"(  c #E27411",
")  c #EE7410",
"_  c #E27C12",
"`  c #EF7C11",
"'  c #C04C27",
"]  c #CE5526",
"[  c #C05C2C",
"{  c #CE5C28",
"}  c #D0642F",
"|  c #DD652C",
" . c #DF6D2F",
".. c #D06C34",
"X. c #D27D3A",
"o. c #E17431",
"O. c #EE7C34",
"+. c #E07C38",
"@. c #D88411",
"#. c #DA8B13",
"$. c #DC941F",
"%. c #EA8411",
"&. c #EA8C14",
"*. c #F58413",
"=. c #F58C16",
"-. c #EB9419",
";. c #EA9B1B",
":. c #F59419",
">. c #F59B1C",
",. c #CB8423",
"<. c #DA8821",
"1. c #D39521",
"2. c #D99C25",
"3. c #DC843F",
"4. c #DB8C3E",
"5. c #DB9B3A",
"6. c #E8842B",
"7. c #E98C2A",
"8. c #F58529",
"9. c #F68D2A",
"0. c #E9942A",
"q. c #E99C28",
"w. c #F69528",
"e. c #F79C28",
"r. c #D2A93A",
"t. c #E1A42B",
"y. c #F3A323",
"u. c #F3AB24",
"i. c #F4A52F",
"p. c #E1AC30",
"a. c #F4AC31",
"s. c #E1B33A",
"d. c #E3BB3E",
"f. c #F4B438",
"g. c #F4BC3F",
"h. c #E98440",
"j. c #E89C45",
"k. c #E89548",
"l. c #F59441",
"z. c #F59C40",
"x. c #E68B57",
"c. c #DFAC42",
"v. c #DFB34C",
"b. c #E1A441",
"n. c #F1A44D",
"m. c #FCA44A",
"M. c #F4AD4B",
"N. c #F4BD4F",
"B. c #EAC442",
"V. c #EBCB44",
"C. c #F7C449",
"Z. c #E8C550",
"A. c #EACC53",
"S. c #F7CC50",
"D. c #EAD358",
"F. c #F8D456",
"G. c #F8DC5B",
"H. c #F8CF65",
"J. c #EAD068",
"K. c #E2DA6B",
"L. c #ECDB68",
"P. c #F8DC66",
"I. c #F4DD7F",
"U. c #ECE46E",
"Y. c #F8E46A",
"T. c #ECEB71",
"R. c #ECE47E",
"E. c #F9EC71",
"W. c #F6E57F",
"Q. c #FAF37A",
"!. c #FAFA7C",
"~. c #ECEC82",
"^. c #F8ED80",
"/. c #F9F58A",
"(. c #F9FA8E",
"). c #F4F5A2",
"_. c #FCF6A2",
"`. c #FAFBA4",
"'. c #FBF6BC",
"]. c #FBFBBB",
"[. c #FCFBD5",
"{. c #FCFBE7",
"}. c None",
/* pixels */
"}.}.}.}.}.}.}.}.}.}.}.}.}.}.}.}.}.}.}.}.}.}.}.}.}.}.}.}.}.}.}.}.}.}.}.}.}.}.}.}.}.}.}.}.}.}.}.}.}.}.}.}.}.}.}.}.}.}.}.}.}.}.}.}.",
"}.}.}.}.}.}.}.}.}.}.}.}.}.}.}.}.}.}.}.}.}.}.}.}.}.}.}.}.}.}.}.}.}.}.}.}.}.}.}.}.}.}.}.}.}.}.}.}.}.}.}.}.}.}.}.}.}.}.}.}.}.}.}.}.",
"}.}.}.}.}.}.}.}.}.}.}.}.}.}.}.}.}.}.}.}.}.}.}.}.}.}.}.}.}.}.}.}.}.}.}.}.}.}.}.}.}.}.}.}.}.}.}.}.}.}.}.}.}.}.}.}.}.}.}.}.}.}.}.}.",
"}.}.}.}.}.}.}.}.}.}.}.}.}.}.}.}.}.}.}.}.}.}.}.}.}.}.}.}.}.}.}.}.}.}.}.}.}.}.}.}.}.}.}.}.}.}.}.}.}.}.}.}.}.}.}.}.}.}.}.}.}.}.}.}.",
"}.}.}.}.}.}.}.}.}.}.}.}.}.}.}.}.}.}.}.}.}.}.}.}.}.}.}.                      }.}.}.}.}.}.}.}.}.}.}.}.}.}.}.}.}.}.}.}.}.}.}.}.}.}.",
"}.}.}.}.}.}.}.}.}.}.}.}.}.}.}.}.}.}.}.}.}.}.}.                                      }.}.}.}.}.}.}.}.}.}.}.}.}.}.}.}.}.}.}.}.}.}.",
"}.}.}.}.}.}.}.}.}.}.}.}.}.}.}.}.}.}.}.}.}.                                    # X       }.}.}.}.}.}.}.}.}.}.}.}.}.}.}.}.}.}.}.}.",
"}.}.}.}.}.}.}.}.}.}.}.}.}.}.}.}.}.}.}.        . . . X . .                   . 7 e .         }.}.}.}.}.}.}.}.}.}.}.}.}.}.}.}.}.}.",
"}.}.}.}.}.}.}.}.}.}.}.}.}.}.}.}.}.                                      o     # K <             }.}.}.}.}.}.}.}.}.}.}.}.}.}.}.}.",
"}.}.}.}.}.}.}.}.}.}.}.}.}.}.}.}.  @ $ = > & 2 2 d l M t * o + + + o     X #     0 K : o           }.}.}.}.}.}.}.}.}.}.}.}.}.}.}.",
"}.}.}.}.}.}.}.}.}.}.}.}.}.}.}.  ) ) *.*.) ) T G H H T ! ) | s 9 0 7 , +   o # . . h S 0 .           }.}.}.}.}.}.}.}.}.}.}.}.}.}.",
"}.}.}.}.}.}.}.}.}.}.}.}.}.    ~ T K Y J G D D H H L ^ a.G.E.P.z.Z i q p $ o + +   # D h - X             }.}.}.}.}.}.}.}.}.}.}.}.",
"}.}.}.}.}.}.}.}.}.}.}.}.  s q ; ; ; 9 a ; # + r ^ &.&.%.( ` -.p.C.^.f.J k = = X .   : s a # o             }.}.}.}.}.}.}.}.}.}.}.",
"}.}.}.}.}.}.}.}.}.}.}.  a q w k T T G A Z G o.O._ 1.B.Y.S.f.g.C.g.;.p.E.:.9.7 - .   o 6 w ; + X .           }.}.}.}.}.}.}.}.}.}.",
"}.}.}.}.}.}.}.}.}.}.}.  7 s Z 9 - $ C m.a.a.^.].{.[.[.].].(.^.Y.!.Q.C.y.E.f.>.L = # = # ; = # o X           }.}.}.}.}.}.}.}.}.}.",
"}.}.}.}.}.}.}.}.}.}.  + 9 f ] H ( a.i.;.F.`.].'.'.{.{.{.{.{.[.`.`.(.!.Y.g.(.1.:.G 7 ; = # # + o + X           }.}.}.}.}.}.}.}.}.",
"}.}.}.}.}.}.}.}.}.  4 ..~ Z 8 8.i.P C./.(.^.K.P.Y.!.Q./.].'.[.[.[.`.)./.Y.E.`.;.:.k ; = # + o X o o .           }.}.}.}.}.}.}.}.",
"}.}.}.}.}.}.}.}.  o.H 0 + + O.a 0.Y.Q./.U.D.E.(.(.`.`.^.T.E.Q.).`.[.]./.!.Q.].I.i.` w = # o X .   + X             }.}.}.}.}.}.}.",
"}.}.}.}.}.}.}.}.  : X . o { %.C.C.!.(.(.`.].'.W.J.K.].[.].(./.!.(.].].`.!.Q./.`.N.e.G e # o X     X X             }.}.}.}.}.}.}.",
"}.}.}.}.}.}.}.  .   .   < S.y.g./.).'.].`.).W.^._.[.[.[.[.[.].].].].].].`.(.!.`.E.y.w.s 9 # X       X               }.}.}.}.}.}.",
"}.}.}.}.}.}.}.        1 H.R G._.`.`.`.D.U._.[.{.{.{.{.{.{.{.[.{.[.[.{.{.[.].`.`.Q.u.y.%.9 : # .     X               }.}.}.}.}.}.",
"}.}.}.}.}.}.        @ C.b N.Q.`.).).(.].[.{.{.{.{.{.{.{.{.{.{.[.{.{.{.{.[.[.].].(.D.e.>.( ; = o .                     }.}.}.}.}.",
"}.}.}.}.}.}.      & f.I f.E.`.Y.`.).].[.{.[.{.{.{.{.{.{.{.[.'.[.'.).].).[.[.[.[.].).G.g.w.^ ; = .                     }.}.}.}.}.",
"}.}.}.}.}.      @ F v l.Y.!.H.^.(.!.'.{.{.{.[.{.{.{.{.[.[.[.].].[.(.T.S.E Z.'.[.[.].(./.n.*.T = +                       }.}.}.}.",
"}.}.}.}.}.      w i.7.G.F./.d.Q.Q.].{.[.{.[.{.{.{.[.[.[.].].].].`.].E.F.T :.s.A.).).].!.^.j.K x + .                     }.}.}.}.",
"}.}.}.}.}.    # Y z H.F.Q.<.Q.E.`.[.[.[.[.[.{.[.[.].].'.[.].`.].].].).B.` J &.f.&.W.`.].U.D.d g # +                     }.}.}.}.",
"}.}.}.}.}.    ; *.o.P.B.^.B.L.Q.'.].].[.[.[.[.[.].].)./.).'.'.`.].`.].Y.:.~ %.a.` _ U.T.`.F.<.| | o                     }.}.}.}.",
"}.}.}.}.    o f *.H.G.E.1.Q.F.`.].].[.{.[.'.].(.B.1.( ^ 2.^.`.`.(.!.(.`.=.&.:.%.&.D %.N.L.^.^.R i # o                     }.}.}.",
"}.}.}.}.    + G ^ P.C.Q.e.P.Y.[.].].{.'.).`./.2.f 8 6 8 i R Y.`.`.~.D.^.a.s i.( ` h *.s Y.^.r.,.L  .X                     }.}.}.",
"}.}.}.}.    = ^ @.Y.F.F.G.f.^.`.`.[.'.`.`.(.$.; ; # # = ; i ^ ^.`.(.E.C.F.s K *.T s %.w W p./.G.d { X                     }.}.}.",
"}.}.}.}.    ; *.f.Y.G.q.F.B.`.).`.{.'.(.(.N.>   . = # o = ; f f.(.(./.&.C.J w =.G s ( 9 9 f.R.s. .0 $ .                   }.}.}.",
"}.}.}.}.    = *.P.F.S.R f.f.].).).[.~.(.P. ..       6 #   # w Y Y.Y.U.%.f.` w *.^ s T : ; q.t.c.D i y .                   }.}.}.",
"}.}.}.}.    # ^ E.C.C.R n.y.`.Q.].'.!./.N.k         X ; . . 0 D B.G.D.@.y.%.h ^ *.p H = = J %.r.R y P .                   }.}.}.",
"}.}.}.}.    # D ^.g.a.U i.y.~.T.).).Q.Q.i.,           - X   0 g i.G.C.5.:.( ^ { ;.i A # # a G v.b.9 6..                   }.}.}.",
"}.}.}.}.    $ f ^.p.>.Y >.q.~.Q.R./.T.Y.-.-           X #   # q w.F.g.p.*.K *.[ i.i f # # : J S.v.7 6.                    }.}.}.",
"}.}.}.}.    - 9 ^.;.:.F >.%.L.(.I.W.Y.Y.>.<             =   . 6 %.S.f.;.) h :.+.i.s p + # = K S.b.7 _                     }.}.}.",
"}.}.}.}.    $ 7 Y.%._ h :.` U.(.A.I.F.Y.i.x             +     = %.g.i.t.~ p :.7.@.0 w + + = H N.k.: n                     }.}.}.",
"}.}.}.}.    # : S.` *.i &.) Q.^.p.R.g.G.f.) o           X     - l.f.f.f.G 8 6.a.j 7 7 X o : h ,.x : %                     }.}.}.",
"}.}.}.}.}.  X 7 4.#.` L ( ) ^.Y.u./.f.F.g.>.a .         X   X i a.=.u.g.k 7 G :.= 6 ; X o a h u 0 e                     }.}.}.}.",
"}.}.}.}.}.  . 9 u j.^ ) ) &.j.G.-.F.g.u.S.f.*., .         . = %.C.*.f.y.q = J K = 8 #   + Z S [ < }                     }.}.}.}.",
"}.}.}.}.}.    8 # t.i K s =.a P.Q _ B.&.f.C.y.*.f # + o + 9 T a.e.( F.F : : G 9 = 0 o   ; A M.h.# <                     }.}.}.}.",
"}.}.}.}.}.    = o m.9 h : %.f V.F./ B.f.-.y.g.y.=.T H D K ) i.&.T f.F.; = 0 T = = =   X w 0 t = , .                     }.}.}.}.",
"}.}.}.}.}.}.  X o N s ; K S *.t S.e / a.>.( :.f.y.>.&.%.=.y.( k a.P.f i # A ; # w   X 7 s 3.Z + <                     }.}.}.}.}.",
"}.}.}.}.}.}.    o X Z ; Z # =.+ f.g.a x &.=.) =.:.u.-.&._ ( :.a.C.w.s + f f : 0 o   , 0 0 v 3 o .                     }.}.}.}.}.",
"}.}.}.}.}.}.}.  X   ^ 7 = l x ( ; g.m a s ^ ) D ) *.*.&.&.;.f.i.Z w = s i 9 < o   y 6 p n.' X +                     }.}.}.}.}.}.",
"}.}.}.}.}.}.}.      O p # 7 o T @ < a.a < a h h S Z f a a e # + - s 7 e : j   o s ; 0 v 0 . #                       }.}.}.}.}.}.",
"}.}.}.}.}.}.}.}.      - # o l X ) . c :.0 + a 6 i 7 6 0 i s f 7 ; w 7 , +   = : + 7 k.: o @                       }.}.}.}.}.}.}.",
"}.}.}.}.}.}.}.}.        - + o 0 o )   k &.0 o + : = = , : : : ; = , +   . + X + 7 j.e o + .                       }.}.}.}.}.}.}.",
"}.}.}.}.}.}.}.}.}.      X + o o $ o { . < T [ # X X + # = = # # o .     X X = < B , X X                         }.}.}.}.}.}.}.}.",
"}.}.}.}.}.}.}.}.}.}.      .   . o + X L   o g S l # X     .           X # = x., # X                           }.}.}.}.}.}.}.}.}.",
"}.}.}.}.}.}.}.}.}.}.}.            . #   e 9 . + [ 9 +.0 # # + + + + > X.V = # X                             }.}.}.}.}.}.}.}.}.}.",
"}.}.}.}.}.}.}.}.}.}.}.              . +   . = X   . 5 B $ $ - > $ $ # # o .                                 }.}.}.}.}.}.}.}.}.}.",
"}.}.}.}.}.}.}.}.}.}.}.}.                X o .   X           X . . .                                       }.}.}.}.}.}.}.}.}.}.}.",
"}.}.}.}.}.}.}.}.}.}.}.}.}.                  .                                                           }.}.}.}.}.}.}.}.}.}.}.}.",
"}.}.}.}.}.}.}.}.}.}.}.}.}.}.}.                                                                      }.}.}.}.}.}.}.}.}.}.}.}.}.}.",
"}.}.}.}.}.}.}.}.}.}.}.}.}.}.}.}.                                                                  }.}.}.}.}.}.}.}.}.}.}.}.}.}.}.",
"}.}.}.}.}.}.}.}.}.}.}.}.}.}.}.}.}.                                                              }.}.}.}.}.}.}.}.}.}.}.}.}.}.}.}.",
"}.}.}.}.}.}.}.}.}.}.}.}.}.}.}.}.}.}.}.                                                      }.}.}.}.}.}.}.}.}.}.}.}.}.}.}.}.}.}.",
"}.}.}.}.}.}.}.}.}.}.}.}.}.}.}.}.}.}.}.}.}.                                              }.}.}.}.}.}.}.}.}.}.}.}.}.}.}.}.}.}.}.}.",
"}.}.}.}.}.}.}.}.}.}.}.}.}.}.}.}.}.}.}.}.}.}.}.                                      }.}.}.}.}.}.}.}.}.}.}.}.}.}.}.}.}.}.}.}.}.}.",
"}.}.}.}.}.}.}.}.}.}.}.}.}.}.}.}.}.}.}.}.}.}.}.}.}.}.}.                      }.}.}.}.}.}.}.}.}.}.}.}.}.}.}.}.}.}.}.}.}.}.}.}.}.}.",
"}.}.}.}.}.}.}.}.}.}.}.}.}.}.}.}.}.}.}.}.}.}.}.}.}.}.}.}.}.}.}.}.}.}.}.}.}.}.}.}.}.}.}.}.}.}.}.}.}.}.}.}.}.}.}.}.}.}.}.}.}.}.}.}.",
"}.}.}.}.}.}.}.}.}.}.}.}.}.}.}.}.}.}.}.}.}.}.}.}.}.}.}.}.}.}.}.}.}.}.}.}.}.}.}.}.}.}.}.}.}.}.}.}.}.}.}.}.}.}.}.}.}.}.}.}.}.}.}.}.",
"}.}.}.}.}.}.}.}.}.}.}.}.}.}.}.}.}.}.}.}.}.}.}.}.}.}.}.}.}.}.}.}.}.}.}.}.}.}.}.}.}.}.}.}.}.}.}.}.}.}.}.}.}.}.}.}.}.}.}.}.}.}.}.}."
};
