/* XPM */
static char *result[] = {
/* columns rows colors chars-per-pixel */
"64 64 176 2 ",
"   c #040204",
".  c #0A0C0B",
"X  c #180204",
"o  c #280205",
"O  c #270A09",
"+  c #380205",
"@  c #380B09",
"#  c #050423",
"$  c #480205",
"%  c #480B09",
"&  c #580305",
"*  c #580B09",
"=  c #4A130D",
"-  c #58140E",
";  c #680304",
":  c #690C07",
">  c #780404",
",  c #790C06",
"<  c #68130D",
"1  c #79140A",
"2  c #791C0D",
"3  c #681C14",
"4  c #522720",
"5  c #850504",
"6  c #870C05",
"7  c #940E05",
"8  c #8E1406",
"9  c #891C0A",
"0  c #9D1505",
"q  c #941B07",
"w  c #9E1C06",
"e  c #8A230D",
"r  c #94230B",
"t  c #8B2B17",
"y  c #942B12",
"u  c #883C14",
"i  c #A12407",
"p  c #AC2507",
"a  c #AC2C07",
"s  c #A22C0A",
"d  c #B42D07",
"f  c #B42408",
"g  c #AC330A",
"h  c #B63508",
"j  c #B93C09",
"k  c #A23313",
"l  c #A23B10",
"z  c #AC3B11",
"x  c #CE3E06",
"c  c #C43D0B",
"v  c #B3440A",
"b  c #B34B0A",
"n  c #B2441F",
"m  c #BE451E",
"M  c #A45214",
"N  c #B44B21",
"B  c #C14409",
"V  c #CC450A",
"C  c #C24B0A",
"Z  c #CD4C0A",
"A  c #DC4E04",
"S  c #C3540A",
"D  c #C25C0B",
"F  c #D0540A",
"G  c #DC550C",
"H  c #D25C0B",
"J  c #DE5D0C",
"K  c #C2640C",
"L  c #C36C0F",
"P  c #D2630B",
"I  c #DF640B",
"U  c #D16C0C",
"Y  c #D1740E",
"T  c #C27D11",
"R  c #C37519",
"E  c #D27C10",
"W  c #EC650A",
"Q  c #E26C0B",
"!  c #EC6C0A",
"~  c #E2740F",
"^  c #EE740D",
"/  c #EF7C0F",
"(  c #E27C12",
")  c #FC7B10",
"_  c #C14C20",
"`  c #C25326",
"'  c #CE5425",
"]  c #D1642B",
"[  c #D26C29",
"{  c #DF6C28",
"}  c #DE7C32",
"|  c #EC6E2A",
" . c #E1742F",
".. c #EE7C32",
"X. c #CB8313",
"o. c #D98314",
"O. c #DA8C16",
"+. c #D9941E",
"@. c #E9840E",
"#. c #EA8C17",
"$. c #E9841E",
"%. c #F58414",
"&. c #F58C17",
"*. c #E9941C",
"=. c #F6941D",
"-. c #D98527",
";. c #DA9C26",
":. c #DC923C",
">. c #F6852E",
",. c #F68D2D",
"<. c #E99C23",
"1. c #F69C23",
"2. c #E88B34",
"3. c #E79439",
"4. c #EA9D3B",
"5. c #F5943A",
"6. c #F79C3A",
"7. c #D3A42E",
"8. c #D4AC31",
"9. c #DAA43C",
"0. c #CFB23E",
"q. c #E2A42A",
"w. c #F0A42A",
"e. c #FCA42C",
"r. c #E2AC30",
"t. c #E4AC3F",
"y. c #F1AC30",
"u. c #FCAC32",
"i. c #E2B439",
"p. c #E3BC3F",
"a. c #F1B438",
"s. c #FCB339",
"d. c #F1BC3F",
"f. c #FCBB3F",
"g. c #D4BC44",
"h. c #DBBC4E",
"j. c #F3AC48",
"k. c #FCAE4C",
"l. c #E2B54D",
"z. c #E4BD4D",
"x. c #F4BD4D",
"c. c #F3B453",
"v. c #E3C44B",
"b. c #ECC448",
"n. c #F7C447",
"m. c #F7CC4E",
"M. c #EACC50",
"N. c #E8C55D",
"B. c #E8CD5D",
"V. c #F8C55F",
"C. c #F7CC5D",
"Z. c #E3D35B",
"A. c #FCD457",
"S. c #F1D459",
"D. c #FCDC5E",
"F. c #F2DC60",
"G. c #F1DD6E",
"H. c #FCDD6E",
"J. c #F0D570",
"K. c #ECE469",
"L. c #EBEA6A",
"P. c #F9E468",
"I. c #FAEB6B",
"U. c #EBE578",
"Y. c #ECEB7D",
"T. c #F8E577",
"R. c #F9EC7A",
"E. c #F4F483",
"W. c #FCF482",
"Q. c #F4FA89",
"!. c #FCFA89",
"~. c #F9F196",
"^. c #F4FA9A",
"/. c #FCFA9C",
"(. c #FAFCB7",
"). c None",
/* pixels */
").).).).).).).).).).).).).).).).).).).).).).).).).).).).).).).).).).).).).).).).).).).).).).).).).).).).).).).).).).).).).).).).",
").).).).).).).).).).).).).).).).).).).).).).).).).).).).).).).).).).).).).).).).).).).).).).).).).).).).).).).).).).).).).).).).",
").).).).).).).).).).).).).).).).).).).).).).).).).).).).).).).).).).).).).).).).).).).).).).).).).).).).).).).).).).).).).).).).",
").).).).).).).).).).).).).).).).).).).).).).).).).).).).).).).).).).).).).).).).).).).).).).).).).).).).).).).).).).).).).).).).",
").).).).).).).).).).).).).).).).).).).).).).).).).).).                      ).).).).).).).).).).).).).).).).).).).).).).).).).).",
").).).).).).).).).).).).).).).).).).).).).).).                                      ).).).).).).).).).).).).).).).).).).).).).).",
").).).).).).).).).).).).).).).).).).).).).                                    X & &     ).).).).).).).).).).).).).).).).).).).).",
").).).).).).).).).).).).).).).).).).).                                            + ; X     ).).).).).).).).).).).).).).).).).).",
").).).).).).).).).).).).).).).).).                    O O o X .                     X ; o       ).).).).).).).).).).).).).).).).",
").).).).).).).).).).).).).).).).              o o o o o o + + $ + + X X                 + +       ).).).).).).).).).).).).).).).",
").).).).).).).).).).).).).).).      O @ $ $ o X X o o O O % % - : $ o X                   o O       ).).).).).).).).).).).).).).",
").).).).).).).).).).).).).    X = < , ; $ X   X $ t y m b N i 5 > 8 r 2 O                   o           ).).).).).).).).).).).).",
").).).).).).).).).).).).  ; r q ; o   X u [ j q 6 7 7 7 0 s S 6.x.c._ 6 i a , X               X           ).).).).).).).).).).).",
").).).).).).).).).).).  6 > $     4 2.j > > 5 z ] ..,.#.,.>./ P S L N.U.5.i j z 3   X                       ).).).).).).).).).).",
").).).).).).).).).).).  $     O D m ; ; _ ..| ~ *.b.F.D.P.P.D.A.n.=./ o.F.I.3.Z G n + +                     ).).).).).).).).).).",
").).).).).).).).).).  X     $ a 5 n F j :.G.R.R.v.7.r.y.w.w.9.l.S.P.m.<.*.i.F.s.! J Z y $                     ).).).).).).).).).",
").).).).).).).).).        & 0 s d S T.^.Y.v.<.1.o.<.m.I.I.I.W.R.I.P.m.F.s.*.<.D.u./ ! I k +                     ).).).).).).).).",
").).).).).).).).  o     o 8 p 8 N.R.B.#.C ,.*.P.R.T.N.i.8.i.M.m.n.v.S.R.I.A.w.<.A.<.^ Q ! s     X     o           ).).).).).).).",
").).).).).).).).        1 w k A.M.q.B } ~ C.I.i.T ~ ^ %./ %.^ P E y.y.d.l.U.W.f.w.f.%.~ / ! 3   o       $         ).).).).).).).",
").).).).).).).        + w i u.a.$.W ^ w.P.b.o.%.1.y.n.S.F.S.m.a.*.%.) I <.x.;.~.I.<.e.Q / / ^ &   &     1 o         ).).).).).).",
").).).).).).).      + 5 8 ,.*./ ^ ! V.D.+.U 1.D.~.~.T.h.h.h.B.K.W.W.f./ / Q s.K R.R.#.%.W / 1.B   & X   & 6         ).).).).).).",
").).).).).).        & 6 g / ~ / ^ 1.F.w.Q u.R.~.0.b.x.q.n.A.m.d.i.B.!.I./ ^ <.%.R /.m./ J &.<.$.+ + $   + i           ).).).).).",
").).).).).).      + , ; ` E ^ @.1.F.a.*.T.^.9.V.<.s.M.I.b.q.r.a.b.F.T.Z./.i.Y u.A o.^.S.I Q #.u.1 o 6   X i X         ).).).).).",
").).).).).      o & $ & ) I =.1.D.S.u.T.S.o.q.y.b.!.~.~./.!.!.W.I.F.a.m.P./.C.Y ( B a./.e.^ &.u.m $ 5 X X 6 +           ).).).).",
").).).).).      + & o F ^ &.=.1.D.a.F.J.=.j.s.I.^.^./.G.h.a.i.p.Z.W.Q.H.r.I.^.V.<.Q &.S.W.Q &.#.&.; & o o < :           ).).).).",
").).).).).    X + + k ^ %.=.<.P.S.M.R.*.x.a.P./.^.G.d.y.( C v C H ( i.E.W.i.R./.o.Q %.#.W.y.=.o.e.> & + $ : ,           ).).).).",
").).).).).    + o + c &.#.~ y.E.V.W.i.f.;.n.(./.v.m.( s > ; $ $ & > C *.W.E.t.!.E.! %.G P.K.=./ w.w > + & ; 9           ).).).).",
").).).).    X X + $ Q e.@.%.n.P.B.T.<.n.d.^./.v.A.~ q ; X           $ a y.W.F.T.!./ / Z d./.&.&.( v s + > , 1             ).).).",
").).).).    X   & 2 u.e.K 1.F.K.P.S.S.o./.(.~.S.<.h & X               & S P.I.i.Q.w.H J 3./.a.%.I F _ o , 6 ,             ).).).",
").).).).      X ; ' a.e.x a.P.Z.F.y.t.w.(./.v.m.Q , X                   w j.I.p.!.n.j Q o.W.F.&.F P W o , 8 >             ).).).",
").).).).      o ; &.u.1.w k.I.v.S.d.l T.(.K.C.a.Z ;                     > $.P.D./.m.c ^ o.R.P.&.B F / o 1 w & X           ).).).",
").).).).      + > =.y.=.6 u.I.d.F.F.P (.(.b.G.y.B $                     > / P.K.^.f.Q &.*.E.R.=.j Z >.X q p o X     o     ).).).",
").).).).      + y w.w.&.6 y.W.d.F.I.( ^.^.a.P.y.F &                     > / P.I.R.y./ 1.w.W.R.#.h B ^ X k q o       +     ).).).",
").).).).      $ D r.1.@.6 e.R.M.A.I.<.(.~.w.P.d.~ ,                     ; 1.F.W.M.~ / #.S.I.I.( V B F o C 6 & X   X o     ).).).",
").).).).      & #.a.=.( 8 1.F.S.b.L.w.(.^.1.P.S.1.h                   o j m.I.!.F.F m.! !.W.S.K J V s $ F & & o   o X     ).).).",
").).).).      & <.a.&./ i / a.R.O.W.w.(.~.n.D.I.d./ *               o , *.A.E.!.m.~ -.q.E.E.*.S F ^ 6 i a o $ +   &       ).).).",
").).).).      ; y.m.&./ C a <.^.@.Q.m.J.^.A.M.I.F.f.^ &           o 8 ..m.I.^.I.Y D./ E.P.E.f.Z h { i | $ : + + o +       ).).).",
").).).).      ; r.n.%./ A > %.W.A.J.F.*.^.I.A.I.!.P.m.<.d , & ; q F w.m.P./.E.d.<.Y R.W.E.S.X.Z g A w P < & $ X $         ).).).",
").).).).).    & y.n./ &.c i  .A.W.E E.a.F./.P.M.T.W.I.A.n.w.=.1.u.d.M.W.Q.E.D.*.w.P.Q.F.^.y.C F %.Z ..; , + $ o +       ).).).).",
").).).).).    & <.n./ %.h B 8 n.I.R.I.D.=.P.F.I.S.I.W.W.W.I.D.P.T.W.W.Q.E.K.<.d.G.Q.F.^.V.T ~ H ^ B Q t + & + &         ).).).).",
").).).).).    $ Q a.Q F j ! 6 w.M.!.g.Q.f.1.I.M.I.D.W.W./.W.!.!.Q.Q.^./.q.f.a.P.I.M./.~.V.! j =.B 5.e $ > ; & o         ).).).).",
").).).).).    + i y.G x J I 8 s A.M.!.R.P.s.s.m.a.D.F.Z.L./.^././.^.S.x.A.m.P.P.n.W.R.4.Q h e.P u.k > > 5 & $           ).).).).",
").).).).).).    ; ) j h W Z B > y.A.Z.Q.^.P.1.n.y.y.d.D.n.m.A.m.S.S.I.I.S.I.m.P./.R.n.P g y./ a.C > 8 r ; ; X         ).).).).).",
").).).).).).    & F B 0 h Z Q > M a.m.I.Q.Q.n.w.m.y.m.n.n.D.M.M.M.m.M.D.A.S.P.~./.a.~ S u.*.f.@.6 w i , ; $           ).).).).).",
").).).).).).).  $ : h w 7 Z W 6 & s.Q n.S.E./.D.w.a.n.p.p.K.P.F.Z.Z.F.A.A.I./.G.V.D w.a.y.A.@.8 j i 6 > $ X         ).).).).).).",
").).).).).).).  + & i 8 ; 9 Z I > & w.a m.P.F./.(.R.b.m.P.p.M.D.D.P.!./.(.E.S.w.=.w.m.I.n.C h C 6 8 5 & X           ).).).).).).",
").).).).).).).).  & ; ; & & i ! s ; [ H q L d.U.F.Q./././././.^././.~.v.C.n.;.n.I.P.a.~ j B i > 8 6 &             ).).).).).).).",
").).).).).).).).  o & & $ $ ; i ) > ; | z 6 j Z *.M.I.U.G.M.v.p.z.S.D.i.y.d.n.w.&.J h c d ; > w > o               ).).).).).).).",
").).).).).).).).).  $ o o + $ & r / ; & d j 6 B s a C ( 2.#.#.3.2.2.~ Y Q ^ J h i p r ; & , , +                 ).).).).).).).).",
").).).).).).).).).).  +     o + $ 6 I ; & ; 8 6 h j B G ! Q H H F F Z j r j V B 0 > : 9 6 +                   ).).).).).).).).).",
").).).).).).).).).).).  X       o $ : J 8 ; $ $ $ > j c w j J W W I J F Z Z B c h 8 & + .                   ).).).).).).).).).).",
").).).).).).).).).).).  X         X o + j d , & $ o o & w c h s s i d w i w 8 > ; $ + + o                   ).).).).).).).).).).",
").).).).).).).).).).).).          X X X X : f 0 5 & $ o + $ ; 6 w p 0 6 5 > ; ; & + X     X               ).).).).).).).).).).).",
").).).).).).).).).).).).).          X X X   o q 6 > ; $     X o o + $ $ & + o o X   X o o               ).).).).).).).).).).).).",
").).).).).).).).).).).).).).).        X         $ > > & $ + X               X o o X #               ).).).).).).).).).).).).).).",
").).).).).).).).).).).).).).).).                X o + & & $ $ + + o X X X X                       ).).).).).).).).).).).).).).).",
").).).).).).).).).).).).).).).).).                  X   X o o o o + o o + o o o o X X           ).).).).).).).).).).).).).).).).",
").).).).).).).).).).).).).).).).).).).                                                      ).).).).).).).).).).).).).).).).).).",
").).).).).).).).).).).).).).).).).).).).).                                              ).).).).).).).).).).).).).).).).).).).).",
").).).).).).).).).).).).).).).).).).).).).).).                                      ).).).).).).).).).).).).).).).).).).).).).).",
").).).).).).).).).).).).).).).).).).).).).).).).).).).                      ).).).).).).).).).).).).).).).).).).).).).).).).).).",
").).).).).).).).).).).).).).).).).).).).).).).).).).).).).).).).).).).).).).).).).).).).).).).).).).).).).).).).).).).).).).).).",
").).).).).).).).).).).).).).).).).).).).).).).).).).).).).).).).).).).).).).).).).).).).).).).).).).).).).).).).).).).).).).).).",
").).).).).).).).).).).).).).).).).).).).).).).).).).).).).).).).).).).).).).).).).).).).).).).).).).).).).).).).).).).).).).).)."
};
