/* XPM */
static char *result[] = {
/* columns rows colors chars-per-pixel */
"64 64 168 2 ",
"   c #040204",
".  c #0B0C0B",
"X  c #180204",
"o  c #190B0A",
"O  c #280204",
"+  c #290B0A",
"@  c #380305",
"#  c #380B09",
"$  c #480305",
"%  c #480B09",
"&  c #580305",
"*  c #590B09",
"=  c #48130D",
"-  c #59140D",
";  c #481B13",
":  c #591B14",
">  c #680305",
",  c #690C07",
"<  c #770404",
"1  c #790B06",
"2  c #68140C",
"3  c #79130A",
"4  c #781C0F",
"5  c #681C13",
"6  c #6B2318",
"7  c #782B19",
"8  c #840604",
"9  c #870C05",
"0  c #8D1406",
"q  c #891C0D",
"w  c #9C1605",
"e  c #9D1C06",
"r  c #941B08",
"t  c #94230D",
"y  c #892411",
"u  c #882C16",
"i  c #942B12",
"p  c #8E3316",
"a  c #8F3C16",
"s  c #9F351F",
"d  c #A12408",
"f  c #AD2509",
"g  c #A12C0C",
"h  c #AE2C08",
"j  c #A2330D",
"k  c #A13B0C",
"l  c #B1340A",
"z  c #BC3508",
"x  c #B23C0E",
"c  c #BC3C09",
"v  c #8C3425",
"b  c #A03C21",
"n  c #C43D08",
"m  c #BA430D",
"M  c #BB560E",
"N  c #AA4410",
"B  c #BA4B10",
"V  c #BC5F15",
"C  c #B05E18",
"Z  c #894429",
"A  c #994229",
"S  c #A64426",
"D  c #B64525",
"F  c #B94C28",
"G  c #B77339",
"H  c #C64409",
"J  c #C94C0B",
"K  c #D44D08",
"L  c #CB530F",
"P  c #CA5C0D",
"I  c #D4540B",
"U  c #DC5509",
"Y  c #D45B0D",
"T  c #DD5C0B",
"R  c #CA640F",
"E  c #DA640E",
"W  c #DA6B10",
"Q  c #CC7C11",
"!  c #D87415",
"~  c #D97C16",
"^  c #E5650C",
"/  c #E76C0C",
"(  c #F46E08",
")  c #EA740E",
"_  c #EA7C0E",
"`  c #F4750B",
"'  c #F47C0E",
"]  c #CD5527",
"[  c #CD5C28",
"{  c #DC5C20",
"}  c #DA6429",
"|  c #D76C2A",
" . c #D9762E",
".. c #C77331",
"X. c #E76C26",
"o. c #E87427",
"O. c #F57C29",
"+. c #DA851B",
"@. c #EA840F",
"#. c #F5840F",
"$. c #EA8B11",
"%. c #F58C12",
"&. c #EA941E",
"*. c #F6941C",
"=. c #DB8C21",
"-. c #DB9420",
";. c #DA9C21",
":. c #DC9C2E",
">. c #E98420",
",. c #E98C21",
"<. c #F58420",
"1. c #F68C20",
"2. c #E89C24",
"3. c #F79C23",
"4. c #EB8D38",
"5. c #E89C37",
"6. c #EA943B",
"7. c #F89438",
"8. c #F89C39",
"9. c #E2A42F",
"0. c #F5A428",
"q. c #F3AB2B",
"w. c #E2AC34",
"e. c #F6A439",
"r. c #F5AC38",
"t. c #E1B43C",
"y. c #F1B439",
"u. c #FCB43B",
"i. c #F5BC3F",
"p. c #E1BC41",
"a. c #F4B54E",
"s. c #F7BC4F",
"d. c #F8AD50",
"f. c #E1BC50",
"g. c #E4CC4F",
"h. c #F2C448",
"j. c #FCC549",
"k. c #F6CC4F",
"l. c #F5CD5F",
"z. c #EBD459",
"x. c #F8D458",
"c. c #F8DC5F",
"v. c #E2CB61",
"b. c #F1C461",
"n. c #ECDB61",
"m. c #F7DD6E",
"M. c #EAD970",
"N. c #F9D572",
"B. c #F3E46B",
"V. c #FCE469",
"C. c #F3EB70",
"Z. c #FCEC71",
"A. c #F4F379",
"S. c #FCF37A",
"D. c #FAFA7C",
"F. c #F2E581",
"G. c #FCE684",
"H. c #F9ED80",
"J. c #FAF58A",
"K. c #FAFB8F",
"L. c #FAF5A2",
"P. c #FAFBA4",
"I. c #FBF6BD",
"U. c #FAFBBC",
"Y. c #FBF6D4",
"T. c #FBFBD5",
"R. c #FCFBE9",
"E. c None",
/* pixels */
"E.E.E.E.E.E.E.E.E.E.E.E.E.E.E.E.E.E.E.E.E.E.E.E.E.E.E.E.E.E.E.E.E.E.E.E.E.E.E.E.E.E.E.E.E.E.E.E.E.E.E.E.E.E.E.E.E.E.E.E.E.E.E.E.",
"E.E.E.E.E.E.E.E.E.E.E.E.E.E.E.E.E.E.E.E.E.E.E.E.E.E.E.E.E.E.E.E.E.E.E.E.E.E.E.E.E.E.E.E.E.E.E.E.E.E.E.E.E.E.E.E.E.E.E.E.E.E.E.E.",
"E.E.E.E.E.E.E.E.E.E.E.E.E.E.E.E.E.E.E.E.E.E.E.E.E.E.E.E.E.E.E.E.E.E.E.E.E.E.E.E.E.E.E.E.E.E.E.E.E.E.E.E.E.E.E.E.E.E.E.E.E.E.E.E.",
"E.E.E.E.E.E.E.E.E.E.E.E.E.E.E.E.E.E.E.E.E.E.E.E.E.E.E.E.E.E.E.E.E.E.E.E.E.E.E.E.E.E.E.E.E.E.E.E.E.E.E.E.E.E.E.E.E.E.E.E.E.E.E.E.",
"E.E.E.E.E.E.E.E.E.E.E.E.E.E.E.E.E.E.E.E.E.E.E.E.E.E.E.                      E.E.E.E.E.E.E.E.E.E.E.E.E.E.E.E.E.E.E.E.E.E.E.E.E.E.",
"E.E.E.E.E.E.E.E.E.E.E.E.E.E.E.E.E.E.E.E.E.E.E.                                      E.E.E.E.E.E.E.E.E.E.E.E.E.E.E.E.E.E.E.E.E.E.",
"E.E.E.E.E.E.E.E.E.E.E.E.E.E.E.E.E.E.E.E.E.                                              E.E.E.E.E.E.E.E.E.E.E.E.E.E.E.E.E.E.E.E.",
"E.E.E.E.E.E.E.E.E.E.E.E.E.E.E.E.E.E.E.                                                      E.E.E.E.E.E.E.E.E.E.E.E.E.E.E.E.E.E.",
"E.E.E.E.E.E.E.E.E.E.E.E.E.E.E.E.E.                                                              E.E.E.E.E.E.E.E.E.E.E.E.E.E.E.E.",
"E.E.E.E.E.E.E.E.E.E.E.E.E.E.E.E.                                                                  E.E.E.E.E.E.E.E.E.E.E.E.E.E.E.",
"E.E.E.E.E.E.E.E.E.E.E.E.E.E.E.                                                                      E.E.E.E.E.E.E.E.E.E.E.E.E.E.",
"E.E.E.E.E.E.E.E.E.E.E.E.E.                      # # @ @ $ $ $ * = +                                     E.E.E.E.E.E.E.E.E.E.E.E.",
"E.E.E.E.E.E.E.E.E.E.E.E.                  # & O X     X O $ $ O X X O 5 @                                 E.E.E.E.E.E.E.E.E.E.E.",
"E.E.E.E.E.E.E.E.E.E.E.                o C x [  .F A u 2 4 5 - & & * +   X 6       O                         E.E.E.E.E.E.E.E.E.E.",
"E.E.E.E.E.E.E.E.E.E.E.              a r 9 w h l c H J J J J J x t > r e = X @ ; X O # .                     E.E.E.E.E.E.E.E.E.E.",
"E.E.E.E.E.E.E.E.E.E.              Z > > f h c H J J J K H n H J J I ] t q b $ & 7 @ $ > X                     E.E.E.E.E.E.E.E.E.",
"E.E.E.E.E.E.E.E.E.              y > @ q n c c n J J K H h h 0 c z z T / } 0 [ $ q v & $ 3 O                     E.E.E.E.E.E.E.E.",
"E.E.E.E.E.E.E.E.              a $ @ $ c l H I T ^ / Y L e f < z 9 > > > K ) D } % H 4 & < 2 #                     E.E.E.E.E.E.E.",
"E.E.E.E.E.E.E.E.            ; & O $ B z Y K d l / #.#./ 8 H < 0 0 @ $ X @ < _ } E & ^ 2 f d O @                   E.E.E.E.E.E.E.",
"E.E.E.E.E.E.E.              1   & J c I 9 e t 0 0 J 0.&.] H d > 9 @ @ &   X > @.E 6.3 8.& l D $ O                   E.E.E.E.E.E.",
"E.E.E.E.E.E.E.        X   v O @ k h L m m } ) o.X.> $.y.0.e I < > $ $ & X     < *.E G m R e J & 1                   E.E.E.E.E.E.",
"E.E.E.E.E.E.        X     r X , ] { ` ^ ` ' Y ) #.} x i.i.e I r > $ $ $ *     @ | *.:.1 u.< l k 1 X                   E.E.E.E.E.",
"E.E.E.E.E.E.        X   = > X d g ) I c l U #.0 9 E 2.y.x.e.e J 1 & @ & > $     > q.,.f.=.[ O.` & &                   E.E.E.E.E.",
"E.E.E.E.E.        X X   S O : { 7.H l > $ $ g 0.0 d N j.V.x.d ^ x > $ @ & r     X ..i.5.J u.l E 9 t                     E.E.E.E.",
"E.E.E.E.E.        $ X   ] o s g B I $ X X O @ 9 r.e h M Z.S.E c / 1 8 $ > & r     q h.2.L C.c R m d .                   E.E.E.E.",
"E.E.E.E.E.  X     > X X ] X l 4.J > O X   X O > e i.m c p.S.x.U / n w 1 $ & w 0   & k.x.a.A.J &.>.r @                   E.E.E.E.",
"E.E.E.E.E.  X     < O X m + P q.^ & X     X   O < c W T E D.J./ ^ _ g 9 $ & > e $ @ k.C.H.m.=.r.3.0 1                   E.E.E.E.",
"E.E.E.E.    X     9 X @ k * o.&.I $       O O   & w &.E ' t.L.j.#.*.c e < $ & e > @ i.C.J.M.h.d.q.w t                     E.E.E.",
"E.E.E.E.    O   X w @ @ M 4 O.&.c $         & O O d g 3.' _ P.K.i.2.1.J 9 < @ d q & l.J.L.z.n.d.u.e p                     E.E.E.",
"E.E.E.E.    +   X l & @ ,.0 _ 0.c $         O w   z h / *.%.J.P.H.j.i.U w 0 & > c < V.K.U.B.n.i.u.h g X                   E.E.E.",
"E.E.E.E.    @   X J 3 @ u.0 ~ y.E $           0 - q m l u.3.z.P.A.Z.k.) I l 0 & K l D.J.U.L.h.j.i.l t O                   E.E.E.",
"E.E.E.E.    %     ^ g $ s.w &.k.7.<           $ z > T n $.y.h.P.P.J.H.h.` K h & z &.L.L.L.U.-.9.y.H 3 @ X                 E.E.E.",
"E.E.E.E.    %   X X.J > 8.x 3.c.0.d           O l < X.J E k.x.P.U.K.J.S.%.( H < g m.U.I.J.T._ ;.*.E < @ O                 E.E.E.",
"E.E.E.E.    O X # S / d x j.$.k.h.M @           l g #.c / V.c.L.Y.P.P.K.i.&.) d >.U.I.Y.P.U.q.j.) _ > O O X               E.E.E.",
"E.E.E.E.      @ # $ #.o.f c.&.i.V.j.x           h n *.c / Z.V.D.U.U.K.L.S.i.%.T H.T.R.T.T.F.i.c.Y ) > @ O X               E.E.E.",
"E.E.E.E.      y   & 3.3.r ;.x.h.B.B.2.9       X g c @.L / S.A.K.U.U.P.P.L.C.i.S.U.Y.R.T.T.9.t.i.E l & @ O O X             E.E.E.",
"E.E.E.E.      #   , j 2.>.T S.V.S.K.S.&.3 X   X d l P ! ^ Z.J.L.U.U.U.P.Y.P.P.U.T.R.R.R.K.h.g.+.%.0 $ @ @ O X             E.E.E.",
"E.E.E.E.        4 X > ,.u.J $.H.J.J.K.J.i.~ & O g l i @.@.S.L.U.U.T.Y.U.T.T.T.T.R.R.R.T.j.k.j.$./ 0 & $ @ O               E.E.E.",
"E.E.E.E.E.      3 O 3 0 i.i.) b.l.L.P.P.J.J.h. .H d l 3.q.K.U.U.T.R.T.T.R.R.T.R.R.R.T.v.w.m.&.3.e & & & O               E.E.E.E.",
"E.E.E.E.E.    X   s O 1 V j.j.*.B.M.L.Y.U.U.I.U.J.Z.x.c.S.U.T.T.R.R.T.R.R.R.R.R.R.R.b.e.k.q.0.Y &                       E.E.E.E.",
"E.E.E.E.E.        # & $ < r.z.h.i.V.G.A.Y.R.Y.T.T.T.T.T.T.T.R.R.R.R.R.R.R.R.R.R.R.L.k.h.x.y.W 0                         E.E.E.E.",
"E.E.E.E.E.  O   O   L , 1 9 x.c.x.c.F.U.K.U.Y.R.R.R.Y.Y.R.R.R.R.R.R.R.R.R.Y.T.U.L.P.A.C.y._ 9 X                         E.E.E.E.",
"E.E.E.E.E.E.  O X $   ] < s 0 x.Z.Z.B.S.P.T.P.U.Y.R.R.R.R.R.R.R.R.R.Y.R.U.P.P.P.A.g.z.E E h @                         E.E.E.E.E.",
"E.E.E.E.E.E.  O O @ X X X.< H x Z.A.H.C.J.P.T.R.T.T.R.R.R.R.R.R.R.R.T.R.Y.L.P.P.A.c.2.I H w X                         E.E.E.E.E.",
"E.E.E.E.E.E.E.  O & & O @ ( 9 H m N.S.S.B.F.P.U.Y.R.R.R.R.R.Y.R.R.Y.P.P.U.P.C.P.k.x.+.c e < X                       E.E.E.E.E.E.",
"E.E.E.E.E.E.E.  O X & < @ @ >.m h ^ +.Z.S.D.C.B.J.P.P.P.U.U.I.M.x.P.J.U.P.H.c.A.i.*.@.h < @ X                       E.E.E.E.E.E.",
"E.E.E.E.E.E.E.E.  @   O s & & ! / f ( _ p.A.J.P.L.K.K.g.;.D.y.k.B.K.P.U.J.H.k.S.@.) _ e & X   O                   E.E.E.E.E.E.E.",
"E.E.E.E.E.E.E.E.  X & & > l k $ 7 &.) J 0.x.L.J.P.A.9.q.S.D.S.k.H.J.U.y.S.i.i.Z.) ) ) 0 &     X                   E.E.E.E.E.E.E.",
"E.E.E.E.E.E.E.E.E.  @ $ &   > H o.B _ 0.<.W _ %.@._ &.i.m.2.@.c.J.T.J.y.j.2.@.V._ ` ` h $                       E.E.E.E.E.E.E.E.",
"E.E.E.E.E.E.E.E.E.E.  q O @   & 8 0 r t Q y.q.#.^ ( H ) q.y.Z.I.Y.L.h.q.$.3.` 0.%.%.E h X                     E.E.E.E.E.E.E.E.E.",
"E.E.E.E.E.E.E.E.E.E.E.  9 q 1 X O 9 0 & $ & 3 7.k.V.z.h.B.J.P.C.h.2._ Y J ) T L %.%.Y 1                     E.E.E.E.E.E.E.E.E.E.",
"E.E.E.E.E.E.E.E.E.E.E.  $ $ & 8 t , 0 f l t , & > 9 M =.:.;.&.W ) c d 9 4 z e T Y ) 0 X                     E.E.E.E.E.E.E.E.E.E.",
"E.E.E.E.E.E.E.E.E.E.E.E.  X X     $ > O < f J / #.%.%.' J H r J c 8 & O @ r e d 0 z &                     E.E.E.E.E.E.E.E.E.E.E.",
"E.E.E.E.E.E.E.E.E.E.E.E.E.          O * 1 8 l T ) / h 0 < h l J 8 & @ @ 1 f 8 & > , @                   E.E.E.E.E.E.E.E.E.E.E.E.",
"E.E.E.E.E.E.E.E.E.E.E.E.E.E.E.            X X O $ > h e e I K $ @ O O O O & O   @ O                 E.E.E.E.E.E.E.E.E.E.E.E.E.E.",
"E.E.E.E.E.E.E.E.E.E.E.E.E.E.E.E.                X O d h 9 @             X X                       E.E.E.E.E.E.E.E.E.E.E.E.E.E.E.",
"E.E.E.E.E.E.E.E.E.E.E.E.E.E.E.E.E.                X 9 & X                                       E.E.E.E.E.E.E.E.E.E.E.E.E.E.E.E.",
"E.E.E.E.E.E.E.E.E.E.E.E.E.E.E.E.E.E.E.              $ X                                     E.E.E.E.E.E.E.E.E.E.E.E.E.E.E.E.E.E.",
"E.E.E.E.E.E.E.E.E.E.E.E.E.E.E.E.E.E.E.E.E.                                              E.E.E.E.E.E.E.E.E.E.E.E.E.E.E.E.E.E.E.E.",
"E.E.E.E.E.E.E.E.E.E.E.E.E.E.E.E.E.E.E.E.E.E.E.                                      E.E.E.E.E.E.E.E.E.E.E.E.E.E.E.E.E.E.E.E.E.E.",
"E.E.E.E.E.E.E.E.E.E.E.E.E.E.E.E.E.E.E.E.E.E.E.E.E.E.E.                      E.E.E.E.E.E.E.E.E.E.E.E.E.E.E.E.E.E.E.E.E.E.E.E.E.E.",
"E.E.E.E.E.E.E.E.E.E.E.E.E.E.E.E.E.E.E.E.E.E.E.E.E.E.E.E.E.E.E.E.E.E.E.E.E.E.E.E.E.E.E.E.E.E.E.E.E.E.E.E.E.E.E.E.E.E.E.E.E.E.E.E.",
"E.E.E.E.E.E.E.E.E.E.E.E.E.E.E.E.E.E.E.E.E.E.E.E.E.E.E.E.E.E.E.E.E.E.E.E.E.E.E.E.E.E.E.E.E.E.E.E.E.E.E.E.E.E.E.E.E.E.E.E.E.E.E.E.",
"E.E.E.E.E.E.E.E.E.E.E.E.E.E.E.E.E.E.E.E.E.E.E.E.E.E.E.E.E.E.E.E.E.E.E.E.E.E.E.E.E.E.E.E.E.E.E.E.E.E.E.E.E.E.E.E.E.E.E.E.E.E.E.E."
};
