/* XPM */
static char *result[] = {
/* columns rows colors chars-per-pixel */
"64 64 177 2 ",
"   c #040204",
".  c #0A0C0A",
"X  c #180204",
"o  c #280205",
"O  c #270B0A",
"+  c #380305",
"@  c #370B0A",
"#  c #2A1210",
"$  c #391310",
"%  c #480205",
"&  c #490C0A",
"*  c #580305",
"=  c #590B08",
"-  c #680305",
";  c #770404",
":  c #790B06",
">  c #79150A",
",  c #7A200F",
"<  c #692018",
"1  c #703118",
"2  c #850504",
"3  c #880D04",
"4  c #891406",
"5  c #8A1C0B",
"6  c #941505",
"7  c #9C1505",
"8  c #941B06",
"9  c #9E1D06",
"0  c #94230C",
"q  c #942B0F",
"w  c #892410",
"e  c #883317",
"r  c #A12407",
"t  c #AC2507",
"y  c #AE2C07",
"u  c #A22C0B",
"i  c #BC2C0C",
"p  c #A2330B",
"a  c #BC3507",
"s  c #B13409",
"d  c #B33C0A",
"f  c #BC3C09",
"g  c #A2341D",
"h  c #A23C1E",
"j  c #B13C1D",
"k  c #C43D08",
"l  c #C43E24",
"z  c #B2430B",
"x  c #B34B08",
"c  c #B3431E",
"v  c #AF5510",
"b  c #C14409",
"n  c #CC4509",
"m  c #C34B09",
"M  c #CD4C09",
"N  c #DC4E0C",
"B  c #C2540B",
"V  c #C25C0C",
"C  c #D1540A",
"Z  c #DC550A",
"A  c #D25B0A",
"S  c #DD5C0B",
"D  c #C0451E",
"F  c #C14C1F",
"G  c #C1541F",
"H  c #D1541E",
"J  c #DD5B1E",
"K  c #D2630B",
"L  c #D36C0C",
"P  c #D2730C",
"I  c #C46511",
"U  c #C47B16",
"Y  c #D07C15",
"T  c #D2741F",
"R  c #E0640D",
"E  c #EC650B",
"W  c #E16C0D",
"Q  c #ED6D0E",
"!  c #E1740A",
"~  c #E27C0C",
"^  c #ED6D1F",
"/  c #EE7410",
"(  c #EF7C10",
")  c #FC7D12",
"_  c #C35B20",
"`  c #D15C20",
"'  c #DE6426",
"]  c #D06429",
"[  c #DE752D",
"{  c #D37334",
"}  c #D17D34",
"|  c #E06C27",
" . c #E27420",
".. c #ED7427",
"X. c #E07C20",
"o. c #F07C28",
"O. c #E07D31",
"+. c #CC841B",
"@. c #CA8C1E",
"#. c #DA8314",
"$. c #D98B17",
"%. c #E9840E",
"&. c #EA8C16",
"*. c #E9841F",
"=. c #F48410",
"-. c #F5841F",
";. c #F58C18",
":. c #EA9418",
">. c #F59419",
",. c #DA8429",
"<. c #D29427",
"1. c #DC9420",
"2. c #F78C2F",
"3. c #EA9427",
"4. c #EA9C21",
"5. c #F69426",
"6. c #F69C23",
"7. c #E88434",
"8. c #E98C32",
"9. c #F68532",
"0. c #EA9435",
"q. c #E99C39",
"w. c #F59438",
"e. c #F79C38",
"r. c #E4A42B",
"t. c #F1A429",
"y. c #FCA42B",
"u. c #F2AC2F",
"i. c #E2AC30",
"p. c #FCAC31",
"a. c #F2A43D",
"s. c #F6AD3F",
"d. c #ECB437",
"f. c #E3B438",
"g. c #E9BB3B",
"h. c #F6B436",
"j. c #F6BC3B",
"k. c #FCA540",
"l. c #EAB446",
"z. c #EABD45",
"x. c #F9B547",
"c. c #F8BD47",
"v. c #E4C348",
"b. c #ECC448",
"n. c #F8C446",
"m. c #F7CB4B",
"M. c #E4CC53",
"N. c #ECCC51",
"B. c #F9C456",
"V. c #F7CD56",
"C. c #EBD359",
"Z. c #ECDA5B",
"A. c #F8D457",
"S. c #F8DC5F",
"D. c #EAD565",
"F. c #EBDC67",
"G. c #F8DD6E",
"H. c #F3E46B",
"J. c #FCE469",
"K. c #ECED7F",
"L. c #F4EC72",
"P. c #FCEC71",
"I. c #F6E57E",
"U. c #F4F37E",
"Y. c #FCF47F",
"T. c #EAE480",
"R. c #F8ED80",
"E. c #FAFA83",
"W. c #F4F592",
"Q. c #FCF692",
"!. c #FAFA96",
"~. c #F4F6AC",
"^. c #FCF6AF",
"/. c #FAFBAF",
"(. c #FBF6CD",
"). c #FAFBCB",
"_. c None",
/* pixels */
"_._._._._._._._._._._._._._._._._._._._._._._._._._._._._._._._._._._._._._._._._._._._._._._._._._._._._._._._._._._._._._._._.",
"_._._._._._._._._._._._._._._._._._._._._._._._._._._._._._._._._._._._._._._._._._._._._._._._._._._._._._._._._._._._._._._._.",
"_._._._._._._._._._._._._._._._._._._._._._._._._._._._._._._._._._._._._._._._._._._._._._._._._._._._._._._._._._._._._._._._.",
"_._._._._._._._._._._._._._._._._._._._._._._._._._._._._._._._._._._._._._._._._._._._._._._._._._._._._._._._._._._._._._._._.",
"_._._._._._._._._._._._._._._._._._._._._._._._._._._.                      _._._._._._._._._._._._._._._._._._._._._._._._._._.",
"_._._._._._._._._._._._._._._._._._._._._._._.        - % o % p G ` M l g 5         _._._._._._._._._._._._._._._._._._._._._._.",
"_._._._._._._._._._._._._._._._._._._._._.    + - + X & h ../ S k y 9 7 t t y r 5 &     _._._._._._._._._._._._._._._._._._._._.",
"_._._._._._._._._._._._._._._._._._._.      % o % h C ( S 4 * - : 4 ; * + + % % - - - *     _._._._._._._._._._._._._._._._._._.",
"_._._._._._._._._._._._._._._._._.      o X @ f b Q A 6 0 c s : * o X                 X + %     _._._._._._._._._._._._._._._._.",
"_._._._._._._._._._._._._._._._.        % w 9 d S a f b - o                                 X X   _._._._._._._._._._._._._._._.",
"_._._._._._._._._._._._._._._.      o - 7 2 H Z a s - o     X O $ # o                               _._._._._._._._._._._._._._.",
"_._._._._._._._._._._._._.        @ ; 4 t | S b y - + + < _ [ *.*.9.7.2.{ 1                             _._._._._._._._._._._._.",
"_._._._._._._._._._._._.      X = : r N W n C s ; : 4 M =.6.;.W K m B C R Q o.7.e X                       _._._._._._._._._._._.",
"_._._._._._._._._._._.      X - ; H M A b n b 3 s ] 6.x.:.>.e.s.c.B.c.s.-.R S Q Q o.] = o                   _._._._._._._._._._.",
"_._._._._._._._._._._.    o - : R n n C M E k ' 5.6.c.h.t.4.:.h.S.A.n.b.j.p.2.S y 9 7 J ' - o               _._._._._._._._._._.",
"_._._._._._._._._._.    X - 8 S M a A s ( / W ;.y.j.u.d.n.S.U.Q./././.^.!.W.P.m.h.2.c 3 4 / , o               _._._._._._._._._.",
"_._._._._._._._._.      * 9 M M b C 7 =.! ( ( j.A.A.Y.Y.U./.).).).~./.W.W.P.G.n.j.4.u.y.o.> =.5 o               _._._._._._._._.",
"_._._._._._._._.    X + u 9 M r Z s / ;.;.( S.J.E.U.R.~.).).).!.W.H.S.H.R.E.Y.L.J.S.4.d ( ;.' ' 4 o X             _._._._._._._.",
"_._._._._._._._.  . o u 2 f 3 f M C ( 6.u.J.J.E.!.!.).).)./.E.U.I.L.S.H.F.C.P.E.J.u.f.A.| b ;.) S *               _._._._._._._.",
"_._._._._._._.    o q u ; r 2 a b R y.j.b.H.E.^.).).).(.).).(.(.).).).).^.L.g.%.@.S.j.&.j.0.p >.=.C +               _._._._._._.",
"_._._._._._._.  o + b - 4 ; s a M / A.v.J.Q./.).).).(.(.W.W.~.!.W.!.!.~.).(.).!.n.P j.m.;.u.2.L :.;.b               _._._._._._.",
"_._._._._._.    + = r * 4 ; 9 f M ;.P.b.Q./.).(.(.(./.K.W.Q.!.!.~././././.~.(.)./.G.%.h.n.&.u.' >.y.R ,               _._._._._.",
"_._._._._._.    * h - : ; G t f m J.S.Q./.).(./.~./.!.!.~./.).).(.).).).)./.~./.(.).W.d.u.j.:.6.W 6.c.d %             _._._._._.",
"_._._._._.      * H - r - M d y q.Y.U.^.).).~.!././.!./.(.~.W.D.D.T.K.~./.).~.!.Q.^./.~.j.y.u.6.;.! j.p.r o             _._._._.",
"_._._._._.      * | 4 8 2 k f y R.U.~.)././.E././.!.(./.W.S.S.J.A.S.J.H.Z.W.~./.K.Q.W././.u.%.t.u./ %.j.I 4             _._._._.",
"_._._._._.      % ^ r 8 9 M s ~ Q.U.).~.W.!.E./.Q.^.~.H.n.4.L m z A *.h.A.A.C.!./.F.E.R./.W.u.R P >.R :.x.y X           _._._._.",
"_._._._._.      % ' t 7 y S f c.Q./.).M./.R.!.!././.C.t.K 8 * + o + - 0 1.n.A.f.U./.C.!.!./.h.u.S ~ ( s :.8.*           _._._._.",
"_._._._.      o * F s 6 s Q C R./.(.H.r./.U.!./.!.K.4.m 9 X           X 3 #.n.m.g.!.~.c.Y.W.!.:.K b ( d y &.:             _._._.",
"_._._._.      + - 5 b 9 a / #.Q./.~.g.4.E.R.Y./.E.f.R 3 -                 4 :.n.u.S.^.I.b.Y.Q.1.p.y R C ; s F o           _._._.",
"_._._._.      % : : Q 9 s / A.Q./.T.h.d.Y.E.L./.P.%.u ; +                 X m h.m.n.Z.).h.S.Y.I.>.u d t ; ; n +           _._._.",
"_._._._.      + r ; / k a ) H.!./.i.g.u.Y.W.H.Q.S.~ ; * X                   : :.n.h.m.^.l.u.U.U.R ` 3 9 ; * 4 *           _._._.",
"_._._._.        r 4 Z Q b ( A./.!.( h.u.E.R.D.!.V.W - * X                   * :.h.u.b.A.V.~ L.H.b ..; j o * * -           _._._.",
"_._._._.        6 i s ) b ! Z./.U.Q u.u.E.Y.C.Y.m.~ - % X                   * ;.u.u.g.j.S.W S.H.B X.- j X % % %           _._._.",
"_._._._.        - s 9 R b W Z.~.U.$.6.p.H.Y.D.J.j.&.w + o                   - ;.u.u.g.u.G.L b.P.[ W - y   + + o           _._._.",
"_._._._.        % u y t C E C./.E.A.! :.z.Y.R.J.d.4.C + %                 o 4 >.i.u.t.t.n.A v.S.O.C - 6 X + o X           _._._.",
"_._._._.          3 s 9 R C C.!.J.P.K %.&.N.U.v.h.y.( 0 % % X           o * | 6.j.4.u.h.t.C g.J.T f ; 3 X + X             _._._.",
"_._._._.          * t y 9 A A.E.D.A.h.>.( 4.Y.G.n.t.>.E 3 * - % o X o % - l &.6.n.y.h.S.&.M V.S.` r ; 2 X o               _._._.",
"_._._._.            7 t 9 C G.P.P.s.S.:.5.=.t.Y.G.j.:.>.W r ; ; 3 6 ; 3 C ;.4.n.j.~ j.S.>.E A.A.f > ; 2 X X               _._._.",
"_._._._._.          * 3 a y u.N.Y.! n.m.4.*.( r.U.A.n.~ %.( R C M M Z / ;.&.j.m.6.t.n.4.m / g.n.t % 4 -   X             _._._._.",
"_._._._._.            % 9 b K N.D.b.K n.p.r.K ! %.E.S.b.d.~ ;.6.t.4.&.! >.A.S.t.>.m.c.%.n t.g.h.7 o 3 o                 _._._._.",
"_._._._._.              % t M m.J.A.5.W j.u.6.V m W J.U.B.t.&.W K ! 4.m.N.Y.t.4.1.u.! u s n.&.A * X ;                   _._._._.",
"_._._._._.                * k ! d.C.4.6.W u.6.%.0.6 2.Y b.A.S.S.A.b.m.L.Z.:.h.@.u.%.M l 3.f.;.8 + + %                   _._._._.",
"_._._._._._.              X * f u.A.V.V w.~ >.u.( =.O.d c.J.Y.U.E.Y.V.*.>.G x.t.3.| 9 D i.m | *   *                   _._._._._.",
"_._._._._._.                + r  .j.S.d.u  .6.%.n.:.K 9.*.x x K L ~ ;.-.v x.u.y./ y 5 B.t.s 4 o X o                   _._._._._.",
"_._._._._._._.              X * 8 Y d.N.6.s p ;.>.u.n.n.e.W m b b T k.h.y.t.~ K 9 6 V.:.3 D %   %                   _._._._._._.",
"_._._._._._._.                X * 4 W u.C.h.C a S Q W ! %.;.;.&.*.! ! h.%.n a 9 9 B.t.> r +   X                     _._._._._._.",
"_._._._._._._._.                X % : X.a.g.r.2.t r a R / / ..2.e.s.I s y y 4 { <.e.* - +     X                   _._._._._._._.",
"_._._._._._._._.                    o 6 ! R 4.D.3.( s 7 7 3 : ; ; ; ; ; r W n.*.} * ; o     X                     _._._._._._._.",
"_._._._._._._._._.                      * 4 S L a.c.x.8.%.W A B A R X.s.a.Y ,.* * * X                           _._._._._._._._.",
"_._._._._._._._._._.                        + 2 C n K X.$.+.} Y U Y  .A K - * * o X                           _._._._._._._._._.",
"_._._._._._._._._._._.                    X o + o o % > g s j j 0 4 ; - * + X                               _._._._._._._._._._.",
"_._._._._._._._._._._.                          o % * * - - - : - * + X                                     _._._._._._._._._._.",
"_._._._._._._._._._._._.                                                                                  _._._._._._._._._._._.",
"_._._._._._._._._._._._._.                      X X                                                     _._._._._._._._._._._._.",
"_._._._._._._._._._._._._._._.                                                                      _._._._._._._._._._._._._._.",
"_._._._._._._._._._._._._._._._.                                                                  _._._._._._._._._._._._._._._.",
"_._._._._._._._._._._._._._._._._.                                                              _._._._._._._._._._._._._._._._.",
"_._._._._._._._._._._._._._._._._._._.                                                      _._._._._._._._._._._._._._._._._._.",
"_._._._._._._._._._._._._._._._._._._._._.                                              _._._._._._._._._._._._._._._._._._._._.",
"_._._._._._._._._._._._._._._._._._._._._._._.                                      _._._._._._._._._._._._._._._._._._._._._._.",
"_._._._._._._._._._._._._._._._._._._._._._._._._._._.                      _._._._._._._._._._._._._._._._._._._._._._._._._._.",
"_._._._._._._._._._._._._._._._._._._._._._._._._._._._._._._._._._._._._._._._._._._._._._._._._._._._._._._._._._._._._._._._.",
"_._._._._._._._._._._._._._._._._._._._._._._._._._._._._._._._._._._._._._._._._._._._._._._._._._._._._._._._._._._._._._._._.",
"_._._._._._._._._._._._._._._._._._._._._._._._._._._._._._._._._._._._._._._._._._._._._._._._._._._._._._._._._._._._._._._._."
};
