/* XPM */
static char *result[] = {
/* columns rows colors chars-per-pixel */
"64 64 4 1 ",
"  c black",
". c #470C05",
"X c #FA2912",
"o c None",
/* pixels */
"oooooooooooooooooooooooooooooooooooooooooooooooooooooooooooooooo",
"oooooooooooooooooooooooooooooooooooooooooooooooooooooooooooooooo",
"oooooooooooooooooooooooooooooooooooooooooooooooooooooooooooooooo",
"oooooooooooooooooooooooooooooooooooooooooooooooooooooooooooooooo",
"oooooooooooooooooooooooooooooooooooooooooooooooooooooooooooooooo",
"oooooooooooooooooooooooooooooooooooooooooooooooooooooooooooooooo",
"o                       oooooooooooooooo                       o",
"o                       oooooooooooooooo                       o",
"o  XX.................    oooooooooooo    XXXXXXXXXXXXXXXX.XX  o",
"o  XX.................    oooooooooooo    XXXXXXXXXXXXXXXX.XX  o",
"o  XX.XXXXXXXXXXXXXXXX                    XXXXXXXXXXXXXXXX.XX  o",
"o  XX.XXXXXXXXXXXXXXXX                    XXXXXXXXXXXXXXXX.XX  o",
"o  XX.XXXXXXXXXXXXXXXX    ............    .................XX  o",
"o  XX.XXXXXXXXXXXXXXXX    ............    .................XX  o",
"o  XX.XX..XX..X..XX..X    XXXXXXXXXXXX    .................XX  o",
"o  XX.XX..XX..X..XX..X    XXXXXXXXXXXX    .................XX  o",
"o  XX...XX..XX.XX..XX.    XXXXXXXXXXXX    XXXXXXXXXXXXXXXXXXX  o",
"o  XX...XX..XX.XX..XX.    XXXXXXXXXXXX    XXXXXXXXXXXXXXXXXXX  o",
"o  XX.XX..XX..X..XX..X    ..XX.XX..XX.    XXXXXXXXXXXXXXXXXXX  o",
"o  XX.XX..XX..X..XX..X    ..XX.XX..XX.    XXXXXXXXXXXXXXXXXXX  o",
"o  XX.................    XX..X..XX..X    XXXXXXXXXXXXXXXXXXX  o",
"o  XX.................    XX..X..XX..X    XXXXXXXXXXXXXXXXXXX  o",
"o  XX.................    ..XX.XX..XX.    XXXXXXXXXXXXXXXXXXX  o",
"o  XX.................    ..XX.XX..XX.    XXXXXXXXXXXXXXXXXXX  o",
"o  XX.................    ............    .................XX  o",
"o  XX.................    ............    .................XX  o",
"o  XX.................    ............    XXXXXXXXXXXXXXXX.XX  o",
"o  XX.................    ............    XXXXXXXXXXXXXXXX.XX  o",
"o  XX.................    ............    XXXXXXXXXXXXXXXX.XX  o",
"o  XX.................    ............    XXXXXXXXXXXXXXXX.XX  o",
"o  XX.................    ............    .................XX  o",
"o  XX.................    ............    .................XX  o",
"o  XX.................    ............    .................XX  o",
"o  XX.................    ............    .................XX  o",
"o  XX.XXXXXXXXXXXXXXXX    ............    .................XX  o",
"o  XX.XXXXXXXXXXXXXXXX    ............    .................XX  o",
"o  XX.XXXXXXXXXXXXXXXX    XXXXXXXXXXXX    .................XX  o",
"o  XX.XXXXXXXXXXXXXXXX    XXXXXXXXXXXX    .................XX  o",
"o  XX.................    XXXXXXXXXXXX    .................XX  o",
"o  XX.................    XXXXXXXXXXXX    .................XX  o",
"o  XXXXXXXXXXXXXXXXXXX    XXXXXXXXXXXX    .................XX  o",
"o  XXXXXXXXXXXXXXXXXXX    XXXXXXXXXXXX    .................XX  o",
"o  XXXXXXXXXXXXXXXXXXX    XXXXXXXXXXXX    .................XX  o",
"o  XXXXXXXXXXXXXXXXXXX    XXXXXXXXXXXX    .................XX  o",
"o  XXXXXXXXXXXXXXXXXXX    ............    X..XX..X..XX..XX.XX  o",
"o  XXXXXXXXXXXXXXXXXXX    ............    X..XX..X..XX..XX.XX  o",
"o  XXXXXXXXXXXXXXXXXXX    ............    .XX..XX.XX..XX...XX  o",
"o  XXXXXXXXXXXXXXXXXXX    ............    .XX..XX.XX..XX...XX  o",
"o  XX.................    XXXXXXXXXXXX    X..XX..X..XX..XX.XX  o",
"o  XX.................    XXXXXXXXXXXX    X..XX..X..XX..XX.XX  o",
"o  XX.................    XXXXXXXXXXXX    XXXXXXXXXXXXXXXX.XX  o",
"o  XX.................    XXXXXXXXXXXX    XXXXXXXXXXXXXXXX.XX  o",
"o  XX.XXXXXXXXXXXXXXXX                    XXXXXXXXXXXXXXXX.XX  o",
"o  XX.XXXXXXXXXXXXXXXX                    XXXXXXXXXXXXXXXX.XX  o",
"o  XX.XXXXXXXXXXXXXXXX    oooooooooooo    .................XX  o",
"o  XX.XXXXXXXXXXXXXXXX    oooooooooooo    .................XX  o",
"o                       oooooooooooooooo                       o",
"o                       oooooooooooooooo                       o",
"oooooooooooooooooooooooooooooooooooooooooooooooooooooooooooooooo",
"oooooooooooooooooooooooooooooooooooooooooooooooooooooooooooooooo",
"oooooooooooooooooooooooooooooooooooooooooooooooooooooooooooooooo",
"oooooooooooooooooooooooooooooooooooooooooooooooooooooooooooooooo",
"oooooooooooooooooooooooooooooooooooooooooooooooooooooooooooooooo",
"oooooooooooooooooooooooooooooooooooooooooooooooooooooooooooooooo"
};
