/* XPM */
static char *result[] = {
/* columns rows colors chars-per-pixel */
"64 64 4 1 ",
"  c black",
". c #470C05",
"X c #FA2912",
"o c None",
/* pixels */
"oooooooooooooooooooooooooooooooooooooooooooooooooooooooooooooooo",
"oooooooooooooooooooooooooooooooooooooooooooooooooooooooooooooooo",
"oooooooooooooooooooooooooooooooooooooooooooooooooooooooooooooooo",
"oooooooooooooooooooooooooooooooooooooooooooooooooooooooooooooooo",
"oooooooooooooooooooooooooooooooooooooooooooooooooooooooooooooooo",
"oooooooooooooooooooooooooooooooooooooooooooooooooooooooooooooooo",
"o                       oooooooooooooooooooooooooooooooooooooooo",
"o                       oooooooooooooooooooooooooooooooooooooooo",
"o  XX.................    oooooooooooooooooooooooooooooooooooooo",
"o  XX.................    oooooooooooooooooooooooooooooooooooooo",
"o  XX.XXXXXXXXXXXXXXXX                                          ",
"o  XX.XXXXXXXXXXXXXXXX                                          ",
"o  XX.XXXXXXXXXXXXXXXX    ......................................",
"o  XX.XXXXXXXXXXXXXXXX    ......................................",
"o  XX.XX..XX..X..XX..X    XXXXXXXXXXXXXXXXXXXXXXXXXXXXXXXXXXXXXX",
"o  XX.XX..XX..X..XX..X    XXXXXXXXXXXXXXXXXXXXXXXXXXXXXXXXXXXXXX",
"o  XX...XX..XX.XX..XX.    XXXXXXXXXXXXXXXXXXXXXXXXXXXXXXXXXXXXXX",
"o  XX...XX..XX.XX..XX.    XXXXXXXXXXXXXXXXXXXXXXXXXXXXXXXXXXXXXX",
"o  XX.XX..XX..X..XX..X    ..XX.XX..XX.XX..XX..X..XX.XX..XX.XX..X",
"o  XX.XX..XX..X..XX..X    ..XX.XX..XX.XX..XX..X..XX.XX..XX.XX..X",
"o  XX.................    XX..X..XX..X..XX..XX.XX..X..XX..X..XX.",
"o  XX.................    XX..X..XX..X..XX..XX.XX..X..XX..X..XX.",
"o  XX.................    ..XX.XX..XX.XX..XX..X..XX.XX..XX.XX..X",
"o  XX.................    ..XX.XX..XX.XX..XX..X..XX.XX..XX.XX..X",
"o  XX.................    ......................................",
"o  XX.................    ......................................",
"o  XX.................    ......................................",
"o  XX.................    ......................................",
"o  XX.................    ......................................",
"o  XX.................    ......................................",
"o  XX.................    ......................................",
"o  XX.................    ......................................",
"o  XX.................    ......................................",
"o  XX.................    ......................................",
"o  XX.XXXXXXXXXXXXXXXX    ......................................",
"o  XX.XXXXXXXXXXXXXXXX    ......................................",
"o  XX.XXXXXXXXXXXXXXXX    XXXXXXXXXXXXXXXXXXXXXXXXXXXXXXXXXXXXXX",
"o  XX.XXXXXXXXXXXXXXXX    XXXXXXXXXXXXXXXXXXXXXXXXXXXXXXXXXXXXXX",
"o  XX.................    XXXXXXXXXXXXXXXXXXXXXXXXXXXXXXXXXXXXXX",
"o  XX.................    XXXXXXXXXXXXXXXXXXXXXXXXXXXXXXXXXXXXXX",
"o  XXXXXXXXXXXXXXXXXXX    XXXXXXXXXXXXXXXXXXXXXXXXXXXXXXXXXXXXXX",
"o  XXXXXXXXXXXXXXXXXXX    XXXXXXXXXXXXXXXXXXXXXXXXXXXXXXXXXXXXXX",
"o  XXXXXXXXXXXXXXXXXXX    XXXXXXXXXXXXXXXXXXXXXXXXXXXXXXXXXXXXXX",
"o  XXXXXXXXXXXXXXXXXXX    XXXXXXXXXXXXXXXXXXXXXXXXXXXXXXXXXXXXXX",
"o  XXXXXXXXXXXXXXXXXXX    ......................................",
"o  XXXXXXXXXXXXXXXXXXX    ......................................",
"o  XXXXXXXXXXXXXXXXXXX    ......................................",
"o  XXXXXXXXXXXXXXXXXXX    ......................................",
"o  XX.................    XXXXXXXXXXXXXXXXXXXXXXXXXXXXXXXXXXXXXX",
"o  XX.................    XXXXXXXXXXXXXXXXXXXXXXXXXXXXXXXXXXXXXX",
"o  XX.................    XXXXXXXXXXXXXXXXXXXXXXXXXXXXXXXXXXXXXX",
"o  XX.................    XXXXXXXXXXXXXXXXXXXXXXXXXXXXXXXXXXXXXX",
"o  XX.XXXXXXXXXXXXXXXX                                          ",
"o  XX.XXXXXXXXXXXXXXXX                                          ",
"o  XX.XXXXXXXXXXXXXXXX    oooooooooooooooooooooooooooooooooooooo",
"o  XX.XXXXXXXXXXXXXXXX    oooooooooooooooooooooooooooooooooooooo",
"o                       oooooooooooooooooooooooooooooooooooooooo",
"o                       oooooooooooooooooooooooooooooooooooooooo",
"oooooooooooooooooooooooooooooooooooooooooooooooooooooooooooooooo",
"oooooooooooooooooooooooooooooooooooooooooooooooooooooooooooooooo",
"oooooooooooooooooooooooooooooooooooooooooooooooooooooooooooooooo",
"oooooooooooooooooooooooooooooooooooooooooooooooooooooooooooooooo",
"oooooooooooooooooooooooooooooooooooooooooooooooooooooooooooooooo",
"oooooooooooooooooooooooooooooooooooooooooooooooooooooooooooooooo"
};
