/* XPM */
static char *result[] = {
/* columns rows colors chars-per-pixel */
"64 64 103 2 ",
"   c black",
".  c #0C0201",
"X  c #0F0201",
"o  c #110301",
"O  c #130302",
"+  c #1B0402",
"@  c #1B0502",
"#  c #1E0502",
"$  c #200503",
"%  c #290703",
"&  c #2B0703",
"*  c #2E0803",
"=  c #360904",
"-  c #390A04",
";  c #3C0A04",
":  c #3E0A04",
">  c #3F0B05",
",  c #400B05",
"<  c #440C05",
"1  c #450C05",
"2  c #470C05",
"3  c #4A0C05",
"4  c #4D0D05",
"5  c #510E06",
"6  c #530E06",
"7  c #540E06",
"8  c #560E06",
"9  c #560F06",
"0  c #570F06",
"q  c #590F06",
"w  c #5B0F06",
"e  c #5C0F06",
"r  c #5E1007",
"t  c #5F1007",
"y  c #601007",
"u  c #621007",
"i  c #631007",
"p  c #651107",
"a  c #661107",
"s  c #681107",
"d  c #691108",
"f  c #6C1208",
"g  c #6E1208",
"h  c #701308",
"j  c #711308",
"k  c #731308",
"l  c #751409",
"z  c #771408",
"x  c #781409",
"c  c #791409",
"v  c #7A1408",
"b  c #7A1409",
"n  c #7D1509",
"m  c #7E1509",
"M  c #821509",
"N  c #84160A",
"B  c #86160A",
"V  c #89170A",
"C  c #8B170A",
"Z  c #8C170A",
"A  c #8E180A",
"S  c #93190B",
"D  c #95190B",
"F  c #97190B",
"G  c #99190B",
"H  c #9A1A0B",
"J  c #9B1A0C",
"K  c #9D1A0C",
"L  c #9E1A0C",
"P  c #9E1B0C",
"I  c #9F1B0C",
"U  c #A01B0C",
"Y  c #A11B0C",
"T  c #A41B0C",
"R  c #A51C0C",
"E  c #A71C0C",
"W  c #A81C0C",
"Q  c #AC1C0C",
"!  c #AD1D0D",
"~  c #AE1D0D",
"^  c #B21E0D",
"/  c #B41E0D",
"(  c #B51E0D",
")  c #B61E0D",
"_  c #BD1F0E",
"`  c #C3200E",
"'  c #C5210E",
"]  c #C9210F",
"[  c #CA210F",
"{  c #D3230F",
"}  c #D4230F",
"|  c #D52310",
" . c #DB2410",
".. c #DF2510",
"X. c #E12510",
"o. c #E32510",
"O. c #E62611",
"+. c #E82611",
"@. c #EB2711",
"#. c #ED2711",
"$. c #F02711",
"%. c #FA2912",
"&. c None",
/* pixels */
"&.&.&.&.&.&.&.&.&.&.&.&.&.&.&.&.&.&.&.&.&.&.&.&.&.&.&.&.&.&.&.&.&.&.&.&.&.&.&.&.&.&.&.&.&.&.&.&.&.&.&.&.&.&.&.&.&.&.&.&.&.&.&.&.",
"&.&.&.&.&.&.&.&.&.&.&.&.&.&.&.&.&.&.&.&.&.&.&.&.&.&.&.&.&.&.&.&.&.&.&.&.&.&.&.&.&.&.&.&.&.&.&.&.&.&.&.&.&.&.&.&.&.&.&.&.&.&.&.&.",
"&.&.&.&.&.&.&.&.&.&.&.&.&.&.&.&.&.&.&.&.&.&.&.&.&.&.&.&.&.&.&.&.&.&.&.&.&.&.&.&.&.&.&.&.&.&.&.&.&.&.&.&.&.&.&.&.&.&.&.&.&.&.&.&.",
"&.&.&.&.&.&.&.&.&.&.&.&.&.&.&.&.&.&.&.&.&.&.&.&.&.&.&.&.&.&.&.&.&.&.&.&.&.&.&.&.&.&.&.&.&.&.&.&.&.&.&.&.&.&.&.&.&.&.&.&.&.&.&.&.",
"&.&.&.&.&.&.&.&.&.&.&.&.&.&.&.&.&.&.&.&.&.&.&.&.&.&.&.&.&.&.&.&.&.&.&.&.&.&.&.&.&.&.&.&.&.&.&.&.&.&.&.&.&.&.&.&.&.&.&.&.&.&.&.&.",
"&.&.&.&.&.&.&.&.&.&.&.&.&.&.&.&.&.&.&.&.&.&.&.&.&.&.&.&.&.&.&.&.&.&.&.&.&.&.&.&.&.&.&.&.&.&.&.&.&.&.&.&.&.&.&.&.&.&.&.&.&.&.&.&.",
"&.&.&.&.&.&.&.&.&.&.&.&.&.&.&.&.&.&.&.&.&.&.&.&.&.&.&.&.&.&.&.&.&.&.&.&.&.&.&.&.&.&.&.&.&.&.&.&.&.&.&.&.&.&.&.&.&.&.&.&.&.&.&.&.",
"&.&.&.&.&.&.&.&.&.&.&.&.&.&.&.&.&.&.&.&.&.&.&.&.&.&.&.&.&.&.&.&.&.&.&.&.&.&.&.&.&.&.&.&.&.&.&.&.&.&.&.&.&.&.&.&.&.&.&.&.&.&.&.&.",
"&.&.&.&.&.&.&.&.&.&.&.&.&.&.&.&.&.&.&.&.&.&.&.&.&.&.&.&.&.&.&.&.&.&.&.&.&.&.&.&.&.&.&.&.&.&.&.&.&.&.&.&.&.&.&.&.&.&.&.&.&.&.&.&.",
"&.&.&.&.&.&.&.&.&.&.&.&.&.&.&.&.&.&.&.&.&.&.&.&.&.&.&.&.&.&.&.&.&.&.&.&.&.&.&.&.&.&.&.&.&.&.&.&.&.&.&.&.&.&.&.&.&.&.&.&.&.&.&.&.",
"&.&.&.&.&.&.&.&.&.&.&.&.&.&.&.&.&.&.&.&.&.&.&.&.&.&.&.&.&.&.&.&.&.&.&.&.&.&.&.&.&.&.&.&.&.&.&.&.&.&.&.&.&.&.&.&.&.&.&.&.&.&.&.&.",
"&.&.&.&.&.&.&.&.&.&.&.&.&.&.&.&.&.&.&.&.&.&.&.&.&.&.&.&.&.&.&.&.&.&.&.&.&.&.&.&.&.&.&.&.&.&.&.&.&.&.&.&.&.&.&.&.&.&.&.&.&.&.&.&.",
"&.&.&.&.&.&.&.&.&.&.&.&.&.&.&.&.&.&.&.&.&.&.&.&.&.&.&.&.&.&.&.&.&.&.&.&.&.&.&.&.&.&.&.&.&.&.&.&.&.&.&.&.&.&.&.&.&.&.&.&.&.&.&.&.",
"&.X ; ; O & , , , , , , , , , &.&.&.&.&.&.&.&.&.&.&.&.&.&.&.&.&.&.&.&.&.&.&.&.&.&.&.&.&.&.&.&.&.&.&.&.&.&.&.&.&.&.&.&.&.&.&.&.&.",
"&.= ....< Y $.$.$.$.$.$.$.$.$.$.$.$.p p   &.&.&.&.&.&.&.&.&.&.&.&.&.&.&.&.&.&.&.&.&.&.&.&.&.&.&.&.&.&.&.&.&.&.&.&.&.&.&.&.&.&.&.",
"&.- +.+.2 W %.%.%.%.%.%.%.%.%.%.%.%.d d     &.&.&.&.                    &.&.&.&.&.&.&.&.&.&.&.&.&.&.&.&.&.&.&.&.&.&.&.&.&.&.&.&.",
"&.- +.+.2 j D D D D D D D D D D D D > >     A A A A A A A A A A A A A A A A A A A A A A A A A A A A A A A A A A A A A A A A A A ",
"&.- +.+.2 2 2 2 2 2 2 2 2 2 2 2 2 2 # #     %.%.%.%.%.%.%.%.%.%.%.%.%.%.%.%.%.%.%.%.%.%.%.%.%.%.%.%.%.%.%.%.%.%.%.%.%.%.%.%.%.%.",
"&.- +.+.a a a a a a a a a a a a a a & &      . . . . . . . . . . . . . . . . . . . . . . . . . . . . . . . . . . . . . . . . . .",
"&.- +.+.o.o.o.o.o.o.o.o.o.o.o.o.o.o.y y     r r r r r r r r r r r r r r r r r r r r r r r r r r r r r r r r r r r r r r r r r r ",
"&.- +.+.%.%.%.%.%.%.%.%.%.%.%.%.%.%.d d     2 2 2 2 2 2 2 2 2 2 2 2 2 2 2 2 2 2 2 2 2 2 2 2 2 2 2 2 2 2 2 2 2 2 2 2 2 2 2 2 2 2 ",
"&.- +.+.%.%.%.%.%.%.%.%.%.%.%.%.%.%.d d     K K K K K K K K K K K K K K K K K K K K K K K K K K K K K K K K K K K K K K K K K K ",
"&.- +.+.%.%.%.%.%.%.%.%.%.%.%.%.%.%.d d     %.%.%.%.%.%.%.%.%.%.%.%.%.%.%.%.%.%.%.%.%.%.%.%.%.%.%.%.%.%.%.%.%.%.%.%.%.%.%.%.%.%.",
"&.- +.+.@.@.@.@.@.@.@.@.@.@.@.@.@.@.i i     %.%.%.%.%.%.%.%.%.%.%.%.%.%.%.%.%.%.%.%.%.%.%.%.%.%.%.%.%.%.%.%.%.%.%.%.%.%.%.%.%.%.",
"&.- +.+.g g g g g g g g g g g g g g * *     %.%.%.%.%.%.%.%.%.%.%.%.%.%.%.%.%.%.%.%.%.%.%.%.%.%.%.%.%.%.%.%.%.%.%.%.%.%.%.%.%.%.",
"&.- +.+.2 2 2 2 2 2 2 2 2 2 2 2 2 2 # #     %.%.%.%.%.%.%.%.%.%.%.%.%.%.%.%.%.%.%.%.%.%.%.%.%.%.%.%.%.%.%.%.%.%.%.%.%.%.%.%.%.%.",
"&.- +.+.2 W %.%.%.%.%.%.%.%.%.%.%.%.d d     / / / / / / / / / / / / / / / / / / / / / / / / / / / / / / / / / / / / / / / / / / ",
"&.- +.+.2 W %.%.%.%.%.%.%.%.%.%.%.%.d d     2 2 2 2 2 2 2 2 2 2 2 2 2 2 2 2 2 2 2 2 2 2 2 2 2 2 2 2 2 2 2 2 2 2 2 2 2 2 2 2 2 2 ",
"&.- +.+.2 2 2 2 2 2 2 2 2 2 2 2 2 2 # #     2 2 2 2 2 2 2 2 2 2 2 2 2 2 2 2 2 2 2 2 2 2 2 2 2 2 2 2 2 2 2 2 2 2 2 2 2 2 2 2 2 2 ",
"&.- +.+.2 2 2 2 2 2 2 2 2 2 2 2 2 2 # #     2 2 2 2 2 2 2 2 2 2 2 2 2 2 2 2 2 2 2 2 2 2 2 2 2 2 2 2 2 2 2 2 2 2 2 2 2 2 2 2 2 2 ",
"&.- +.+.2 2 2 2 2 2 2 2 2 2 2 2 2 2 # #     2 2 2 2 2 2 2 2 2 2 2 2 2 2 2 2 2 2 2 2 2 2 2 2 2 2 2 2 2 2 2 2 2 2 2 2 2 2 2 2 2 2 ",
"&.- +.+.2 2 2 2 2 2 2 2 2 2 2 2 2 2 # #     2 2 2 2 2 2 2 2 2 2 2 2 2 2 2 2 2 2 2 2 2 2 2 2 2 2 2 2 2 2 2 2 2 2 2 2 2 2 2 2 2 2 ",
"&.- +.+.2 2 2 2 2 2 2 2 2 2 2 2 2 2 # #     2 2 2 2 2 2 2 2 2 2 2 2 2 2 2 2 2 2 2 2 2 2 2 2 2 2 2 2 2 2 2 2 2 2 2 2 2 2 2 2 2 2 ",
"&.- +.+.2 2 2 2 2 2 2 2 2 2 2 2 2 2 # #     2 2 2 2 2 2 2 2 2 2 2 2 2 2 2 2 2 2 2 2 2 2 2 2 2 2 2 2 2 2 2 2 2 2 2 2 2 2 2 2 2 2 ",
"&.- +.+.2 2 2 2 2 2 2 2 2 2 2 2 2 2 # #     2 s / B 2 C / 2 2 2 2 2 2 2 2 2 M / 6 0 T W 2 b / 2 s / B 2 C / 2 y ! F 2 M / 6 0 T ",
"&.- +.+.2 2 2 2 2 2 2 2 2 2 2 2 2 2 # #     2 m %.~ 2 ) %.2 2 2 2 2 2 2 2 2 W %.w u ..O.2 H %.2 m %.~ 2 ) %.2 h #.[ 2 W %.w u ..",
"&.- +.+.2 e g 4 4 s 2 q 5 3 3 g 2 8 * *     } ( g G } D g } 2 2 2 2 2 2 2 } K g ] ' n c } R g } ( g G } D g } _ l V } K g ] ' n ",
"&.- +.+.2 U @.t t { 2 S k 6 6 @.2 B i i     9 N @.Q 9 ^ @.9 2 2 2 2 2 2 2 2 2 } 9 f |  .9 J @.9 N @.Q 9 ^ @.9 x X.` 9 E @.a f | ",
"&.- +.+.2 2 2 ....u %.W [ #.#.2 %.) # #     %.%.%.%.%.%.%.%.2 2 2 2 2 2 2 / %.g @.%.%.%.%.%.%.%.%.%.%.%.%.%.%.%.%.%.%.%.%.%.%.%.",
"&.- +.+.2 v R P P T K Y I L L R K U 1 1     %.%.%.%.%.%.%.%.2 2 2 2 2 2 2 C ) D ^ %.%.%.%.%.%.%.%.%.%.%.%.%.%.%.%.%.%.%.%.%.%.%.",
"&.- +.+.2 W %.u u ..2 H z 7 7 %.2 Z d d     %.%.%.%.%.%.%.%.2 2 2 2 2 2 2 2 2 } 9 %.%.%.%.%.%.%.%.%.%.%.%.%.%.%.%.%.%.%.%.%.%.%.",
"&.- +.+.2 W %.%.%.%.%.%.%.%.%.%.%.%.d d                                                       + : : : : : : : : : : : : : : : : ",
"&.- +.+.2 W %.%.%.%.%.%.%.%.%.%.%.%.d d                                                           . . . . . . . . . . . . . . . ",
"&.- +.+.2 2 2 2 2 2 2 2 2 2 2 2 @ p d > # & y d d d i * # d d # # # # # # # # * i # 1 d d d # o &.&.&.&.&.&.&.&.&.&.&.&.&.&.&.&.",
"&.$ N N % % % % % % % % % % % % @ p d > # & y d d d i * # d d # # # # # # # # * i # 1 d d d # o &.&.&.&.&.&.&.&.&.&.&.&.&.&.&.&.",
"&.                            &.&.$.%.D 2 a o.%.%.%.@.g 2 %.%.2 2 2 2 2 2 2 2 8 B ) U Z %.%.2 % &.&.&.&.&.&.&.&.&.&.&.&.&.&.&.&.",
"&.&.&.&.&.&.&.&.&.&.&.&.&.&.&.&., $.%.D 2 a o.%.%.%.@.g 2 %.%.2 2 2 2 2 2 2 2 2 2 %.K 2 %.%.2 %   &.&.&.&.&.&.&.&.&.&.&.&.&.&.&.",
"&.&.&.&.&.&.&.&.&.&.&.&.&.&.&.&., $.%.D 2 a o.%.%.%.@.g 2 %.%.2 2 2 2 2 2 2 2 g @.2 R %.%.%.2 %   &.&.&.&.&.&.&.&.&.&.&.&.&.&.&.",
"&.&.&.&.&.&.&.&.&.&.&.&.&.&.&.&., $.%.D 2 a o.%.%.%.@.g 2 %.%.2 2 2 2 2 2 2 2 3 6 #.L 7 %.%.2 %   &.&.&.&.&.&.&.&.&.&.&.&.&.&.&.",
"&.&.&.&.&.&.&.&.&.&.&.&.&.&.&.&., $.%.D 2 a o.%.%.%.@.g 2 %.%.2 2 2 2 2 2 2 2 5 k [ I z %.%.2 %   &.&.&.&.&.&.&.&.&.&.&.&.&.&.&.",
"&.&.&.&.&.&.&.&.&.&.&.&.&.&.&.&., $.%.D 2 a o.%.%.%.@.g 2 %.%.2 2 2 2 2 2 2 2 5 k [ I z %.%.2 %   &.&.&.&.&.&.&.&.&.&.&.&.&.&.&.",
"&.&.&.&.&.&.&.&.&.&.&.&.&.&.&.&., $.%.D 2 a o.%.%.%.@.g 2 %.%.2 2 2 2 2 2 2 2 q S W Y H %.%.2 %   &.&.&.&.&.&.&.&.&.&.&.&.&.&.&.",
"&.&.&.&.&.&.&.&.&.&.&.&.&.&.&.&., $.%.D 2 a o.%.%.%.@.g 2 %.%.2 2 2 2 2 2 2 2 q S W Y H %.%.2 %   &.&.&.&.&.&.&.&.&.&.&.&.&.&.&.",
"&.&.&.&.&.&.&.&.&.&.&.&.&.&.&.&., $.%.D 2 a o.%.%.%.@.g 2 %.%.2 2 2 2 2 2 2 2 2 2 %.K 2 %.%.2 %   &.&.&.&.&.&.&.&.&.&.&.&.&.&.&.",
"&.&.&.&.&.&.&.&.&.&.&.&.&.&.&.&., $.%.D 2 a o.%.%.%.@.g 2 %.%.2 2 2 2 2 2 2 2 s { u T ..%.%.2 %   &.&.&.&.&.&.&.&.&.&.&.&.&.&.&.",
"&.&.&.&.&.&.&.&.&.&.&.&.&.&.&.&., $.%.D 2 a o.%.%.%.@.g 2 %.%.2 2 2 2 2 2 2 2 s { u T ..%.%.2 %   &.&.&.&.&.&.&.&.&.&.&.&.&.&.&.",
"&.&.&.&.&.&.&.&.&.&.&.&.&.&.&.&., $.%.D 2 a o.%.%.%.@.g 2 %.%.2 2 2 2 2 2 2 2 4 t ..P u %.%.2 %   &.&.&.&.&.&.&.&.&.&.&.&.&.&.&.",
"&.&.&.&.&.&.&.&.&.&.&.&.&.&.&.&., $.%.D 2 a o.%.%.%.@.g 2 %.%.2 2 2 2 2 2 2 2 g @.2 R %.%.%.2 %   &.&.&.&.&.&.&.&.&.&.&.&.&.&.&.",
"&.&.&.&.&.&.&.&.&.&.&.&.&.&.&.&.& Y W j 2 a o.%.%.%.@.g 2 W W 2 2 2 2 2 2 2 2 e U 2 v W W W 2 %   &.&.&.&.&.&.&.&.&.&.&.&.&.&.&.",
"&.&.&.&.&.&.&.&.&.&.&.&.&.&.&.&.O < 2 2 2 a o.%.%.%.@.g 2 2 2 2 2 2 2 2 2 2 2 2 2 2 2 2 2 2 2 %   &.&.&.&.&.&.&.&.&.&.&.&.&.&.&.",
"&.&.&.&.&.&.&.&.&.&.&.&.&.&.&.&.; ..+.+.+.+.+.+.+.+.+.+.+.+.+.+.+.+.+.+.+.+.+.+.+.+.+.+.+.+.+.N   &.&.&.&.&.&.&.&.&.&.&.&.&.&.&.",
"&.&.&.&.&.&.&.&.&.&.&.&.&.&.&.&.; ..+.+.+.+.+.+.+.+.+.+.+.+.+.+.+.+.+.+.+.+.+.+.+.+.+.+.+.+.+.N   &.&.&.&.&.&.&.&.&.&.&.&.&.&.&.",
"&.&.&.&.&.&.&.&.&.&.&.&.&.&.&.&.X = - - - - - - - - - - - - - - - - - - - - - - - - - - - - - $   &.&.&.&.&.&.&.&.&.&.&.&.&.&.&.",
"&.&.&.&.&.&.&.&.&.&.&.&.&.&.&.&.&.&.&.&.&.&.&.&.&.&.&.&.&.&.&.&.&.&.&.&.&.&.&.&.&.&.&.&.&.&.&.&.&.&.&.&.&.&.&.&.&.&.&.&.&.&.&.&."
};
