/* XPM */
static char *result[] = {
/* columns rows colors chars-per-pixel */
"64 64 4 1 ",
"  c black",
". c #470C05",
"X c #FA2912",
"o c None",
/* pixels */
"oooooooooo  XXXX....XXXXXXXX............XX..XXXXXX..  oooooooooo",
"oooooooooo  XXXX....XXXXXXXX..............XX..XXXX..  oooooooooo",
"oooooooooo  XXXX....XXXXXXXX..............XX..XXXX..  oooooooooo",
"oooooooooo  XXXX....XXXXXXXX............XX..XXXXXX..  oooooooooo",
"oooooooooo  XXXX....XXXXXXXX............XX..XXXXXX..  oooooooooo",
"oooooooooo  XXXX....XXXXXXXX..............XX..XXXX..  oooooooooo",
"oooooooooo  XXXX....XXXXXXXX............XX..XXXXXX..  oooooooooo",
"oooooooooo  XXXX....XXXXXXXX............XX..XXXXXX..  oooooooooo",
"oooooooooo  XXXX....XXXXXXXX..............XX..XXXX..  oooooooooo",
"oooooooooo  XXXX....XXXXXXXX..............XX..XXXX..  oooooooooo",
"oooooooooo  XXXX....XXXXXXXX............XX..XXXXXX..  oooooooooo",
"oooooooooo  XXXX....XXXXXXXX............XX..XXXXXX..  oooooooooo",
"oooooooooo  XXXX....XXXXXXXX..............XX..XXXX..  oooooooooo",
"oooooooooo  XXXX....XXXXXXXX............XX..XXXXXX..  oooooooooo",
"oooooooooo  XXXX....XXXXXXXX............XX..XXXXXX..  oooooooooo",
"oooooooooo  XXXX....XXXXXXXX..............XX..XXXX..  oooooooooo",
"oooooooooo  XXXX....XXXXXXXX..............XX..XXXX..  oooooooooo",
"oooooooooo  XXXX....XXXXXXXX............XX..XXXXXX..  oooooooooo",
"oooooooooo  XXXX....XXXXXXXX..............XX..XXXX..  oooooooooo",
"oooooooooo  XXXX....XXXXXXXX..............XX..XXXX..  oooooooooo",
"oooooooooo  XXXX....XXXXXXXX............XX..XXXXXX..  oooooooooo",
"oooooooooo  XXXX....XXXXXXXX............XX..XXXXXX..  oooooooooo",
"oooooooooo  XXXX....XXXXXXXX..............XX..XXXX..  oooooooooo",
"oooooooooo  XXXX....XXXXXXXX..............XX..XXXX..  oooooooooo",
"oooooooooo  XXXX....XXXXXXXX............XX..XXXXXX..  oooooooooo",
"oooooooooo  XXXX....XXXXXXXX............XX..XXXXXX..  oooooooooo",
"oooooooooo  XXXX....XXXXXXXX..............XX..XXXX..  oooooooooo",
"oooooooooo  XXXX....XXXXXXXX............XX..XXXXXX..  oooooooooo",
"oooooooooo  XXXX....XXXXXXXX............XX..XXXXXX..  oooooooooo",
"oooooooooo  XXXX....XXXXXXXX..............XX..XXXX..  oooooooooo",
"oooooooooo  XXXX....XXXXXXXX..............XX..XXXX..  oooooooooo",
"oooooooooo  XXXX....XXXXXXXX............XX..XXXXXX..  oooooooooo",
"oooooooooo  XXXX....XXXXXXXX............XX..XXXXXX..  oooooooooo",
"oooooooooo  XXXX....XXXXXXXX..............XX..XXXX..  oooooooooo",
"oooooooooo  XXXX....XXXXXXXX............XX..XXXXXX..  oooooooooo",
"oooooooooo  XXXX....XXXXXXXX............XX..XXXXXX..  oooooooooo",
"oooooooooo  XXXX....XXXXXXXX..............XX..XXXX..  oooooooooo",
"oooooooooo  XXXX....XXXXXXXX..............XX..XXXX..  oooooooooo",
"oooooooo                                                oooooooo",
"oooooooo                                                oooooooo",
"oooooo                                                    oooooo",
"oooooo                                                    oooooo",
"oooooo  XXXX....XXXXXXXX..XXXX..............XX..XXXXXX..  oooooo",
"oooooo  XXXX....XXXXXXXX..XXXX................XX..XXXX..  oooooo",
"oooooo  XXXX....XXXXXXXX..XXXX................XX..XXXX..  oooooo",
"oooooo  XXXX....XXXXXXXX..XXXX..............XX..XXXXXX..  oooooo",
"oooooo  XXXX....XXXXXXXX..XXXX..............XX..XXXXXX..  oooooo",
"oooooo  XXXX....XXXXXXXX..XXXX................XX..XXXX..  oooooo",
"oooooo  XXXX....XXXXXXXX..XXXX................XX..XXXX..  oooooo",
"oooooo  XXXX....XXXXXXXX..XXXX..............XX..XXXXXX..  oooooo",
"oooooo  XXXX....XXXXXXXX..XXXX................XX..XXXX..  oooooo",
"oooooo  XXXX....XXXXXXXX..XXXX................XX..XXXX..  oooooo",
"oooooo  XXXX....XXXXXXXX..XXXX..............XX..XXXXXX..  oooooo",
"oooooo  XXXX....XXXXXXXX..XXXX..............XX..XXXXXX..  oooooo",
"oooooo  XXXX....XXXXXXXX..XXXX................XX..XXXX..  oooooo",
"oooooo  XXXX....XXXXXXXX..XXXX................XX..XXXX..  oooooo",
"oooooo  XXXX....XXXXXXXX..XXXX..............XX..XXXXXX..  oooooo",
"oooooo  XXXX....XXXXXXXX..XXXX..............XX..XXXXXX..  oooooo",
"oooooo  ........XXXXXXXX................................  oooooo",
"oooooo  XXXXXXXXXXXXXXXXXXXXXXXXXXXXXXXXXXXXXXXXXXXXXXXX  oooooo",
"oooooo  XXXXXXXXXXXXXXXXXXXXXXXXXXXXXXXXXXXXXXXXXXXXXXXX  oooooo",
"oooooo                                                    oooooo",
"oooooo                                                    oooooo",
"oooooooooooooooooooooooooooooooooooooooooooooooooooooooooooooooo"
};
