/* XPM */
static char *result[] = {
/* columns rows colors chars-per-pixel */
"64 64 49 1 ",
"  c #18171A",
". c #18171C",
"X c #18181C",
"o c #1A181D",
"O c #19181E",
"+ c #1B1B1F",
"@ c #1C1B1E",
"# c #1E1C1D",
"$ c #2E2C23",
"% c #333235",
"& c #45402D",
"* c #56544E",
"= c #815F31",
"- c #81602E",
"; c #9F7435",
": c #AA7933",
"> c #AA7A33",
", c #FDAF40",
"< c #FBB041",
"1 c #FCB040",
"2 c #FDB040",
"3 c #FDB140",
"4 c #FDB041",
"5 c #FEB041",
"6 c #F7E060",
"7 c #F8E664",
"8 c #F7EB67",
"9 c #F8EB67",
"0 c #F8EB68",
"q c #F8EB69",
"w c #F9EB69",
"e c #F8EC68",
"r c #F8EC69",
"t c #828281",
"y c #828184",
"u c #828284",
"i c #848185",
"p c #F9EF84",
"a c #FAEF88",
"s c #FBF3A7",
"d c #D2D2D2",
"f c #D2D2D3",
"g c #FBF8C7",
"h c #FCF7C8",
"j c #FCF7C9",
"k c #FEFDF8",
"l c #FFFDFE",
"z c white",
"x c None",
/* pixels */
"xxxxxxxxxxxxxxxxxxxxxxxxxxxxxxxxxxxxxxxxxxxxxxxxxxxxxxxxxxxxxxxx",
"xxxxxxxxxxxxxxxxxxxxxxxxxxxxxxxxxxxxxxxxxxxxxxxxxxxxxxxxxxxxxxxx",
"xxxxxxxxxxxxxxxxxxxxxxxxxxxxxxxxxxxxxxxxxxxxxxxxxxxxxxxxxxxxxxxx",
"xxxxxxxxxxxxxxxxxxxxxxxxxxxxxxxxxxxxxxxxxxxxxxxxxxxxxxxxxxxxxxxx",
"xxxxxxxxxxxxxxxxxxxxxxxxxxxxxxxxxxxxxxxxxxxxxxxxxxxxxxxxxxxxxxxx",
"xxxxxxxxxxxxxxxxxxxxxxxxxxxxxxxxxxxxxxxxxxxxxxxxxxxxxxxxxxxxxxxx",
"xxxxxxxxxxxxxxxxxxxxxxxxxxxxxxxxxxxxxxxxxxxxxxxxxxxxxxxxxxxxxxxx",
"xxxxxxxxxxxxxxxxxxxxxxxxxxxxxxxxxxxxxxxxxxxxxxxxxxxxxxxxxxxxxxxx",
"xxxxxxxxxxxxxxxxxxxxxxxxxxxxxd....xxxxxxxxxxxxxxxxxxxxxxxxxxxxxx",
"xxxxxxxxxxxxxxxxxxxxxxxxxxxxxf....xxxxxxxxxxxxxxxxxxxxxxxxxxxxxx",
"xxxxxxxxxxxxxxxxxxxxxxxxxxxxxf.99.xxxxxxxxxxxxxxxxxxxxxxxxxxxxxx",
"xxxxxxxxxxxxxxxxxxxxxxxxxxxxxf.99.xxxxxxxxxxxxxxxxxxxxxxxxxxxxxx",
"xxxxxxxxxxxxxxxxxxxxxxxxxxx....99....xxxxxxxxxxxxxxxxxxxxxxxxxxx",
"xxxxxxxxxxxxxxxxxxxxxxxxxxx....99....xxxxxxxxxxxxxxxxxxxxxxxxxxx",
"xxxxxxxxxxxxxxxxxxxxxxxxxxx....99....xxxxxxxxxxxxxxxxxxxxxxxxxxx",
"xxxxxxxxxxxxxxxxxxxxxxxxxxx..&9ll9#..xxxxxxxxxxxxxxxxxxxxxxxxxxx",
"xxxxxxxxxxxxxxxxxxxxxxxxx....*lll9#...xxxxxxxxxxxxxxxxxxxxxxxxxx",
"xxxxxxxxxxxxxxxxxxxxxxxxx....*lll9#...xxxxxxxxxxxxxxxxxxxxxxxxxx",
"xxxxxxxxxxxxxxxxxxxxxxxxx..99pl999999.xxxxxxxxxxxxxxxxxxxxxxxxxx",
"xxxxxxxxxxxxxxxxxxxxxxxxx..wwal999999.xxxxxxxxxxxxxxxxxxxxxxxxxx",
"xxxxxxxxxxxxxxxxxxxxxxxxx..llll999999....xxxxxxxxxxxxxxxxxxxxxxx",
"xxxxxxxxxxxxxxxxxxxxxxxxx..llll999999....xxxxxxxxxxxxxxxxxxxxxxx",
"xxxxxxxxxxxxxxxxxxxxx....99lll99999999.......xxxxxxxxxxxxxxxxxxx",
"xxxxxxxxx.............$9999lll99999999999@............Xxxxxxxxxx",
"xxxxxxxxx.............$9999lll99999999999@............Xxxxxxxxxx",
"xxxxxxx... 111eeeeezzzzzzllqqq99999999999eezzeeeee11112..xxxxxxx",
"xxxxxxx... 111eeeeezzzzzzllqqq99999999999eezzeeeee11112..xxxxxxx",
"xxxxxxx..:>1119ghj9ssssssss9999999999999999sshhhh9111=-..xxxxxxx",
"xxxxxxx..411119zzl999999999999999999999999999zzzz9111....xxxxxxx",
"xxxxxxx..411119zzl999999999999999999999999999zzzz9111....xxxxxxx",
"xxxxxxxxx. 111109999999999999999999999999999999991111.Xxxxxxxxxx",
"xxxxxxxxxxx...111,99999999999999999999999999995111...xxxxxxxxxxx",
"xxxxxxxxxxx...111,99999999999999999999999999995111...xxxxxxxxxxx",
"xxxxxxxxxxxxxx.11,9999999999999999999999999111113.xxxxxxxxxxxxxx",
"xxxxxxxxxxxxxxx..O1999999999999999999999999111o..xxxxxxxxxxxxxxx",
"xxxxxxxxxxxxxxx..O1999999999999999999999999111o..xxxxxxxxxxxxxxx",
"xxxxxxxxxxxxxxxuut;999999999999999999999999;;;iuyxxxxxxxxxxxxxxx",
"xxxxxxxxxxxxxxxxxx.rr9999999999999999999999...xxxxxxxxxxxxxxxxxx",
"xxxxxxxxxxxxxxxxxx.rr9999999999999999999999...xxxxxxxxxxxxxxxxxx",
"xxxxxxxxxxxxxxxxxx...999999999999999999999911.xxxxxxxxxxxxxxxxxx",
"xxxxxxxxxxxxxxxxxx...999999999999999999999911.xxxxxxxxxxxxxxxxxx",
"xxxxxxxxxxxxxxxxxx.99zk9999999999999999999911.xxxxxxxxxxxxxxxxxx",
"xxxxxxxxxxxxxxxxxx.99zk9999999999999999999911.xxxxxxxxxxxxxxxxxx",
"xxxxxxxxxxxxxxxxxx.99zk9999999999999999999911.xxxxxxxxxxxxxxxxxx",
"xxxxxxxxxxxxxxxxxx.99zk9999999999111199999911.xxxxxxxxxxxxxxxxxx",
"xxxxxxxxxxxxxxxxxx.99zk9999999988111199999911.xxxxxxxxxxxxxxxxxx",
"xxxxxxxxxxxxxxxxxx.999999999961..111111111111....xxxxxxxxxxxxxxx",
"xxxxxxxxxxxxxxxxxx.999999999961..111111111111....xxxxxxxxxxxxxxx",
"xxxxxxxxxxxxxxxxxx.99971111..........111111111o..xxxxxxxxxxxxxxx",
"xxxxxxxxxxxxxxxxxx.111111....%xxxx+......<1111o..xxxxxxxxxxxxxxx",
"xxxxxxxxxxxxxxxxxx.111111....%xxxx+......<1111o..xxxxxxxxxxxxxxx",
"xxxxxxxxxxxxxxxxxx.111111....%xxxx+......<1111o..xxxxxxxxxxxxxxx",
"xxxxxxxxxxxxxxx..O111....xxxxxxxxxxxxx.......1o..xxxxxxxxxxxxxxx",
"xxxxxxxxxxxxxxx..O111....xxxxxxxxxxxxx.......1o..xxxxxxxxxxxxxxx",
"xxxxxxxxxxxxxxxxxx...xxxxxxxxxxxxxxxxxxxxxx......xxxxxxxxxxxxxxx",
"xxxxxxxxxxxxxxxxxx...xxxxxxxxxxxxxxxxxxxxxx......xxxxxxxxxxxxxxx",
"xxxxxxxxxxxxxxxxxxxxxxxxxxxxxxxxxxxxxxxxxxxxxxxxxxxxxxxxxxxxxxxx",
"xxxxxxxxxxxxxxxxxxxxxxxxxxxxxxxxxxxxxxxxxxxxxxxxxxxxxxxxxxxxxxxx",
"xxxxxxxxxxxxxxxxxxxxxxxxxxxxxxxxxxxxxxxxxxxxxxxxxxxxxxxxxxxxxxxx",
"xxxxxxxxxxxxxxxxxxxxxxxxxxxxxxxxxxxxxxxxxxxxxxxxxxxxxxxxxxxxxxxx",
"xxxxxxxxxxxxxxxxxxxxxxxxxxxxxxxxxxxxxxxxxxxxxxxxxxxxxxxxxxxxxxxx",
"xxxxxxxxxxxxxxxxxxxxxxxxxxxxxxxxxxxxxxxxxxxxxxxxxxxxxxxxxxxxxxxx",
"xxxxxxxxxxxxxxxxxxxxxxxxxxxxxxxxxxxxxxxxxxxxxxxxxxxxxxxxxxxxxxxx",
"xxxxxxxxxxxxxxxxxxxxxxxxxxxxxxxxxxxxxxxxxxxxxxxxxxxxxxxxxxxxxxxx"
};
