/* XPM */
static char *result[] = {
/* columns rows colors chars-per-pixel */
"64 64 49 1 ",
"  c #18171A",
". c #18171C",
"X c #18181C",
"o c #1A181D",
"O c #19181E",
"+ c #1B1B1F",
"@ c #1C1B1E",
"# c #1E1C1D",
"$ c #2E2C23",
"% c #333235",
"& c #45402D",
"* c #56544E",
"= c #815F31",
"- c #81602E",
"; c #9F7435",
": c #AA7933",
"> c #AA7A33",
", c #FDAF40",
"< c #FBB041",
"1 c #FCB040",
"2 c #FDB040",
"3 c #FDB140",
"4 c #FDB041",
"5 c #FEB041",
"6 c #F7E060",
"7 c #F8E664",
"8 c #F7EB67",
"9 c #F8EB67",
"0 c #F8EB68",
"q c #F8EB69",
"w c #F9EB69",
"e c #F8EC68",
"r c #F8EC69",
"t c #828281",
"y c #828184",
"u c #828284",
"i c #848185",
"p c #F9EF84",
"a c #FAEF88",
"s c #FBF3A7",
"d c #D2D2D2",
"f c #D2D2D3",
"g c #FBF8C7",
"h c #FCF7C8",
"j c #FCF7C9",
"k c #FEFDF8",
"l c #FFFDFE",
"z c white",
"x c None",
/* pixels */
"xxxxxxxxxxxxxxxxxxxxxxxxxxxxxxxxxxxxxxxxxxxxxxxxxxxxxxxxxxxxxxxx",
"xxxxxxxxxxxxxxxxxxxxxxxxxxxxxxxxxxxxxxxxxxxxxxxxxxxxxxxxxxxxxxxx",
"xxxxxxxxxxxxxxxxxxxxxxxxxxxxxxxxxxxxxxxxxxxxxxxxxxxxxxxxxxxxxxxx",
"xxxxxxxxxxxxxxxxxxxxxxxxxxxxxxxxxxxxxxxxxxxxxxxxxxxxxxxxxxxxxxxx",
"xxxxxxxxxxxxxxxxxxxxxxxxxxxxxd....xxxxxxxxxxxxxxxxxxxxxxxxxxxxxx",
"xxxxxxxxxxxxxxxxxxxxxxxxxxxxxf....xxxxxxxxxxxxxxxxxxxxxxxxxxxxxx",
"xxxxxxxxxxxxxxxxxxxxxxxxxxxxxf.99.xxxxxxxxxxxxxxxxxxxxxxxxxxxxxx",
"xxxxxxxxxxxxxxxxxxxxxxxxxxxxxf.99.xxxxxxxxxxxxxxxxxxxxxxxxxxxxxx",
"xxxxxxxxxxxxxxxxxxxxxxxxxxx....99....xxxxxxxxxxxxxxxxxxxxxxxxxxx",
"xxxxxxxxxxxxxxxxxxxxxxxxxxx....99....xxxxxxxxxxxxxxxxxxxxxxxxxxx",
"xxxxxxxxxxxxxxxxxxxxxxxxxxx....99....xxxxxxxxxxxxxxxxxxxxxxxxxxx",
"xxxxxxxxxxxxxxxxxxxxxxxxxxx....99....xxxxxxxxxxxxxxxxxxxxxxxxxxx",
"xxxxxxxxxxxxxxxxxxxxxxxxxxx....99....xxxxxxxxxxxxxxxxxxxxxxxxxxx",
"xxxxxxxxxxxxxxxxxxxxxxxxxxx..&9ll9#..xxxxxxxxxxxxxxxxxxxxxxxxxxx",
"xxxxxxxxxxxxxxxxxxxxxxx......*lll9#...xxxxxxxxxxxxxxxxxxxxxxxxxx",
"xxxxxxxxxxxxxxxxxxxxxxx......*lll9#...xxxxxxxxxxxxxxxxxxxxxxxxxx",
"xxxxxxxxxxxxxxxxxxxxxxx....99pl999999.xxxxxxxxxxxxxxxxxxxxxxxxxx",
"xxxxxxxxxxxxxxxxxxxxxxx....wwal999999.xxxxxxxxxxxxxxxxxxxxxxxxxx",
"xxxxxxxxxxxxxxxxxxxxxxx....llll999999......xxxxxxxxxxxxxxxxxxxxx",
"xxxxxxxxxxxxxxxxxxxxxxx....llll999999......xxxxxxxxxxxxxxxxxxxxx",
"xxxxxxxxxxxxxxxxxxx....9999lll99999999.........xxxxxxxxxxxxxxxxx",
"xxxxx...............$999999lll9999999999999@..............Xxxxxx",
"xxxxx...............$999999lll9999999999999@..............Xxxxxx",
"xxx... 11111eeeeezzzzzzllllqqq9999999999999eezzeeeee1111112..xxx",
"xxx... 11111eeeeezzzzzzllllqqq9999999999999eezzeeeee1111112..xxx",
"xxx... 11111eeeeezzzzzzllllqqq9999999999999eezzeeeee1111112..xxx",
"xxx... 11111eeeeezzzzzzllllqqq9999999999999eezzeeeee1111112..xxx",
"xxx..:>111119ghj9ssssssssss999999999999999999sshhhh911111=-..xxx",
"xxx..41111119zzl9999999999999999999999999999999zzzz911111....xxx",
"xxx..41111119zzl9999999999999999999999999999999zzzz911111....xxx",
"xxxxx. 11111109999999999999999999999999999999999999111111.Xxxxxx",
"xxxxxxx.....111,999999999999999999999999999999995111.....xxxxxxx",
"xxxxxxx.....111,999999999999999999999999999999995111.....xxxxxxx",
"xxxxxxxxxxxx.11,99999999999999999999999999999111113.xxxxxxxxxxxx",
"xxxxxxxxxxxxx..O19999999999999999999999999999111o..xxxxxxxxxxxxx",
"xxxxxxxxxxxxx..O19999999999999999999999999999111o..xxxxxxxxxxxxx",
"xxxxxxxxxxxxxuut;9999999999999999999999999999;;;iuyxxxxxxxxxxxxx",
"xxxxxxxxxxxxxxxx.rr99999999999999999999999999...xxxxxxxxxxxxxxxx",
"xxxxxxxxxxxxxxxx.rr99999999999999999999999999...xxxxxxxxxxxxxxxx",
"xxxxxxxxxxxxxxxx.rr99999999999999999999999999...xxxxxxxxxxxxxxxx",
"xxxxxxxxxxxxxxxx.rr99999999999999999999999999...xxxxxxxxxxxxxxxx",
"xxxxxxxxxxxxxxxx...9999999999999999999999999911.xxxxxxxxxxxxxxxx",
"xxxxxxxxxxxxxxxx...9999999999999999999999999911.xxxxxxxxxxxxxxxx",
"xxxxxxxxxxxxxxxx.99zk99999999999999999999999911.xxxxxxxxxxxxxxxx",
"xxxxxxxxxxxxxxxx.99zk99999999999999999999999911.xxxxxxxxxxxxxxxx",
"xxxxxxxxxxxxxxxx.99zk99999999999999999999999911.xxxxxxxxxxxxxxxx",
"xxxxxxxxxxxxxxxx.99zk99999999999911119999999911.xxxxxxxxxxxxxxxx",
"xxxxxxxxxxxxxxxx.99zk99999999998811119999999911.xxxxxxxxxxxxxxxx",
"xxxxxxxxxxxxxxxx.99999999999961..11111111111111....xxxxxxxxxxxxx",
"xxxxxxxxxxxxxxxx.99999999999961..11111111111111....xxxxxxxxxxxxx",
"xxxxxxxxxxxxxxxx.9997111111..........11111111111o..xxxxxxxxxxxxx",
"xxxxxxxxxxxxxxxx.111111......%xxxx+........<1111o..xxxxxxxxxxxxx",
"xxxxxxxxxxxxxxxx.111111......%xxxx+........<1111o..xxxxxxxxxxxxx",
"xxxxxxxxxxxxxxxx.111111......%xxxx+........<1111o..xxxxxxxxxxxxx",
"xxxxxxxxxxxxxxxx.111111......%xxxx+........<1111o..xxxxxxxxxxxxx",
"xxxxxxxxxxxxxxxx.111111......%xxxx+........<1111o..xxxxxxxxxxxxx",
"xxxxxxxxxxxxx..O111....xxxxxxxxxxxxxxx.........1o..xxxxxxxxxxxxx",
"xxxxxxxxxxxxx..O111....xxxxxxxxxxxxxxx.........1o..xxxxxxxxxxxxx",
"xxxxxxxxxxxxxxxx...xxxxxxxxxxxxxxxxxxxxxxxxxx......xxxxxxxxxxxxx",
"xxxxxxxxxxxxxxxx...xxxxxxxxxxxxxxxxxxxxxxxxxx......xxxxxxxxxxxxx",
"xxxxxxxxxxxxxxxxxxxxxxxxxxxxxxxxxxxxxxxxxxxxxxxxxxxxxxxxxxxxxxxx",
"xxxxxxxxxxxxxxxxxxxxxxxxxxxxxxxxxxxxxxxxxxxxxxxxxxxxxxxxxxxxxxxx",
"xxxxxxxxxxxxxxxxxxxxxxxxxxxxxxxxxxxxxxxxxxxxxxxxxxxxxxxxxxxxxxxx",
"xxxxxxxxxxxxxxxxxxxxxxxxxxxxxxxxxxxxxxxxxxxxxxxxxxxxxxxxxxxxxxxx"
};
