/* XPM */
static char *result[] = {
/* columns rows colors chars-per-pixel */
"64 64 49 1 ",
"  c #18171A",
". c #18171C",
"X c #18181C",
"o c #1A181D",
"O c #19181E",
"+ c #1B1B1F",
"@ c #1C1B1E",
"# c #1E1C1D",
"$ c #2E2C23",
"% c #333235",
"& c #45402D",
"* c #56544E",
"= c #815F31",
"- c #81602E",
"; c #9F7435",
": c #AA7933",
"> c #AA7A33",
", c #FDAF40",
"< c #FBB041",
"1 c #FCB040",
"2 c #FDB040",
"3 c #FDB140",
"4 c #FDB041",
"5 c #FEB041",
"6 c #F7E060",
"7 c #F8E664",
"8 c #F7EB67",
"9 c #F8EB67",
"0 c #F8EB68",
"q c #F8EB69",
"w c #F9EB69",
"e c #F8EC68",
"r c #F8EC69",
"t c #828281",
"y c #828184",
"u c #828284",
"i c #848185",
"p c #F9EF84",
"a c #FAEF88",
"s c #FBF3A7",
"d c #D2D2D2",
"f c #D2D2D3",
"g c #FBF8C7",
"h c #FCF7C8",
"j c #FCF7C9",
"k c #FEFDF8",
"l c #FFFDFE",
"z c white",
"x c None",
/* pixels */
"xxxxxxxxxxxxxxxxxxxxxxxxxxxxxxxxxxxxxxxxxxxxxxxxxxxxxxxxxxxxxxxx",
"xxxxxxxxxxxxxxxxxxxxxxxxxxxxxxxxxxxxxxxxxxxxxxxxxxxxxxxxxxxxxxxx",
"xxxxxxxxxxxxxxxxxxxxxxxxxxxxxd....xxxxxxxxxxxxxxxxxxxxxxxxxxxxxx",
"xxxxxxxxxxxxxxxxxxxxxxxxxxxxxf....xxxxxxxxxxxxxxxxxxxxxxxxxxxxxx",
"xxxxxxxxxxxxxxxxxxxxxxxxxxxxxf.99.xxxxxxxxxxxxxxxxxxxxxxxxxxxxxx",
"xxxxxxxxxxxxxxxxxxxxxxxxxxxxxf.99.xxxxxxxxxxxxxxxxxxxxxxxxxxxxxx",
"xxxxxxxxxxxxxxxxxxxxxxxxxxx....99....xxxxxxxxxxxxxxxxxxxxxxxxxxx",
"xxxxxxxxxxxxxxxxxxxxxxxxxxx....99....xxxxxxxxxxxxxxxxxxxxxxxxxxx",
"xxxxxxxxxxxxxxxxxxxxxxxxxxx....99....xxxxxxxxxxxxxxxxxxxxxxxxxxx",
"xxxxxxxxxxxxxxxxxxxxxxxxxxx....99....xxxxxxxxxxxxxxxxxxxxxxxxxxx",
"xxxxxxxxxxxxxxxxxxxxxxxxxxx....99....xxxxxxxxxxxxxxxxxxxxxxxxxxx",
"xxxxxxxxxxxxxxxxxxxxxxxxxxx....99....xxxxxxxxxxxxxxxxxxxxxxxxxxx",
"xxxxxxxxxxxxxxxxxxxxxxxxxxx..&9ll9#..xxxxxxxxxxxxxxxxxxxxxxxxxxx",
"xxxxxxxxxxxxxxxxxxxxxx.......*lll9#...xxxxxxxxxxxxxxxxxxxxxxxxxx",
"xxxxxxxxxxxxxxxxxxxxxx.......*lll9#...xxxxxxxxxxxxxxxxxxxxxxxxxx",
"xxxxxxxxxxxxxxxxxxxxxx.....99pl999999.xxxxxxxxxxxxxxxxxxxxxxxxxx",
"xxxxxxxxxxxxxxxxxxxxxx.....wwal999999.xxxxxxxxxxxxxxxxxxxxxxxxxx",
"xxxxxxxxxxxxxxxxxxxxxx.....llll999999.......xxxxxxxxxxxxxxxxxxxx",
"xxxxxxxxxxxxxxxxxxxxxx.....llll999999.......xxxxxxxxxxxxxxxxxxxx",
"xxxxxxxxxxxxxxxxxx....99999lll99999999..........xxxxxxxxxxxxxxxx",
"xxx................$9999999lll99999999999999@...............Xxxx",
"xxx................$9999999lll99999999999999@...............Xxxx",
"x... 111111eeeeezzzzzzlllllqqq99999999999999eezzeeeee11111112..x",
"x... 111111eeeeezzzzzzlllllqqq99999999999999eezzeeeee11111112..x",
"x... 111111eeeeezzzzzzlllllqqq99999999999999eezzeeeee11111112..x",
"x... 111111eeeeezzzzzzlllllqqq99999999999999eezzeeeee11111112..x",
"x... 111111eeeeezzzzzzlllllqqq99999999999999eezzeeeee11111112..x",
"x..:>1111119ghj9sssssssssss9999999999999999999sshhhh9111111=-..x",
"x..411111119zzl999999999999999999999999999999999zzzz9111111....x",
"x..411111119zzl999999999999999999999999999999999zzzz9111111....x",
"xxx. 111111109999999999999999999999999999999999999991111111.Xxxx",
"xxxxx......111,99999999999999999999999999999999995111......xxxxx",
"xxxxx......111,99999999999999999999999999999999995111......xxxxx",
"xxxxxxxxxxx.11,9999999999999999999999999999999111113.xxxxxxxxxxx",
"xxxxxxxxxxxx..O1999999999999999999999999999999111o..xxxxxxxxxxxx",
"xxxxxxxxxxxx..O1999999999999999999999999999999111o..xxxxxxxxxxxx",
"xxxxxxxxxxxxuut;999999999999999999999999999999;;;iuyxxxxxxxxxxxx",
"xxxxxxxxxxxxxxx.rr9999999999999999999999999999...xxxxxxxxxxxxxxx",
"xxxxxxxxxxxxxxx.rr9999999999999999999999999999...xxxxxxxxxxxxxxx",
"xxxxxxxxxxxxxxx.rr9999999999999999999999999999...xxxxxxxxxxxxxxx",
"xxxxxxxxxxxxxxx.rr9999999999999999999999999999...xxxxxxxxxxxxxxx",
"xxxxxxxxxxxxxxx.rr9999999999999999999999999999...xxxxxxxxxxxxxxx",
"xxxxxxxxxxxxxxx...999999999999999999999999999911.xxxxxxxxxxxxxxx",
"xxxxxxxxxxxxxxx...999999999999999999999999999911.xxxxxxxxxxxxxxx",
"xxxxxxxxxxxxxxx.99zk9999999999999999999999999911.xxxxxxxxxxxxxxx",
"xxxxxxxxxxxxxxx.99zk9999999999999999999999999911.xxxxxxxxxxxxxxx",
"xxxxxxxxxxxxxxx.99zk9999999999999999999999999911.xxxxxxxxxxxxxxx",
"xxxxxxxxxxxxxxx.99zk9999999999999111199999999911.xxxxxxxxxxxxxxx",
"xxxxxxxxxxxxxxx.99zk9999999999988111199999999911.xxxxxxxxxxxxxxx",
"xxxxxxxxxxxxxxx.999999999999961..111111111111111....xxxxxxxxxxxx",
"xxxxxxxxxxxxxxx.999999999999961..111111111111111....xxxxxxxxxxxx",
"xxxxxxxxxxxxxxx.99971111111..........111111111111o..xxxxxxxxxxxx",
"xxxxxxxxxxxxxxx.111111.......%xxxx+.........<1111o..xxxxxxxxxxxx",
"xxxxxxxxxxxxxxx.111111.......%xxxx+.........<1111o..xxxxxxxxxxxx",
"xxxxxxxxxxxxxxx.111111.......%xxxx+.........<1111o..xxxxxxxxxxxx",
"xxxxxxxxxxxxxxx.111111.......%xxxx+.........<1111o..xxxxxxxxxxxx",
"xxxxxxxxxxxxxxx.111111.......%xxxx+.........<1111o..xxxxxxxxxxxx",
"xxxxxxxxxxxxxxx.111111.......%xxxx+.........<1111o..xxxxxxxxxxxx",
"xxxxxxxxxxxx..O111....xxxxxxxxxxxxxxxx..........1o..xxxxxxxxxxxx",
"xxxxxxxxxxxx..O111....xxxxxxxxxxxxxxxx..........1o..xxxxxxxxxxxx",
"xxxxxxxxxxxxxxx...xxxxxxxxxxxxxxxxxxxxxxxxxxxx......xxxxxxxxxxxx",
"xxxxxxxxxxxxxxx...xxxxxxxxxxxxxxxxxxxxxxxxxxxx......xxxxxxxxxxxx",
"xxxxxxxxxxxxxxxxxxxxxxxxxxxxxxxxxxxxxxxxxxxxxxxxxxxxxxxxxxxxxxxx",
"xxxxxxxxxxxxxxxxxxxxxxxxxxxxxxxxxxxxxxxxxxxxxxxxxxxxxxxxxxxxxxxx"
};
