/* XPM */
static char *result[] = {
/* columns rows colors chars-per-pixel */
"64 64 29 1 ",
"  c #18171C",
". c #18181C",
"X c #1A181D",
"o c #19181E",
"O c #1C1B1E",
"+ c #1E1C1D",
"@ c #2E2C23",
"# c #45402D",
"$ c #56544E",
"% c #FDAF40",
"& c #FCB040",
"* c #FDB140",
"= c #FDB041",
"- c #FEB041",
"; c #F7E060",
": c #F8E664",
"> c #F7EB67",
", c #F8EB67",
"< c #F8EB68",
"1 c #F9EB69",
"2 c #828284",
"3 c #F9EF84",
"4 c #FAEF88",
"5 c #D2D2D2",
"6 c #D2D2D3",
"7 c #FEFDF8",
"8 c #FFFDFE",
"9 c white",
"0 c None",
/* pixels */
"0000000000000000000000000000000000000000000000000000000000000000",
"0000000000000000000000000000000000000000000000000000000000000000",
"0000000000000000000000000000000000000000000000000000000000000000",
"0000000000000000000000000000000000000000000000000000000000000000",
"0000000000000000000000000000000000000000000000000000000000000000",
"0000000000000000000000000000000000000000000000000000000000000000",
"0000000000000000000000000000000000000000000000000000000000000000",
"0000000000000000000000000000000000000000000000000000000000000000",
"0000000000000000000000000000000000000000000000000000000000000000",
"0000000000000000000000000000000000000000000000000000000000000000",
"0000000000000000000000000000000000000000000000000000000000000000",
"0000000000000000000000000000000000000000000000000000000000000000",
"0000000000000000000000000000000000000000000000000000000000000000",
"0000000000000000000000000000000000000000000000000000000000000000",
"0000000000000000000000000000000000000000000000000000000000000000",
"0000000000000000000000000000000000000000000000000000000000000000",
"000000000000000000000000000005    000000000000000000000000000000",
"000000000000000000000000000006    000000000000000000000000000000",
"000000000000000000000000000006 ,, 000000000000000000000000000000",
"000000000000000000000000000  #,88,+ 0000000000000000000000000000",
"000000000000000000000000000  $888,+ 0000000000000000000000000000",
"000000000000000000000000000  $888,+ 0000000000000000000000000000",
"000000000000000000000000000 ,38,,,,,0000000000000000000000000000",
"000000000000000000000000000 148,,,,,0000000000000000000000000000",
"0000000000000000000000000002888,,,,, 000000000000000000000000000",
"0000000000000000000000000002888,,,,, 000000000000000000000000000",
"0000000000000000000000000  288,,,,,,     00000000000000000000000",
"00000000000000000         @888,,,,,,,O        .00000000000000000",
"000000000000000  =,998,,,,,,,,,,,,,,,,,,,9999    000000000000000",
"000000000000000  =,998,,,,,,,,,,,,,,,,,,,9999    000000000000000",
"00000000000000000 &<,,,,,,,,,,,,,,,,,,,,,,,,, .00000000000000000",
"000000000000000000&&&%,,,,,,,,,,,,,,,,,,,,-&&0000000000000000000",
"000000000000000000&&&%,,,,,,,,,,,,,,,,,,,,-&&0000000000000000000",
"000000000000000000 &&%,,,,,,,,,,,,,,,,,&&&&&*0000000000000000000",
"0000000000000000000  o&,,,,,,,,,,,,,,,,&&&X  0000000000000000000",
"0000000000000000000  o&,,,,,,,,,,,,,,,,&&&X  0000000000000000000",
"0000000000000000000000   ,,,,,,,,,,,,,,&& 0000000000000000000000",
"0000000000000000000000 ,,97,,,,,,,,,,,,&& 0000000000000000000000",
"0000000000000000000000 ,,97,,,,,,,,,,,,&& 0000000000000000000000",
"0000000000000000000000 ,,97,,,,,,,,,,,,&& 0000000000000000000000",
"0000000000000000000000 ,,97,,,,,,&&&,,,&& 0000000000000000000000",
"0000000000000000000000 ,,97,,,,>>&&&,,,&& 0000000000000000000000",
"0000000000000000000000 ,,,,,,;&  &&&&&&&&    0000000000000000000",
"0000000000000000000000 ,,,,,,;&  &&&&&&&&    0000000000000000000",
"0000000000000000000000 ,,,:         &&&&&&X  0000000000000000000",
"0000000000000000000  o&&&  000000000     &X  0000000000000000000",
"0000000000000000000000   00000000000000      0000000000000000000",
"0000000000000000000000   00000000000000      0000000000000000000",
"0000000000000000000000000000000000000000000000000000000000000000",
"0000000000000000000000000000000000000000000000000000000000000000",
"0000000000000000000000000000000000000000000000000000000000000000",
"0000000000000000000000000000000000000000000000000000000000000000",
"0000000000000000000000000000000000000000000000000000000000000000",
"0000000000000000000000000000000000000000000000000000000000000000",
"0000000000000000000000000000000000000000000000000000000000000000",
"0000000000000000000000000000000000000000000000000000000000000000",
"0000000000000000000000000000000000000000000000000000000000000000",
"0000000000000000000000000000000000000000000000000000000000000000",
"0000000000000000000000000000000000000000000000000000000000000000",
"0000000000000000000000000000000000000000000000000000000000000000",
"0000000000000000000000000000000000000000000000000000000000000000",
"0000000000000000000000000000000000000000000000000000000000000000",
"0000000000000000000000000000000000000000000000000000000000000000",
"0000000000000000000000000000000000000000000000000000000000000000"
};
