/* XPM */
static char *_e16c42100a24ee4b89bf91be04a79bddSSRq0J0hBRUUCFH[] = {
/* columns rows colors chars-per-pixel */
"64 64 36 1 ",
"  c None",
". c #1E1111",
"X c #1C1414",
"o c #181818",
"O c #191919",
"+ c gray10",
"@ c #1B1B1B",
"# c #1F1818",
"$ c #1E1919",
"% c #1C1A1A",
"& c #1D1A1A",
"* c #281717",
"= c #2F1717",
"- c #201919",
"; c #231919",
": c #251818",
"> c #231C1C",
", c #251C1C",
"< c #281818",
"1 c #2A1D1D",
"2 c #301616",
"3 c #301717",
"4 c #3D1515",
"5 c gray13",
"6 c #352020",
"7 c #3A2121",
"8 c #3C2222",
"9 c #980B0B",
"0 c #941515",
"q c #B10909",
"w c #B30808",
"e c #BE0D0D",
"r c #E10303",
"t c #E80202",
"y c #F40101",
"u c red",
/* pixels */
"                        OOOOOOOOOOOOOOOO                        ",
"                     OOOOOOOOOO3$OOOOOOOOOO                     ",
"                    OOuuuuuuuuuuuuuuuuuuuOOO                    ",
"                   OuuuuuuuuuuuuuuuuuuuuuuuOO                   ",
"                   OuuuuuuuuuuuuuuuuuuuuuuuuO                   ",
"                   3uuuuuuuuu333333uuuuuuuuuO                   ",
"                   3uuuuuuu3388888833uuuuuuuO                   ",
"                   3uuuuuu=8888888888=uuuuuuO                   ",
"                   9uuuuu38888888888883uuuuu9                   ",
"                   uuuuu3888888888888883uuuuu                   ",
"                   uuuuu3888888888888883uuuuu                   ",
"                  Ouuuuu3888888888888883uuuuuO                  ",
"                  Ouuuuu3888888888888883uuuuuO                  ",
"                  Ouuuuu3888888888888883uuuuuO                  ",
"                  Ouuuuu3888888888888883uuuuuO                  ",
"                  Ouuuuuu33333333333333uuuuuuO                  ",
"                  OuuuuuuuuuuuuuuuuuuuuuuuuuuO                  ",
"                  Ouuu<3uuuuuuuuuuuuuuuu4<uuuO                  ",
"                  Ouu383uuuuuuuuuuuuuuuu=83uuO                  ",
"                   uu883uuuuuuuuuuuuuuuu;88uu                   ",
"                   uu883uuuuuuuuuuuuuuuu$88uu                   ",
"                   uu883uuuuuuuuuuuuuuuu>88uu                   ",
"                   uu883uuuuuuuuuuuuuuuu188uu                   ",
"                   uu..3uuuuuuuuuuuuuuuuX..uu                   ",
"                   uu883uuuuuuuuuuuuuuuu188uu                   ",
"                   uu883uuuuuuuuuuuuuuuu,88uu                   ",
"                   uu883uuuuuuuuuuuuuuuu$88uu                   ",
"                   uu883uuuuuuuuuuuuuuuu:88uu                   ",
"                   uu883uuuuuuuuuuuuuuuu388uu                   ",
"                   uu883uuuuuuuuuuuuuuuu388uu                   ",
"                   uu88uuuuuuuuuuuuuuuuuu88uu                   ",
"                   uu88uuuuuuuuuuuuuuuuuu88uu                   ",
"                   uu86uuuuuuuuuuuuuuuuuu68uu                   ",
"                   uu8;uuuuuuuuuuuuuuuuuu$8uu                   ",
"                   uu8=uuuuuuuuuuuuuuuuuu=8uu                   ",
"                   uu8uu33333333=3333333uu8uu                   ",
"                OOOuu8uu8888888888888888uu8uuOOO                ",
"                OrOuu=u=88888888888888883u=uuOrO                ",
"                  Ouuuu388888888888888888uuuu$                  ",
"                   uuu38888888888888888883uuu                   ",
"                   uuu38888888888888888883uuu                   ",
"                   uuu38888888888888888883uuu                   ",
"                   uuu38888888888888888883uuu                   ",
"                   uuu38888888888888888883uuu                   ",
"                   uueu388888888888888883ueuu                   ",
"                   uu0u388888888888888883u0uu                   ",
"                   uu0uu3888888888888883uu0uu                   ",
"                  Ouu0uuuu333333333333uuuu0uuO                  ",
"                  Ouu0uuuuuuuuuuuuuuuuuuuu0uuO                  ",
"                  Ouu00u0uuuuuuuuuuuuuu0u00uuO                  ",
"                  Ouuu0u0uuuuuuuuuuuuuu0u0uuuO                  ",
"                  Ouuu0uu0uuuuuuuuuuuu0uu0uuuO                  ",
"                  Ouuu0Ou0uuuuuuuuuuuu0uu0uuuO                  ",
"                  Ouuu03u0uuuuuuuuuuuu0uu0uuuO                  ",
"                   uuu03uu0uuuuuuuuuu0uu00uuu                   ",
"                   uuu033u0uuuuuuuuuu0uu0uuuu                   ",
"                   uuu0u3uu0uuuuuuuu0uuu0uuuy                   ",
"                   uuuu0u==0uuuuuuuu0uu00uuuO                   ",
"                   Ouuuu0uu0uuuuuuuu0uu0uuuuO                   ",
"                    uOOt00uu0uuuuuu0uuu0tOOO                    ",
"                     u@5u00u0uuuuuu0uu0u5OO                     ",
"                       <Ouu00uuuuuu000uOO                       ",
"                        OuuuuuuuuuuuuuwO                        ",
"                           OwuuuuuuO@                           "
};
