/* XPM */
static char *_4165958b99b4832ed30f7264eb8ae6fL6X98xbpAL7oYkbL[] = {
/* columns rows colors chars-per-pixel */
"64 64 36 1 ",
"  c None",
". c #1E1111",
"X c #1C1414",
"o c #181818",
"O c #191919",
"+ c gray10",
"@ c #1B1B1B",
"# c #1F1818",
"$ c #1E1919",
"% c #1C1A1A",
"& c #1D1A1A",
"* c #281717",
"= c #2F1717",
"- c #201919",
"; c #231919",
": c #251818",
"> c #231C1C",
", c #251C1C",
"< c #281818",
"1 c #2A1D1D",
"2 c #301616",
"3 c #301717",
"4 c #3D1515",
"5 c gray13",
"6 c #352020",
"7 c #3A2121",
"8 c #3C2222",
"9 c #980B0B",
"0 c #941515",
"q c #B10909",
"w c #B30808",
"e c #BE0D0D",
"r c #E10303",
"t c #E80202",
"y c #F40101",
"u c red",
/* pixels */
"                                                                ",
"                                                                ",
"                                                                ",
"                                                                ",
"                                                                ",
"                                                                ",
"                                                                ",
"                                                                ",
"                                                                ",
"                                                                ",
"                                                                ",
"                                                                ",
"                                                                ",
"                                                                ",
"                                                                ",
"                                                                ",
"                          OO                                    ",
"                          rO                                    ",
"          OOOOOOO        OOO                 OOOOOOOO           ",
"     Ouuuuuuuuuuuuuuuuuuuuuuuuuuuuuuuuuuuuuuuuuuuuuuuuu9333OO   ",
"    uuuuuuuuuuuuuuuuuuuuuuuuuuuuuuuuuuuuuuuuuuuuuuuuuuuuuuuuuO  ",
"   uOuuuuuuuuu00000euuuuuu=7888888888888.88883uuuuuuuuuuuuuuuOO ",
"   OOuu00000000uuuuu33333uuuu3-688888888.88888<uuuuuuuuuuuuuuuO ",
"  *5tu0u333Ouuuuuu338888833uuuuuuu3333333333333uuuuuuuuuuuuuuuO ",
" OOu00u33uuuu00uu388888888883uuuuuuuuuuuuuuuuuuuu333333uuuuuuuOO",
" uu00u3uuu000uuuu888888888883uuuuuuuuuuuuuuuuuuu38888883uuuuuuOO",
" uu0uu=u00uuuuuu3888888888883uuuuuuuuuuuuuuuuuuu388888883uuuuuOO",
"Ou0uu000uuuuuuuu3888888888883uuuuuuuuuuuuuuuuuuu3888888883uuuuOO",
"qu000uuuuuuuuuuu3888888888883uuuuuuuuuuuuuuuuuuu3888888883uuuuOO",
"uuuuuuuuuuuuuuuu3888888888883uuuuuuuuuuuuuuuuuuu38888888883uuuOO",
"uuuuuuuuuuuuuuuu3888888888883uuuuuuuuuuuuuuuuuuu38888888883uuuOO",
"uuuuuuuuuuuuuuuu3888888888883uuuuuuuuuuuuuuuuuuu38888888883uuu=O",
"uuuuuuuuuuuuuuuu3888888888883uuuuuuuuuuuuuuuuuuu38888888883uuu%O",
"uuuuuuuuuuuuuuuu3888888888883uuuuuuuuuuuuuuuuuuu38888888883uuuOO",
"uuuuuuuuuuuuuuuu3888888888883uuuuuuuuuuuuuuuuuuu38888888883uuuOO",
"Ou000uuuuuuuuuuu3888888888883uuuuuuuuuuuuuuuuuuu3888888883uuuuOO",
"Ou0uu000uuuuuuuu3888888888883uuuuuuuuuuuuuuuuuuu388888888=uuuuOO",
" u0uuuuu00uuuuuu3888888888883uuuuuuuuuuuuuuuuuuu388888883uuuuuOO",
" wu0uuuuuu000uuuu888888888883uuuuuuuuuuuuuuuuuuu38888883uuuuuuOO",
" OOu000uuuuuu00uu388888888883uuuuuuuuuuuuuuuuuuuu333333uuuuuuuOO",
"  O5tu0000uuuuuuuu338888883uuuuuuu33:%,1X1>%-34uuuuuuuuuuuuuuuO ",
"   @Ouuuu000000uuuuu33333uuuu3-688888888.88888<uuuuuuuuuuuuuuOO ",
"   OOuuuuuuuuu00000euuuuuu=7888888888888.88883uuuuuuuuuuuuuuuOO ",
"    OuuuuuuuuuuuuuuuuuuuuuuuuuuuuuuuuuuuuuuuuuuuuuuuuuuuuuuuOO  ",
"     OOyuuuuuuuuuuuuuuuuuuuuuuuuuuuuuuuuuuuuuuuuuuuuuuu9OOOOO   ",
"          OOOOOOO        %OO                 OOOOOOOO           ",
"                          rO                                    ",
"                          OO                                    ",
"                                                                ",
"                                                                ",
"                                                                ",
"                                                                ",
"                                                                ",
"                                                                ",
"                                                                ",
"                                                                ",
"                                                                ",
"                                                                ",
"                                                                ",
"                                                                ",
"                                                                ",
"                                                                ",
"                                                                ",
"                                                                "
};
