/* XPM */
static char *_8fe900922de4f67f71c371de4976190FiJSvCuTwcjyKxNd[] = {
/* columns rows colors chars-per-pixel */
"64 64 36 1 ",
"  c None",
". c #1E1111",
"X c #1C1414",
"o c #181818",
"O c #191919",
"+ c gray10",
"@ c #1B1B1B",
"# c #1F1818",
"$ c #1E1919",
"% c #1C1A1A",
"& c #1D1A1A",
"* c #281717",
"= c #2F1717",
"- c #201919",
"; c #231919",
": c #251818",
"> c #231C1C",
", c #251C1C",
"< c #281818",
"1 c #2A1D1D",
"2 c #301616",
"3 c #301717",
"4 c #3D1515",
"5 c gray13",
"6 c #352020",
"7 c #3A2121",
"8 c #3C2222",
"9 c #980B0B",
"0 c #941515",
"q c #B10909",
"w c #B30808",
"e c #BE0D0D",
"r c #E10303",
"t c #E80202",
"y c #F40101",
"u c red",
/* pixels */
"                           oouuuuuuqo                           ",
"                        @quuuuuuuuuuuuu@                        ",
"                       @ou000uuuuuu00uuo<                       ",
"                     o@5u0uu0uuuuuu0u00u5@u                     ",
"                    oo@t0uuu0uuuuuu0uu00to@u                    ",
"                   ouuuu0uu0uuuuuuuu0uu0uuuuo                   ",
"                   @uuu00uu0uuuuuuuu03=u0uuuu                   ",
"                   yuuu0uuu0uuuuuuuu0uu3u0uuu                   ",
"                   uuuu0uu0uuuuuuuuuu0u330uuu                   ",
"                   uuu00uu0uuuuuuuuuu0uu30uuu                   ",
"                  ouuu0uu0uuuuuuuuuuuu0u30uuu@                  ",
"                  ouuu0uu0uuuuuuuuuuuu0u@0uuuo                  ",
"                  ouuu0uu0uuuuuuuuuuuu0uu0uuuo                  ",
"                  @uuu0u0uuuuuuuuuuuuuu0u0uuuo                  ",
"                  ouu00u0uuuuuuuuuuuuuu0u00uuo                  ",
"                  ouu0uuuuuuuuuuuuuuuuuuuu0uu@                  ",
"                  ouu0uuuu333333333333uuuu0uuo                  ",
"                   uu0uu3888888888888883uu0uu                   ",
"                   uu0u388888888888888883u0uu                   ",
"                   uueu388888888888888883ueuu                   ",
"                   uuu38888888888888888883uuu                   ",
"                   uuu38888888888888888883uuu                   ",
"                   uuu38888888888888888883uuu                   ",
"                   uuu38888888888888888883uuu                   ",
"                   uuu=8888888888888888883uuu                   ",
"                  #uuuu888888888888888883uuuuo                  ",
"                orouu=u=88888888888888883u=uuoro                ",
"                ooouu7uu8888888888888888uu7uuo@o                ",
"                   uu8uu3333333333333333uu8uu                   ",
"                   uu8=uuuuuuuuuuuuuuuuuu38uu                   ",
"                   uu8>uuuuuuuuuuuuuuuuuu-8uu                   ",
"                   uu86uuuuuuuuuuuuuuuuuu68uu                   ",
"                   uu88uuuuuuuuuuuuuuuuuu88uu                   ",
"                   uu88uuuuuuuuuuuuuuuuuu88uu                   ",
"                   uu883uuuuuuuuuuuuuuuu388uu                   ",
"                   uu883uuuuuuuuuuuuuuuu388uu                   ",
"                   uu88:uuuuuuuuuuuuuuuu388uu                   ",
"                   uu88@uuuuuuuuuuuuuuuu388uu                   ",
"                   uu88,uuuuuuuuuuuuuuuu388uu                   ",
"                   uu881uuuuuuuuuuuuuuuu388uu                   ",
"                   uu..Xuuuuuuuuuuuuuuuu3X.uu                   ",
"                   uu881uuuuuuuuuuuuuuuu388uu                   ",
"                   uu88>uuuuuuuuuuuuuuuu388uu                   ",
"                   uu88@uuuuuuuuuuuuuuuu388uu                   ",
"                   uu88-uuuuuuuuuuuuuuuu388uu                   ",
"                  ouu383uuuuuuuuuuuuuuuu383uuo                  ",
"                  ouuu<4uuuuuuuuuuuuuuuu3<uuuo                  ",
"                  ouuuuuuuuuuuuuuuuuuuuuuuuuuo                  ",
"                  @uuuuuu33333333333333uuuuuu@                  ",
"                  ouuuuu3888888888888883uuuuuo                  ",
"                  ouuuuu3888888888888883uuuuuo                  ",
"                  ouuuuu3888888888888883uuuuuo                  ",
"                  @uuuuu3888888888888883uuuuuo                  ",
"                   uuuuu3888888888888883uuuuu                   ",
"                   uuuuu3888888888888883uuuuu                   ",
"                   9uuuuu38888888888883uuuuu9                   ",
"                   ouuuuuu388888888883uuuuuu3                   ",
"                   ouuuuuuu3388888833uuuuuuu3                   ",
"                   @uuuuuuuuu3=3333uuuuuuuuu3                   ",
"                   ouuuuuuuuuuuuuuuuuuuuuuuu@                   ",
"                   oouuuuuuuuuuuuuuuuuuuuuuu@                   ",
"                    o@ouuuuuuuuuuuuuuuuuuuoo                    ",
"                     @@oooo@@oo#=oo@o@@oo@o                     ",
"                        o@oooo@@ooo@oooO                        "
};
