/* XPM */
static char *result[] = {
/* columns rows colors chars-per-pixel */
"64 64 182 2 ",
"   c #040204",
".  c #180204",
"X  c #1C0B0A",
"o  c #280204",
"O  c #380305",
"+  c #390B09",
"@  c #480305",
"#  c #490B09",
"$  c #580305",
"%  c #580B08",
"&  c #4A140F",
"*  c #680304",
"=  c #690B07",
"-  c #770404",
";  c #790C05",
":  c #68150D",
">  c #791509",
",  c #711F0E",
"<  c #7C220D",
"1  c #792C1F",
"2  c #850504",
"3  c #870C05",
"4  c #8D1405",
"5  c #891C0A",
"6  c #9C1605",
"7  c #941C07",
"8  c #9D1C06",
"9  c #8A240C",
"0  c #942308",
"q  c #8A330E",
"w  c #88231C",
"e  c #8B2C1D",
"r  c #AC2507",
"t  c #A12408",
"y  c #A22B0A",
"u  c #AD2C08",
"i  c #A2330D",
"p  c #B13409",
"a  c #BC3508",
"s  c #B83C0A",
"d  c #A13B10",
"f  c #A3351E",
"g  c #B1351C",
"h  c #B23C1D",
"j  c #C53D0A",
"k  c #C63B1E",
"l  c #A9440F",
"z  c #BA430B",
"x  c #B9540E",
"c  c #AC4F18",
"v  c #BC441D",
"b  c #BC5C12",
"n  c #A94520",
"m  c #BD4B20",
"M  c #C4450A",
"N  c #CC460B",
"B  c #C04C0B",
"V  c #CD4D0C",
"C  c #C4540E",
"Z  c #C45C0F",
"A  c #D0540C",
"S  c #DD560A",
"D  c #D25C0C",
"F  c #DD5C0A",
"G  c #CC461F",
"H  c #DC4E10",
"J  c #DD5C1F",
"K  c #C3650F",
"L  c #D1630A",
"P  c #D16C11",
"I  c #C2731D",
"U  c #E0640A",
"Y  c #EC650B",
"T  c #E26C0F",
"R  c #ED6C0E",
"E  c #E2740B",
"W  c #EE740F",
"Q  c #EF7C0F",
"!  c #FC720C",
"~  c #E17C12",
"^  c #FC7C13",
"/  c #C05427",
"(  c #CF5426",
")  c #C15C26",
"_  c #D25D26",
"`  c #D26420",
"'  c #DE6420",
"]  c #DF652D",
"[  c #CE6C31",
"{  c #E16D2E",
"}  c #E27420",
"|  c #E0732E",
" . c #ED7428",
".. c #EF7C29",
"X. c #FC7624",
"o. c #E07C33",
"O. c #CC8C1B",
"+. c #D98413",
"@. c #DF8C17",
"#. c #DB951A",
"$. c #E48412",
"%. c #F08412",
"&. c #FC8513",
"*. c #F28C15",
"=. c #E49419",
"-. c #E29B1C",
";. c #F09419",
":. c #FC941B",
">. c #F19B1B",
",. c #DF8428",
"<. c #DE8C2A",
"1. c #DF942A",
"2. c #DF9D29",
"3. c #F18426",
"4. c #F28C29",
"5. c #F49C27",
"6. c #F39429",
"7. c #F49C3F",
"8. c #DBA429",
"9. c #CCA034",
"0. c #CCB13C",
"q. c #E4A428",
"w. c #E3AC2C",
"e. c #F1A427",
"r. c #FCA328",
"t. c #F4AB2B",
"y. c #E2AD38",
"u. c #F4AC37",
"i. c #F3A538",
"p. c #E4B43A",
"a. c #F1B438",
"s. c #FCB43A",
"d. c #F1BC3E",
"f. c #DC9D41",
"g. c #E48C4D",
"h. c #E09541",
"j. c #F19440",
"k. c #EF9B5F",
"l. c #F6AC4D",
"z. c #E2BC40",
"x. c #E4BC4F",
"c. c #FCBC40",
"v. c #F0A551",
"b. c #F5B550",
"n. c #F2BC50",
"m. c #FCBC51",
"M. c #ECC446",
"N. c #E3C348",
"B. c #EBCB4B",
"V. c #F7C446",
"C. c #F7CB4B",
"Z. c #E9C556",
"A. c #EACD56",
"S. c #F8CD56",
"D. c #F9C458",
"F. c #E3D35D",
"G. c #ECD45A",
"H. c #F8D456",
"J. c #F9DB5B",
"K. c #ECDB60",
"L. c #E9D56C",
"P. c #F8D566",
"I. c #F7DD66",
"U. c #EADC70",
"Y. c #ECE46B",
"T. c #F8E46A",
"R. c #ECEB71",
"E. c #EBEC7F",
"W. c #F9EC71",
"Q. c #F7E57F",
"!. c #F3F37F",
"~. c #FCF47F",
"^. c #ECE480",
"/. c #F9ED81",
"(. c #FAFA83",
"). c #FAF592",
"_. c #FAFB95",
"`. c #FAF6AA",
"'. c #FBFBB3",
"]. c #FBF6C1",
"[. c #FCFBD2",
"{. c None",
/* pixels */
"{.{.{.{.{.{.{.{.{.{.{.{.{.{.{.{.{.{.{.{.{.{.{.{.{.{.{.{.{.{.{.{.{.{.{.{.{.{.{.{.{.{.{.{.{.{.{.{.{.{.{.{.{.{.{.{.{.{.{.{.{.{.{.{.",
"{.{.{.{.{.{.{.{.{.{.{.{.{.{.{.{.{.{.{.{.{.{.{.{.{.{.{.{.{.{.{.{.{.{.{.{.{.{.{.{.{.{.{.{.{.{.{.{.{.{.{.{.{.{.{.{.{.{.{.{.{.{.{.{.",
"{.{.{.{.{.{.{.{.{.{.{.{.{.{.{.{.{.{.{.{.{.{.{.{.{.{.{.{.{.{.{.{.{.{.{.{.{.{.{.{.{.{.{.{.{.{.{.{.{.{.{.{.{.{.{.{.{.{.{.{.{.{.{.{.",
"{.{.{.{.{.{.{.{.{.{.{.{.{.{.{.{.{.{.{.{.{.{.{.{.{.{.{.{.{.{.{.{.{.{.{.{.{.{.{.{.{.{.{.{.{.{.{.{.{.{.{.{.{.{.{.{.{.{.{.{.{.{.{.{.",
"{.{.{.{.{.{.{.{.{.{.{.{.{.{.{.{.{.{.{.{.{.{.{.{.{.{.{.                      {.{.{.{.{.{.{.{.{.{.{.{.{.{.{.{.{.{.{.{.{.{.{.{.{.{.",
"{.{.{.{.{.{.{.{.{.{.{.{.{.{.{.{.{.{.{.{.{.{.{.                                      {.{.{.{.{.{.{.{.{.{.{.{.{.{.{.{.{.{.{.{.{.{.",
"{.{.{.{.{.{.{.{.{.{.{.{.{.{.{.{.{.{.{.{.{.                                      * y     {.{.{.{.{.{.{.{.{.{.{.{.{.{.{.{.{.{.{.{.",
"{.{.{.{.{.{.{.{.{.{.{.{.{.{.{.{.{.{.{.                                          . 5 G %     {.{.{.{.{.{.{.{.{.{.{.{.{.{.{.{.{.{.",
"{.{.{.{.{.{.{.{.{.{.{.{.{.{.{.{.{.      . .               .             O .       . 4 M $       {.{.{.{.{.{.{.{.{.{.{.{.{.{.{.{.",
"{.{.{.{.{.{.{.{.{.{.{.{.{.{.{.{.          . @ > h k G G N M g 7 ; $ .     . O         @ u *       {.{.{.{.{.{.{.{.{.{.{.{.{.{.{.",
"{.{.{.{.{.{.{.{.{.{.{.{.{.{.{.  & 1 c ) M N p t 4 2 2 3 3 4 8 s s p 0 > +   . o         $ 8 @       {.{.{.{.{.{.{.{.{.{.{.{.{.{.",
"{.{.{.{.{.{.{.{.{.{.{.{.{.    {  .T U V t 6 4 V j.n.D.D.n.h._ a a N G t 4 $ . . .         * 2 O         {.{.{.{.{.{.{.{.{.{.{.{.",
"{.{.{.{.{.{.{.{.{.{.{.{.  Y V t $ @ o @ z 7.u.1.~ ~ %.$.*.~ E @.u.m.@.F W ( $ O .           $ $ o         {.{.{.{.{.{.{.{.{.{.{.",
"{.{.{.{.{.{.{.{.{.{.{.  8 * @ o % e h } Q %.4.j.4.;.;.>.s.C.C.s.>.*.-.T.6.R Q n @ O         . @ O           {.{.{.{.{.{.{.{.{.{.",
"{.{.{.{.{.{.{.{.{.{.{.  * * 4 s 8 4 X.5.t.V.I.Y./.W.~.(.(.~.W./.T.H.a.e.W.~.T Q _ * @ .         o .         {.{.{.{.{.{.{.{.{.{.",
"{.{.{.{.{.{.{.{.{.{.  * - 8 3 5 v %.-.I.'.[.[.[.[.[.].[.[.].'.'._.).T.C.s.Q.).$.&._ - $ .         .           {.{.{.{.{.{.{.{.{.",
"{.{.{.{.{.{.{.{.{.  @ $ * f p ' W C.'.[.`._.L.p.N.F.T.W.~.T.F.L.).'.'.~.H.V./._.;.&.V 3 @ o                 .   {.{.{.{.{.{.{.{.",
"{.{.{.{.{.{.{.{.    O 9 g 3 W U I._._.z.+.d.T.I.T./.!.~./.Y.R.~.J.z./.'.W.C.G._.).>.*.S 3 @ . .                   {.{.{.{.{.{.{.",
"{.{.{.{.{.{.{.{.  & y ; $ %.p b.(.G.5.S.B.q.e.V.M.I.(._.'.'.'._._._.~.!.~.J.M.J.(.J.%.Q s $ o O                   {.{.{.{.{.{.{.",
"{.{.{.{.{.{.{.  $ - o ; } ; v.W.M.V.W.I.V.a.C.!.(.'.'.[.[.[.[.[.[.[.'.'.'._.I.V.J.(.a.Q ! 5 o O $                   {.{.{.{.{.{.",
"{.{.{.{.{.{.{.  @   i A - l.I.C.S.(.I.8.M.W.`.'.[.[.[.[.[.'._.).U.U.`.'.[.[.'.).J.T.S.>.T V $ . - o                 {.{.{.{.{.{.",
"{.{.{.{.{.{.  O   X g - i.D.I.H.~.T.@.t.~.].[.[.[.[.'.'.].'.'._.).M.z.Y.!.`.'.'._.I.S.s.Q Y 4 o $ =                   {.{.{.{.{.",
"{.{.{.{.{.{.      ; @ j.~ T.J.~.~.w.).[.[.[.[.'.'._._.'.'.'._.'.`.`.J.;.H.d.2.).]._.W.C.r.^ N $ O t                   {.{.{.{.{.",
"{.{.{.{.{.      O * o.E T.H.~.~.J.(.'.[.[.'._._.!._.'.'._.`.'.'.`._.'.W.-.V.R %.x.'._.W.a.;.U 3 o r .                   {.{.{.{.",
"{.{.{.{.{.      $ i T V.T.J.W.G.K.`.[.[.'._.E.'.[.].'.'.'.'._.!.!.'.`.'.H.c.E F F 0.`.'.W.;.Q 8 @ 7 @                   {.{.{.{.",
"{.{.{.{.{.    o 0 R c.W.a.W.J.a.).[.].].E.!.'.[.'.`._.!.!.)._.'._.(._._.'.y.%.%.W U b._.'.Z.*.M $ > =                   {.{.{.{.",
"{.{.{.{.{.    $ V 3.H.T.V.V.a.d.`.'.'.U._.[.'.'.!.E.p.#.,.=.w.U._.'._.`.W.).5.R *.*.s z._.K.;.F - 2 >                   {.{.{.{.",
"{.{.{.{.    O 4 U V.J.u.V.H.e.(.'.].Y.!.].'._.(.d.E p 8 8 7 8 Z $.R._.(.).F.V.&.s r.z B Y._.H.W ; 3 ;                     {.{.{.",
"{.{.{.{.    @ / :.V.J.~ e.z.+._.'.!.I.[.'._.!.w.A * o   o * - - 7 @.!.(.).I.~.%.8 T W p I /.N.Q h 3 ;                     {.{.{.",
"{.{.{.{.    @ A b.a.V.b.u.*.C.].'.K.'.].!.).B.D @           * * $ r a.(.!.W.p.$.y u r.M 8 H.I.2.A 3 -                     {.{.{.",
"{.{.{.{.  o * A a.d.e.s.c.R T.'.^.T.[./.~.W.e.;             . - * * U J._.~.t.;.V 7 t.P t H.~.V.z 2 *       o             {.{.{.",
"{.{.{.{.  o * } b.b.-.;.c.H !.`.F./.[.Z.(.J.T o               * - @ u d.(.~.t.e.U t u.%.u u.U.H.s 4 $       O             {.{.{.",
"{.{.{.{.  o - 7.d.c.-.$.r.N ).'.H._.'.B.~.C.C                 O * $ 4 r.(.!.e.>.U 5 s.~ 3 $.M.B.z 4 @       o             {.{.{.",
"{.{.{.{.  o $ b.V.c.>.$.*.M ).`.T.'.).d.~.V.B                 . $ @ ; >.~.~.>.%.Y ; S.K 4 F w.A.s 4 @                     {.{.{.",
"{.{.{.{.    @ d.C.t.>.U T A !._.I.`.!.n.(.V.D                   @ @ 5 :./.T.r.T *.* J.i u j q.H.a 7 O     o               {.{.{.",
"{.{.{.{.    O V.C.t.:.D F F W._.J.).!.d.W.S.%.@                 O O p s.T.q.e.N s.i H.3 M g u.P.z t     . .               {.{.{.",
"{.{.{.{.    O D.C.e.%.D A F G.'.d.A.!.p.I.H.t.p                 @ $ ' C.W.d.Q s I u.#.3 M m a.m.~ t     o                 {.{.{.",
"{.{.{.{.    O d.C.;.T T u S a.`.@.@._.C.J.T.V.;.=             o * s r.W.H.d.s T - J.8 t 8 ..H.P 5.=   .                   {.{.{.",
"{.{.{.{.{.  . 6.M.%.V %.2 Q :.).i.e.'.H.a.H.J.a.4.; @ . . . @ ; j ;.G.H.M.K y | i.7.8 r - Q 9.x ` o     .               {.{.{.{.",
"{.{.{.{.{.  . D V.T M &.3 *.T H./.r.=.I.d.a.C.C.a.r.T p y u B %.*.C.H.C.J.s C d e.y 8 u 5 %.m.T 4     o .               {.{.{.{.",
"{.{.{.{.{.    t V.s V F t E W t.!.K *.J.B.a.d.V.J.V.s.;.*.*.>.V.J.w.J.W.p t V ;.L u s * E y.L E o   o O                 {.{.{.{.",
"{.{.{.{.{.    * a.u j s D 8 ;.B B.T.P E C.d.e.d.M.J.H.d.V.V.V.d.H.T.W.l u T &.U s p * t ~ b.W -   . @ . .               {.{.{.{.",
"{.{.{.{.{.{.  O ' A - u W - ;.A 7.W.4.W T >.>.e.;.s.C.M.B.M.C.T.W.1.z s ^ Q F s s ; 7 T O.E G . . O .                 {.{.{.{.{.",
"{.{.{.{.{.{.  . > S * 3 F 8 i *.y d.T.B ! R *.~ *.%.*.>.s.V.u.o.B A U %.D M A p g * ' u.c.Q O . o   .                 {.{.{.{.{.",
"{.{.{.{.{.{.{.  O S ; * 4 V - e.= J z.H.V N F M R F W D D T ' A V R V 8 U 7 Y 4 * ( S.V.T @ o .   .                 {.{.{.{.{.{.",
"{.{.{.{.{.{.{.    , 4 $ $ V y @ 4.@ ~ t.S.R 6 B W p U R U W T D D ~ m t  .u = * F H.j.F O o     .                   {.{.{.{.{.{.",
"{.{.{.{.{.{.{.{.    - - @ $ ( * < B * ` e.M.o.r - p  .s 7 M ' J ] A p 8 - $ l 4.w.b C O .     .                   {.{.{.{.{.{.{.",
"{.{.{.{.{.{.{.{.    O $ @ . = u $ n f $ r ,.u.V.L 8 ; * 3 y g y > $ O O y A d.i.B > . .                           {.{.{.{.{.{.{.",
"{.{.{.{.{.{.{.{.{.    o @ o . > 7 O p y @ $ l 5.@.a.i.z 7 ; = : , i x <.s.1.A p @ O .                           {.{.{.{.{.{.{.{.",
"{.{.{.{.{.{.{.{.{.{.    o O   . 4 4 o = 8 $ O o l 1.L E O.f.v.p.w.@.,.L B t * O O                             {.{.{.{.{.{.{.{.{.",
"{.{.{.{.{.{.{.{.{.{.{.    . .   . % 5 o . @ $ O o . # w q g.k.j.g.[ e $ O o o .                             {.{.{.{.{.{.{.{.{.{.",
"{.{.{.{.{.{.{.{.{.{.{.            . O 4 o     o @ @ O . o O @ @ @ @ @ @ o o                                 {.{.{.{.{.{.{.{.{.{.",
"{.{.{.{.{.{.{.{.{.{.{.{.                @ * .       o @ $ @ O O O O O o                                   {.{.{.{.{.{.{.{.{.{.{.",
"{.{.{.{.{.{.{.{.{.{.{.{.{.                  @ O           o O O o o o .                                 {.{.{.{.{.{.{.{.{.{.{.{.",
"{.{.{.{.{.{.{.{.{.{.{.{.{.{.{.                . O o .                                               {.{.{.{.{.{.{.{.{.{.{.{.{.{.",
"{.{.{.{.{.{.{.{.{.{.{.{.{.{.{.{.                                                                  {.{.{.{.{.{.{.{.{.{.{.{.{.{.{.",
"{.{.{.{.{.{.{.{.{.{.{.{.{.{.{.{.{.                                                              {.{.{.{.{.{.{.{.{.{.{.{.{.{.{.{.",
"{.{.{.{.{.{.{.{.{.{.{.{.{.{.{.{.{.{.{.                                                      {.{.{.{.{.{.{.{.{.{.{.{.{.{.{.{.{.{.",
"{.{.{.{.{.{.{.{.{.{.{.{.{.{.{.{.{.{.{.{.{.                                              {.{.{.{.{.{.{.{.{.{.{.{.{.{.{.{.{.{.{.{.",
"{.{.{.{.{.{.{.{.{.{.{.{.{.{.{.{.{.{.{.{.{.{.{.                                      {.{.{.{.{.{.{.{.{.{.{.{.{.{.{.{.{.{.{.{.{.{.",
"{.{.{.{.{.{.{.{.{.{.{.{.{.{.{.{.{.{.{.{.{.{.{.{.{.{.{.                      {.{.{.{.{.{.{.{.{.{.{.{.{.{.{.{.{.{.{.{.{.{.{.{.{.{.",
"{.{.{.{.{.{.{.{.{.{.{.{.{.{.{.{.{.{.{.{.{.{.{.{.{.{.{.{.{.{.{.{.{.{.{.{.{.{.{.{.{.{.{.{.{.{.{.{.{.{.{.{.{.{.{.{.{.{.{.{.{.{.{.{.",
"{.{.{.{.{.{.{.{.{.{.{.{.{.{.{.{.{.{.{.{.{.{.{.{.{.{.{.{.{.{.{.{.{.{.{.{.{.{.{.{.{.{.{.{.{.{.{.{.{.{.{.{.{.{.{.{.{.{.{.{.{.{.{.{.",
"{.{.{.{.{.{.{.{.{.{.{.{.{.{.{.{.{.{.{.{.{.{.{.{.{.{.{.{.{.{.{.{.{.{.{.{.{.{.{.{.{.{.{.{.{.{.{.{.{.{.{.{.{.{.{.{.{.{.{.{.{.{.{.{."
};
