/* XPM */
static char *f15cc319773a4696d4a601a80e11a99dsOIox7zmIL1SyIBC[] = {
/* columns rows colors chars-per-pixel */
"64 64 174 2 ",
"   c None",
".  c #040204",
"X  c #180204",
"o  c #280204",
"O  c #280F09",
"+  c #380204",
"@  c #3A0F0E",
"#  c #480204",
"$  c #480B08",
"%  c #580204",
"&  c #580B08",
"*  c #58140F",
"=  c #680304",
"-  c #690B07",
";  c #770404",
":  c #790B06",
">  c #69130B",
",  c #781409",
"<  c #7A1C0F",
"1  c #4F2519",
"2  c #5F221A",
"3  c #622C1C",
"4  c #722410",
"5  c #850504",
"6  c #870C05",
"7  c #8A1407",
"8  c #8A1C0B",
"9  c #941505",
"0  c #9C1605",
"q  c #941B07",
"w  c #9D1D06",
"e  c #94230C",
"r  c #872310",
"t  c #A12407",
"y  c #AC2607",
"u  c #AE2C07",
"i  c #A32B0A",
"p  c #A2330B",
"a  c #B23407",
"s  c #BC3507",
"d  c #BD3C07",
"f  c #B33B08",
"g  c #A23C16",
"h  c #AD351D",
"j  c #B24409",
"k  c #B24B0F",
"l  c #B1550B",
"z  c #B25C0F",
"x  c #BE441F",
"c  c #BF640F",
"v  c #B24C24",
"b  c #B86230",
"n  c #CC4C07",
"m  c #C14408",
"M  c #CC4608",
"N  c #C34B08",
"B  c #D44D08",
"V  c #C3530D",
"C  c #CC5308",
"Z  c #C25B0A",
"A  c #CC5C0D",
"S  c #D5540A",
"D  c #D85C0B",
"F  c #CC461C",
"G  c #C64C1E",
"H  c #C16B09",
"J  c #CC6B09",
"K  c #D9620B",
"L  c #DA670D",
"P  c #CC740C",
"I  c #DA700C",
"U  c #DA7A0D",
"Y  c #E4610A",
"T  c #E4680A",
"R  c #EC690A",
"E  c #E4700C",
"W  c #ED710D",
"Q  c #E47A0C",
"!  c #EE780C",
"~  c #EF7E0D",
"^  c #FC7D14",
"/  c #C65426",
"(  c #CA6C2A",
")  c #DA6826",
"_  c #D76028",
"`  c #DA7B20",
"'  c #DF7029",
"]  c #D67A33",
"[  c #EC7026",
"{  c #E47820",
"}  c #ED7B27",
"|  c #E47B31",
" . c #CB8515",
".. c #D98412",
"X. c #DA841F",
"o. c #D98C19",
"O. c #C8911E",
"+. c #DA941E",
"@. c #E48411",
"#. c #EF8410",
"$. c #E48C17",
"%. c #FC8414",
"&. c #F08C15",
"*. c #FC8B15",
"=. c #E4941D",
"-. c #F09319",
";. c #FC941F",
":. c #C98726",
">. c #CC9D2C",
",. c #D99D2E",
"<. c #D79531",
"1. c #FC8624",
"2. c #FC8D27",
"3. c #F1842A",
"4. c #F18C28",
"5. c #E19C22",
"6. c #E49C2F",
"7. c #F19426",
"8. c #F19C22",
"9. c #FC9C25",
"0. c #E48D3C",
"q. c #EF953D",
"w. c #FC9434",
"e. c #F19D39",
"r. c #FC9D3D",
"t. c #DAA32A",
"y. c #DFA435",
"u. c #E4A429",
"i. c #E3AB2C",
"p. c #F1A428",
"a. c #FCA42B",
"s. c #F2A535",
"d. c #F1AC30",
"f. c #FCAC32",
"g. c #E2B539",
"h. c #F2B437",
"j. c #FCB438",
"k. c #F3BB3B",
"l. c #F3AE48",
"z. c #FCAD49",
"x. c #E1B345",
"c. c #E1BC48",
"v. c #F2B547",
"b. c #F2BD46",
"n. c #FCBD46",
"m. c #FCB648",
"M. c #E3C347",
"N. c #ECC448",
"B. c #EBCB4B",
"V. c #F7C447",
"C. c #F8CB4B",
"Z. c #E6C455",
"A. c #F9C457",
"S. c #F8CD56",
"D. c #EBD45B",
"F. c #F8D458",
"G. c #ECDB62",
"H. c #E8D36C",
"J. c #EADC6E",
"K. c #F8DC60",
"L. c #F7DD6E",
"P. c #ECE56E",
"I. c #F8E46A",
"U. c #FAEC72",
"Y. c #F4E57E",
"T. c #FCF57F",
"R. c #F3ED80",
"E. c #FCED80",
"W. c #F4F480",
"Q. c #FAF591",
"!. c #FAFB95",
"~. c #FAF6AE",
"^. c #FAFBAF",
"/. c #FAFACD",
/* pixels */
"                                                                                                                                ",
"                                                                                                                                ",
"                                                                                                                                ",
"                                                                                                                                ",
"                                                      . . . . . . . . . . .                                                     ",
"                                              . . . . . . . . . . . . . X o . . . .                                             ",
"                                          . . . . . . . . . . . . . . . . . . o . . . .                                         ",
"                                      . . . . . . . . . . . . . . . . . . . . . X . . . . .                                     ",
"                                  . . . . . . . . . . . . . . . . . . . . . . . . . . . . . . .                                 ",
"                                . . . . . . . . . . . . . . . . . . . . . . . . . . . . . . . . .                               ",
"                              . . . . . . . . . . . X X o o + + o . . . . . . . . . . . . . . . . .                             ",
"                          . . . . X o . . . . . . O 1 3 3 2 + + + % # o . X X . . . . . . . . . . . . .                         ",
"                        . . . + o . . . o % , - = % : 7 f ) 7.d.l.q.k 6 ; % + % @ . . . . . . . . . . . .                       ",
"                      . . o + . . . & # X X + 4 v ( { ' ' ' K D C U p.p.' h q = = - o . . . . . . . . . . .                     ",
"                      . X . . . < % . X , G S T ;.d.a.d.f.h.n.n.d.#.T T 8.r.B a t 5 6 : . . . . . . . . . .                     ",
"                    . . . . o e o . * q r 0.8.u.+.7.U V j i i p l o.k.j.Q E a.T s i t w e X . . . . . . . . .                   ",
"                  . . . . o ; X - = / Z.4.p.+.I d M W ! &.3.3.3.| _ t a u.V.#.&.! u u d y a . . . . . . . . . .                 ",
"                . . . . X # # % 4 S.6.@.U Q N d d a a w 6 ; : 7 i D K 4.N I N.j.#.{ u y B u g . . . . . + . . . .               ",
"                . . . . # # # b v.` w.8.A w ; 5 9 d ' ' } [ [ Y G y d M f w.D O.C.! Y s u D C > . + . . # + . . .               ",
"              . . . . # % # ] &.D s.-.i = % 8 x n =.I.S.<.....6.h.L.F.X.S s Q C ( K.Y D a S D W o . # . X : . . . .             ",
"              . . . o % % g E D ` 8.a 6 r w m z.I.>.-.I -.A.F.S.A.7.H x.E.4.n %.N :.F.Y S u %.! p . = . . : X . . .             ",
"            . . . . # % # D S N o.! w ; e x A.I...L &.d.n.O. ...o.5.k.j.,.E.9.D ! q U.d.R d ~ ! [ + # X . # $ . . . .           ",
"            . . . . # + 8 d n e.-.a + r D R.<.#.I #.C.5.C.I.U.Y.I.C.a.&.h.y.W.h.-.D j T.~ W m -.#.; X & . o 8 . . . .           ",
"          . . . . . + # 6 S C 6.Q # < Y E.c C } n.U.T.T.U.g.t.+.,.N.I.U.V.5.h.T.k.9.S p.C.! n -.@.j + ; X X i . . . . .         ",
"          . . . . o o o i S r.d.: % W U.L n D b.W.T.E.o.-.! B d d B L i.I.K.u.N.!.V.L ! E.#.#.#.&.#.= = + X u X . . . .         ",
"          . . . . X X + B W 5.-.i v h.:.n E &.T.!.P.-.-.j ; % + + + = a ..K.K.h.U.U.h.#.K.v.W T &.&.6 = % + u + . . . .         ",
"          . . . X X X : D L h.L u 1.F.;.2.;.I.Q.T.&.8.i = # . . . . . + y +.U.F.D.W.F.Q >.R.C R &.&.q ; % % u + . . . .         ",
"        . . . . . . o 7 } d.n.Y V d.P L 8.I !.Q.5.j.N ; o . . . . . . . + f I.U.k.T.I.8.#.!.D &.#.~ u 6 % ; a # . . . . .       ",
"        . . . X . X % t 9.V.V.S 7.C.h.-.I c.!.I.u.&.w % . . . . . . . . . - ,.U.N.T.Q.d.&.!.! ;.#.~ d a % 7 a # . . . . .       ",
"        . . . . . X = u j.F.C.M 8.j.S.v.W !.Q.g.n.! 6 + . . . . . . . . . o L I.F.T.W.d.;.!.&.9.#.Q m D % t u + . . . . .       ",
"        . . . . X X 7 T j.V.C.m a.-.I.d.@.^.Q.h.V.Q : o . . . . . . . . . X A I.I.!.W.p.8.^.8.a.#.Q d ! % u t o . . . . .       ",
"        . . . . o o q *.n.v.G.n 8.Q U.t.y.^.Q.V.F.#.6 + . . . . . . . . . X L U.I.^.J.*.p.^.p.h.! L u *.% a t X . . . . .       ",
"        . . . . o o h -.h.p.I.Y p.! U.5.M.^.R.V.K.-.t # . . . . . . . . . o @.U.U.!.v.&.k.^.8.h.! m u 9.= m 8 . . X . . .       ",
"        . . . . o + D p.f.@.I.Q p.B D.g.D.^.W.d.U.h.D 6 . . . . . . . . . , V.U.T.!.d.d.Y.^.p.p.! w a E r n % . . X . . .       ",
"        . . . . + # } h.8.Q U.N.p.S d.U.B.^.Q.d.K.F.-.d . . . . . . . . + ) U.T.!.Q.8.F.!.Q.h.&.#.7 Z m D n # . . o . . .       ",
"        . . . X # # 8.k.@.@.b.P.8.W &.!.k.^.^.V.K.U.C.-.a X . . . . . + N K.T.!.!.I.F.c.~.Y.C.-.#.e e.q ! i + X # . . . .       ",
"        . . . X # % d.V.&.*.$.T.C.! K U.V.J.^.I.I.T.U.F.p.a % o + # 8 ! F.U.!.^.!.g.B.~.^.N.p.-.W % &.f W ; # X % . . . .       ",
"        . . . X # = k.V.-.S ! I.W.&.W e.T.h.^.W.U.T.!.T.U.K.-.~ } -.B.U.T.Q.~.~.N.E.~./.P.F.*.9.d k D *.u # # % + . . . .       ",
"          . . o # - h.C.8.i #.=.!.T.! N !.K.B.!.T.U.!.!.!.T.T.U.U.T.T.Q.^.~.^.H.Q.R./.~.B.u.=.-.h 9.D #.; # = 5 . . . .         ",
"          . . X # = 8.V.9.u C 9.C.T.K.D S.!.F.T.U.T.T.!.!.^.!.^.^.^.~.^.~.^.L.E.R./.~.W.F.p.d.E ] #.f.a # = ; = . . . .         ",
"          . . X # # Q h.*.m u &.p.T.^.J.p.P.W.F.I.F.T.W.!.^.^.^./.^.~.~.W.Q.U.^./.^.T.U.F.f.&.j f.-.J % ; : 6 . . . . .         ",
"          . . . # + a -.~ n d D &.b.!.^.Q.K.W.Y.U.I.D.W.!.W.W.!.W.W.W.!.!.W.~./.~.!.W.K.8.d.f S.#.d.u = 9 6 % . . . . .         ",
"            . . # + = D D D s N W &.K.R.^.^.Q.!.U.U.I.T.D.U.!.^.^.!.Q.^.^././.^.W.I.@.-.f.z V.@.n.D ; a q 9 . . . . .           ",
"            . . # + + t n L t S ! f g.U.P.!.^.~.^.T.!.U.W.Q.H.Q.^.^.~./././.~.T.F.! 8.d. .S.@.K.~ ; m t 9 = . . . . .           ",
"              . # # + % f d w N W C 9 F.U.U.P.^.~./././.^.^.^.^././././.^.!.I.o.a.f.8.C.h.h.U.-.9 _ f w = o . . . .             ",
"              . X % + + 6 7 a 9 E ~ q G h.6.U.Q.P.Q.^.^.^.^.^.^.^.^.^.!.R.I.K.k.V.C.K.K.T.D.~ m ^ d u ; + . . . . .             ",
"                . % % o # 6 7 ; a %.T ; &.;.V u.I.P.Q.^.!.!.!.!.R.x.m.p.p.d.C.U.Q.!.!.T.p.E W R d a 7 # . . . . .               ",
"                . + % + o # ; ; ; n #.m = f E u %.Q J g.G.U.G.K.F.K.I.U.T.!.!.T.R.V.$.~ ~ ! m M u 0 # . . . . . .               ",
"                  . % + . X + = % = L ! a = ; T t Y *.*.-.p.d.h.h.k.g.k.b.h.-.J D R W D d n N u ; + . . . . . .                 ",
"                    . + . X X + % # % Y R F = ; a B N ~ #.p.h.j.f.d.9.#.3.} ! ! D u a m D d ; # + . . . . . .                   ",
"                      . X . . . # # + + D S n 5 ; 0 q w D ! E #.9.p.-.#.#.! W ! W W B u ; # % # . . . . . .                     ",
"                      . X . . . X # + X o t M d u = 6 y 6 6 s n n m f f m N m a a y 0 5 ; = + . . . . . . .                     ",
"                        . . . . . X # + o . & u i a w % ; 6 ; = = 7 t a f d u y w 7 ; % X X + + X . . . .                       ",
"                          . . . . . + + + o . % 7 w t 0 % # = = # o o # % # # + + o o + % # + X . . . .                         ",
"                              . . . . X . o + X + % ; 9 0 ; # + X X X X o o o o + + o X X . . . . .                             ",
"                                . . . . . . . X X o # = = ; ; = = % % # # + o X . . . . . . . . .                               ",
"                                  . . . . . . . . . . . # = ; = # o X . . . . . . . . . . . . .                                 ",
"                                      . . . . . . . . . . . X o % : 6 : = = % # X . . . . .                                     ",
"                                          . . . . . . . . . . . . . . . . . . . . . . .                                         ",
"                                              . . . . . . . . . . . . . . . . . . .                                             ",
"                                                      . . . . . . . . . . .                                                     ",
"                                                                                                                                ",
"                                                                                                                                ",
"                                                                                                                                "
};
