/* XPM */
static char *result[] = {
/* columns rows colors chars-per-pixel */
"64 64 174 2 ",
"   c #040204",
".  c #180204",
"X  c #280305",
"o  c #290F0D",
"O  c #380305",
"+  c #380F0D",
"@  c #480205",
"#  c #480C0A",
"$  c #580304",
"%  c #580B09",
"&  c #48130D",
"*  c #680304",
"=  c #690C08",
"-  c #770404",
";  c #790B06",
":  c #68140C",
">  c #79140A",
",  c #781C0F",
"<  c #6A1C13",
"1  c #60261D",
"2  c #7C2511",
"3  c #7C281E",
"4  c #7C351C",
"5  c #850505",
"6  c #880C05",
"7  c #8D1406",
"8  c #9C1606",
"9  c #9E1D05",
"0  c #901C09",
"q  c #8E230C",
"w  c #8F340E",
"e  c #8D2B10",
"r  c #86261C",
"t  c #AC2506",
"y  c #A12408",
"u  c #A12B0B",
"i  c #AE2C08",
"p  c #A33B0E",
"a  c #B33409",
"s  c #B83C0A",
"d  c #A0341F",
"f  c #AF351C",
"g  c #B43C1E",
"h  c #913C20",
"j  c #C53E09",
"k  c #B2430A",
"l  c #B14B09",
"z  c #A24317",
"x  c #B2441F",
"c  c #BF441D",
"v  c #B35612",
"b  c #904424",
"n  c #A14C2C",
"m  c #BE5427",
"M  c #B46424",
"N  c #BE6C38",
"B  c #C04409",
"V  c #CC4509",
"C  c #C24C0B",
"Z  c #CD4C0A",
"A  c #D0540A",
"S  c #DC550A",
"D  c #D25C0B",
"F  c #DD5C0B",
"G  c #C14C1E",
"H  c #C25410",
"J  c #CF541F",
"K  c #C3630F",
"L  c #D2640F",
"P  c #D3740E",
"I  c #D17B0F",
"U  c #D26C10",
"Y  c #E0640C",
"T  c #EC6609",
"R  c #E26C0C",
"E  c #EC6D0C",
"W  c #E2740B",
"Q  c #ED740D",
"!  c #E17C0E",
"~  c #EF7C0D",
"^  c #EC6C1E",
"/  c #FC7E12",
"(  c #C15C2D",
")  c #D15C22",
"_  c #DD5C20",
"`  c #D26426",
"'  c #DD6429",
"]  c #D36B2C",
"[  c #DF7335",
"{  c #E06C29",
"}  c #E27422",
"|  c #EC7426",
" . c #E27C24",
".. c #EF7C29",
"X. c #E17C39",
"o. c #C17244",
"O. c #CD7D44",
"+. c #CB841A",
"@. c #CC8E1C",
"#. c #DB8C1E",
"$. c #EA840E",
"%. c #EB8C12",
"&. c #F58410",
"*. c #F58C13",
"=. c #F68C1F",
"-. c #EA941D",
";. c #F6941D",
":. c #D99C2A",
">. c #D88436",
",. c #D98D3C",
"<. c #E98421",
"1. c #F58520",
"2. c #EA9C24",
"3. c #F69C23",
"4. c #E98439",
"5. c #E68C3A",
"6. c #F4853C",
"7. c #E99438",
"8. c #EB9C3B",
"9. c #F6943E",
"0. c #F69C3F",
"q. c #DAB43A",
"w. c #F2A42A",
"e. c #FCA42C",
"r. c #E4A430",
"t. c #E1AC35",
"y. c #F1AC31",
"u. c #FCAC33",
"i. c #E4B43A",
"p. c #F2B438",
"a. c #FCB43A",
"s. c #F2BC3E",
"d. c #FCBC3F",
"f. c #EB9B50",
"g. c #F3A44B",
"h. c #F2AC4A",
"j. c #FCAC49",
"k. c #E3BC41",
"l. c #F7B44F",
"z. c #E1B353",
"x. c #F8BD50",
"c. c #EAC447",
"v. c #EACB4B",
"b. c #F8C447",
"n. c #F8CC4B",
"m. c #EAC555",
"M. c #EBCD55",
"N. c #F7C557",
"B. c #F8CD57",
"V. c #EBD55A",
"C. c #F8D457",
"Z. c #F8DC5F",
"A. c #EBD565",
"S. c #ECDC67",
"D. c #FAD46E",
"F. c #F6DD6E",
"G. c #ECE46A",
"H. c #F9E46A",
"J. c #EBE677",
"K. c #ECEC79",
"L. c #F9EC72",
"P. c #F7E57D",
"I. c #F8ED7F",
"U. c #F4F483",
"Y. c #FCF482",
"T. c #F4FA89",
"R. c #FCFA89",
"E. c #FAF698",
"W. c #FAFB9D",
"Q. c #FAF6B5",
"!. c #FBFBB3",
"~. c #FBFACC",
"^. c #FBFAE2",
"/. c None",
/* pixels */
"/./././././././././././././././././././././././././././././././././././././././././././././././././././././././././././././././.",
"/./././././././././././././././././././././././././././././././././././././././././././././././././././././././././././././././.",
"/./././././././././././././././././././././././././././././././././././././././././././././././././././././././././././././././.",
"/./././././././././././././././././././././././././././././././././././././././././././././././././././././././././././././././.",
"/././././././././././././././././././././././././././.                      /./././././././././././././././././././././././././.",
"/././././././././././././././././././././././.                                      /./././././././././././././././././././././.",
"/././././././././././././././././././././.                                              /./././././././././././././././././././.",
"/././././././././././././././././././.                                                      /./././././././././././././././././.",
"/././././././././././././././././.                                                              /./././././././././././././././.",
"/./././././././././././././././.                                                                  /././././././././././././././.",
"/././././././././././././././.                                                                      /./././././././././././././.",
"/././././././././././././.                                                                              /./././././././././././.",
"/./././././././././././.                    X % = q d x H ) m k p : .     . X O   X                       /././././././././././.",
"/././././././././././.                + w u u i c i 7 6 - $ $ @ * q [ M & .   X $ . O X                     /./././././././././.",
"/././././././././././.            . 6 $ r y V 9 - X                 X @ x U # . X $ O O O                   /./././././././././.",
"/./././././././././.              . O d C 7 * .   . % , > 7 > - ; 7 4 $ < @ } w O O - , * O                   /././././././././.",
"/././././././././.                1 7 i 6 @     # $ O   . . X O X O @ @ y - : z Z $ @ * e 7 .       .           /./././././././.",
"/./././././././.                : 7 j - .   . @ O . % d X.{ c C ) 4.f.e ; - 9 * 3 ] * $ 9 f f   .     X           /././././././.",
"/./././././././.            . @ 6 U -   . # X X # c ) J B D 6.=.=.<.H v x.U G s = v B 7 * D y e   o   @           /././././././.",
"/././././././.            . O g Y 9     @   O - f.0 Y 1.-.k - 5 8 y i A 1.L j.S F 7 g.G 0 0 ^ A X O X X @           /./././././.",
"/././././././.            O h ' i @   O @ @ ; 5.q Q &.W 6 ( l.l.a.a.w...F Y U D.B W 7 p.j - Q V c . *   6 .         /./././././.",
"/./././././.            . @ p D y .   $ $ = 9.* Y Y 3.k h.b.N.p.r.w.p.d.u...! I f.R | ` B g B E T X 5   > O           /././././.",
"/./././././.          O % 2 J a * .   7 $ ) : J Y 0.w.B.Z.K Q Z s u i B 8.s.e.! 2.H w.%.N.A 6 =.Y ; $ $ @ 0           /././././.",
"/././././.            X * { Y a $   @ $ u x.0 t y n.H.L.u Q B 6 $ @ $ * 0 K b.a.e.L.L d.C.Z f 1.R H @ 0 . y             /./././.",
"/././././.            @ $ 9 Y 9 .   ; * 8.> G i z.Z.Y.k ~ A * X .       X 7 P b.p.:.>.s.n.U ~ _ *.1.$ t X u .           /./././.",
"/././././.          o q % g F 9 X X - a p.- B i H.L.B.B ~ 7 @             . 0 x.C.a.R.$.Z.y.R a e.~ - i @ e X           /./././.",
"/././././.          O s b Y F 9 X , 7 C n y S F Y.Y.L 1.F - O               @ K Z.b.P.+.H.V.Q s y.R 7 i * r O           /./././.",
"/./././.            O s o...Y t @ Z i R ; H R D U.Y.F ;.B $ X                 a H.H.k.m.Y.I.*.A p.R a a 7 0 #             /././.",
"/./././.            $ j O.%.E 9 y Z B $.5 D $.B T.U.R e.Z @ X                 > Z.L.k.I.Y.I.*.W b.W H a f 0 %             /././.",
"/./././.            * A >.-.&.5 E Z V *.9 L y.H W.K.! y.S $ X                 , Z.Y.v.I.W.I.3.$.n.P U a s t $             /././.",
"/./././.            $ ' N 7.w.- ~ s A $.V Y Z.U W.L.3.d.T 6 @                 q H.Y.G.E.W.J.2.! C.W ! B B c $             /././.",
"/./././.            $ Q u $.s.7 *.k D ! Y Y H.2.!.Y.p.n.*.y *                 G Y.U.E.W.!.Z.w.I Z.W ! } s S @             /././.",
"/./././.            $ =.0 2.C.s *.B Y ! Q R Z.v.!.W.b.Z.y.s 5 .             X  .U.T.!.!.!.S.w.@.C.=.U ;.s F @ .           /././.",
"/./././.            = { Z l.Z.:.;.s / ! Y &.c.L.!.T.n.C.C.-.9 =             0 F.E.E.Q.!.W.Y.t.n.n.3.B e.s S @             /././.",
"/./././.            @ y Q :.Z.H.u.B / R F F n.Y.!.!.C.Z.R.C.U a *         @ 2.W.E.Q.Q.~.T.E.n.L.2.;.l ;.A s @             /././.",
"/./././.              - 3.Y k.I.Z.A %.Y D Q n.L.W.Q.U.Y.Y.R.Z.L i 6 X . > 8.T.!.~.~.~.Q.U.A.c.L.~ Q 3.%.Y 6 @             /././.",
"/./././.            . *  .W y.Y.U.%.! T s *.2.H.E.!.T.Y.I.E.U.Y.a.Y E 1.C.W.!.Q.^.~.~.T.W.H.I.n.~ L s.~ A $ X             /././.",
"/./././.            X @ 7 a.-.Z.W.E.-.! A W 2.L.P.W.!.W.!.E.Q.Q.W.E.E.W.E.!.^.^.~.~.W.!.I.H.L.2.B w.! $.; @ .             /././.",
"/././././.          X @ O Y y.p.I.W.W.s.Q 9 d.Z.G.E.T.Q.!.!.Q.Q.Q.~.!.~.~.~.~.^.^.Q.!.~.E.Y.n.A 3.n.3.R $ @             /./././.",
"/././././.          X @ O = u.y.s.T.Q.!.A.,.s.d.L.E.!.T.W.!.~.~.~.^.^.^.^.^.^.^.Q.~.~.T.Y.Y.%.8.r.%.w.> @ @             /./././.",
"/././././.          . $ O @ p p.p.p.W.!.!.!.U.L.V.S.Q.!.~.!.!.~.~.~.^.^.^.^.^.~.~.~.W.U.Y.c.n.y.b.a.R O @ .             /./././.",
"/././././.          . @ @ @ * W y.y.V.U.!.~.~.~.Q.Q.W.Q.!.Q.~.~.^.^.^.^.^.^.~.^.^.E.R.W.U.L.a.Z.y.3.* @ $ X             /./././.",
"/./././././.          @ $ * * Z s e.s.c.U.W.Q.~.~.^.^.^.^.^.^.^.^.^.^.^.^.^.^.~.Q.!.W.T.s.b.S.i.d.i @ * O             /././././.",
"/./././././.        . $ $ * $ B 6 D w.b.V.I.T.~.~.^.^.^.^.^.^.^.^.^.^.^.^.Q.Q.!.!.T.M.p.C.q.Z.Z.Y 0 $ ;               /././././.",
"/././././././.        O - * $ 9 6 6 p e.b.Z.H.U.W.Q.~.Q.Q.~.^.^.^.^.^.~.!.E.U.Z.F.c.C.c.F.V.L.P D ; a X             /./././././.",
"/././././././.        X - * @ - 9 - 5 s *.s.c.C.Y.W.!.!.!.!.~.!.~.~.Q.E.E.E.T.U.G.q.Y.U.C.Y.%.&.6 F X               /./././././.",
"/./././././././.        * * @ @ 7 - * 5 A *.3.y.y.C.H.Y.T.E.T.T.E.V.V.Y.W.L.L.L.L.L.L.U.F.w.Q R Q @         X     /././././././.",
"/./././././././.        $ @ $ O 6 - $ $ 0 S ;.*.&.W 3.y.Y.U.Q.U.S.v.C.Y.W.!.Q.!.!.W.P.p.*.$.*.H $         X       /././././././.",
"/././././././././.      X $ O O @ 6 * $ - 8 W *.~ E R &.-.Z.Y.T.!.W.R.Y.E.T.T.E.B.#.U F A y 8 *         X .     /./././././././.",
"/./././././././././.      @ . X X $ 5 * * * 8 ~ R Y Z F ;.3.p.H.H.H.n.-.R ! 3.3.$.R F V 8 y 6 @       .       /././././././././.",
"/././././././././././.    O O   . X 5 - X . * 7 Y A Z a F Z D $.w.d.s.b.s.-.%.-.3.*.$.R V i - @     .       /./././././././././.",
"/././././././././././.      X       X 5 @   . * - j j a 7 B a 9 s Y C L $.$.~ ~ ~ R A B y 6 - @             /./././././././././.",
"/./././././././././././.      .       X - $ . X $ O 9 i 8 6 a 6 - c D a y i a a s a a t 7 * . . O         /././././././././././.",
"/././././././././././././.              O @ @   @ . O 7 t 5 9 9 - * 0 t 8 6 7 0 9 6 6 - - * * $ .       /./././././././././././.",
"/././././././././././././././.            X . .   * . . * 6 5 5 - * * * * @ .           X @ X .     /./././././././././././././.",
"/./././././././././././././././.            .       7 @   X $ * - * @ .   X $ $ $ $ @ O .         /././././././././././././././.",
"/././././././././././././././././.            .       > r X   . O @ @ O .     . . . .           /./././././././././././././././.",
"/././././././././././././././././././.                  X 9 0 O     .                 .     /./././././././././././././././././.",
"/././././././././././././././././././././.                  . @ @ @ .                   /./././././././././././././././././././.",
"/././././././././././././././././././././././.                                      /./././././././././././././././././././././.",
"/././././././././././././././././././././././././././.                      /./././././././././././././././././././././././././.",
"/./././././././././././././././././././././././././././././././././././././././././././././././././././././././././././././././.",
"/./././././././././././././././././././././././././././././././././././././././././././././././././././././././././././././././.",
"/./././././././././././././././././././././././././././././././././././././././././././././././././././././././././././././././."
};
