/* XPM */
static char *result[] = {
/* columns rows colors chars-per-pixel */
"64 64 166 2 ",
"   c #040204",
".  c #0B0C0B",
"X  c #180204",
"o  c #280305",
"O  c #280B0A",
"+  c #380305",
"@  c #390B09",
"#  c #480305",
"$  c #490C0B",
"%  c #580305",
"&  c #580B08",
"*  c #49130D",
"=  c #4A1B0D",
"-  c #58140D",
";  c #591C14",
":  c #680305",
">  c #680C07",
",  c #770404",
"<  c #790C06",
"1  c #68140C",
"2  c #79140A",
"3  c #791C11",
"4  c #612418",
"5  c #792311",
"6  c #762420",
"7  c #752B20",
"8  c #840504",
"9  c #870C05",
"0  c #8D1406",
"q  c #9D1505",
"w  c #9E1C06",
"e  c #901C09",
"r  c #94240D",
"t  c #892312",
"y  c #882C17",
"u  c #942C12",
"i  c #8F3C15",
"p  c #883319",
"a  c #943417",
"s  c #AD2507",
"d  c #A02408",
"f  c #A22C0D",
"g  c #AE2C08",
"h  c #BC2E0C",
"j  c #A1330D",
"k  c #A33B0A",
"l  c #B23409",
"z  c #B83C09",
"x  c #A1341F",
"c  c #AF351D",
"v  c #B33C1F",
"b  c #A03C21",
"n  c #C53D09",
"m  c #994714",
"M  c #AA430D",
"N  c #B9430D",
"B  c #B1530D",
"V  c #B95B0E",
"C  c #BA4B11",
"Z  c #BC6519",
"A  c #874529",
"S  c #97442A",
"D  c #A84428",
"F  c #A74B2B",
"G  c #B84427",
"H  c #BC7D29",
"J  c #C6440B",
"K  c #C94C0C",
"L  c #D4460A",
"P  c #D44D09",
"I  c #CA530E",
"U  c #D4550B",
"Y  c #DC550A",
"T  c #D15B0D",
"R  c #DD5C0A",
"E  c #DA640E",
"W  c #C96410",
"Q  c #C96C12",
"!  c #DA6C10",
"~  c #D97C14",
"^  c #E5650B",
"/  c #E76C0E",
"(  c #E9740F",
")  c #EA7C10",
"_  c #F47510",
"`  c #F57C13",
"'  c #CB5426",
"]  c #D05C29",
"[  c #DA652C",
"{  c #C96334",
"}  c #C86B35",
"|  c #D96D30",
" . c #E46528",
".. c #E97C2E",
"X. c #E87430",
"o. c #D1831A",
"O. c #E2840D",
"+. c #E38B12",
"@. c #F08414",
"#. c #FC8515",
"$. c #F28C17",
"%. c #E2951E",
"&. c #F1941C",
"*. c #FC951F",
"=. c #E28C21",
"-. c #E29C24",
";. c #F39C22",
":. c #EE8531",
">. c #F38D33",
",. c #E09339",
"<. c #E09C38",
"1. c #F3953C",
"2. c #F19C3C",
"3. c #DBB43A",
"4. c #E2A428",
"5. c #E1AB2B",
"6. c #F4A428",
"7. c #F3AB2C",
"8. c #E0A335",
"9. c #E1AC37",
"0. c #F5AD36",
"q. c #F5A439",
"w. c #E4BC3F",
"e. c #F3B439",
"r. c #F4BC3F",
"t. c #F7A34F",
"y. c #F6BD4F",
"u. c #F8AC51",
"i. c #E4B951",
"p. c #F6B550",
"a. c #FCBA6C",
"s. c #E3C44C",
"d. c #ECC448",
"f. c #F7C448",
"g. c #EBCC52",
"h. c #F8CC50",
"j. c #EBD358",
"k. c #ECDB5B",
"l. c #F9D456",
"z. c #F9DC5B",
"x. c #F1CD6C",
"c. c #EBD564",
"v. c #EBDC6B",
"b. c #F7D567",
"n. c #F8DC66",
"m. c #F3E46C",
"M. c #FCE46A",
"N. c #F9EC71",
"B. c #F9E57E",
"V. c #FAF37A",
"C. c #FAFA7C",
"Z. c #E7E381",
"A. c #ECEC80",
"S. c #F9ED80",
"D. c #FAF58A",
"F. c #FAFB8E",
"G. c #F4F6A4",
"H. c #FCF6A2",
"J. c #FBFBA4",
"K. c #FAF6BC",
"L. c #FBFBBC",
"P. c #FBF6D5",
"I. c #FCFBD5",
"U. c #FBF6E7",
"Y. c #FCFAE9",
"T. c None",
/* pixels */
"T.T.T.T.T.T.T.T.T.T.T.T.T.T.T.T.T.T.T.T.T.T.T.T.T.T.T.T.T.T.T.T.T.T.T.T.T.T.T.T.T.T.T.T.T.T.T.T.T.T.T.T.T.T.T.T.T.T.T.T.T.T.T.T.",
"T.T.T.T.T.T.T.T.T.T.T.T.T.T.T.T.T.T.T.T.T.T.T.T.T.T.T.T.T.T.T.T.T.T.T.T.T.T.T.T.T.T.T.T.T.T.T.T.T.T.T.T.T.T.T.T.T.T.T.T.T.T.T.T.",
"T.T.T.T.T.T.T.T.T.T.T.T.T.T.T.T.T.T.T.T.T.T.T.T.T.T.T.T.T.T.T.T.T.T.T.T.T.T.T.T.T.T.T.T.T.T.T.T.T.T.T.T.T.T.T.T.T.T.T.T.T.T.T.T.",
"T.T.T.T.T.T.T.T.T.T.T.T.T.T.T.T.T.T.T.T.T.T.T.T.T.T.T.T.T.T.T.T.T.T.T.T.T.T.T.T.T.T.T.T.T.T.T.T.T.T.T.T.T.T.T.T.T.T.T.T.T.T.T.T.",
"T.T.T.T.T.T.T.T.T.T.T.T.T.T.T.T.T.T.T.T.T.T.T.T.T.T.T.                      T.T.T.T.T.T.T.T.T.T.T.T.T.T.T.T.T.T.T.T.T.T.T.T.T.T.",
"T.T.T.T.T.T.T.T.T.T.T.T.T.T.T.T.T.T.T.T.T.T.T.                                      T.T.T.T.T.T.T.T.T.T.T.T.T.T.T.T.T.T.T.T.T.T.",
"T.T.T.T.T.T.T.T.T.T.T.T.T.T.T.T.T.T.T.T.T.                                              T.T.T.T.T.T.T.T.T.T.T.T.T.T.T.T.T.T.T.T.",
"T.T.T.T.T.T.T.T.T.T.T.T.T.T.T.T.T.T.T.                                                      T.T.T.T.T.T.T.T.T.T.T.T.T.T.T.T.T.T.",
"T.T.T.T.T.T.T.T.T.T.T.T.T.T.T.T.T.                                                              T.T.T.T.T.T.T.T.T.T.T.T.T.T.T.T.",
"T.T.T.T.T.T.T.T.T.T.T.T.T.T.T.T.                                                                  T.T.T.T.T.T.T.T.T.T.T.T.T.T.T.",
"T.T.T.T.T.T.T.T.T.T.T.T.T.T.T.                                                                      T.T.T.T.T.T.T.T.T.T.T.T.T.T.",
"T.T.T.T.T.T.T.T.T.T.T.T.T.                      O = S b a t a A 4 .   X o                               T.T.T.T.T.T.T.T.T.T.T.T.",
"T.T.T.T.T.T.T.T.T.T.T.T.                  o - D + O + # o o       + 2 f O . +   X                         T.T.T.T.T.T.T.T.T.T.T.",
"T.T.T.T.T.T.T.T.T.T.T.                O # t : + % : %   o + o o o X   X # F   o + + X                       T.T.T.T.T.T.T.T.T.T.",
"T.T.T.T.T.T.T.T.T.T.T.              % - e + # 9 0 0 d I [ | ..! C - X .     5 $ X 1 + +                     T.T.T.T.T.T.T.T.T.T.",
"T.T.T.T.T.T.T.T.T.T.              ; 1 e # 9 u 9 d Y / K l w w d h J E } + o   + i X 3 # #     X               T.T.T.T.T.T.T.T.T.",
"T.T.T.T.T.T.T.T.T.              6 - 0 ; d 9 , < E J n g 8 , % : : : < n E { 2 + + i X e : &   X o               T.T.T.T.T.T.T.T.",
"T.T.T.T.T.T.T.T.              6 % w 0 9 , # + f g U Y 9 % % 9 N C C j e , I 1.9 < > t + c w X X +                 T.T.T.T.T.T.T.",
"T.T.T.T.T.T.T.T.            @ % C q 0 < X   # K d _ J , , ..$.#.@.@.@.@. .j K ,., x T d % l G X   #               T.T.T.T.T.T.T.",
"T.T.T.T.T.T.T.            X : c d e 9     + h 9 e #.9 9 $.6.@.J U J f z $.$.X.J i.9 T &.t r d > + %                 T.T.T.T.T.T.",
"T.T.T.T.T.T.T.          X 6 : z G 0 # X   o _ , 9 $.0 X.e.;.z J z 9 : % , M ;.:.( a.z ) g , [ X.# + >               T.T.T.T.T.T.",
"T.T.T.T.T.T.          X   , 9 z 9 % # o   + >.9 8 $.K 7.r.k K g w # X X # , B ;./ H , ) 1.t K ^ % # 0                 T.T.T.T.T.",
"T.T.T.T.T.T.          + @ , ] T e X # #   % t.: , ` ;.h.h.0 P w , %         : Q 0.@.n.s h.C g T x : < X               T.T.T.T.T.",
"T.T.T.T.T.          + o S # v e + X + # + % u.% , ' r.z.y.s K , : >           < e.e.%.m r.N 0 >.@., : *                 T.T.T.T.",
"T.T.T.T.T.          : X l 3 ^ c X   X : # : t.% , l l.M.1.l U # % q           o I r.;.S.=.g.K ( $., 9 y                 T.T.T.T.",
"T.T.T.T.T.      X   , X g v ` d X     % : % ..9 0 K M.N.~ K E % # e o           0 h.y.g.! D.@.T ) t w K                 T.T.T.T.",
"T.T.T.T.T.      X X , o g K ! <       # 0 < W l w ( M.A.@.^ ( % o 9 3           : h.M.e.Q J.$.| +.N f L                 T.T.T.T.",
"T.T.T.T.        X o , X f T E :   o   + , l U ( h / g.F.0.( #.f o : d o         + p.V.i.=.J.7.) ;.! g Y X                 T.T.T.",
"T.T.T.T.        X + < o j E ) <   +   + : e ^ 6. ._ f.F.m.#.*.E # : 9 2         + e.V.d.8.J.e.` 6.O.z U o                 T.T.T.",
"T.T.T.T.        X @ w # V / ;.9   X + # # : R 6./ ) e.F.D.&.7.@.0 # 0 0 X       # h.V.n.Z.J.f.$.e.O.K E o                 T.T.T.",
"T.T.T.T.        o + z % q._ e.v X   2 # : # R ;.( @.-.J.J.7.r.6.I % 8 d &       2 B.F.G.J.G.l.+.e.~ R ^ o                 T.T.T.",
"T.T.T.T.        @ + R e u.T h.@.+   d % 0 : R ;.T ;.7.D.L.h.h.l.;.w 9 U % X     ' D.V.G.J.G.e.4.g.W _ / X                 T.T.T.",
"T.T.T.T.        $ @ ` d } I h.7.<   w , c , / ;.l r.e.B.G.M.h.m.f.U w g : #   + 2.J.A.I.L.G.6.l.z.I ) ^ o                 T.T.T.",
"T.T.T.T.        + o ) R e e.0.r.N o 2 l z g _ 6.J q.f.z.L.G.r.V.V.5.h q N # X M S.L.L.I.L.G.r.V.M.! @.U o X X X           T.T.T.",
"T.T.T.T.        X X u #.J l.7.V.h.w < K d K $.6.( T n.m.L.G.V.V.F.N.@.K K < 0 h.L.L.I.L.L.D.5.V.h.$.) r X X X o + # o     T.T.T.",
"T.T.T.T.          - < 6.T I 3.j.z.o.0 Y q U *.6.@.P n.N.F.K.J.D.F.J.n.O.^ T b.L.I.I.I.K.K.n.N.N.6.;.@.: o X X X o + + X   T.T.T.",
"T.T.T.T.          + # t ;.^ h.M.V.S.) R w K $.;.$./ N.N.D.I.G.L.G.H.G.V.f.D.L.P.P.Y.P.I.F.w.D.V.*.7._ % + o X       X     T.T.T.",
"T.T.T.T.            * p r.~ ( k.D.G.F.4.J h ! ;.&.) j.V.H.L.L.L.K.K.L.K.K.L.P.U.I.U.U.P.l.V.D.j.4.6.f % o X               T.T.T.",
"T.T.T.T.T.          & + r h.$.o.b.J.G.H.h.q.C &.$.) w.A.K.L.L.I.I.I.I.I.I.I.Y.U.I.I.I.Z.j.J.C.6.f.$.: +                 T.T.T.T.",
"T.T.T.T.T.            7 & ,.h.&.o.S.L.L.L.H.v.z.7.$.l.F.K.K.I.P.P.I.Y.Y.Y.Y.Y.I.I.I.c.h.H.F.l.;.e.f X                   T.T.T.T.",
"T.T.T.T.T.          X   x G h.h.7.4.D.J.P.I.I.P.L.G.J.G.L.I.I.I.Y.Y.Y.U.Y.Y.Y.I.I.J.J.J.V.m.&.z.*.+                     T.T.T.T.",
"T.T.T.T.T.        X   o X e [ M.z.y.f.v.L.I.Y.Y.Y.Y.P.I.Y.Y.U.Y.Y.Y.Y.Y.Y.I.Y.L.G.C.G.c.m.;.z.7.r                       T.T.T.T.",
"T.T.T.T.T.T.        X   o o r E l.V.j.l.j.A.L.P.Y.Y.Y.Y.Y.Y.Y.Y.Y.Y.Y.Y.Y.Y.G.S.N.F.b.l.w.N.e./ +                     T.T.T.T.T.",
"T.T.T.T.T.T.        + X o o $ 9 ..N.C.m.z.m.N.V.L.I.I.Y.Y.Y.Y.Y.Y.Y.Y.Y.I.I.L.J.D.A.M.V.C.s.@.g                       T.T.T.T.T.",
"T.T.T.T.T.T.T.      X + X + # : v K f.C.C.C.V.A.V.A.G.G.L.I.I.Y.Y.Y.Y.P.F.L.J.J.F.x.s.z.<._ K #                     T.T.T.T.T.T.",
"T.T.T.T.T.T.T.        X # + # % : d N >.m.A.D.F.J.J.K.G.J.J.J.J.G.G.V.S.H.G.J.9.$.@.l.;./ Y r                       T.T.T.T.T.T.",
"T.T.T.T.T.T.T.T.      X + : : : : 8 w g N Z f.N.A.N.J.J.D.D.V.D.F.C.w.V.n.n.F.m.4.z.;.) ( z                       T.T.T.T.T.T.T.",
"T.T.T.T.T.T.T.T.    X o + o : 0 : , 9 % 9 , , 9 } h.H.D.6.l.n.V.C.M.m.H.&.r.g.C.C.z.;./ P % o                     T.T.T.T.T.T.T.",
"T.T.T.T.T.T.T.T.T.  + # # # # % < > % + : 0 , 9 ' f.M.o.) ;.l.g.S.V.V.L.! ^ @.r.r.@./ U 8 ,                     T.T.T.T.T.T.T.T.",
"T.T.T.T.T.T.T.T.T.T.  + + # X     X w t X % 9 9 d z 0 l R E ( %.e.m.n.n.e./ U +.*.n l d <                     T.T.T.T.T.T.T.T.T.",
"T.T.T.T.T.T.T.T.T.T.T.      % +       + - G v d , 0 : , z K K / J *.$.z >./ K K #./ g e +                   T.T.T.T.T.T.T.T.T.T.",
"T.T.T.T.T.T.T.T.T.T.T.        % 2 +   X     + 8 : , , % 8 g g 9 # T ^ g 9 9 0 z g J l 9 %     X             T.T.T.T.T.T.T.T.T.T.",
"T.T.T.T.T.T.T.T.T.T.T.T.        X # % % o     X + : , # # 0 w f + 0 N d , , + , w 0 , : +   o             T.T.T.T.T.T.T.T.T.T.T.",
"T.T.T.T.T.T.T.T.T.T.T.T.T.                      X % % X X % : < X % 0 d : : #   + : , : + +             T.T.T.T.T.T.T.T.T.T.T.T.",
"T.T.T.T.T.T.T.T.T.T.T.T.T.T.T.                    % :       X +     % , # # # o       o +           T.T.T.T.T.T.T.T.T.T.T.T.T.T.",
"T.T.T.T.T.T.T.T.T.T.T.T.T.T.T.T.                  X s                 o X X + + X X X             T.T.T.T.T.T.T.T.T.T.T.T.T.T.T.",
"T.T.T.T.T.T.T.T.T.T.T.T.T.T.T.T.T.                  < #                                         T.T.T.T.T.T.T.T.T.T.T.T.T.T.T.T.",
"T.T.T.T.T.T.T.T.T.T.T.T.T.T.T.T.T.T.T.                #                                     T.T.T.T.T.T.T.T.T.T.T.T.T.T.T.T.T.T.",
"T.T.T.T.T.T.T.T.T.T.T.T.T.T.T.T.T.T.T.T.T.                                              T.T.T.T.T.T.T.T.T.T.T.T.T.T.T.T.T.T.T.T.",
"T.T.T.T.T.T.T.T.T.T.T.T.T.T.T.T.T.T.T.T.T.T.T.                                      T.T.T.T.T.T.T.T.T.T.T.T.T.T.T.T.T.T.T.T.T.T.",
"T.T.T.T.T.T.T.T.T.T.T.T.T.T.T.T.T.T.T.T.T.T.T.T.T.T.T.                      T.T.T.T.T.T.T.T.T.T.T.T.T.T.T.T.T.T.T.T.T.T.T.T.T.T.",
"T.T.T.T.T.T.T.T.T.T.T.T.T.T.T.T.T.T.T.T.T.T.T.T.T.T.T.T.T.T.T.T.T.T.T.T.T.T.T.T.T.T.T.T.T.T.T.T.T.T.T.T.T.T.T.T.T.T.T.T.T.T.T.T.",
"T.T.T.T.T.T.T.T.T.T.T.T.T.T.T.T.T.T.T.T.T.T.T.T.T.T.T.T.T.T.T.T.T.T.T.T.T.T.T.T.T.T.T.T.T.T.T.T.T.T.T.T.T.T.T.T.T.T.T.T.T.T.T.T.",
"T.T.T.T.T.T.T.T.T.T.T.T.T.T.T.T.T.T.T.T.T.T.T.T.T.T.T.T.T.T.T.T.T.T.T.T.T.T.T.T.T.T.T.T.T.T.T.T.T.T.T.T.T.T.T.T.T.T.T.T.T.T.T.T."
};
