/* XPM */
static char *result[] = {
/* columns rows colors chars-per-pixel */
"64 64 175 2 ",
"   c #030003",
".  c #040204",
"X  c #0B0C0C",
"o  c #180204",
"O  c #180B0C",
"+  c #280305",
"@  c #290B0C",
"#  c #380305",
"$  c #380B0C",
"%  c #29140E",
"&  c #480305",
"*  c #480B0C",
"=  c #580305",
"-  c #580B09",
";  c #581410",
":  c #680305",
">  c #680C08",
",  c #780404",
"<  c #790B06",
"1  c #68140C",
"2  c #79140A",
"3  c #681C13",
"4  c #702317",
"5  c #7C2414",
"6  c #840604",
"7  c #870C05",
"8  c #8D1407",
"9  c #891B0B",
"0  c #9C1605",
"q  c #941C07",
"w  c #9E1C07",
"e  c #90230B",
"r  c #87231E",
"t  c #8D2D1F",
"y  c #893B14",
"u  c #913411",
"i  c #A02408",
"p  c #AC2508",
"a  c #A22B0B",
"s  c #AD2C0A",
"d  c #BC2E08",
"f  c #A2330C",
"g  c #A13B0F",
"h  c #B2340A",
"j  c #B73C0A",
"k  c #A0341E",
"l  c #A23C1F",
"z  c #B0341C",
"x  c #B43C1F",
"c  c #C43408",
"v  c #C43D0A",
"b  c #B1430F",
"n  c #B25411",
"m  c #A14C29",
"M  c #BF4526",
"N  c #B04B28",
"B  c #A4522C",
"V  c #C1440B",
"C  c #CD450A",
"Z  c #C24C0E",
"A  c #CE4D0A",
"S  c #C1530F",
"D  c #D1540C",
"F  c #DC550B",
"G  c #D25C0D",
"H  c #DD5D0C",
"J  c #CC451C",
"K  c #C15B11",
"L  c #C3640F",
"P  c #D1640E",
"I  c #D26C0E",
"U  c #C1730C",
"Y  c #D27413",
"T  c #D27C15",
"R  c #E0640C",
"E  c #EC660A",
"W  c #E26C0C",
"Q  c #ED6D0B",
"!  c #E2740F",
"~  c #EE740D",
"^  c #EF7C0E",
"/  c #E17C11",
"(  c #FC7614",
")  c #FC7D15",
"_  c #C04C26",
"`  c #CC4D20",
"'  c #CE5426",
"]  c #C15428",
"[  c #C15C29",
"{  c #D05C27",
"}  c #C1642A",
"|  c #CF6C2A",
" . c #DE6428",
".. c #D17433",
"X. c #DF7C36",
"o. c #EC6C20",
"O. c #E16C28",
"+. c #ED7528",
"@. c #EF7C28",
"#. c #E37430",
"$. c #DA841A",
"%. c #DB8C1F",
"&. c #E98411",
"*. c #EA8C14",
"=. c #F58413",
"-. c #F58C15",
";. c #EA9418",
":. c #EA9B1B",
">. c #F59419",
",. c #F59B1C",
"<. c #DA9321",
"1. c #CC963C",
"2. c #DA9537",
"3. c #EA842A",
"4. c #F48528",
"5. c #F68C29",
"6. c #E99C27",
"7. c #E99429",
"8. c #F79428",
"9. c #F79C28",
"0. c #E88D3F",
"q. c #F68C3E",
"w. c #E9943F",
"e. c #DBAB33",
"r. c #E4A42A",
"t. c #F5A427",
"y. c #F4AB2B",
"u. c #F7A437",
"i. c #F4AD38",
"p. c #E2B43E",
"a. c #F2B439",
"s. c #FCB43B",
"d. c #F4BC3F",
"f. c #F89540",
"g. c #F69C42",
"h. c #DBBC48",
"j. c #E4BC43",
"k. c #F1BC4F",
"l. c #FCBC4F",
"z. c #EEAC57",
"x. c #FCB551",
"c. c #E9C448",
"v. c #EBCB4B",
"b. c #F8C447",
"n. c #F8CB4B",
"m. c #E8C455",
"M. c #EBCC58",
"N. c #F9C555",
"B. c #F8CD56",
"V. c #EBD45B",
"C. c #F8D458",
"Z. c #ECDC60",
"A. c #F9DC60",
"S. c #F6D46C",
"D. c #F7DD6F",
"F. c #ECE46D",
"G. c #F9E46A",
"H. c #F9EC71",
"J. c #F8E57F",
"K. c #F4F37A",
"L. c #FCF47A",
"P. c #F9FA7C",
"I. c #ECE284",
"U. c #EBED84",
"Y. c #F9ED81",
"T. c #F4F58D",
"R. c #FCF58D",
"E. c #F4FA91",
"W. c #FCFA94",
"Q. c #FAF6AA",
"!. c #FAFBAC",
"~. c #FBFBC4",
"^. c #FCFBDD",
"/. c #FCFBEC",
"(. c None",
/* pixels */
"(.(.(.(.(.(.(.(.(.(.(.(.(.(.(.(.(.(.(.(.(.(.(.(.(.(.(.(.(.(.(.(.(.(.(.(.(.(.(.(.(.(.(.(.(.(.(.(.(.(.(.(.(.(.(.(.(.(.(.(.(.(.(.(.",
"(.(.(.(.(.(.(.(.(.(.(.(.(.(.(.(.(.(.(.(.(.(.(.(.(.(.(.(.(.(.(.(.(.(.(.(.(.(.(.(.(.(.(.(.(.(.(.(.(.(.(.(.(.(.(.(.(.(.(.(.(.(.(.(.",
"(.(.(.(.(.(.(.(.(.(.(.(.(.(.(.(.(.(.(.(.(.(.(.(.(.(.(.(.(.(.(.(.(.(.(.(.(.(.(.(.(.(.(.(.(.(.(.(.(.(.(.(.(.(.(.(.(.(.(.(.(.(.(.(.",
"(.(.(.(.(.(.(.(.(.(.(.(.(.(.(.(.(.(.(.(.(.(.(.(.(.(.(.(.(.(.(.(.(.(.(.(.(.(.(.(.(.(.(.(.(.(.(.(.(.(.(.(.(.(.(.(.(.(.(.(.(.(.(.(.",
"(.(.(.(.(.(.(.(.(.(.(.(.(.(.(.(.(.(.(.(.(.(.(.(.(.(.(.. . . . . . . . . . . (.(.(.(.(.(.(.(.(.(.(.(.(.(.(.(.(.(.(.(.(.(.(.(.(.(.",
"(.(.(.(.(.(.(.(.(.(.(.(.(.(.(.(.(.(.(.(.(.(.(.. . . . . . . . . . . . . . . . . . . (.(.(.(.(.(.(.(.(.(.(.(.(.(.(.(.(.(.(.(.(.(.",
"(.(.(.(.(.(.(.(.(.(.(.(.(.(.(.(.(.(.(.(.(.. . .   . . . . . . . . . . . . . . . . . . . (.(.(.(.(.(.(.(.(.(.(.(.(.(.(.(.(.(.(.(.",
"(.(.(.(.(.(.(.(.(.(.(.(.(.(.(.(.(.(.(.. . . . . . . . . . . . . . . . . . . . . . . . . . . (.(.(.(.(.(.(.(.(.(.(.(.(.(.(.(.(.(.",
"(.(.(.(.(.(.(.(.(.(.(.(.(.(.(.(.(.. . . . . . . . . . . . . . . . . . . . . . . . . . . . . . . (.(.(.(.(.(.(.(.(.(.(.(.(.(.(.(.",
"(.(.(.(.(.(.(.(.(.(.(.(.(.(.(.(.. . . . . . . . . . . . . . . . . . . . . . . . . . . . . . . . . (.(.(.(.(.(.(.(.(.(.(.(.(.(.(.",
"(.(.(.(.(.(.(.(.(.(.(.(.(.(.(.. . . . . . . . . . . . . . . . . . . . . . . . . . . . . . . . . . . (.(.(.(.(.(.(.(.(.(.(.(.(.(.",
"(.(.(.(.(.(.(.(.(.(.(.(.(.. . . . . . . . . . . . . . . O X o o o . . . . . . . . . . . . . . . . . . . (.(.(.(.(.(.(.(.(.(.(.(.",
"(.(.(.(.(.(.(.(.(.(.(.(.. . . . . . . . . . . o * & & > > < > 1 4 - + + # o . . . . . . . . . . . . . . . (.(.(.(.(.(.(.(.(.(.(.",
"(.(.(.(.(.(.(.(.(.(.(.. . . . . . . . . . + * # 4 ] Z j v V V M a z x 2 % o + o . . . . . . . . . . . . . . (.(.(.(.(.(.(.(.(.(.",
"(.(.(.(.(.(.(.(.(.(.(.. . . . . . . . o * 1 ] z 2 = & # # & 1 f A A z s ` f + # # o . . . . . . . . . . . . (.(.(.(.(.(.(.(.(.(.",
"(.(.(.(.(.(.(.(.(.(.. . . . . . . . $ u h 2 + . . . o + $ + o o o # a  .f b  .y & = # . . . . . . . . . . . . (.(.(.(.(.(.(.(.(.",
"(.(.(.(.(.(.(.(.(.. . . . . . . . ; ' 7 o . . . . . . . X # : # + = # + h ~ } r | = < & o . . . . . . . . . . . (.(.(.(.(.(.(.(.",
"(.(.(.(.(.(.(.(.. . . . . . . o = A # . . . # m _ f t u _ N 3 = & o o > ; = ~ D 1 X.< < & . . . . . . . . . . . . (.(.(.(.(.(.(.",
"(.(.(.(.(.(.(.(.. . . . . o . * ' # X = 2 K +.5.=.+.[ 3 $ & 7 a x 9 = o # 9 = =.K > ..i a = . . . . . . . . . . . (.(.(.(.(.(.(.",
"(.(.(.(.(.(.(.. . . . . o . # o.# # : ] Q ) Q S D F H R ` i h < : 7 q < : # , : -.L r r.x i * . . . . . . . . . . . (.(.(.(.(.(.",
"(.(.(.(.(.(.(.. . . . . o o g 9 & & { s C A v R 8.9.g.X.w s R j 9 & : 7 , < & , 8 t.x.N i v , o . . . . . . . . . . (.(.(.(.(.(.",
"(.(.(.(.(.(.. . . . . o o # #.: = B w J A S 8.u.i.d.l.B.l.X.s W A 2 & : 7 , : = s 8.&.l x. .M - . . . . . . . . . . . (.(.(.(.(.",
"(.(.(.(.(.(.. . . . . # o k a = u j H h -.8.*.;.>.,.t.d.G.G.M.R H W k = , 6 8 : : V s.z.p.f A < . . . . . . . . . . . (.(.(.(.(.",
"(.(.(.(.(.. . . . o + + + 3.8 : Z D V 8.>.t.t.t.t.i.T S %.G.K.H.r.~ O.a i : 7 8 = , i.d.U N.H i @ . . . . . . . . . . . (.(.(.(.",
"(.(.(.(.(.. . . . + & + & @.7 9 J H f.,.>.W j q 8 w n p.a.b h.R.R.s.>.W s j = 0 < : S V.D.Z.q. .2 . . . . . . . . . . . (.(.(.(.",
"(.(.(.(.(.. . . + + & & u G , D P A 9.>.e , : = : < 0 w D l.K 2.T.R.n.y.R ~ k < 8 & q C.M.p.S W 8 . . . . . . . . . . . (.(.(.(.",
"(.(.(.(.(.. . . = + & = | V 7 o.4.b.*.h , = # o . . & q s D r.@.%.!.H.G.s./ +., 0 , < b.m.j.$.! 7 o . . . . . . . . . . (.(.(.(.",
"(.(.(.(.. . . . < & = : i.h , E I a.-.7 = + . . . . . o a D W y.9.m.!.c.L.b.>.h , 7 , z.Z.V.M.&.8 + . . . . . . . . . . . (.(.(.",
"(.(.(.(.. . . . 8 : : : x.s 8 W <.:. ., o . . . . . . . + H D ,.r.t.Q.W.V.L.s.@.8 7 q a.H.F.J.&.a # . . . . . . . . . . . (.(.(.",
"(.(.(.(.. . . . a 6 : : l.a i ^ k.;.V : . . . . . . . . . > Q W b.:.J.~.c.Y.L.s.V 0 i b.T.J.J.&.i # . . . . . . . . . . . (.(.(.",
"(.(.(.(.. . o . x i , : l.S i *.B.,.V = . . . . . . . . . + Q H y.s.B.~.J.F.E.G.^ w A H.!.Y.G.=.a # . . . . . . . . . . . (.(.(.",
"(.(.(.(.. . O . b h q , u.w.f t.C.i.G = . . . . . . . . . . D ~ >.A.n.Q.Q.L.T.W.a.H @.R.Q.T.N./ f + o . . . . . . . . . . (.(.(.",
"(.(.(.(.. . o . f A C 8 #.C.Z d.C.b.*.< . . . . . . . . . . j =.-.G.C.R.~.Y.T.W.C.=.l.Q.~.!.i.Y c o + o . o . . . . . . . (.(.(.",
"(.(.(.(.. . . + 1 F ~ c a A.K d.B.G.d.j o . . . . . . . . . w -.t.H.G.L.^.T.W.E.W.i.!.~.~.~.*.6.A . # o o o . . . . . . . (.(.(.",
"(.(.(.(.. # . & + W =.R q G.B.&.j.P.n./ = . . . . . . . . o 6 >.d.K.W.R.~.~.Q.R.W.Y.~.^.!.!.>.s.x o + o + + . . . . . . . (.(.(.",
"(.(.(.(.. 8 . - . ( ^ >.R p.G.:.G.Y.G.C.G = . . . . . . . # 7 :.C.P.!.W.!.!.!.!.T.~.^.^.~.c./ K , # o . o o o . . . . . . (.(.(.",
"(.(.(.(.. 9 o o + e W t.-.Z K.K.e.Y.R.H.C.@.= . . . . . o > C a.H.W.!.Q.~.~.!.~.~.~.^.Q.Q.:.b.R , & o o o o o . . . . . . (.(.(.",
"(.(.(.(.. o > . : + 9./ t.~ i.K.W.S.Y.R.H.L.t.i + . . o 8 V ^ L.E.!.~.!.~.~.~.~.^.^.~.~.S.=./ c , = o . . o . . . . . . . (.(.(.",
"(.(.(.(.(.. z o & = j *.y.,.! E.W.W.E.!.W.P.T.A.6.S u K / ,.H.!.!.~.~.~.~.^.^.^.^.^.~.Q.y.C.Q c , : + . . o . . . . . . (.(.(.(.",
"(.(.(.(.(.. # 9 + , , I ! a.-.-.Q.E.!.!.E.!.Q.!.!.P.R.H.L.R.!.Q.~.^.^.^.^.^.^.^.^.^.Q.Z.d.^ V A 7 6 & + o . . . . . . . (.(.(.(.",
"(.(.(.(.(.. o z = & 0 p 9.,.a.>.r.!.W.Q.~.~.~.~.~.~.~.~.Q.~.~.^.^././.^.^././.^.~.~.H.M.y.A j j 6 0 & + o . . . . . . . (.(.(.(.",
"(.(.(.(.(.. # + A : : s Z 9.y.s.-.i.~.~.E.Q.^.^.^.~.^.^.^././././././.^./.^./.^.~.Q.G.Z.>.V v s : , # . . . . . . . . . (.(.(.(.",
"(.(.(.(.(.(.. & < V 7 : V R 9.t.b.;.:.!.^.^.~.~.~.^.^././././././././././.^.^.T.!.E.Z.C.R R v 8 = & . . . . . . . . . (.(.(.(.(.",
"(.(.(.(.(.(.. # & ` w q e A >.&.a.N.t.r.Y.Q.^.^.^.^.^.^.^.^././././././.^.^.Q.m.W.R.G.d.V W d 7 = o . . . . . . . . . (.(.(.(.(.",
"(.(.(.(.(.(.(.. + = R A p b R ;.>.*.G.a.i.i.I.^.^.^.^./.^.^././././.^./.~.T.R.G.W.R.c.~ s Q i : + . . . . . . . . . (.(.(.(.(.(.",
"(.(.(.(.(.(.(.. . o < D E A b -.=.&.*.G.H.V.G.K.G.I.Q.Q.^.^.~.T.T.I.Q.Q.!.W.K.P.E.C.~ D h ^ 7 # o . . . . . . . . . (.(.(.(.(.(.",
"(.(.(.(.(.(.(.(.. . & : G =.@.q l.! ^ K z.G.T.W.H.v.p.b.k.H.b.p.J.~.!.!.!.P.T.L.P.a Q v R ~ : . . . . . . . . . . (.(.(.(.(.(.(.",
"(.(.(.(.(.(.(.(.. . + = = f =.s.8.d.c.! -.=.&.6.M.K.K.R.E.!.!.!.Q.!.!.W.T.K.H.K.m D H v ~ D + . . . . . . . . . . (.(.(.(.(.(.(.",
"(.(.(.(.(.(.(.(.(.. = = : : ,  .a.d.6.G.N.I P =.>.i.k.y.p.M.U.Q.Q.!.E.R.C.A.L.1.5 W H &.H w . . . . . . . . . . (.(.(.(.(.(.(.(.",
"(.(.(.(.(.(.(.(.(.(.. , 7 w w , w &.C.H.G.K.W.G.C.C.A.L.!.~.~.!.R.H.b.:.a.P.n.+ -.H >.>.w , . . . . . . . . . (.(.(.(.(.(.(.(.(.",
"(.(.(.(.(.(.(.(.(.(.(.. 6 = 8 j C V j G i.G.W.E.!.!.!.!.E.Y.N.y.t.! Z d.P.C.o 7.^ ;.t.w 6 # . . . . . . . . (.(.(.(.(.(.(.(.(.(.",
"(.(.(.(.(.(.(.(.(.(.(.. # < 8 , 0 C W ) =.^ -.:.r.r.r.r.;.^ &.^ ^ 8.n.C.i.< 0.8.G y.8 : : + . . . . . . . . (.(.(.(.(.(.(.(.(.(.",
"(.(.(.(.(.(.(.(.(.(.(.(.. . o # 2 a C H ! ~ ! G x 9 = 7 G -.-.>.t.t. .D *.>.&.w 9.9 : & & . . . . . . . . (.(.(.(.(.(.(.(.(.(.(.",
"(.(.(.(.(.(.(.(.(.(.(.(.(.. . o . & , : = : : & # : i H ^ P D a < j =.=.W ~ 7 O.W = = o + . . . . . . . (.(.(.(.(.(.(.(.(.(.(.(.",
"(.(.(.(.(.(.(.(.(.(.(.(.(.(.(.. o # = < i s v ' ! ~ ~ ~ =.^ -.5.&.P c s w = s H # = # o . . . . . . (.(.(.(.(.(.(.(.(.(.(.(.(.(.",
"(.(.(.(.(.(.(.(.(.(.(.(.(.(.(.(.. . . . . o * : , 0 w s 8 + + + & + + + . > a # & = . . . . . . . (.(.(.(.(.(.(.(.(.(.(.(.(.(.(.",
"(.(.(.(.(.(.(.(.(.(.(.(.(.(.(.(.(.. . . . + & = & = < , o . . + & o . . = = + & : . . . . . . . (.(.(.(.(.(.(.(.(.(.(.(.(.(.(.(.",
"(.(.(.(.(.(.(.(.(.(.(.(.(.(.(.(.(.(.(.. . . . . # = # . . . . + o . + # o + : & . . . . . . (.(.(.(.(.(.(.(.(.(.(.(.(.(.(.(.(.(.",
"(.(.(.(.(.(.(.(.(.(.(.(.(.(.(.(.(.(.(.(.(.. . . o . . . . . + + + o . o # & + . . . . . (.(.(.(.(.(.(.(.(.(.(.(.(.(.(.(.(.(.(.(.",
"(.(.(.(.(.(.(.(.(.(.(.(.(.(.(.(.(.(.(.(.(.(.(.. . . . . . o o . . . . + o . . . . . (.(.(.(.(.(.(.(.(.(.(.(.(.(.(.(.(.(.(.(.(.(.",
"(.(.(.(.(.(.(.(.(.(.(.(.(.(.(.(.(.(.(.(.(.(.(.(.(.(.(.. . . . . . . . . . . (.(.(.(.(.(.(.(.(.(.(.(.(.(.(.(.(.(.(.(.(.(.(.(.(.(.",
"(.(.(.(.(.(.(.(.(.(.(.(.(.(.(.(.(.(.(.(.(.(.(.(.(.(.(.(.(.(.(.(.(.(.(.(.(.(.(.(.(.(.(.(.(.(.(.(.(.(.(.(.(.(.(.(.(.(.(.(.(.(.(.(.",
"(.(.(.(.(.(.(.(.(.(.(.(.(.(.(.(.(.(.(.(.(.(.(.(.(.(.(.(.(.(.(.(.(.(.(.(.(.(.(.(.(.(.(.(.(.(.(.(.(.(.(.(.(.(.(.(.(.(.(.(.(.(.(.(.",
"(.(.(.(.(.(.(.(.(.(.(.(.(.(.(.(.(.(.(.(.(.(.(.(.(.(.(.(.(.(.(.(.(.(.(.(.(.(.(.(.(.(.(.(.(.(.(.(.(.(.(.(.(.(.(.(.(.(.(.(.(.(.(.(."
};
