/* XPM */
static char *result[] = {
/* columns rows colors chars-per-pixel */
"64 64 182 2 ",
"   c #040204",
".  c #180204",
"X  c #280205",
"o  c #2A0B09",
"O  c #380305",
"+  c #380B08",
"@  c #480205",
"#  c #490B08",
"$  c #580205",
"%  c #590B08",
"&  c #591611",
"*  c #680305",
"=  c #690B07",
"-  c #770405",
";  c #790B06",
":  c #68150D",
">  c #79150A",
",  c #71211A",
"<  c #840504",
"1  c #870C05",
"2  c #940E04",
"3  c #8A1406",
"4  c #8A1C0A",
"5  c #941505",
"6  c #9C1606",
"7  c #941C07",
"8  c #9E1C06",
"9  c #AC1C08",
"0  c #94240C",
"q  c #892412",
"w  c #8A2D1A",
"e  c #942C12",
"r  c #9F2B1D",
"t  c #91361A",
"y  c #AC2505",
"u  c #A12408",
"i  c #A22C09",
"p  c #AE2D08",
"a  c #A2330C",
"s  c #A33A0E",
"d  c #B13408",
"f  c #BC3508",
"g  c #B33C0B",
"h  c #BC3C08",
"j  c #AE341C",
"k  c #AF3D1F",
"l  c #BC3E1C",
"z  c #A03520",
"x  c #A23C25",
"c  c #C43D06",
"v  c #B4430C",
"b  c #BB5408",
"n  c #B76604",
"m  c #AB4327",
"M  c #C14408",
"N  c #CC4609",
"B  c #C24B09",
"V  c #CE4C09",
"C  c #C4540E",
"Z  c #C45C09",
"A  c #D0540B",
"S  c #DC550A",
"D  c #D25B0B",
"F  c #DC5C0C",
"G  c #C0451E",
"H  c #CD4D1F",
"J  c #E4540C",
"K  c #E45D0A",
"L  c #D2640B",
"P  c #DF640B",
"I  c #D16C0C",
"U  c #D3740D",
"Y  c #D27C0F",
"T  c #EC6509",
"R  c #E16C0C",
"E  c #EC6D0C",
"W  c #E2740B",
"Q  c #E27C0C",
"!  c #F4750F",
"~  c #F47C0D",
"^  c #EC7410",
"/  c #EC7C10",
"(  c #E2741F",
")  c #E27C1D",
"_  c #F57C1F",
"`  c #CD5527",
"'  c #D05D29",
"]  c #C0642A",
"[  c #D06B27",
"{  c #D1642A",
"}  c #D3742A",
"|  c #E16C27",
" . c #EC6A24",
".. c #EE7C2F",
"X. c #E27435",
"o. c #E07C34",
"O. c #CC8E1C",
"+. c #DA8413",
"@. c #D98B17",
"#. c #DC941B",
"$. c #EA840E",
"%. c #EA8C12",
"&. c #E9841F",
"*. c #EA8C1F",
"=. c #F58410",
"-. c #F6841F",
";. c #F68C18",
":. c #EA9418",
">. c #F69419",
",. c #F69C1C",
"<. c #DB8C26",
"1. c #DB8429",
"2. c #D29422",
"3. c #D8952E",
"4. c #F6842E",
"5. c #EA9426",
"6. c #EA9C23",
"7. c #F69427",
"8. c #F79C27",
"9. c #EA8433",
"0. c #E98B30",
"q. c #F68C30",
"w. c #E99B38",
"e. c #F4943A",
"r. c #F89C3C",
"t. c #DAA429",
"y. c #DFAD36",
"u. c #E4A428",
"i. c #E2AB29",
"p. c #F2A427",
"a. c #FCA42E",
"s. c #F1AC2F",
"d. c #F2A436",
"f. c #FCAC33",
"g. c #ECB437",
"h. c #E3B438",
"j. c #E3BB3E",
"k. c #ECBC3E",
"l. c #F7B438",
"z. c #F7BC3F",
"x. c #F48648",
"c. c #E89C50",
"v. c #FCA547",
"b. c #F2AD47",
"n. c #E7BD4F",
"m. c #E6B450",
"M. c #F9B450",
"N. c #F8BD50",
"B. c #ECC446",
"V. c #E3C448",
"C. c #EBCB4C",
"Z. c #F8C446",
"A. c #F8CC4B",
"S. c #E9C557",
"D. c #EBCD56",
"F. c #F7CD56",
"G. c #E3D357",
"H. c #ECD457",
"J. c #EBDB5C",
"K. c #F8D457",
"L. c #F8DC5E",
"P. c #E9D566",
"I. c #EBDC67",
"U. c #F7DC6E",
"Y. c #ECE368",
"T. c #F8E468",
"R. c #ECE575",
"E. c #ECEB74",
"W. c #F8E575",
"Q. c #F9EC74",
"!. c #FCF47E",
"~. c #F3ED87",
"^. c #FCED85",
"/. c #F4F480",
"(. c #FAFA82",
"). c #F4F590",
"_. c #FCF690",
"`. c #FAFB95",
"'. c #FBF6AF",
"]. c #FBFBB1",
"[. c #FCFBCC",
"{. c None",
/* pixels */
"{.{.{.{.{.{.{.{.{.{.{.{.{.{.{.{.{.{.{.{.{.{.{.{.{.{.{.{.{.{.{.{.{.{.{.{.{.{.{.{.{.{.{.{.{.{.{.{.{.{.{.{.{.{.{.{.{.{.{.{.{.{.{.{.",
"{.{.{.{.{.{.{.{.{.{.{.{.{.{.{.{.{.{.{.{.{.{.{.{.{.{.{.{.{.{.{.{.{.{.{.{.{.{.{.{.{.{.{.{.{.{.{.{.{.{.{.{.{.{.{.{.{.{.{.{.{.{.{.{.",
"{.{.{.{.{.{.{.{.{.{.{.{.{.{.{.{.{.{.{.{.{.{.{.{.{.{.{.{.{.{.{.{.{.{.{.{.{.{.{.{.{.{.{.{.{.{.{.{.{.{.{.{.{.{.{.{.{.{.{.{.{.{.{.{.",
"{.{.{.{.{.{.{.{.{.{.{.{.{.{.{.{.{.{.{.{.{.{.{.{.{.{.{.{.{.{.{.{.{.{.{.{.{.{.{.{.{.{.{.{.{.{.{.{.{.{.{.{.{.{.{.{.{.{.{.{.{.{.{.{.",
"{.{.{.{.{.{.{.{.{.{.{.{.{.{.{.{.{.{.{.{.{.{.{.{.{.{.{.                      {.{.{.{.{.{.{.{.{.{.{.{.{.{.{.{.{.{.{.{.{.{.{.{.{.{.",
"{.{.{.{.{.{.{.{.{.{.{.{.{.{.{.{.{.{.{.{.{.{.{.                                      {.{.{.{.{.{.{.{.{.{.{.{.{.{.{.{.{.{.{.{.{.{.",
"{.{.{.{.{.{.{.{.{.{.{.{.{.{.{.{.{.{.{.{.{.                                              {.{.{.{.{.{.{.{.{.{.{.{.{.{.{.{.{.{.{.{.",
"{.{.{.{.{.{.{.{.{.{.{.{.{.{.{.{.{.{.{.                      . .   . . . .                   {.{.{.{.{.{.{.{.{.{.{.{.{.{.{.{.{.{.",
"{.{.{.{.{.{.{.{.{.{.{.{.{.{.{.{.{.                . . .                                         {.{.{.{.{.{.{.{.{.{.{.{.{.{.{.{.",
"{.{.{.{.{.{.{.{.{.{.{.{.{.{.{.{.                .                                                 {.{.{.{.{.{.{.{.{.{.{.{.{.{.{.",
"{.{.{.{.{.{.{.{.{.{.{.{.{.{.{.                                                                      {.{.{.{.{.{.{.{.{.{.{.{.{.{.",
"{.{.{.{.{.{.{.{.{.{.{.{.{.              .                                                               {.{.{.{.{.{.{.{.{.{.{.{.",
"{.{.{.{.{.{.{.{.{.{.{.{.                      .       X o @ $ $ $ $ # @ X .                               {.{.{.{.{.{.{.{.{.{.{.",
"{.{.{.{.{.{.{.{.{.{.{.                            o % t m m z z q = @ @ @ @ @ X                             {.{.{.{.{.{.{.{.{.{.",
"{.{.{.{.{.{.{.{.{.{.{.      .             . X w ` A 9.x.q.&.9.r.e.] ; 1 r @ O $ @ X                         {.{.{.{.{.{.{.{.{.{.",
"{.{.{.{.{.{.{.{.{.{.      O           . @ x Z 4.;.;.$.W I W / %.;.8.*.c.} ; z + X O O .                       {.{.{.{.{.{.{.{.{.",
"{.{.{.{.{.{.{.{.{.      O .         + w D 5.>.R i g C N d 6 < - - < b ,.d.<.0.u q . X @ .                       {.{.{.{.{.{.{.{.",
"{.{.{.{.{.{.{.{.      . X         # G 9.p.R 4 D A &.Z.K.K.A.M.f.q.&.4.A L p.d.N.d k O . $ O                       {.{.{.{.{.{.{.",
"{.{.{.{.{.{.{.{.      @         # G a.*.1 G A -.K.^.L.t.+.I D B Z F M h D L 6.p.2.D l &   % X                     {.{.{.{.{.{.{.",
"{.{.{.{.{.{.{.      O O       O h v./ 7 E D M.L.u.%./ R V l D  .! N A  .M i A U g.t.) V >   - X                     {.{.{.{.{.{.",
"{.{.{.{.{.{.{.      $ .     . 7 8.@.0  .5.Z.6.U P P P | / / ....{ g P P P  .p M Q h.h.p.' %   - .                   {.{.{.{.{.{.",
"{.{.{.{.{.{.        $   .   @ ( z.0 D Z l.%.L ~ P ..v ] } } B R ;.;.F A ~ T | y M z.F.B.-.a   O $                     {.{.{.{.{.",
"{.{.{.{.{.{.      X O .   . a z.C A D s.R R R | j.R.Q.Q./._.`.).W.@.s.Z.-.~ E / 7 g K.L.K./ ,   $ X                   {.{.{.{.{.",
"{.{.{.{.{.        @ X X . @ 0.b.i ! l.$.=.I [ I.T.T.T.T.Q.!.(./.`.`.T.#.A.Z.>.$.$.< 3.K.j.:.A O X *                     {.{.{.{.",
"{.{.{.{.{.        * O . O > Z.C _ >.,.$./ 1.T.T.C.#.Z D I R I O.m.W.]._.l.i.!.z.;.) 3 K.!.L.P 3 $ @ @                   {.{.{.{.",
"{.{.{.{.{.      X 1 @ X @ | A.h $.p.;.Q g.K.K.Y M d d 7 u f P =.;.$.h._.`.Z.s.!.K.:.| L I.K.;.0 $ $ *                   {.{.{.{.",
"{.{.{.{.{.      @ 8 O O * a.d.^ %.p.p.6.K.K.n c 7 * O O @ @ * M W p.>.3.'.`.s.s.(.A.>._ (.U.;.| O * * @                 {.{.{.{.",
"{.{.{.{.        - f @ @ < Z.Q ^ a.,.@.T.Z.1.f - O           . @ - ^ s.l.2.`.`.l.t.!.g.=.!._.A.o.$ @ * *                   {.{.{.",
"{.{.{.{.        4 c $ $ 7 L.L ~ f.:.y.A.Z.M 3 O               . @ 8 $.l.a.S.'.T.z.n._.8.T.'.Q.L i X * * X                 {.{.{.",
"{.{.{.{.        i V * - 0 T.Z ^ l.l.T.k.*.c $                   . * R z.L.6.]._.F.U `./.Q.`.Q.W p O $ $ $                 {.{.{.",
"{.{.{.{.        h J u u u Q.W F z.Z.!.k.I p O                   . * M ,.H.s.'.].^.8.j.`.~.`.~.>.8 $ O $ $ .               {.{.{.",
"{.{.{.{.    X   N F N B u Q.&.F Z.Z.(.k.^ u X                   . O d ,.J.C.U.[._.K.Z.^.).].Q.~ 3 $ O 1 O O               {.{.{.",
"{.{.{.{.    @ . M F S P y T.i.R z.k.Q.k.=.j X                     @ g a.L.L.K.[.!.T.a.C.).].U.R e $ O - X @               {.{.{.",
"{.{.{.{.    $ O 0 R A ~ p Q.T.,.6.j.J.A.l.S @                   . @ A s.J.Q.K.].`.!.@.Q.[.).w.R i $ @ - O X               {.{.{.",
"{.{.{.{.    O $ * ^ P / M K./.z.W T.T.Q.A.=.*                   X - Q k.T./.A.].`.).L `.[.).R E 5 $ @ $ @ X               {.{.{.",
"{.{.{.{.    . - $ R E W ^ *.!.D.Z.K.Y.T.V.A.P @               . * d z.K._./.J.`.).`.2.].'.).~ A - * @ @ $ X               {.{.{.",
"{.{.{.{.  O   * * i / P $.M /.).K.6.Q.!.Q.B.l.H O             ; 8 $.L.!.]._.!.'.`.!.!.[.].I.$.h - * $ O $ X               {.{.{.",
"{.{.{.{.  8   O 1 - %.E $.T 6._.^.V.B.I.E.Q.D.z.Q 3 O     @ y M Q T.Q._.].`.I.].`.].[.[.].B.-.8 $ - $ O * X               {.{.{.",
"{.{.{.{.{.  O X < 2 g ~ R ~ B Q.).).s.Q.Q.!.!.J.L.s.4.P P R =.Z.!.(.`.].`.`.`.].].[.[.[.`.B.W 8 $ 5 $ O $ .             {.{.{.{.",
"{.{.{.{.{.  p . $ p 8 P / ~ R Q ).`.`.V.Q.`.`.~.!.Q.T.T.T.Q.(._.`.].[.[.).].`.`.[.[.].`.!.k.H 7 - 8 $ @ $ .             {.{.{.{.",
"{.{.{.{.{.  q 1 $ 7 p p =./ $.P d.`.'.].Q.I._.].`.`.`.`.`.`.].].].[.[.].].'.].'.[.].`.Q.Q.s.8 i 1 9 @ @ $ .             {.{.{.{.",
"{.{.{.{.{.  X g * 1 N p M / L $.E z.`.].'.].).R.].[.[.[.].'.[.].'.[.].].[.'.[.[.'.!.Y.B.K.%.< d 8 8 O @ O               {.{.{.{.",
"{.{.{.{.{.{.  # f - a ^ f A P I / ! z.).].'.].[.'.).).`.].].[.'.'.'.].[.[.[.[.'.T.T.z.H.z.v < h 7 5 X O .             {.{.{.{.{.",
"{.{.{.{.{.{.    0 p p M P N c | Z $./ A.`.].].].[.'.[.].].].[.].].[.[.[.[.[.'.G.T.Z.u.K.,.u 1 M 1 1 X .               {.{.{.{.{.",
"{.{.{.{.{.{.{.    8 d h R $.S 8 B *.W ;.l.Q.).].[.[.'.'.[.[.[.[.[.[.[.[.].].V.T.k.6.K.z.M < u M 1 $                 {.{.{.{.{.{.",
"{.{.{.{.{.{.{.  - $ 3 h S ~ p.P V V s.D P W 6.T./.`.].].].'.[.[.[.].]././.L.T.g.$.k.z.L 8 * M u 1 O                 {.{.{.{.{.{.",
"{.{.{.{.{.{.{.{.  - ; ; h ^ %.l.R R V / f./ P ^ %.s.D.U.).R.E.`.`.~.Y.Q.Q.L.Z.:.Z.z.M 2 * 3 B - * X               {.{.{.{.{.{.{.",
"{.{.{.{.{.{.{.{.  . $ * - d ^ :.p.Z.^ ! P E 7.b.z.L.T.Q.W.U.k.i.K.Q.!.!.Z.A.Z.Z.z.a 5 3 * M 3 1 @ .               {.{.{.{.{.{.{.",
"{.{.{.{.{.{.{.{.{.  X . @ - 1 h / p.Z.T.K.g.f.s.s.s.s.p.g.A.Q.!.(.!.L.K.A.Z.s.f.z 2 8 $ f h - * @               {.{.{.{.{.{.{.{.",
"{.{.{.{.{.{.{.{.{.{.  O @ @ * 3 6 p D 6.B.L.!.(.(.(.`.`.].]._.P.B.A.A.p.z.z.,.e 4 u $ k c * * @ .             {.{.{.{.{.{.{.{.{.",
"{.{.{.{.{.{.{.{.{.{.{.  . $ - - - 6 h V A A Q 7.s.l.s.s.f.6.,.$.W R s.K.s.Q : v d * D M - * @ X             {.{.{.{.{.{.{.{.{.{.",
"{.{.{.{.{.{.{.{.{.{.{.      O $ $ * - 5 d f c h y 6 < * - 6 D q.l.K.z.+.F $ L d 1 P 4 $ * $ . .             {.{.{.{.{.{.{.{.{.{.",
"{.{.{.{.{.{.{.{.{.{.{.{.      X $ - @ X X @ 3 f V K / $.>.8.p.p.*.D p d d E 1 h P ; @ * X   .             {.{.{.{.{.{.{.{.{.{.{.",
"{.{.{.{.{.{.{.{.{.{.{.{.{.        O - 3 3 1 1 8 i h B g k s p i p N M M P - M R 0 O $ @                 {.{.{.{.{.{.{.{.{.{.{.{.",
"{.{.{.{.{.{.{.{.{.{.{.{.{.{.{.        . O $ 3 g H H ` ' X.^ / A i 5 g 1 $ ' A = . $ X               {.{.{.{.{.{.{.{.{.{.{.{.{.{.",
"{.{.{.{.{.{.{.{.{.{.{.{.{.{.{.{.          . X X . . X @ - * O O @ O . > h d O X $ .               {.{.{.{.{.{.{.{.{.{.{.{.{.{.{.",
"{.{.{.{.{.{.{.{.{.{.{.{.{.{.{.{.{.                  X X .         X - y : . O $ .               {.{.{.{.{.{.{.{.{.{.{.{.{.{.{.{.",
"{.{.{.{.{.{.{.{.{.{.{.{.{.{.{.{.{.{.{.                        X $ - $ X O % O               {.{.{.{.{.{.{.{.{.{.{.{.{.{.{.{.{.{.",
"{.{.{.{.{.{.{.{.{.{.{.{.{.{.{.{.{.{.{.{.{.                . . .   . $ * O               {.{.{.{.{.{.{.{.{.{.{.{.{.{.{.{.{.{.{.{.",
"{.{.{.{.{.{.{.{.{.{.{.{.{.{.{.{.{.{.{.{.{.{.{.                X O @ .               {.{.{.{.{.{.{.{.{.{.{.{.{.{.{.{.{.{.{.{.{.{.",
"{.{.{.{.{.{.{.{.{.{.{.{.{.{.{.{.{.{.{.{.{.{.{.{.{.{.{.                      {.{.{.{.{.{.{.{.{.{.{.{.{.{.{.{.{.{.{.{.{.{.{.{.{.{.",
"{.{.{.{.{.{.{.{.{.{.{.{.{.{.{.{.{.{.{.{.{.{.{.{.{.{.{.{.{.{.{.{.{.{.{.{.{.{.{.{.{.{.{.{.{.{.{.{.{.{.{.{.{.{.{.{.{.{.{.{.{.{.{.{.",
"{.{.{.{.{.{.{.{.{.{.{.{.{.{.{.{.{.{.{.{.{.{.{.{.{.{.{.{.{.{.{.{.{.{.{.{.{.{.{.{.{.{.{.{.{.{.{.{.{.{.{.{.{.{.{.{.{.{.{.{.{.{.{.{.",
"{.{.{.{.{.{.{.{.{.{.{.{.{.{.{.{.{.{.{.{.{.{.{.{.{.{.{.{.{.{.{.{.{.{.{.{.{.{.{.{.{.{.{.{.{.{.{.{.{.{.{.{.{.{.{.{.{.{.{.{.{.{.{.{."
};
