/* XPM */
static char *result[] = {
/* columns rows colors chars-per-pixel */
"64 64 171 2 ",
"   c #040204",
".  c #180204",
"X  c #280204",
"o  c #290B0A",
"O  c #380305",
"+  c #390B09",
"@  c #480305",
"#  c #480A09",
"$  c #4A0F0C",
"%  c #580305",
"&  c #580A07",
"*  c #59100C",
"=  c #4C1614",
"-  c #581610",
";  c #680304",
":  c #690A06",
">  c #770404",
",  c #790A06",
"<  c #790F07",
"1  c #68100B",
"2  c #69160F",
"3  c #78160C",
"4  c #691B10",
"5  c #781C10",
"6  c #840604",
"7  c #870C05",
"8  c #940E05",
"9  c #891307",
"0  c #8A1B0D",
"q  c #941405",
"w  c #9D1906",
"e  c #9F1E06",
"r  c #941B08",
"t  c #89230A",
"y  c #882415",
"u  c #942410",
"i  c #942A14",
"p  c #AC2507",
"a  c #A12408",
"s  c #A22B0C",
"d  c #AE2C08",
"f  c #BC2E04",
"g  c #B23409",
"h  c #BC3608",
"j  c #B33B0B",
"k  c #BC3C09",
"l  c #A23310",
"z  c #AD341D",
"x  c #A23B19",
"c  c #B13C1E",
"v  c #A02620",
"b  c #C43A07",
"n  c #C43E08",
"m  c #B4420C",
"M  c #B1421D",
"N  c #C24409",
"B  c #CC4509",
"V  c #C44B0C",
"C  c #CD4C09",
"Z  c #C4540D",
"A  c #D25409",
"S  c #DC550A",
"D  c #D35B09",
"F  c #DD5C09",
"G  c #CD4C1D",
"H  c #C1531F",
"J  c #CF541F",
"K  c #DD5D1F",
"L  c #C16304",
"P  c #CC640A",
"I  c #CA6B0C",
"U  c #DB640A",
"Y  c #DB6C0B",
"T  c #CB7308",
"R  c #DA740C",
"E  c #DA7C0C",
"W  c #E5650A",
"Q  c #E66C0B",
"!  c #F46E0C",
"~  c #E9740D",
"^  c #EA7C0C",
"/  c #F4750E",
"(  c #F47C0F",
")  c #E6681E",
"_  c #E86E1D",
"`  c #D96528",
"'  c #DC7E2C",
"]  c #E77427",
"[  c #E87C29",
"{  c #F47D25",
"}  c #E2830E",
"|  c #EF840B",
" . c #E18C12",
".. c #F08416",
"X. c #F08C15",
"o. c #FC8B17",
"O. c #F1941B",
"+. c #FC941D",
"@. c #DF9424",
"#. c #F18D2A",
"$. c #E19C23",
"%. c #F19C21",
"&. c #FC9C21",
"*. c #F1942F",
"=. c #FC952E",
"-. c #FC9D2F",
";. c #F19D30",
":. c #D3A432",
">. c #E1A42D",
",. c #F1A323",
"<. c #F1A42D",
"1. c #FCA42A",
"2. c #F1AC2F",
"3. c #E2AC32",
"4. c #FCAC30",
"5. c #F3A53F",
"6. c #FCA43D",
"7. c #F3AE3F",
"8. c #FCAC3E",
"9. c #E4B43A",
"0. c #F1B436",
"q. c #FCB438",
"w. c #F1BB3B",
"e. c #FCBC3C",
"r. c #DBBC43",
"t. c #E4BC41",
"y. c #F1B545",
"u. c #F0BD45",
"i. c #FCBD46",
"p. c #E1BE53",
"a. c #E3C343",
"s. c #ECC447",
"d. c #E3C54E",
"f. c #F7C446",
"g. c #F7CC4B",
"h. c #E3CB51",
"j. c #ECCC50",
"k. c #E1C55F",
"l. c #E3CD5F",
"z. c #ECCD5D",
"x. c #F7C554",
"c. c #F7CD55",
"v. c #EBD458",
"b. c #ECDB5C",
"n. c #F8D456",
"m. c #F9DB5B",
"M. c #EAD566",
"N. c #EBDC67",
"B. c #F6D665",
"V. c #F7DD66",
"C. c #ECE46F",
"Z. c #F8E46A",
"A. c #ECEB72",
"S. c #F9EC71",
"D. c #FCE67E",
"F. c #F4ED7F",
"G. c #FCED7F",
"H. c #F4F37A",
"J. c #FCF37A",
"K. c #FBFA7C",
"L. c #F1E580",
"P. c #F4F489",
"I. c #FCF589",
"U. c #FAFB8E",
"Y. c #F4F69E",
"T. c #FCF69F",
"R. c #F4FBA4",
"E. c #FCFBA4",
"W. c #FBFABF",
"Q. c #F9FEBF",
"!. c None",
/* pixels */
"!.!.!.!.!.!.!.!.!.!.!.!.!.!.!.!.!.!.!.!.!.!.!.!.!.!.!.!.!.!.!.!.!.!.!.!.!.!.!.!.!.!.!.!.!.!.!.!.!.!.!.!.!.!.!.!.!.!.!.!.!.!.!.!.",
"!.!.!.!.!.!.!.!.!.!.!.!.!.!.!.!.!.!.!.!.!.!.!.!.!.!.!.!.!.!.!.!.!.!.!.!.!.!.!.!.!.!.!.!.!.!.!.!.!.!.!.!.!.!.!.!.!.!.!.!.!.!.!.!.",
"!.!.!.!.!.!.!.!.!.!.!.!.!.!.!.!.!.!.!.!.!.!.!.!.!.!.!.!.!.!.!.!.!.!.!.!.!.!.!.!.!.!.!.!.!.!.!.!.!.!.!.!.!.!.!.!.!.!.!.!.!.!.!.!.",
"!.!.!.!.!.!.!.!.!.!.!.!.!.!.!.!.!.!.!.!.!.!.!.!.!.!.!.!.!.!.!.!.!.!.!.!.!.!.!.!.!.!.!.!.!.!.!.!.!.!.!.!.!.!.!.!.!.!.!.!.!.!.!.!.",
"!.!.!.!.!.!.!.!.!.!.!.!.!.!.!.!.!.!.!.!.!.!.!.!.!.!.!.                      !.!.!.!.!.!.!.!.!.!.!.!.!.!.!.!.!.!.!.!.!.!.!.!.!.!.",
"!.!.!.!.!.!.!.!.!.!.!.!.!.!.!.!.!.!.!.!.!.!.!.                                      !.!.!.!.!.!.!.!.!.!.!.!.!.!.!.!.!.!.!.!.!.!.",
"!.!.!.!.!.!.!.!.!.!.!.!.!.!.!.!.!.!.!.!.!.                X * 0 s a a q 7 > % O .       !.!.!.!.!.!.!.!.!.!.!.!.!.!.!.!.!.!.!.!.",
"!.!.!.!.!.!.!.!.!.!.!.!.!.!.!.!.!.!.!.              X 4 v 0 % @ X . . X O @ % ; ; @ X       !.!.!.!.!.!.!.!.!.!.!.!.!.!.!.!.!.!.",
"!.!.!.!.!.!.!.!.!.!.!.!.!.!.!.!.!.            . & r q ; O O O + @ @ @ O .       . X X X .       !.!.!.!.!.!.!.!.!.!.!.!.!.!.!.!.",
"!.!.!.!.!.!.!.!.!.!.!.!.!.!.!.!.          . @ , > ; % % @ X .                                     !.!.!.!.!.!.!.!.!.!.!.!.!.!.!.",
"!.!.!.!.!.!.!.!.!.!.!.!.!.!.!.          # > , ; ; @ O .                                             !.!.!.!.!.!.!.!.!.!.!.!.!.!.",
"!.!.!.!.!.!.!.!.!.!.!.!.!.            * 7 > ; % X .       . O $ - 5 2 4 = X                             !.!.!.!.!.!.!.!.!.!.!.!.",
"!.!.!.!.!.!.!.!.!.!.!.!.          O 9 7 % ; O ; O @ ; > 7 p k h d a a a s g g u #                         !.!.!.!.!.!.!.!.!.!.!.",
"!.!.!.!.!.!.!.!.!.!.!.        . % r > @ X $ 7 % ; ; z J s > > > > > ; ; ; ; ; , p l #                       !.!.!.!.!.!.!.!.!.!.",
"!.!.!.!.!.!.!.!.!.!.!.      @ % w ; X . t 8 > > m C b B A A V C D W Q W C d a r * @ : a O                   !.!.!.!.!.!.!.!.!.!.",
"!.!.!.!.!.!.!.!.!.!.      % % 9 % . X 0 q > k A S [ ..| ..6.6.8.8.5.6.#.U A s 7 > 7 : @ , y X                 !.!.!.!.!.!.!.!.!.",
"!.!.!.!.!.!.!.!.!.    X ; @ , ; X X > a k C _ =.1.q.u.V.H.P.E.U.U.U.J.n.2.%.&.] M 9 ; ; & @ s O                 !.!.!.!.!.!.!.!.",
"!.!.!.!.!.!.!.!.    @ ; @ % ; X X ; n C A %.0.u.F.T.I.Y.Q.E.T.I.G.F.I.U.J.n.4. .+.~ A 0 % v % c O                 !.!.!.!.!.!.!.",
"!.!.!.!.!.!.!.!.    q > X ; @ . % l A / f.w.S.U.F.J.R.T.h.9.O.^ ~ U T >.H.P.J.g.X.| ( C N 1 7 % g .               !.!.!.!.!.!.!.",
"!.!.!.!.!.!.!.    & v . % % O @ ; A %.g.Z.K.Z.D.J.U.l.w.q.q.0.<.<.8.i.1.O.9.S.P.S.q.D / U N i @ O s                 !.!.!.!.!.!.",
"!.!.!.!.!.!.!.    u @ X ; ; O > d -.f.G.H.v.S.H.H.d.i.R O.-.2.q.<.-.6.2.2.&.L B.H.S.f.^ F W B x ; O 5               !.!.!.!.!.!.",
"!.!.!.!.!.!.      j X @ ; % % > ` m.Z.U.u.m.A.F.j.2.2.q.e.2.<.2.w.c.g.m.S.Z.x.R N.J.L.x.F A W F 1 O < .               !.!.!.!.!.",
"!.!.!.!.!.!.    O g O ; ; % > 9 n.g.J.0.m.H.Z.g.f.g.:.I.U.R.R.R.E.R.P.b.n.g.Z.K.f.V.H.Z.q.A F / / > . 7               !.!.!.!.!.",
"!.!.!.!.!.      % d % 7 ; ; 7 *.m.U.w. .A.S.f.0.3.G.R.I.E.I.l.p.p.L.R.Q.T.Z.n.t.P.Z.J.J.n.,.C Q O.G % O &               !.!.!.!.",
"!.!.!.!.!.      , e > 9 ; > a Z.J.v.X.G.S.n.w.$.U.U.A.>.X.O.1.,.2.4.=.$.Y.R.I.V.0.F.G.I.N.t...C O.1.7   < @             !.!.!.!.",
"!.!.!.!.!.      , 9 r > > 7 #.F.J.2.@.J.m.f.3.I.P.9.} ( Z j k V Y O.0.g.>.z.W.J.m.<.V.T.K.Z.4.Q C 4.H # X 6             !.!.!.!.",
"!.!.!.!.!.      , w e > w q g.H.s.O.S.S.n.c.K.I.>.( N , @ O O @ % r Y 2.s.q.k.Q.A.g.O.v.U.F.$.X.n Y 2.>   % O           !.!.!.!.",
"!.!.!.!.      . > d d 7 a g V.U.O.^ S.m.9.H.S.w.Q d %             O > F 2.f.i.P.E.S.2.O.E.T.%.%.Q 9 | s O   @             !.!.!.",
"!.!.!.!.      X > N N 8 d I J.S.O.} Z.Z.Z.U.Z.E j ;                 X 7 ^ w.g.9.W.V.S.O.$.R.V.( o.a 9 { ;   %             !.!.!.",
"!.!.!.!.      O > F A 7 g @.U.c.+.O.m.S.I.N.g.F 6 .                   @ A 2.n.g.L.R.n.j.,.R.I.W | d % F > . @ .           !.!.!.",
"!.!.!.!.    . @ > ! D w C 7.I.0.&. .m.Z.U.j.<.n %                       f O.g.g.j.W.s.Z.%.T.Y...U n @ 7 k X   X           !.!.!.",
"!.!.!.!.    . % > _ U a Q t.T.<.%.^ Z.S.U.f.<.d @                       r +.w.n.f.E.M.m.2.I.U.<.B N @ ; f %   X           !.!.!.",
"!.!.!.!.    . % 7 D ~ N ) 3.U.2.1.^ S.J.I.u.2.k @                       7 +.w.m.n.P.Z.v.0.G.E.<.B C % % q ;   .           !.!.!.",
"!.!.!.!.  @ . % 9 g | D A ;.P.s.<.q.Z.S.S.g.e.A %                     X r ,.u.m.g.D.L.n.2.I.E.,.B B % % > ;               !.!.!.",
"!.!.!.!.  q   ; q e | ~ k X.P.G. .0.m.n.g.Z.0.^ > .                   % ` 4.B.m.n.F.V.n.2.T.U.;.B N ; % % %               !.!.!.",
"!.!.!.!.  w O ; 6 9 U | k ( N.Y.} 0.n.Z.Z.m.0.2.A ;                 % 7 ,.g.H.m.Z.I.b.g.0.E.U.O.N g ; % @ %               !.!.!.",
"!.!.!.!.  @ 9 % 6 , a ^ F S n.T.0.2.q.Z.C.g.m.0.O.k ; .         . > 8 ' 0.m.J.f.n.I.v.s.n.T.U.-.n h ; @ X O               !.!.!.",
"!.!.!.!.    w % e > 6 N ~ d %.S.I.O.0.g.K.N.t.j.0.%.F a 6 > < q e f *.s.m.H.G.t.A.I.Z.,.U.I.H.| N g % O X X               !.!.!.",
"!.!.!.!.!.  % q > w > 7 ..g U Z.R.v.0.9.Z.I.S.s.g.w.4...W F F U ^ q.g.m.I.U.n.S.S.V.g.w.U.N.Z.~ n p % O X .             !.!.!.!.",
"!.!.!.!.!.    r > d q > e ~ d ;.F.P.s.n.u.J.I.L.J.v.u.0.w.f.g.n.n.w.S.I.U.H.S.I.S.b.,.T.K.w.e.A a q @ O X               !.!.!.!.",
"!.!.!.!.!.    X e 6 C a ; U A C Z.U.J.g.m.3.D.P.F.H.J.F.S.S.v.n.S.I.I.R.F.Z.I.b.m.g.J.I.0.2.| b > 6 @ @ .               !.!.!.!.",
"!.!.!.!.!.      % w a U e > ~ e R J.P.S.m.n.n.$.P.P.J.I.T.P.I.Z.H.T.E.Z.v.J.F.Z.n.Z.I.F.^ i.G m ; > X @ .               !.!.!.!.",
"!.!.!.!.!.!.      ; w e Q a 8 _ e ^ C.U.S.m.j.m.s.>.G.H.J.K.E.E.I.Z.S.r.I.H.S.g.S.I.D.Y Q %.q < > % O O               !.!.!.!.!.",
"!.!.!.!.!.!.        7 w C Q h > W d <.A.U.S.m.g.g.m.Z.b.b.N.N.Z.Z.a.S.K.J.K.f.H.I.J.P F ..Z a O 9 @ O X               !.!.!.!.!.",
"!.!.!.!.!.!.!.      . ; p F Q U q Q d $.Z.T.H.v.S.Z.V.n.n.n.Z.J.H.S.n.Z.H.B.U.P.Z.R k V ~ 6 , X , O @               !.!.!.!.!.!.",
"!.!.!.!.!.!.!.          O a A Q | b F g R 7.Z.U.I.F.b.m.Z.Z.n.y.>.s.P.H.U.U.F.2.~ g Z ~ 7 >   > % O .               !.!.!.!.!.!.",
"!.!.!.!.!.!.!.!.          X 7 N U | ^ A K A O.u.S.I.Y.I.I.J.J.J.T.R.Y.I.H.c.| Q f Z F q ; O O ; O O               !.!.!.!.!.!.!.",
"!.!.!.!.!.!.!.!.          . X ; 7 h ~ X.+.o.Q Q ^ ;.u.v.m.Z.V.Z.L.Z.n.0.~ B C f W F ; @ O   ; X O .               !.!.!.!.!.!.!.",
"!.!.!.!.!.!.!.!.!.          . X % % w b | O.%.%.&.%.%.%.2.2.0.0.2.O.U k k C C Q B % @ @   @ O X X               !.!.!.!.!.!.!.!.",
"!.!.!.!.!.!.!.!.!.!.            . @ @ % u N N Y X.2.7.2.1.%.^ F F F D W F S C a @ @ .   @ @ X X               !.!.!.!.!.!.!.!.!.",
"!.!.!.!.!.!.!.!.!.!.!.            . X O O X X @ < s N C U F D B b C Q W C 8 t @ %   X @ X   X               !.!.!.!.!.!.!.!.!.!.",
"!.!.!.!.!.!.!.!.!.!.!.              . @ ; > < 1 & o O # 2 i J Q ~ ~ n q 7 ; % %   O % .   X                 !.!.!.!.!.!.!.!.!.!.",
"!.!.!.!.!.!.!.!.!.!.!.!.                  X @ 1 u g b k N N d q : % % ; % > . X % O     .                 !.!.!.!.!.!.!.!.!.!.!.",
"!.!.!.!.!.!.!.!.!.!.!.!.!.              O X .         . . X X X @ % % ; & . O ; %     .                 !.!.!.!.!.!.!.!.!.!.!.!.",
"!.!.!.!.!.!.!.!.!.!.!.!.!.!.!.              X % 3 t 0 7 ; : ; % % % @ . O ; ; O                     !.!.!.!.!.!.!.!.!.!.!.!.!.!.",
"!.!.!.!.!.!.!.!.!.!.!.!.!.!.!.!.                                    O ; ; @                       !.!.!.!.!.!.!.!.!.!.!.!.!.!.!.",
"!.!.!.!.!.!.!.!.!.!.!.!.!.!.!.!.!.                              X @ % @ .                       !.!.!.!.!.!.!.!.!.!.!.!.!.!.!.!.",
"!.!.!.!.!.!.!.!.!.!.!.!.!.!.!.!.!.!.!.                      X O O .                         !.!.!.!.!.!.!.!.!.!.!.!.!.!.!.!.!.!.",
"!.!.!.!.!.!.!.!.!.!.!.!.!.!.!.!.!.!.!.!.!.                                              !.!.!.!.!.!.!.!.!.!.!.!.!.!.!.!.!.!.!.!.",
"!.!.!.!.!.!.!.!.!.!.!.!.!.!.!.!.!.!.!.!.!.!.!.                                      !.!.!.!.!.!.!.!.!.!.!.!.!.!.!.!.!.!.!.!.!.!.",
"!.!.!.!.!.!.!.!.!.!.!.!.!.!.!.!.!.!.!.!.!.!.!.!.!.!.!.                      !.!.!.!.!.!.!.!.!.!.!.!.!.!.!.!.!.!.!.!.!.!.!.!.!.!.",
"!.!.!.!.!.!.!.!.!.!.!.!.!.!.!.!.!.!.!.!.!.!.!.!.!.!.!.!.!.!.!.!.!.!.!.!.!.!.!.!.!.!.!.!.!.!.!.!.!.!.!.!.!.!.!.!.!.!.!.!.!.!.!.!.",
"!.!.!.!.!.!.!.!.!.!.!.!.!.!.!.!.!.!.!.!.!.!.!.!.!.!.!.!.!.!.!.!.!.!.!.!.!.!.!.!.!.!.!.!.!.!.!.!.!.!.!.!.!.!.!.!.!.!.!.!.!.!.!.!.",
"!.!.!.!.!.!.!.!.!.!.!.!.!.!.!.!.!.!.!.!.!.!.!.!.!.!.!.!.!.!.!.!.!.!.!.!.!.!.!.!.!.!.!.!.!.!.!.!.!.!.!.!.!.!.!.!.!.!.!.!.!.!.!.!."
};
