/* XPM */
static char *f057ebb8e51343c0f303efcdb87915a0gdPr1HmeddgQG02a[] = {
/* columns rows colors chars-per-pixel */
"64 64 36 1 ",
"  c None",
". c #1E1111",
"X c #1C1414",
"o c #181818",
"O c #191919",
"+ c gray10",
"@ c #1B1B1B",
"# c #1F1818",
"$ c #1E1919",
"% c #1C1A1A",
"& c #1D1A1A",
"* c #281717",
"= c #2F1717",
"- c #201919",
"; c #231919",
": c #251818",
"> c #231C1C",
", c #251C1C",
"< c #281818",
"1 c #2A1D1D",
"2 c #301616",
"3 c #301717",
"4 c #3D1515",
"5 c gray13",
"6 c #352020",
"7 c #3A2121",
"8 c #3C2222",
"9 c #980B0B",
"0 c #941515",
"q c #B10909",
"w c #B30808",
"e c #BE0D0D",
"r c #E10303",
"t c #E80202",
"y c #F40101",
"u c red",
/* pixels */
"                                                                ",
"                                                                ",
"                                                                ",
"                                                                ",
"                                                                ",
"                                                                ",
"                                                                ",
"                                                                ",
"                                                                ",
"                                                                ",
"                                                                ",
"                                                                ",
"                                                                ",
"                                                                ",
"                                                                ",
"                                                                ",
"                                    OO                          ",
"                                    Or                          ",
"           OOOOOOOO                 OOO        OOOOOOO          ",
"   OO3339uuuuuuuuuuuuuuuuuuuuuuuuuuuuuuuuuuuuuuuuuuuuuuuuuO     ",
"  Ouuuuuuuuuuuuuuuuuuuuuuuuuuuuuuuuuuuuuuuuuuuuuuuuuuuuuuuuu    ",
" OOuuuuuuuuuuuuuuu38888.8888888888887=uuuuuue00000uuuuuuuuuOu   ",
" Ouuuuuuuuuuuuuuu<88888.888888886-3uuuu33333uuuuu00000000uuOO   ",
" Ouuuuuuuuuuuuuuu3333333333333uuuuuuu338888833uuuuuuO333u0ut5<  ",
"OOuuuuuuu333333uuuuuuuuuuuuuuuuuuuu388888888883uu00uuuu=3u00uOO ",
"OOuuuuuu38888883uuuuuuuuuuuuuuuuuuu388888888888uuuu000uuu3u00uu ",
"OOuuuuu388888883uuuuuuuuuuuuuuuuuuu3888888888883uuuuuu00u3uu0uu ",
"OOuuuu3888888883uuuuuuuuuuuuuuuuuuu3888888888883uuuuuuuu000uu0uO",
"OOuuuu3888888883uuuuuuuuuuuuuuuuuuu3888888888883uuuuuuuuuuu000uq",
"OOuuu38888888883uuuuuuuuuuuuuuuuuuu3888888888883uuuuuuuuuuuuuuuu",
"OOuuu38888888883uuuuuuuuuuuuuuuuuuu3888888888883uuuuuuuuuuuuuuuu",
"O=uuu38888888883uuuuuuuuuuuuuuuuuuu3888888888883uuuuuuuuuuuuuuuu",
"@#uuu38888888883uuuuuuuuuuuuuuuuuuu3888888888883uuuuuuuuuuuuuuuu",
"+Ouuu38888888883uuuuuuuuuuuuuuuuuuu3888888888883uuuuuuuuuuuuuuuu",
"++uuu38888888883uuuuuuuuuuuuuuuuuuu3888888888883uuuuuuuuuuuuuuuu",
"++uuuu3888888883uuuuuuuuuuuuuuuuuuu3888888888883uuuuuuuuuuu000uO",
"+ouuuu3888888883uuuuuuuuuuuuuuuuuuu3888888888883uuuuuuuu000uu0uO",
"o+uuuuu388888883uuuuuuuuuuuuuuuuuuu3888888888883uuuuuu00uuuuu0u ",
"++uuuuuu38888883uuuuuuuuuuuuuuuuuuu388888888888uuuu000uuuuuu0uq ",
"o+uuuuuuu333333uuuuuuuuuuuuuuuuuuuu388888888883uu00uuuuuu000uOO ",
" +uuuuuuuuuuuuuuu4=-#,1X1,#-33uuuuuuu388888833uuuuuuuu0000ut5O  ",
" +Ouuuuuuuuuuuuuu<88888.888888886-3uuuu33333uuuuu000000uuuuO@   ",
" OOuuuuuuuuuuuuuuu38888.8888888888887=uuuuuue00000uuuuuuuuuOO   ",
"  OOuuuuuuuuuuuuuuuuuuuuuuuuuuuuuuuuuuuuuuuuuuuuuuuuuuuuuuuO    ",
"   OOOOO9uuuuuuuuuuuuuuuuuuuuuuuuuuuuuuuuuuuuuuuuuuuuuuuyOO     ",
"           OOOOOOOO                 OO#        OOOOOOO          ",
"                                    Or                          ",
"                                    OO                          ",
"                                                                ",
"                                                                ",
"                                                                ",
"                                                                ",
"                                                                ",
"                                                                ",
"                                                                ",
"                                                                ",
"                                                                ",
"                                                                ",
"                                                                ",
"                                                                ",
"                                                                ",
"                                                                ",
"                                                                ",
"                                                                "
};
